<?xml version="1.0" encoding="UTF-8" standalone="no"?>
<svg
   xmlns:dc="http://purl.org/dc/elements/1.1/"
   xmlns:cc="http://creativecommons.org/ns#"
   xmlns:rdf="http://www.w3.org/1999/02/22-rdf-syntax-ns#"
   xmlns:svg="http://www.w3.org/2000/svg"
   xmlns="http://www.w3.org/2000/svg"
   xmlns:sodipodi="http://sodipodi.sourceforge.net/DTD/sodipodi-0.dtd"
   xmlns:inkscape="http://www.inkscape.org/namespaces/inkscape"
   width="128"
   height="128"
   viewBox="0 0 128 128"
   version="1.1"
   id="svg4"
   sodipodi:docname="android.svg"
   inkscape:version="0.92.3 (2405546, 2018-03-11)">
  <metadata
     id="metadata10">
    <rdf:RDF>
      <cc:Work
         rdf:about="">
        <dc:format>image/svg+xml</dc:format>
        <dc:type
           rdf:resource="http://purl.org/dc/dcmitype/StillImage" />
        <dc:title></dc:title>
      </cc:Work>
    </rdf:RDF>
  </metadata>
  <defs
     id="defs8" />
  <sodipodi:namedview
     pagecolor="#ffffff"
     bordercolor="#666666"
     borderopacity="1"
     objecttolerance="10"
     gridtolerance="10"
     guidetolerance="10"
     inkscape:pageopacity="0"
     inkscape:pageshadow="2"
     inkscape:window-width="1183"
     inkscape:window-height="738"
     id="namedview6"
     showgrid="false"
     inkscape:zoom="2.8284271"
     inkscape:cx="15.740141"
     inkscape:cy="53.232363"
     inkscape:window-x="67"
     inkscape:window-y="27"
     inkscape:window-maximized="0"
     inkscape:current-layer="svg4" />
  <path
     d="m 49.182695,31.894234 q 1.076919,0 1.850959,-0.774041 0.774039,-0.77404 0.774039,-1.850961 0,-1.076924 -0.774039,-1.850962 -0.77404,-0.774039 -1.850959,-0.774039 -1.076926,0 -1.817311,0.774039 -0.740381,0.774038 -0.740381,1.850962 0,1.076921 0.740381,1.850961 0.740385,0.774041 1.817311,0.774041 z m 28.403842,0 q 1.076924,0 1.817309,-0.774041 0.740385,-0.77404 0.740385,-1.850961 0,-1.076924 -0.740385,-1.850962 -0.740385,-0.774039 -1.817309,-0.774039 -1.07692,0 -1.850961,0.774039 -0.774037,0.774038 -0.774037,1.850962 0,1.076921 0.774037,1.850961 0.774041,0.774041 1.850961,0.774041 z M 22.932693,44.27885 q 2.826924,0 4.846152,2.019229 2.019233,2.01923 2.019233,4.846153 v 28.942307 q 0,2.894232 -1.985577,4.913463 -1.985579,2.01923 -4.879808,2.01923 -2.894229,0 -4.913465,-2.01923 Q 16,82.980771 16,80.086539 V 51.144232 q 0,-2.826923 2.019228,-4.846153 2.019236,-2.019229 4.913465,-2.019229 z m 71.346149,1.278845 v 44.826922 q 0,3.096155 -2.15385,5.25 -2.153829,2.153845 -5.18269,2.153845 h -5.04807 v 15.278848 q 0,2.89422 -2.019232,4.91346 Q 77.855768,120 74.961539,120 q -2.894234,0 -4.913463,-2.01923 -2.01923,-2.01924 -2.01923,-4.91346 V 97.788462 h -9.288462 v 15.278848 q 0,2.89422 -2.01923,4.91346 Q 54.701925,120 51.807693,120 q -2.826924,0 -4.846154,-2.01923 -2.019231,-2.01924 -2.019231,-4.91346 L 44.874998,97.788462 H 39.89423 q -3.096154,0 -5.249999,-2.153845 -2.153846,-2.153845 -2.153846,-5.25 V 45.557695 Z M 78.663461,18.298077 Q 85.865391,22 90.173071,28.629805 q 4.307703,6.629812 4.307703,14.504812 H 32.221156 q 0,-7.875 4.30769,-14.504812 Q 40.83654,22 48.105769,18.298077 L 43.326923,9.4807705 q -0.471153,-0.875002 0.336541,-1.346155 0.874997,-0.4038468 1.346151,0.4038475 l 4.846154,8.884615 q 6.394232,-2.826922 13.528847,-2.826922 7.134613,0 13.528845,2.826922 l 4.846156,-8.884615 q 0.471152,-0.8076943 1.346149,-0.4038475 0.807695,0.471153 0.336541,1.346155 z m 32.105769,32.846155 v 28.942307 q 0,2.894232 -2.01923,4.913463 -2.01924,2.01923 -4.91346,2.01923 -2.82692,0 -4.84615,-2.01923 -2.01924,-2.019231 -2.01924,-4.913463 V 51.144232 q 0,-2.894231 2.01924,-4.879807 2.01923,-1.985575 4.84615,-1.985575 2.89422,0 4.91346,1.985575 2.01923,1.985576 2.01923,4.879807 z"
     id="path2"
     inkscape:connector-curvature="0"
     style="stroke-width:0.06730768" />
</svg>
