<?xml version="1.0" encoding="UTF-8" standalone="no"?>
<!-- Created with Inkscape (http://www.inkscape.org/) -->

<svg
   xmlns:dc="http://purl.org/dc/elements/1.1/"
   xmlns:cc="http://creativecommons.org/ns#"
   xmlns:rdf="http://www.w3.org/1999/02/22-rdf-syntax-ns#"
   xmlns:svg="http://www.w3.org/2000/svg"
   xmlns="http://www.w3.org/2000/svg"
   xmlns:xlink="http://www.w3.org/1999/xlink"
   xmlns:sodipodi="http://sodipodi.sourceforge.net/DTD/sodipodi-0.dtd"
   xmlns:inkscape="http://www.inkscape.org/namespaces/inkscape"
   width="865"
   height="80"
   id="svg3500"
   version="1.1"
   inkscape:version="0.48.0 r9654"
   inkscape:export-filename="/data/dev/cg-static/public/images/riseup-masthead-blue.png"
   inkscape:export-xdpi="90"
   inkscape:export-ydpi="90"
   sodipodi:docname="masthead.svg">
  <defs
     id="defs3502">
    <linearGradient
       id="linearGradient4041">
      <stop
         id="stop4043"
         offset="0"
         style="stop-color:#004188;stop-opacity:1" />
      <stop
         style="stop-color:#568bc3;stop-opacity:1;"
         offset="0.39999995"
         id="stop4045" />
      <stop
         id="stop4047"
         offset="1"
         style="stop-color:#add5ff;stop-opacity:1" />
    </linearGradient>
    <linearGradient
       id="linearGradient4029">
      <stop
         id="stop4031"
         offset="0"
         style="stop-color:#004188;stop-opacity:1" />
      <stop
         style="stop-color:#568bc3;stop-opacity:1;"
         offset="0.50000006"
         id="stop4033" />
      <stop
         id="stop4035"
         offset="1"
         style="stop-color:#add5ff;stop-opacity:1" />
    </linearGradient>
    <linearGradient
       id="linearGradient3853">
      <stop
         style="stop-color:#004188;stop-opacity:1"
         offset="0"
         id="stop3855" />
      <stop
         id="stop4027"
         offset="0.5"
         style="stop-color:#568bc3;stop-opacity:1;" />
      <stop
         style="stop-color:#add5ff;stop-opacity:1"
         offset="1"
         id="stop3857" />
    </linearGradient>
    <clipPath
       clipPathUnits="userSpaceOnUse"
       id="clipPath12012">
      <rect
         style="fill:#494949;fill-opacity:1;stroke:none;display:inline"
         id="rect12014"
         width="1000"
         height="60"
         x="221.81274"
         y="192.86029" />
    </clipPath>
    <linearGradient
       inkscape:collect="always"
       xlink:href="#linearGradient3853"
       id="linearGradient3859"
       x1="418.20316"
       y1="963.83411"
       x2="418.20316"
       y2="1090.575"
       gradientUnits="userSpaceOnUse"
       gradientTransform="matrix(0.96613993,0,0,1,2.020305,129.29952)" />
    <linearGradient
       inkscape:collect="always"
       xlink:href="#linearGradient4041"
       id="linearGradient4039"
       gradientUnits="userSpaceOnUse"
       gradientTransform="matrix(0.96613993,0,0,1,-9.6576237e-8,-2248.9234)"
       x1="418.20316"
       y1="928.29944"
       x2="418.20316"
       y2="1080.5099" />
  </defs>
  <sodipodi:namedview
     id="base"
     pagecolor="#5e9ee3"
     bordercolor="#666666"
     borderopacity="1.0"
     inkscape:pageopacity="1"
     inkscape:pageshadow="2"
     inkscape:zoom="0.98994949"
     inkscape:cx="308.40373"
     inkscape:cy="-59.827734"
     inkscape:document-units="px"
     inkscape:current-layer="layer1"
     showgrid="false"
     showborder="true"
     borderlayer="false"
     inkscape:showpageshadow="false"
     inkscape:window-width="1449"
     inkscape:window-height="860"
     inkscape:window-x="1"
     inkscape:window-y="25"
     inkscape:window-maximized="0"
     inkscape:snap-global="false"
     showguides="true"
     inkscape:guide-bbox="true">
    <sodipodi:guide
       orientation="1,0"
       position="0,20.203051"
       id="guide3071" />
    <sodipodi:guide
       orientation="0,1"
       position="90.408653,0"
       id="guide3073" />
    <sodipodi:guide
       orientation="0,1"
       position="92.681496,80.05459"
       id="guide3075" />
    <sodipodi:guide
       orientation="1,0"
       position="864.69058,145.46197"
       id="guide3077" />
  </sodipodi:namedview>
  <metadata
     id="metadata3505">
    <rdf:RDF>
      <cc:Work
         rdf:about="">
        <dc:format>image/svg+xml</dc:format>
        <dc:type
           rdf:resource="http://purl.org/dc/dcmitype/StillImage" />
        <dc:title />
      </cc:Work>
    </rdf:RDF>
  </metadata>
  <g
     inkscape:label="Layer 1"
     inkscape:groupmode="layer"
     id="layer1"
     transform="translate(0,-972.36218)">
    <rect
       y="1101.6071"
       x="2.0203056"
       height="80.054573"
       width="864.69055"
       id="rect3607"
       style="fill:url(#linearGradient3859);fill-opacity:1;stroke:none;display:inline"
       inkscape:export-xdpi="89.928123"
       inkscape:export-ydpi="89.928123"
       inkscape:export-filename="/data/dev/cg-static/public/images/riseup-masthead-blue-bg.png" />
    <rect
       style="fill:#729fcf;fill-opacity:1;stroke:none;display:inline"
       id="rect2383"
       width="895"
       height="60"
       x="-45.862976"
       y="709.20135" />
    <g
       style="fill:#000000;fill-opacity:1;display:inline"
       mask="none"
       id="g4435"
       transform="translate(-267.67571,516.34105)"
       clip-path="url(#clipPath12012)">
      <path
         style="fill:#000000;fill-opacity:1"
         d="m 210.06634,190.80564 c -2.23238,-3.90907 -2.98994,-4.43505 -5.64098,-3.91654 -2.94794,0.57657 -2.9675,0.5495 -0.52385,-0.72512 2.81587,-1.46876 3.06181,-2.40605 1.4309,-5.45342 -0.83141,-1.55351 -0.6704,-2.23719 0.64584,-2.74227 1.98374,-0.76124 6.10268,1.09037 6.10268,2.74336 0,0.59867 0.81584,1.0885 1.813,1.0885 1.13262,0 1.57387,0.62316 1.17581,1.6605 -0.35047,0.91329 -0.0976,3.20849 0.56196,5.10046 0.89305,2.56177 0.84563,3.86595 -0.18574,5.10867 -2.00607,2.41717 -2.51977,2.14368 -5.37962,-2.86414 z"
         id="path4409"
         inkscape:connector-curvature="0" />
      <path
         style="fill:#000000;fill-opacity:1"
         d="m 184.38628,199.7295 c 2.77023,-3.06106 2.35084,-3.57606 -2.92768,-3.59507 -2.63716,-0.009 -5.49803,-0.46263 -6.3575,-1.00694 -3.09702,-1.96138 2.90201,-3.47793 13.19199,-3.33489 5.56047,0.0773 10.56188,-0.13879 11.11424,-0.48017 0.55237,-0.34139 2.76868,-0.2263 4.92512,0.25576 l 3.92081,0.87646 -3.17598,1.28943 c -1.74679,0.70918 -4.31276,1.28942 -5.70216,1.28942 -1.38938,0 -4.92779,1.52307 -7.86311,3.38459 -6.27479,3.97935 -10.18783,4.705 -7.12573,1.32141 z"
         id="path4405"
         inkscape:connector-curvature="0" />
      <g
         id="g12016"
         style="fill:#2c2c2c;fill-opacity:1">
        <path
           id="path4427"
           d="m 380.48495,222.56711 c 1.17389,-0.94027 2.69696,-1.98175 3.38459,-2.31438 0.82458,-0.39888 0.70634,-0.85011 -0.34726,-1.32532 -0.87864,-0.3963 -3.37444,-2.34897 -5.54623,-4.33927 -3.99608,-3.66212 -4.42038,-7.35035 -0.8456,-7.35035 1.75852,0 11.40645,6.12451 12.5418,7.96154 0.36449,0.58977 1.92084,0.75654 3.45855,0.37059 1.85449,-0.46544 2.6859,-0.25635 2.46931,0.62101 -0.1796,0.72748 2.11529,2.18369 5.09975,3.236 9.57311,3.37546 6.50967,4.5792 -9.37498,3.6838 -2.17178,-0.12242 -5.97944,0.0898 -8.46148,0.4717 -4.16902,0.64139 -4.3502,0.56405 -2.37845,-1.01532 z"
           style="fill:#2c2c2c;fill-opacity:1"
           inkscape:connector-curvature="0" />
        <path
           id="path4423"
           d="m 451.60499,229.25127 3.0259,-2.38017 -4.32464,-4.10696 c -2.37854,-2.25882 -5.28379,-4.64605 -6.4561,-5.30494 -2.74664,-1.54375 -1.34739,-3.8789 2.32428,-3.8789 3.30024,0 11.73452,4.07097 11.73452,5.66391 0,1.9575 2.08205,1.17552 2.78742,-1.0469 0.65479,-2.06306 3.78273,-4.06391 4.78551,-3.06113 0.26443,0.26443 -0.0197,1.41868 -0.63147,2.56499 -0.61174,1.14632 -1.69577,3.66633 -2.40896,5.60002 -1.24565,3.37738 -2.42518,4.26534 -9.38041,7.06159 -4.55012,1.8293 -4.87723,1.57959 -1.45605,-1.11151 z"
           style="fill:#2c2c2c;fill-opacity:1"
           inkscape:connector-curvature="0" />
        <path
           id="path4415"
           d="m 364.25575,210.28556 c -3.83079,-5.05376 -10.63113,-11.94007 -11.79103,-11.94007 -0.77575,0 -2.04247,0.76153 -2.81494,1.69229 -1.57799,1.90138 -5.15919,2.25637 -6.17538,0.61215 -0.36716,-0.59408 0.98785,-1.9362 3.01114,-2.98249 3.67174,-1.89872 3.67363,-1.9042 1.00129,-2.89277 -3.73276,-1.38083 -2.78843,-1.8791 7.17378,-3.78519 11.08719,-2.12132 11.52428,-2.10122 9.23802,0.42507 -1.73343,1.91541 -1.74134,2.22267 -0.0924,3.59116 4.12683,3.42497 7.73834,14.62174 4.71622,14.62174 -0.52508,0 -0.69322,0.42308 -0.37364,0.94016 0.86748,1.40363 -2.8177,1.13664 -3.89306,-0.28205 z"
           style="fill:#313131;fill-opacity:1"
           inkscape:connector-curvature="0" />
        <path
           id="path4411"
           d="m 709.05617,253.56991 c -0.37491,-0.6066 -2.2219,-1.41096 -4.10441,-1.78746 -1.88252,-0.37652 -6.2183,-2.47284 -9.63506,-4.65852 -3.41676,-2.18567 -6.73067,-3.97395 -7.36426,-3.97395 -0.63358,0 -2.59651,1.06799 -4.36205,2.37331 -3.9105,2.89117 -7.4644,2.09303 -8.46697,-1.90152 -1.02251,-4.07398 -0.006,-4.98457 5.56334,-4.98457 4.77553,0 7.38257,-1.39549 5.16616,-2.76531 -1.24573,-0.76991 -8.01897,-14.78088 -8.59738,-17.78435 -0.31877,-1.65525 -0.008,-1.82085 1.7017,-0.90599 1.79409,0.96017 2.04899,0.7296 1.79104,-1.62021 l -0.30075,-2.73969 4.02483,3.03606 c 5.84615,4.40992 10.22456,9.28724 12.09383,13.47187 1.46822,3.28682 2.12417,3.66664 6.33219,3.66664 l 4.69431,0 -2.49234,2.65297 -2.49234,2.65298 6.24436,4.8175 c 6.93826,5.35283 8.50967,9.66103 3.26797,8.95953 -0.396,-0.053 -1.09407,0.50889 -1.55127,1.24864 -0.50995,0.82512 -1.09474,0.91869 -1.5129,0.24207 z"
           style="fill:#0d0d0d;fill-opacity:1"
           inkscape:connector-curvature="0" />
        <path
           id="path4407"
           d="m 330.74157,214.68314 c -3.54175,-1.46807 -4.77303,-1.53457 -6.93997,-0.37487 -4.49093,2.40348 -6.08217,0.61399 -1.79198,-2.01521 3.02933,-1.85648 3.48708,-2.53392 2.07764,-3.07477 -2.16936,-0.83246 -4.78962,-6.67654 -3.74867,-8.36082 1.45679,-2.35713 5.81071,-1.21269 8.32517,2.18829 1.69366,2.29079 3.47584,3.38459 5.51469,3.38459 2.35254,0 2.7141,0.29825 1.65071,1.36164 -1.06339,1.0634 -0.68036,1.92246 1.7487,3.92202 2.62661,2.16218 2.84715,2.73731 1.41806,3.69797 -2.20729,1.48377 -3.1083,1.40422 -8.25435,-0.72884 z"
           style="fill:#2c2c2c;fill-opacity:1"
           inkscape:connector-curvature="0" />
        <path
           id="path4401"
           d="m 776.3112,257.02573 c 0,-0.84915 3.35885,-2.75174 7.46413,-4.22796 4.10527,-1.47624 9.09743,-3.9401 11.09367,-5.47524 l 3.6296,-2.79114 -3.4036,-0.034 c -1.9388,-0.0194 -5.56042,-2.41869 -8.41585,-5.57554 -8.80361,-9.73294 -12.57838,-13.12716 -16.10606,-14.48239 -1.89359,-0.72745 -3.44287,-2.07466 -3.44287,-2.9938 0,-1.01707 1.34751,-1.26939 3.44287,-0.64468 3.39368,1.01179 3.39914,0.99126 0.38254,-1.43597 -2.93898,-2.36478 -2.89347,-2.4029 1.14762,-0.96121 2.31437,0.82566 4.20795,0.92367 4.20795,0.2178 0,-2.07336 14.45132,1.15356 24.0429,5.36866 4.8706,2.14044 10.2941,5.67185 12.0523,7.8476 l 3.1966,3.95588 7.5145,-3.59795 c 4.133,-1.97887 8.6787,-4.90657 10.1016,-6.50599 3.0477,-3.42556 7.8724,-2.97271 8.6003,0.80725 0.3254,1.68938 -0.8626,3.1782 -3.2648,4.09149 -2.0769,0.78966 -4.0206,1.99666 -4.3193,2.68226 -0.833,1.91226 -16.8908,15.05231 -21.1523,17.30891 -3.3367,1.76689 -17.0688,4.87811 -31.79878,7.2045 -2.84368,0.44913 -4.97302,0.12441 -4.97302,-0.75846 l 0,-5e-5 z"
           style="fill:#111111;fill-opacity:1"
           inkscape:connector-curvature="0" />
        <path
           id="path4395"
           d="m 537.44057,226.4656 c 3.24331,-1.75508 3.27211,-1.84155 0.90522,-2.71712 -1.34458,-0.49738 -3.23021,-2.42336 -4.19028,-4.27994 -0.96007,-1.85658 -3.27125,-4.27683 -5.13596,-5.37834 -3.43741,-2.03053 -4.55815,-4.00619 -1.98012,-3.49059 0.77564,0.15513 1.27075,-0.39029 1.10024,-1.21205 -0.17049,-0.82176 0.21865,-1.16739 0.86477,-0.76807 0.64611,0.39933 2.46023,0.95915 4.03136,1.24404 1.57112,0.28491 5.24349,2.0062 8.16081,3.82509 l 5.30421,3.30707 0.70224,-3.33211 c 0.38622,-1.83266 1.34747,-4.10958 2.1361,-5.05981 1.2834,-1.54641 1.6509,-1.53131 3.5019,0.14382 1.13741,1.02934 1.81163,2.28639 1.49827,2.79343 -0.31337,0.50704 -0.63777,2.73089 -0.7209,4.94187 -0.10966,2.9175 -1.19864,5.09858 -3.97072,7.9529 -3.41557,3.5169 -4.44039,3.92813 -9.68833,3.88774 l -5.86872,-0.0451 3.34991,-1.81277 0,-4e-5 z"
           style="fill:#2c2c2c;fill-opacity:1"
           inkscape:connector-curvature="0" />
        <path
           id="path4389"
           d="m 771.94049,248.57878 c -0.0148,-1.68727 -0.17629,-1.72828 -1.11093,-0.28205 -0.87985,1.36148 -1.09702,1.18305 -1.11092,-0.91273 -0.009,-1.43277 -0.39804,-2.36982 -0.86342,-2.08236 -0.46538,0.28746 -0.95813,-2.07983 -1.09502,-5.26063 -0.24741,-5.74964 -2.14017,-12.05181 -3.61957,-12.05181 -0.42581,0 -1.61544,1.90383 -2.64361,4.23073 -1.73843,3.93432 -13.74207,17.205 -15.56232,17.205 -1.62258,0 -2.14216,-3.60735 -0.86489,-6.00476 1.14586,-2.15079 1.09329,-2.27898 -0.42222,-1.02943 -1.45361,1.19849 -1.39643,0.38475 0.35675,-5.07689 1.1483,-3.57729 2.64087,-7.44205 3.31683,-8.58837 1.63905,-2.77958 0.88221,-3.29336 -2.793,-1.89605 -5.69343,2.16464 -5.75333,1.04321 -0.083,-1.55467 3.10254,-1.42146 7.80658,-4.40483 10.45342,-6.62972 4.9865,-4.19155 15.31137,-8.70698 19.90919,-8.70698 4.08813,0 9.68838,1.3151 9.68838,2.27511 0,0.47568 -1.26922,1.18342 -2.82049,1.57276 -3.16026,0.79318 -3.68695,2.3474 -1.1282,3.32929 1.35602,0.52035 1.69229,3.0103 1.69229,12.53087 0,7.16884 -0.44748,11.88146 -1.12819,11.88146 -0.62051,0 -1.1282,1.52307 -1.1282,3.38459 0,3.40852 -1.58111,4.59214 -2.63741,1.97435 -0.31297,-0.77564 -0.60912,-0.26795 -0.65811,1.12819 -0.10537,3.00307 -1.95733,3.39057 -2.69596,0.5641 -0.49138,-1.88033 -0.52218,-1.88033 -0.64683,0 -0.072,1.08589 -0.63856,1.97435 -1.25906,1.97435 -0.62051,0 -1.13597,-0.88846 -1.14547,-1.97435 z"
           style="fill:#2e2e2e;fill-opacity:1"
           inkscape:connector-curvature="0" />
        <path
           id="path4387"
           d="m 749.73863,259.85548 c 0,-0.65713 -0.47113,-0.9036 -1.04696,-0.54772 -0.57584,0.35589 -1.36713,-0.36163 -1.75842,-1.59448 -0.39129,-1.23284 -3.84142,-5.02965 -7.66696,-8.43734 -6.8084,-6.06472 -7.00389,-6.15246 -9.24151,-4.14774 -3.66266,3.28142 -4.91904,3.6916 -7.33954,2.39618 -3.20012,-1.71264 -2.84884,-3.04482 1.37946,-5.23135 3.3383,-1.7263 3.46197,-1.96922 1.41024,-2.77016 -1.23691,-0.48287 -4.26154,-0.91363 -6.72142,-0.95723 -3.87868,-0.0688 -4.25315,-0.29054 -2.82049,-1.67026 1.98838,-1.9149 13.43769,-5.16116 19.70315,-5.58651 2.48203,-0.16849 5.47722,-0.73672 6.656,-1.26273 1.91386,-0.85404 2.05592,-0.60864 1.32759,2.29327 -0.68785,2.74061 -0.28637,3.69749 2.56299,6.10853 3.97199,3.361 11.53063,17.70334 10.60339,20.11969 -0.53278,1.38839 -0.91648,1.31032 -2.26876,-0.46162 -1.52517,-1.99849 -1.57449,-1.95579 -0.78402,0.67901 0.7853,2.61757 0.70052,2.69545 -1.22807,1.1282 -1.20153,-0.97641 -1.71576,-1.09115 -1.22435,-0.2732 0.46599,0.77563 0.3096,1.41024 -0.34753,1.41024 -0.65713,0 -1.19479,-0.53765 -1.19479,-1.19478 z"
           style="fill:#2c2c2c;fill-opacity:1"
           inkscape:connector-curvature="0" />
        <path
           id="path4383"
           d="m 836.3486,249.8139 c -3.8261,-1.4459 -7.2702,-7.65587 -6.0335,-10.87875 0.4428,-1.15389 4.8021,-2.98111 9.6874,-4.06048 12.1644,-2.68771 14.0366,-3.82737 9.9126,-6.03444 -1.7876,-0.95676 -4.1171,-3.36756 -5.1764,-5.35736 -1.0593,-1.9898 -5.8443,-7.77917 -10.6333,-12.86528 -5.8418,-6.20413 -7.8695,-9.24747 -6.1616,-9.24747 2.2099,0 2.157,-0.31069 -0.401,-2.35567 -2.835,-2.26636 -2.8028,-2.32031 0.8483,-1.42292 l 3.7952,0.93282 -3.7952,-3.09752 c -4.0235,-3.28391 -3.2104,-4.17761 1.5049,-1.65406 1.6425,0.87907 4.2532,0.98196 6.2426,0.24604 2.6418,-0.97728 6.3783,0.27236 16.4321,5.49559 14.8858,7.73366 18.326,10.37095 18.326,14.04954 0,3.96592 3.7342,6.28641 8.2805,5.1454 3.4288,-0.86056 9.7857,0.45772 23.5887,4.89165 1.7628,0.56631 1.4252,1.39334 -1.5181,3.71847 -7.2066,5.69288 -12.4818,7.68674 -21.1677,8.00065 -5.2057,0.18814 -10.3263,1.3648 -12.6958,2.91735 -2.1841,1.43111 -5.942,2.60204 -8.3509,2.60204 -2.409,0 -7.0441,1.91606 -10.3003,4.25793 -8.4714,6.09257 -8.6068,6.14413 -12.3845,4.71647 z"
           style="fill:#2c2c2c;fill-opacity:1"
           inkscape:connector-curvature="0" />
        <path
           id="path4379"
           d="m 801.93185,221.2773 c 0,-0.22241 2.79228,-2.25835 6.20508,-4.52431 6.39976,-4.2492 7.76009,-6.35329 4.10752,-6.35329 -1.94061,0 -11.39223,-7.36756 -14.46763,-11.27756 -1.06457,-1.35349 -0.96315,-1.77903 0.5014,-2.10372 1.48874,-0.33004 1.36184,-0.66073 -0.67104,-1.7487 -2.37264,-1.2698 -2.29372,-1.35421 1.47295,-1.57538 8.80783,-0.51719 8.6328,-0.43801 6.47442,-2.92904 -1.92214,-2.21839 -1.91591,-2.21839 1.45418,-8e-4 1.86152,1.22493 5.71135,3.34495 8.55516,4.71116 2.84381,1.36621 6.09554,3.50612 7.22609,4.75535 1.13053,1.24923 2.69679,2.27131 3.48057,2.27131 0.78378,0 4.05397,-2.64277 7.26705,-5.87282 6.9016,-6.93795 9.0093,-7.66456 9.0093,-3.10585 0,2.58731 -0.7911,3.60724 -3.9669,5.11424 -4.678,2.21989 -6.0074,3.85753 -3.1509,3.88171 1.1225,0.009 2.7933,0.49303 3.713,1.07451 1.2831,0.81138 0.1025,1.74752 -5.0769,4.02553 -3.71193,1.63256 -7.76431,3.89592 -9.00533,5.02969 -1.24101,1.13377 -4.4498,2.64367 -7.13062,3.35534 -2.68082,0.71167 -6.48848,2.27822 -8.46147,3.48124 -3.1373,1.91297 -7.53593,2.95857 -7.53593,1.79139 z"
           style="fill:#222222;fill-opacity:1"
           inkscape:connector-curvature="0" />
        <path
           id="path4377"
           d="m 577.31214,253.23967 c 0.003,-0.46538 1.52699,-1.71098 3.38459,-2.76801 3.53741,-2.0129 4.49258,-4.28321 1.80203,-4.28321 -0.86648,0 -3.06649,-1.69824 -4.88892,-3.77388 -1.82244,-2.07563 -4.92115,-4.72353 -6.88605,-5.88423 -3.83391,-2.26474 -4.61674,-3.88025 -1.88025,-3.88025 0.93076,0 1.69229,-0.45422 1.69229,-1.00939 0,-2.28796 16.24573,3.6797 18.97735,6.97108 1.31745,1.58743 1.77736,1.57507 4.76055,-0.12791 2.18368,-1.24657 3.10437,-2.51358 2.71812,-3.74056 -0.32125,-1.0205 0.0677,-2.54356 0.86445,-3.38459 0.7967,-0.84101 1.44854,-2.24835 1.44854,-3.1274 0,-2.82814 2.74695,-2.61798 4.08207,0.3123 1.14041,2.5029 0.86328,3.38375 -2.335,7.4219 -3.08811,3.89906 -3.32059,4.58884 -1.55983,4.62821 3.19316,0.0714 -6.8499,8.65435 -11.24574,9.61078 -1.98443,0.43177 -4.60948,1.48169 -5.83343,2.33317 -2.41876,1.68267 -5.11217,2.05335 -5.10077,0.70199 z"
           style="fill:#2c2c2c;fill-opacity:1"
           inkscape:connector-curvature="0" />
        <path
           id="path4365"
           d="m 708.07662,230.17531 c 0,-0.61049 1.1423,-1.69898 2.53845,-2.41886 3.0502,-1.57275 7.61532,-5.61449 7.61532,-6.74225 0,-0.44507 -1.24778,-1.1224 -2.77286,-1.50517 -1.54102,-0.38677 -4.32373,-2.95008 -6.2639,-5.77003 -3.87477,-5.63178 -5.24993,-5.78047 -13.80921,-1.49301 -2.32691,1.16559 -4.23074,1.60123 -4.23074,0.96811 0,-0.63312 0.49002,-1.15112 1.08893,-1.15112 0.59893,0 2.84323,-1.54029 4.98735,-3.42285 l 3.89841,-3.42285 -2.4489,-2.59568 c -1.3469,-1.42763 -3.90144,-4.41831 -5.67676,-6.64596 -1.77531,-2.22765 -4.65805,-4.64267 -6.40606,-5.36673 -3.0161,-1.24931 -5.49289,-4.49445 -3.4303,-4.49445 0.53209,0 0.89693,-0.87058 0.81075,-1.93463 -0.13245,-1.63522 0.82984,-1.9089 6.21786,-1.76835 6.27185,0.1636 15.73452,3.83182 20.34424,7.88647 1.69567,1.4915 2.05605,1.41751 3.37391,-0.69272 0.8115,-1.29942 2.39868,-2.36257 3.52705,-2.36257 1.12837,0 1.78315,-0.43436 1.45506,-0.96522 -0.32811,-0.53087 0.65732,-0.72553 2.1898,-0.43259 3.26288,0.62375 3.38643,1.16721 1.03009,4.53136 -0.96595,1.37908 -1.44116,2.50743 -1.05601,2.50743 0.38514,0 -0.42452,2.00127 -1.79926,4.44728 l -2.49951,4.44729 5.24782,5.1003 c 2.88629,2.80516 5.24781,5.57579 5.24781,6.15697 0,0.58118 2.2846,1.36164 5.07689,1.73438 2.79228,0.37274 7.36148,0.98267 10.15376,1.3554 2.79229,0.37274 5.07689,1.05392 5.07689,1.51373 0,1.04746 -7.85464,3.44957 -11.2797,3.44957 -1.40604,0 -4.2485,1.04576 -6.3166,2.32391 -2.0681,1.27816 -5.11563,2.56971 -6.77229,2.87012 -1.65666,0.30041 -4.33986,1.21416 -5.96266,2.03054 -4.31695,2.17174 -9.15563,3.15588 -9.15563,1.86218 z"
           style="fill:#2c2c2c;fill-opacity:1"
           inkscape:connector-curvature="0" />
        <path
           id="path4361"
           d="m 634.25891,220.60696 c 5.48865,-5.19094 6.45288,-6.77587 4.12223,-6.77587 -0.70994,0 -5.39684,-2.74534 -10.41533,-6.10076 -5.0185,-3.35542 -9.98357,-6.43041 -11.0335,-6.83331 -1.47489,-0.56597 -1.61487,-0.9143 -0.61557,-1.5319 1.07338,-0.66338 1.06876,-0.87495 -0.0271,-1.24379 -0.7263,-0.24444 0.39303,-0.76767 2.4874,-1.16276 2.81772,-0.53154 3.4475,-0.94993 2.42185,-1.60897 -1.7757,-1.14097 2.87063,-0.37804 13.14504,2.15843 5.70632,1.40874 8.55281,2.68723 10.79467,4.84838 2.57118,2.47861 3.35577,2.76868 5.04441,1.86495 1.0998,-0.58861 2.40029,-1.78608 2.88996,-2.66109 1.15144,-2.05755 4.03635,-1.00187 4.03635,1.47706 0,1.73296 0.5792,1.82456 8.438,1.33425 l 8.43801,-0.52642 -3.35211,2.8668 c -2.31979,1.98393 -5.59669,3.38192 -10.64055,4.53951 -4.30515,0.98804 -8.46862,2.63709 -10.17178,4.02881 -1.58585,1.29586 -3.38703,2.37178 -4.00263,2.39094 -0.6156,0.0191 -2.9455,1.5606 -5.17755,3.42543 -2.23204,1.86483 -4.77991,3.39654 -5.66191,3.40382 -0.88201,0.008 -2.62273,0.28609 -3.86828,0.61958 -1.67133,0.44749 -0.84649,-0.73489 3.14841,-4.51309 z"
           style="fill:#333333;fill-opacity:1"
           inkscape:connector-curvature="0" />
        <path
           id="path4359"
           d="m 748.93719,212.49226 c 1.18165,-0.73914 3.8976,-2.83704 6.03544,-4.662 3.66605,-3.1295 3.75476,-3.36702 1.56072,-4.17865 -2.57544,-0.95271 -9.9849,-14.50308 -7.93042,-14.50308 0.89522,0 0.85193,-0.51889 -0.14334,-1.71811 -1.21073,-1.45886 -1.10389,-1.59724 0.70801,-0.91697 1.95031,0.73222 1.9883,0.62148 0.44162,-1.28708 -1.60438,-1.97977 -1.54578,-2.01044 1.1282,-0.59062 2.5831,1.37156 2.69017,1.33963 1.27211,-0.37939 -0.85162,-1.03236 -1.0407,-1.877 -0.4202,-1.877 0.62051,0 1.74674,0.74529 2.50275,1.65622 0.75599,0.91092 1.70661,1.59185 2.11248,1.51318 2.78244,-0.53934 12.584,7.22855 12.584,9.97301 0,1.0244 1.64355,1.2733 5.92303,0.89698 3.25767,-0.28647 5.28842,-0.22024 4.51279,0.14717 -2.52609,1.19659 -1.48455,3.01363 1.41024,2.46026 1.55127,-0.29655 2.8205,-0.20306 2.8205,0.20775 0,1.13445 -9.9151,5.70935 -12.37376,5.70935 -1.1878,0 -2.45282,0.4744 -2.81117,1.0542 -0.35834,0.57982 -3.36461,1.84292 -6.6806,2.80691 -3.316,0.96399 -7.49504,2.51722 -9.28677,3.45163 -3.83593,2.00049 -6.48314,2.18631 -3.36563,0.23624 z"
           style="fill:#2c2c2c;fill-opacity:1"
           inkscape:connector-curvature="0" />
        <path
           id="path4357"
           d="m 411.9297,211.77227 c -1.20351,-0.88002 -1.93516,-1.79522 -1.62587,-2.03375 0.30927,-0.23854 1.95845,-1.30713 3.66485,-2.37464 3.3081,-2.06954 4.09494,-4.14532 1.57132,-4.14532 -0.84218,0 -6.55367,-2.49052 -12.69221,-5.53447 -11.11372,-5.51103 -11.14767,-5.54054 -8.01889,-6.96829 3.72032,-1.69769 15.13911,0.0965 23.02132,3.61712 3.63879,1.62531 5.40968,1.85237 7.68877,0.98587 4.22656,-1.60693 5.07059,-1.41875 5.07059,1.13059 0,1.8523 0.75767,2.25937 4.23073,2.27301 5.88054,0.0231 17.7691,3.88975 17.7691,5.77927 0,1.20499 -2.8052,1.55087 -12.97426,1.59973 -17.24756,0.0829 -16.86593,0.001 -18.22019,3.88635 -0.9197,2.63822 -1.85436,3.38459 -4.23847,3.38459 -1.68223,0 -4.04328,-0.72003 -5.24679,-1.60006 z"
           style="fill:#202020;fill-opacity:1"
           inkscape:connector-curvature="0" />
        <path
           id="path4355"
           d="m 652.5892,257.18232 c -0.11091,-4.4895 -0.11982,-4.49824 -1.72383,-1.6923 -1.52656,2.67044 -1.61446,2.69205 -1.65231,0.40616 -0.0566,-3.41751 -9.89563,-16.50812 -11.63609,-15.48154 -0.75799,0.44709 -4.48059,3.51426 -8.27245,6.81594 -3.79187,3.30167 -7.3203,6.00305 -7.84097,6.00305 -0.52067,0 -0.33744,-0.60923 0.40717,-1.35384 1.84258,-1.84258 1.70154,-3.15895 -0.33846,-3.15895 -2.60037,0 -2.01165,-1.70419 1.1785,-3.41152 1.57895,-0.84501 3.61442,-3.08848 4.52327,-4.98547 3.807,-7.94606 20.15949,-22.06431 25.55605,-22.06431 l 3.30582,0 -2.52289,3.54308 c -2.44005,3.42672 -2.45401,3.59345 -0.4253,5.07688 1.15368,0.84359 2.44025,1.53381 2.85905,1.53381 1.23881,0 6.78872,16.23426 7.29718,21.34523 0.25772,2.59059 0.76749,5.19382 1.13282,5.78492 0.36532,0.59112 0.36407,1.07476 -0.002,1.07476 -0.36687,0 -1.12618,-1.1423 -1.68736,-2.53844 -0.87377,-2.17382 -1.03791,-1.89022 -1.14273,1.97434 l -0.1224,4.51279 -1.54978,-3.38459 -1.54977,-3.38459 -0.0916,3.03595 c -0.0504,1.66978 -0.6793,3.39916 -1.39754,3.84306 -0.89476,0.55299 -1.10562,0.0412 -0.66972,-1.62571 0.84269,-3.22249 -1.1989,-3.1363 -2.502,0.1056 -0.87272,2.17121 -1.03645,1.8856 -1.13182,-1.97435 l -5.7e-4,4e-5 z"
           style="fill:#2c2c2c;fill-opacity:1"
           inkscape:connector-curvature="0" />
        <path
           id="path4353"
           d="m 497.9271,219.45162 c 5.71924,-2.70346 6.01261,-3.02245 3.74695,-4.07425 -1.35198,-0.62763 -3.02216,-2.50278 -3.7115,-4.167 -0.68935,-1.66424 -2.43669,-4.30204 -3.88297,-5.8618 -2.29264,-2.47251 -2.43391,-3.10353 -1.10245,-4.9244 1.20845,-1.65265 1.24089,-2.46099 0.15547,-3.87337 -0.82148,-1.0689 -0.36125,-0.92275 1.1473,0.36435 1.38545,1.18205 2.51901,1.80022 2.51901,1.37369 0,-0.42653 2.71149,1.2717 6.02555,3.77383 3.31405,2.50213 6.36429,4.54934 6.77831,4.54934 0.41402,0 1.56399,-2.02746 2.55549,-4.50548 0.99151,-2.478 2.21325,-4.25175 2.715,-3.94166 0.50175,0.3101 1.12691,-0.074 1.38926,-0.85345 0.37367,-1.11027 0.8833,-1.08188 2.35275,0.1311 2.28586,1.88691 2.39056,5.33563 0.28454,9.37228 -1.37633,2.63803 -1.35775,3.10755 0.14579,3.68451 3.42113,1.31281 -8.01638,8.494 -16.33674,10.25722 -10.84305,2.29782 -11.83235,2.02786 -4.78176,-1.30491 z"
           style="fill:#171717;fill-opacity:1"
           inkscape:connector-curvature="0" />
        <path
           id="path4351"
           d="m 603.61401,222.74734 c -2.94644,-3.74579 -5.58075,-5.21914 -13.1835,-7.37341 -7.11536,-2.01616 -8.22694,-1.75457 -12.56232,2.95641 -3.40825,3.70351 -7.47024,4.98533 -8.82937,2.78622 -0.35926,-0.58131 1.38768,-2.69704 3.88211,-4.7016 2.49442,-2.00458 4.53532,-3.94683 4.53532,-4.3161 0,-1.2928 -14.12698,-4.61177 -16.6409,-3.9096 -2.81777,0.78706 -3.08994,0.19981 -1.38439,-2.98703 1.53488,-2.86796 4.30439,-4.24501 13.86703,-6.89495 6.5732,-1.82153 8.46348,-1.97089 10.58353,-0.83628 1.98491,1.06229 3.24692,1.07792 5.46424,0.0677 3.98947,-1.81773 9.34473,-1.78912 7.51547,0.0402 -2.25442,2.25442 -1.5361,4.28715 1.51498,4.28715 2.89864,0 14.05413,9.23098 14.05413,11.62956 0,0.64186 0.85999,2.11731 1.91108,3.27875 1.80303,1.99232 1.7956,2.06742 -0.13124,1.32801 -1.84235,-0.70697 -1.90092,-0.51839 -0.59818,1.9258 1.35651,2.54509 1.32037,2.60735 -0.5956,1.02606 -1.89134,-1.56097 -1.9826,-1.4789 -1.25449,1.1282 0.75433,2.70089 0.71629,2.72537 -0.96545,0.62167 -1.70236,-2.12949 -1.75119,-2.11391 -1.76799,0.56409 -0.0124,1.98455 -0.28953,2.32436 -0.99162,1.21618 -0.76464,-1.20689 -1.07729,-1.22914 -1.45256,-0.10335 -0.30521,0.91566 -1.37965,0.28856 -2.97028,-1.73361 l 0,-3e-5 z"
           style="fill:#2c2c2c;fill-opacity:1"
           inkscape:connector-curvature="0" />
        <path
           id="path4347"
           d="m 472.50298,207.29235 c -1.73296,-1.73294 -0.50497,-3.91502 3.19655,-5.68015 3.4585,-1.64924 5.49402,-4.84968 3.08447,-4.84968 -0.47533,0 -2.60555,-2.66536 -4.73381,-5.92303 -2.12828,-3.25767 -5.03935,-6.84833 -6.46906,-7.97926 -4.0574,-3.20948 -3.13421,-4.14885 4.07744,-4.14885 8.69355,0 9.67645,0.45788 13.77714,6.41802 2.94382,4.2787 3.97729,4.99011 7.01203,4.82683 1.95763,-0.10538 4.82855,-0.12391 6.37982,-0.0413 2.5906,0.13795 2.65956,0.27235 0.84614,1.64893 -2.48917,1.88956 -2.51565,2.94229 -0.074,2.94229 1.04518,0 4.86531,0.83193 8.48916,1.84873 6.47406,1.81653 6.54448,1.8798 4.04271,3.63209 -1.94454,1.36202 -5.53211,1.79154 -15.18428,1.81791 -12.22836,0.0334 -12.74318,0.13515 -15.8765,3.13709 -3.07046,2.94171 -6.92035,3.99785 -8.5678,2.3504 l 0,-2e-5 z"
           style="fill:#2c2c2c;fill-opacity:1"
           inkscape:connector-curvature="0" />
        <path
           style="fill:#1d1d1d;fill-opacity:1"
           d="m 889.05211,260.77247 c -3.52044,-3.52039 -1.02583,-7.9532 6.49366,-11.53899 7.02581,-3.35037 11.16088,-9.85193 6.26598,-9.85193 -0.96561,0 -5.29307,-5.41457 -9.61655,-12.0324 -4.32351,-6.61783 -10.23723,-13.91211 -13.14163,-16.20955 -8.24245,-6.51993 -6.36702,-8.42822 8.28315,-8.42822 17.6606,0 19.65732,0.93016 27.98771,13.03795 5.98025,8.69201 8.07971,10.13721 14.24466,9.80551 3.97685,-0.21407 9.80901,-0.25172 12.96035,-0.0839 5.2627,0.28024 5.40279,0.55327 1.7189,3.34974 -5.05665,3.83856 -5.11044,5.97714 -0.15033,5.97714 2.12324,0 9.88368,1.69003 17.24539,3.75562 13.1518,3.69021 13.2948,3.81874 8.2126,7.37845 -3.95025,2.76689 -11.23826,3.63944 -30.84625,3.69301 -24.84143,0.0678 -25.88726,0.27455 -32.25248,6.37287 -6.23751,5.97597 -14.05841,8.12147 -17.40514,4.77475 l 0,-5e-5 z"
           id="path11891"
           inkscape:connector-curvature="0" />
        <path
           style="fill:#2c2c2c;fill-opacity:1"
           d="m 913.75569,218.11538 c 10.48204,-4.95482 11.01972,-5.53946 6.86729,-7.46716 -2.47786,-1.1503 -5.53892,-4.58702 -6.80232,-7.63715 -1.26342,-3.05017 -4.46589,-7.88464 -7.11658,-10.74332 -4.20188,-4.53154 -4.4608,-5.68806 -2.02054,-9.02529 2.21481,-3.02893 2.27426,-4.51043 0.28494,-7.09899 -1.50558,-1.95905 -0.66209,-1.69119 2.10274,0.66777 2.53921,2.16642 4.61676,3.29938 4.61676,2.51765 0,-0.78173 4.96953,2.33074 11.04344,6.91656 6.07389,4.58583 11.66427,8.33789 12.42307,8.33789 0.75881,0 2.86644,-3.71587 4.68363,-8.2575 1.8172,-4.5416 4.05637,-7.79248 4.97596,-7.22416 0.9196,0.56835 2.06537,-0.13562 2.5462,-1.56417 0.68485,-2.03487 1.61888,-1.98284 4.31204,0.24027 4.18946,3.45827 4.38135,9.77898 0.5215,17.17723 -2.5225,4.8349 -2.48844,5.69542 0.2672,6.75285 6.27014,2.40608 -14.69217,15.56754 -29.94147,18.79911 -19.8728,4.21138 -21.68596,3.7166 -8.76386,-2.39159 z"
           id="path11893"
           inkscape:connector-curvature="0" />
        <path
           style="fill:#2c2c2c;fill-opacity:1"
           d="m 995.44838,258.63623 c -0.0252,-2.86875 -0.29973,-2.93847 -1.88884,-0.47955 -1.49595,2.31483 -1.86518,2.01146 -1.88882,-1.55185 -0.0153,-2.43604 -0.67676,-4.02924 -1.46801,-3.54049 -0.79126,0.48874 -1.62904,-3.5362 -1.86179,-8.94429 -0.42065,-9.77572 -3.63878,-20.49087 -6.15411,-20.49087 -0.72397,0 -2.74662,3.23695 -4.49475,7.19322 -2.95573,6.68925 -23.3647,29.25248 -26.45954,29.25248 -2.75877,0 -3.64217,-6.13333 -1.47052,-10.20948 1.94823,-3.65684 1.85885,-3.87479 -0.71787,-1.75027 -2.47147,2.03771 -2.37425,0.65417 0.60656,-8.63189 1.95238,-6.08222 4.49009,-12.65321 5.63938,-14.60222 2.78676,-4.72592 1.49996,-5.59947 -4.74875,-3.22372 -9.68015,3.68039 -9.78199,1.7737 -0.14112,-2.6433 5.27504,-2.41681 13.273,-7.48923 17.77324,-11.27206 8.4782,-7.1266 26.03287,-14.80388 33.85026,-14.80388 6.9507,0 16.4725,2.23597 16.4725,3.86821 0,0.80877 -2.158,2.01209 -4.7955,2.67406 -5.3732,1.34859 -6.2687,3.99112 -1.9182,5.66056 2.3055,0.88472 2.8773,5.11821 2.8773,21.30538 0,12.18869 -0.7609,20.20124 -1.9182,20.20124 -1.055,0 -1.9182,2.58957 -1.9182,5.75459 0,5.79527 -2.6883,7.8077 -4.4842,3.35685 -0.5322,-1.31877 -1.0357,-0.45558 -1.119,1.91818 -0.1791,5.10592 -3.3279,5.76476 -4.5837,0.9591 -0.8355,-3.19699 -0.8879,-3.19699 -1.0998,0 -0.1224,1.84627 -1.0857,3.35685 -2.1407,3.35685 -1.055,0 -1.9314,-1.51058 -1.94755,-3.35685 z"
           id="path11895"
           inkscape:connector-curvature="0" />
        <path
           style="fill:#222222;fill-opacity:1"
           d="m 1022.0695,251.46887 c 11.6351,-11.00385 13.679,-14.36362 8.7383,-14.36362 -1.5048,0 -11.4402,-5.81962 -22.0785,-12.9325 -10.6383,-7.11288 -21.1634,-13.6313 -23.389,-14.48537 -3.1266,-1.19976 -3.4233,-1.93815 -1.305,-3.24735 2.2754,-1.40625 2.2657,-1.85474 -0.057,-2.63661 -1.5396,-0.51817 0.8333,-1.62732 5.2729,-2.46484 5.9731,-1.12677 7.308,-2.01368 5.134,-3.41072 -3.7642,-2.41865 6.0851,-0.80138 27.865,4.57548 12.0963,2.98627 18.1303,5.69643 22.8827,10.27768 5.4505,5.2542 7.1137,5.8691 10.6933,3.95335 2.3314,-1.24774 5.0882,-3.78616 6.1262,-5.64102 2.4408,-4.36163 8.5562,-2.12379 8.5562,3.1311 0,3.67355 1.2279,3.86773 17.8871,2.82836 l 17.887,-1.11591 -7.1058,6.0771 c -4.9176,4.20556 -11.864,7.16905 -22.556,9.62293 -9.1262,2.09446 -17.9521,5.59015 -21.5624,8.54034 -3.3617,2.74699 -7.1798,5.02774 -8.4847,5.06836 -1.305,0.0405 -6.244,3.30819 -10.9756,7.26129 -4.7314,3.9531 -10.1325,7.20005 -12.0022,7.21548 -1.8697,0.017 -5.5596,0.60646 -8.2,1.3134 -3.5429,0.94859 -1.7945,-1.55783 6.674,-9.56693 z"
           id="path11897"
           inkscape:connector-curvature="0" />
        <path
           style="fill:#2c2c2c;fill-opacity:1"
           d="m 1087.7103,238.3423 c 12.0992,-6.54739 12.2066,-6.86997 3.3769,-10.13632 -5.016,-1.85549 -12.0504,-9.04042 -15.632,-15.96646 -3.5818,-6.92604 -12.2034,-15.95486 -19.1598,-20.06408 -12.8237,-7.57496 -17.0044,-14.94523 -7.3872,-13.02177 2.8939,0.57872 4.7409,-1.45599 4.1048,-4.5216 -0.6361,-3.0656 0.8155,-4.35499 3.2257,-2.8653 2.4104,1.48971 9.1783,3.57814 15.0393,4.64093 5.8611,1.06287 19.561,7.4842 30.4442,14.26963 l 19.7875,12.33713 2.62,-12.43055 c 1.4406,-6.83679 5.0264,-15.33092 7.9688,-18.87579 4.7878,-5.76894 6.1587,-5.7126 13.064,0.53653 4.243,3.83998 6.7582,8.52945 5.589,10.42099 -1.1687,1.89152 -2.379,10.18767 -2.6893,18.43581 -0.4089,10.88384 -4.4714,19.02043 -14.813,29.66857 -12.7418,13.11992 -16.5648,14.65403 -36.1424,14.50335 l -21.8934,-0.16825 12.4969,-6.7626 0,-1.5e-4 z"
           id="path11899"
           inkscape:connector-curvature="0" />
        <path
           style="fill:#2c2c2c;fill-opacity:1"
           d="m 1050.3112,261.02573 c 0,-0.84915 3.3589,-2.75174 7.4641,-4.22796 4.1053,-1.47624 9.0975,-3.9401 11.0937,-5.47524 l 3.6296,-2.79114 -3.4036,-0.034 c -1.9388,-0.0194 -5.5604,-2.41869 -8.4158,-5.57554 -8.8037,-9.73294 -12.5784,-13.12716 -16.1061,-14.48239 -1.8936,-0.72745 -3.4429,-2.07466 -3.4429,-2.9938 0,-1.01707 1.3475,-1.26939 3.4429,-0.64468 3.3937,1.01179 3.3991,0.99126 0.3825,-1.43597 -2.9389,-2.36478 -2.8934,-2.4029 1.1476,-0.96121 2.3144,0.82566 4.208,0.92367 4.208,0.2178 0,-2.07336 14.4513,1.15356 24.0429,5.36866 4.8706,2.14044 10.2941,5.67185 12.0523,7.8476 l 3.1966,3.95588 7.5145,-3.59795 c 4.133,-1.97887 8.6787,-4.90657 10.1016,-6.50599 3.0477,-3.42556 7.8724,-2.97271 8.6003,0.80725 0.3254,1.68938 -0.8626,3.1782 -3.2648,4.09149 -2.0769,0.78966 -4.0206,1.99666 -4.3193,2.68226 -0.833,1.91226 -16.8908,15.05231 -21.1523,17.30891 -3.3367,1.76689 -17.0688,4.87811 -31.7988,7.2045 -2.8437,0.44913 -4.973,0.12441 -4.973,-0.75846 l 0,-5e-5 z"
           id="path11903"
           inkscape:connector-curvature="0" />
        <path
           style="fill:#121212;fill-opacity:1"
           d="m 1214.5389,278.15054 c -1.1347,-1.83594 -6.7248,-4.27042 -12.4224,-5.40993 -5.6979,-1.13958 -18.8203,-7.48431 -29.1616,-14.09951 -10.3413,-6.61515 -20.3712,-12.02757 -22.2888,-12.02757 -1.9174,0 -7.8586,3.23238 -13.2021,7.18307 -11.8355,8.75043 -22.5918,6.33478 -25.6263,-5.75515 -3.0947,-12.33033 -0.03,-15.08633 16.8383,-15.08633 14.4535,0 22.3439,-4.22359 15.6357,-8.3695 -3.7702,-2.33021 -24.27,-44.73588 -26.0209,-53.8262 -0.9646,-5.00979 -0.03,-5.51099 5.1503,-2.74207 5.4301,2.90605 6.2015,2.20821 5.421,-4.90374 l -0.9104,-8.29196 12.1818,9.18895 c 17.6938,13.34709 30.9455,28.10881 36.6031,40.77403 4.4437,9.94791 6.4291,11.09748 19.1651,11.09748 l 14.2078,0 -7.5432,8.02949 -7.5435,8.02952 18.8993,14.58067 c 20.9992,16.2009 25.7552,29.24012 9.8906,27.11696 -1.1985,-0.16041 -3.3111,1.54021 -4.6948,3.77914 -1.5436,2.49731 -3.3136,2.78051 -4.579,0.73265 z"
           id="path11905"
           inkscape:connector-curvature="0" />
      </g>
    </g>
    <g
       inkscape:export-ydpi="72"
       inkscape:export-xdpi="72"
       inkscape:export-filename="/home/elijah/Desktop/shirt-placement.png"
       style="fill:#2e3436;fill-opacity:1;stroke:none;display:inline"
       id="g3417"
       transform="matrix(0.34136538,0,0,0.34136538,169.11153,273.56505)">
      <g
         inkscape:export-ydpi="72.000000"
         inkscape:export-xdpi="72.000000"
         inkscape:export-filename="/home/elijah/Desktop/shirt-placement.png"
         transform="matrix(0.90434,0,0,0.90434,-905.33541,896.21281)"
         style="fill:#2e3436;fill-opacity:1;stroke:none"
         id="g3419">
        <path
           inkscape:connector-curvature="0"
           id="path3421"
           d="m 319.57007,488.75423 -1.85748,-19.64814 -0.35407,-14.67091 6.66674,-0.71057 0.70816,5.68461 4.60303,-4.61875 9.56011,-1.42116 3.89487,1.42116 -0.70816,7.65133 -4.95711,-1.06586 -3.99856,0.56341 -3.60154,3.96913 -2.62521,3.44883 0.95852,13.1457 0.4578,7.357 -8.7471,-1.10578 z"
           style="fill:#2e3436;fill-opacity:1;fill-rule:evenodd;stroke:none;display:block" />
        <path
           inkscape:connector-curvature="0"
           id="path3423"
           d="m 346.10876,467.74443 -2.21155,22.11558 9.95201,0 0,-14.5817 0,-7.29084 -7.74046,-0.24304 z"
           style="fill:#2e3436;fill-opacity:1;fill-rule:evenodd;stroke:none;display:block" />
        <path
           inkscape:connector-curvature="0"
           id="path3425"
           d="m 381.49369,464.4271 2.9674,-6.01012 -5.4589,-2.15012 -5.82284,-1.79177 -9.09818,3.58354 -4.73106,7.52543 1.45572,7.52545 9.09817,2.86683 8.0064,3.58354 -0.55882,4.04686 -4.06564,2.06317 -8.47691,-0.37636 -4.0032,-3.58354 -3.63928,5.73367 4.73105,4.30024 14.55709,1.43342 7.64247,-1.43342 1.09178,-7.52544 0.72786,-9.67555 -9.09817,-4.65862 -6.5507,-1.43341 -0.36393,-4.30025 4.36713,-2.50848 7.22256,2.78493 z"
           style="fill:#2e3436;fill-opacity:1;fill-rule:evenodd;stroke:none;display:block" />
        <path
           inkscape:connector-curvature="0"
           id="path3427"
           d="m 394.76303,472.16755 10.0537,-0.48785 11.03236,-0.35775 -0.35588,-9.30155 -5.69413,-4.65077 -13.16766,-1.78876 -7.82942,4.29302 -1.77942,9.6593 0,10.73256 5.69413,7.15504 13.52355,4.65078 8.54119,0 3.20294,-3.93528 -3.91471,-5.72403 -3.55883,2.50426 -10.3206,-1.431 -3.91471,-2.50426 -2.1353,-4.65078 0.62279,-4.16293 z"
           style="fill:#2e3436;fill-opacity:1;fill-rule:evenodd;stroke:none;display:block" />
        <path
           inkscape:connector-curvature="0"
           id="path3429"
           d="m 420.19594,460.00398 0,13.12414 1.79855,10.00785 5.03596,6.79106 3.95683,2.14454 9.71219,0 7.19423,-4.64652 1.79856,-10.36528 0.35971,-13.58208 0,-6.43362 -7.74045,-0.35743 0,8.57817 -0.1732,11.79496 -2.15826,8.22074 -4.31654,1.07228 -5.03595,-2.50196 -2.15827,-5.71878 -0.67578,-11.75161 0.25435,-7.50589 -7.85193,1.12943 z"
           style="fill:#2e3436;fill-opacity:1;fill-rule:evenodd;stroke:none;display:block" />
        <path
           inkscape:connector-curvature="0"
           id="path3431"
           d="m 454.47509,456.68664 -0.25101,16.89964 -0.85477,15.38049 0.69032,1.99902 6.89161,-0.64114 0.64738,-18.53699 10.63961,-0.96017 3.35099,-3.46077 1.00144,-7.57007 -3.24729,-5.0086 -12.03807,-1.41874 -6.83021,3.31733 z"
           style="fill:#2e3436;fill-opacity:1;fill-rule:evenodd;stroke:none;display:block" />
        <path
           inkscape:connector-curvature="0"
           id="path3433"
           d="m 492.07157,490.96579 -1.10578,-15.86553 0,-16.20206 7.74045,0 0,6.46641 5.73704,-5.76929 10.19919,-1.8029 6.92087,5.40871 -0.36426,13.34146 0.72851,14.4232 -8.3779,-0.72116 0.36426,-14.06262 -1.82129,-7.93277 -4.37107,1.08175 -5.09959,1.44231 -3.91576,5.04813 0,8.65392 0,6.49044 -6.63467,0 z"
           style="fill:#2e3436;fill-opacity:1;fill-rule:evenodd;stroke:none;display:block" />
        <path
           inkscape:connector-curvature="0"
           id="path3435"
           d="m 537.4085,475.48488 11.95784,-0.92327 6.8404,-1.09504 -1.08006,-10.2204 -14.40084,-7.6653 -8.6405,5.1102 -4.32027,8.39533 -2.52014,11.68046 5.40032,10.58541 8.6405,1.82507 10.08059,-0.36501 6.12036,-4.38017 -5.0403,-6.57026 -1.80011,2.19009 -9.36054,2.19009 -5.76034,-5.84024 0.72005,-3.28513 3.16304,-1.63183 z"
           style="fill:#2e3436;fill-opacity:1;fill-rule:evenodd;stroke:none;display:block" />
        <path
           inkscape:connector-curvature="0"
           id="path3437"
           d="m 559.52407,456.68664 6.53923,-0.11017 -0.20611,-7.63028 7.03677,1.0812 0.74636,6.69837 7.99933,-0.25485 0,7.44477 -8.49691,-0.14928 -0.34932,6.08311 0,7.56844 0,5.76643 1.90241,3.15617 5.52636,-0.47346 1.03052,5.90511 1.49272,5.82826 -10.94968,-4.43788 -5.58673,-5.04563 -1.40734,-6.17056 -0.0427,-7.05126 0.60063,-11.33985 -5.83552,-0.19301 0.0603,-6.67563 z"
           style="fill:#2e3436;fill-opacity:1;fill-rule:evenodd;stroke:none;display:block" />
        <path
           inkscape:connector-curvature="0"
           id="path3439"
           d="m 354.95499,465.53287 -6.80017,-0.54015 -0.6948,-7.2937 c 0,0 -3.4551,-6.85764 -5.58387,-7.91055 -2.12928,-1.05456 -4.61362,-3.16258 -4.61362,-3.16258 0,0 2.83887,-2.45971 5.32321,-0.70285 2.48433,1.75741 2.48433,2.10857 2.48433,2.10857 0,0 2.83836,1.05456 3.54897,-4.21714 0.71009,-5.2706 2.78071,-12.96366 2.78071,-12.96366 0,0 1.41918,-2.10857 2.48433,-0.70286 1.06464,1.40571 -2.07214,13.31591 -2.07214,13.31591 l 6.20011,-13.1932 c 0,0 1.77475,-1.75686 2.1298,0.35171 0.35402,2.10856 -4.42538,13.19155 -4.42538,13.19155 l 6.11237,-9.14315 c 0,0 2.48433,-1.40516 2.48433,0.70285 0,2.10803 -5.75783,9.49486 -5.75783,9.49486 l 7.53972,-4.48666 c 0,0 2.48382,-0.70286 2.12928,1.40516 -0.35454,2.10802 -7.41576,3.87639 -9.31395,8.35155 -2.04088,4.47626 -3.9554,15.39434 -3.9554,15.39434 z"
           style="fill:#2e3436;fill-opacity:1;stroke:none;display:block" />
        <path
           inkscape:connector-curvature="0"
           id="path3441"
           d="m 477.69644,483.22534 -1.10578,7.74045 7.74045,-0.70368 -1.40735,-7.03677 -5.22732,0 z"
           style="fill:#2e3436;fill-opacity:1;fill-rule:evenodd;stroke:none;display:block" />
      </g>
    </g>
    <path
       inkscape:connector-curvature="0"
       style="fill:#2c2c2c;fill-opacity:1"
       d="m 135.00252,994.76058 3.0259,-2.3802 -4.32464,-4.1069 c -2.37854,-2.2588 -5.28379,-4.6461 -6.4561,-5.305 -2.74664,-1.5437 -1.34739,-3.8789 2.32428,-3.8789 3.30024,0 11.73452,4.071 11.73452,5.6639 0,1.9575 2.08205,1.1756 2.78742,-1.0469 0.65479,-2.063 3.78273,-4.0639 4.78551,-3.0611 0.26443,0.2644 -0.0197,1.4187 -0.63147,2.565 -0.61174,1.1463 -1.69577,3.6663 -2.40896,5.6 -1.24565,3.3774 -2.42518,4.2654 -9.38041,7.0616 -4.55012,1.8293 -4.87723,1.5796 -1.45605,-1.1115 z"
       id="path3619" />
    <path
       inkscape:connector-curvature="0"
       style="fill:#0d0d0d;fill-opacity:1"
       d="m 388.41308,1054.4345 c -0.37491,-0.6066 -2.2219,-1.4109 -4.10441,-1.7874 -1.88252,-0.3765 -6.2183,-2.4729 -9.63506,-4.6585 -3.41676,-2.1857 -6.73067,-3.974 -7.36426,-3.974 -0.63358,0 -2.59651,1.068 -4.36205,2.3733 -3.9105,2.8912 -7.4644,2.0931 -8.46697,-1.9015 -1.02251,-4.074 -0.006,-4.9846 5.56334,-4.9846 4.77553,0 7.38257,-1.3955 5.16616,-2.7653 -1.24573,-0.7699 -8.01897,-14.7809 -8.59738,-17.7843 -0.31877,-1.6553 -0.008,-1.8209 1.7017,-0.906 1.79409,0.9601 2.04899,0.7296 1.79104,-1.6202 l -0.30075,-2.7397 4.02483,3.036 c 5.84615,4.41 10.22456,9.2873 12.09383,13.4719 1.46822,3.2868 2.12417,3.6667 6.33219,3.6667 l 4.69431,0 -2.49234,2.6529 -2.49234,2.653 6.24436,4.8175 c 6.93826,5.3528 8.50967,9.661 3.26797,8.9595 -0.396,-0.053 -1.09407,0.5089 -1.55127,1.2487 -0.50995,0.8251 -1.09474,0.9187 -1.5129,0.242 z"
       id="path3623" />
    <path
       inkscape:connector-curvature="0"
       style="fill:#111111;fill-opacity:1"
       d="m 482.89147,1044.7584 c 0,-0.8492 3.35885,-2.7518 7.46413,-4.228 4.10527,-1.4762 9.09743,-3.9401 11.09367,-5.4752 l 3.6296,-2.7912 -3.4036,-0.034 c -1.9388,-0.019 -5.56042,-2.4187 -8.41585,-5.5755 -8.80361,-9.733 -12.57838,-13.1272 -16.10606,-14.4824 -1.89359,-0.7275 -3.44287,-2.0747 -3.44287,-2.9938 0,-1.0171 1.34751,-1.2694 3.44287,-0.6447 3.39368,1.0118 3.39914,0.9913 0.38254,-1.436 -2.93898,-2.3647 -2.89347,-2.4029 1.14762,-0.9612 2.31437,0.8257 4.20795,0.9237 4.20795,0.2178 0,-2.0733 14.45132,1.1536 24.0429,5.3687 4.8706,2.1404 10.2941,5.6718 12.0523,7.8476 l 3.1966,3.9559 7.5145,-3.598 c 4.133,-1.9788 8.6787,-4.9066 10.1016,-6.506 3.0477,-3.4255 7.8724,-2.9727 8.6003,0.8073 0.3254,1.6894 -0.8626,3.1782 -3.2648,4.0915 -2.0769,0.7896 -4.0206,1.9966 -4.3193,2.6822 -0.833,1.9123 -16.8908,15.0523 -21.1523,17.3089 -3.3367,1.7669 -17.0688,4.8782 -31.79878,7.2045 -2.84368,0.4492 -4.97302,0.1245 -4.97302,-0.7584 l 0,-10e-5 z"
       id="path3627" />
    <path
       inkscape:connector-curvature="0"
       style="fill:#2c2c2c;fill-opacity:1"
       d="m 218.81779,1024.2998 c 3.24331,-1.7551 3.27211,-1.8415 0.90522,-2.7171 -1.34458,-0.4974 -3.23021,-2.4234 -4.19028,-4.2799 -0.96007,-1.8566 -3.27125,-4.2769 -5.13596,-5.3784 -3.43741,-2.0305 -4.55815,-4.0062 -1.98012,-3.4906 0.77564,0.1552 1.27075,-0.3902 1.10024,-1.212 -0.17049,-0.8218 0.21865,-1.1674 0.86477,-0.7681 0.64611,0.3993 2.46023,0.9592 4.03136,1.2441 1.57112,0.2849 5.24349,2.0062 8.16081,3.825 l 5.30421,3.3071 0.70224,-3.3321 c 0.38622,-1.8327 1.34747,-4.1096 2.1361,-5.0598 1.2834,-1.5464 1.6509,-1.5313 3.5019,0.1438 1.13741,1.0294 1.81163,2.2864 1.49827,2.7934 -0.31337,0.5071 -0.63777,2.7309 -0.7209,4.9419 -0.10966,2.9175 -1.19864,5.0986 -3.97072,7.9529 -3.41557,3.5169 -4.44039,3.9281 -9.68833,3.8878 l -5.86872,-0.045 3.34991,-1.8128 0,0 z"
       id="path3629" />
    <path
       inkscape:connector-curvature="0"
       style="fill:#2e2e2e;fill-opacity:1"
       d="m 461.39893,1035.3013 c -0.0148,-1.6873 -0.17629,-1.7283 -1.11093,-0.282 -0.87985,1.3614 -1.09702,1.183 -1.11092,-0.9128 -0.009,-1.4327 -0.39804,-2.3698 -0.86342,-2.0823 -0.46538,0.2874 -0.95813,-2.0799 -1.09502,-5.2607 -0.24741,-5.7496 -2.14017,-12.0518 -3.61957,-12.0518 -0.42581,0 -1.61544,1.9039 -2.64361,4.2308 -1.73843,3.9343 -13.74207,17.205 -15.56232,17.205 -1.62258,0 -2.14216,-3.6074 -0.86489,-6.0048 1.14586,-2.1508 1.09329,-2.279 -0.42222,-1.0294 -1.45361,1.1985 -1.39643,0.3847 0.35675,-5.0769 1.1483,-3.5773 2.64087,-7.4421 3.31683,-8.5884 1.63905,-2.7796 0.88221,-3.2933 -2.793,-1.896 -5.69343,2.1646 -5.75333,1.0432 -0.083,-1.5547 3.10254,-1.4215 7.80658,-4.4048 10.45342,-6.6297 4.9865,-4.1916 15.31137,-8.70702 19.90919,-8.70702 4.08813,0 9.68838,1.3151 9.68838,2.2751 0,0.4757 -1.26922,1.18342 -2.82049,1.57282 -3.16026,0.7931 -3.68695,2.3474 -1.1282,3.3292 1.35602,0.5204 1.69229,3.0104 1.69229,12.5309 0,7.1689 -0.44748,11.8815 -1.12819,11.8815 -0.62051,0 -1.1282,1.5231 -1.1282,3.3846 0,3.4085 -1.58111,4.5921 -2.63741,1.9743 -0.31297,-0.7756 -0.60912,-0.2679 -0.65811,1.1282 -0.10537,3.0031 -1.95733,3.3906 -2.69596,0.5641 -0.49138,-1.8803 -0.52218,-1.8803 -0.64683,0 -0.072,1.0859 -0.63856,1.9744 -1.25906,1.9744 -0.62051,0 -1.13597,-0.8885 -1.14547,-1.9744 z"
       id="path3631" />
    <path
       inkscape:connector-curvature="0"
       style="fill:#111111;fill-opacity:1"
       d="m 422.61621,1037.1295 c 0,-0.6571 -0.47113,-0.9036 -1.04696,-0.5477 -0.57584,0.3558 -1.36713,-0.3617 -1.75842,-1.5945 -0.39129,-1.2329 -3.84142,-5.0297 -7.66696,-8.4374 -6.8084,-6.0647 -7.00389,-6.1524 -9.24151,-4.1477 -3.66266,3.2814 -4.91904,3.6916 -7.33954,2.3962 -3.20012,-1.7127 -2.84884,-3.0448 1.37946,-5.2314 3.3383,-1.7263 3.46197,-1.9692 1.41024,-2.7701 -1.23691,-0.4829 -4.26154,-0.9137 -6.72142,-0.9573 -3.87868,-0.069 -4.25315,-0.2905 -2.82049,-1.6702 1.98838,-1.9149 13.43769,-5.1612 19.70315,-5.5865 2.48203,-0.1685 5.47722,-0.7368 6.656,-1.2628 1.91386,-0.854 2.05592,-0.6086 1.32759,2.2933 -0.68785,2.7406 -0.28637,3.6975 2.56299,6.1085 3.97199,3.361 11.53063,17.7034 10.60339,20.1197 -0.53278,1.3884 -0.91648,1.3104 -2.26876,-0.4616 -1.52517,-1.9985 -1.57449,-1.9558 -0.78402,0.679 0.7853,2.6176 0.70052,2.6955 -1.22807,1.1282 -1.20153,-0.9764 -1.71576,-1.0911 -1.22435,-0.2732 0.46599,0.7756 0.3096,1.4103 -0.34753,1.4103 -0.65713,0 -1.19479,-0.5377 -1.19479,-1.1948 z"
       id="path3633" />
    <path
       inkscape:connector-curvature="0"
       style="fill:#3e3e3e;fill-opacity:1"
       d="m 531.29725,1048.5357 c -3.8261,-1.4459 -7.2702,-7.6559 -6.0335,-10.8788 0.4428,-1.1539 4.8021,-2.9811 9.6874,-4.0605 12.1644,-2.6877 14.0366,-3.8273 9.9126,-6.0344 -1.7876,-0.9568 -4.1171,-3.3676 -5.1764,-5.3574 -1.0593,-1.9898 -5.8443,-7.7791 -10.6333,-12.8652 -5.8418,-6.2042 -7.8695,-9.2475 -6.1616,-9.2475 2.2099,0 2.157,-0.31069 -0.401,-2.35567 -2.835,-2.26636 -2.8028,-2.32031 0.8483,-1.42292 l 3.7952,0.93282 -3.7952,-3.09752 c -4.0235,-3.28391 -3.2104,-4.17761 1.5049,-1.65406 1.6425,0.87907 4.2532,0.98196 6.2426,0.24604 2.6418,-0.97728 6.3783,0.27236 16.4321,5.49559 14.8858,7.73362 18.326,10.37092 18.326,14.04952 0,3.9659 3.7342,6.2864 8.2805,5.1454 3.4288,-0.8606 9.7857,0.4577 23.5887,4.8917 1.7628,0.5663 1.4252,1.3933 -1.5181,3.7184 -7.2066,5.6929 -12.4818,7.6868 -21.1677,8.0007 -5.2057,0.1881 -10.3263,1.3648 -12.6958,2.9173 -2.1841,1.4311 -5.942,2.6021 -8.3509,2.6021 -2.409,0 -7.0441,1.916 -10.3003,4.2579 -8.4714,6.0926 -8.6068,6.1441 -12.3845,4.7165 z"
       id="path3635" />
    <path
       inkscape:connector-curvature="0"
       style="fill:#222222;fill-opacity:1"
       d="m 482.94142,1005.5401 c 0,-0.2224 2.79228,-2.2583 6.20508,-4.5244 6.39976,-4.24915 7.76009,-6.35324 4.10752,-6.35324 -1.94061,0 -11.39223,-7.36756 -14.46763,-11.27756 -1.06457,-1.35349 -0.96315,-1.77903 0.5014,-2.10372 1.48874,-0.33004 1.36184,-0.66073 -0.67104,-1.7487 -2.37264,-1.2698 -2.29372,-1.35421 1.47295,-1.57538 8.80783,-0.51719 8.6328,-0.43801 6.47442,-2.92904 -1.92214,-2.21839 -1.91591,-2.21839 1.45418,-8e-4 1.86152,1.22493 5.71135,3.34495 8.55516,4.71116 2.84381,1.36621 6.09554,3.50612 7.22609,4.75535 1.13053,1.24923 2.69679,2.27131 3.48057,2.27131 0.78378,0 4.05397,-2.64277 7.26705,-5.87282 6.9016,-6.93795 9.0093,-7.66456 9.0093,-3.10585 0,2.58731 -0.7911,3.60724 -3.9669,5.11424 -4.678,2.21989 -6.0074,3.85753 -3.1509,3.88171 1.1225,0.009 2.7933,0.49303 3.713,1.07451 1.2831,0.81138 0.1025,1.74752 -5.0769,4.02553 -3.71193,1.63256 -7.76431,3.89592 -9.00533,5.02969 -1.24101,1.13377 -4.4498,2.64367 -7.13062,3.35531 -2.68082,0.7117 -6.48848,2.2782 -8.46147,3.4813 -3.1373,1.913 -7.53593,2.9586 -7.53593,1.7914 z"
       id="path3637" />
    <path
       inkscape:connector-curvature="0"
       style="fill:#2c2c2c;fill-opacity:1"
       d="m 258.68936,1035.9216 c 0.003,-0.4654 1.52699,-1.711 3.38459,-2.768 3.53741,-2.0129 4.49258,-4.2832 1.80203,-4.2832 -0.86648,0 -3.06649,-1.6983 -4.88892,-3.7739 -1.82244,-2.0756 -4.92115,-4.7235 -6.88605,-5.8843 -3.83391,-2.2647 -4.61674,-3.8802 -1.88025,-3.8802 0.93076,0 1.69229,-0.4542 1.69229,-1.0094 0,-2.288 16.24573,3.6797 18.97735,6.9711 1.31745,1.5874 1.77736,1.5751 4.76055,-0.1279 2.18368,-1.2466 3.10437,-2.5136 2.71812,-3.7406 -0.32125,-1.0205 0.0677,-2.5435 0.86445,-3.3846 0.7967,-0.841 1.44854,-2.2483 1.44854,-3.1274 0,-2.8281 2.74695,-2.618 4.08207,0.3123 1.14041,2.5029 0.86328,3.3838 -2.335,7.4219 -3.08811,3.8991 -3.32059,4.5889 -1.55983,4.6282 3.19316,0.071 -6.8499,8.6544 -11.24574,9.6108 -1.98443,0.4318 -4.60948,1.4817 -5.83343,2.3332 -2.41876,1.6827 -5.11217,2.0533 -5.10077,0.702 z"
       id="path3639" />
    <path
       inkscape:connector-curvature="0"
       style="fill:#333333;fill-opacity:1"
       d="m 348.97116,1016.4209 c 5.48865,-5.191 6.45288,-6.7759 4.12223,-6.7759 -0.70994,0 -5.39684,-2.7453 -10.41533,-6.1008 -5.0185,-3.3554 -9.98357,-6.4304 -11.0335,-6.8333 -1.47489,-0.56597 -1.61487,-0.9143 -0.61557,-1.5319 1.07338,-0.66338 1.06876,-0.87495 -0.0271,-1.24379 -0.7263,-0.24444 0.39303,-0.76767 2.4874,-1.16276 2.81772,-0.53154 3.4475,-0.94993 2.42185,-1.60897 -1.7757,-1.14097 2.87063,-0.37804 13.14504,2.15843 5.70632,1.40874 8.55281,2.68723 10.79467,4.84838 2.57118,2.47861 3.35577,2.76871 5.04441,1.86491 1.0998,-0.58857 2.40029,-1.78604 2.88996,-2.66105 1.15144,-2.05755 4.03635,-1.00187 4.03635,1.47706 0,1.73299 0.5792,1.82459 8.438,1.33429 l 8.43801,-0.52646 -3.35211,2.86676 c -2.31979,1.984 -5.59669,3.382 -10.64055,4.5396 -4.30515,0.988 -8.46862,2.6371 -10.17178,4.0288 -1.58585,1.2959 -3.38703,2.3718 -4.00263,2.3909 -0.6156,0.019 -2.9455,1.5606 -5.17755,3.4255 -2.23204,1.8648 -4.77991,3.3965 -5.66191,3.4038 -0.88201,0.01 -2.62273,0.2861 -3.86828,0.6196 -1.67133,0.4475 -0.84649,-0.7349 3.14841,-4.5131 z"
       id="path3643" />
    <path
       inkscape:connector-curvature="0"
       style="fill:#2c2c2c;fill-opacity:1"
       d="m 418.66176,1009.1937 c 1.18165,-0.7391 3.8976,-2.837 6.03544,-4.662 3.66605,-3.1295 3.75476,-3.367 1.56072,-4.1786 -2.57544,-0.95272 -9.9849,-14.50309 -7.93042,-14.50309 0.89522,0 0.85193,-0.51889 -0.14334,-1.71811 -1.21073,-1.45886 -1.10389,-1.59724 0.70801,-0.91697 1.95031,0.73222 1.9883,0.62148 0.44162,-1.28708 -1.60438,-1.97977 -1.54578,-2.01044 1.1282,-0.59062 2.5831,1.37156 2.69017,1.33963 1.27211,-0.37939 -0.85162,-1.03236 -1.0407,-1.877 -0.4202,-1.877 0.62051,0 1.74674,0.74529 2.50275,1.65622 0.75599,0.91092 1.70661,1.59185 2.11248,1.51318 2.78244,-0.53934 12.584,7.22855 12.584,9.97301 0,1.0244 1.64355,1.2733 5.92303,0.89698 3.25767,-0.28647 5.28842,-0.22024 4.51279,0.14717 -2.52609,1.19659 -1.48455,3.01363 1.41024,2.46026 1.55127,-0.29655 2.8205,-0.20306 2.8205,0.20775 0,1.13445 -9.9151,5.70939 -12.37376,5.70939 -1.1878,0 -2.45282,0.4744 -2.81117,1.0542 -0.35834,0.5798 -3.36461,1.8429 -6.6806,2.8069 -3.316,0.964 -7.49504,2.5172 -9.28677,3.4516 -3.83593,2.0005 -6.48314,2.1863 -3.36563,0.2362 z"
       id="path3645" />
    <path
       inkscape:connector-curvature="0"
       style="fill:#3f3f3f;fill-opacity:1"
       d="m 154.8247,914.23367 c -1.20351,-0.88 -1.93516,-1.7952 -1.62587,-2.0337 0.30927,-0.2386 1.95845,-1.3071 3.66485,-2.3747 3.3081,-2.0695 4.09494,-4.14528 1.57132,-4.14528 -0.84218,0 -6.55367,-2.49052 -12.69221,-5.53447 -11.11372,-5.51103 -11.14767,-5.54054 -8.01889,-6.96829 3.72032,-1.69769 15.13911,0.0965 23.02132,3.61712 3.63879,1.62531 5.40968,1.85237 7.68877,0.98587 4.22656,-1.60693 5.07059,-1.41875 5.07059,1.13059 0,1.8523 0.75767,2.25937 4.23073,2.27301 5.88054,0.0231 17.7691,3.88975 17.7691,5.77927 0,1.20499 -2.8052,1.55087 -12.97426,1.59973 -17.24756,0.0829 -16.86593,10e-4 -18.22019,3.88635 -0.9197,2.6382 -1.85436,3.3846 -4.23847,3.3846 -1.68223,0 -4.04328,-0.72 -5.24679,-1.6001 z"
       id="path3647" />
    <path
       inkscape:connector-curvature="0"
       style="fill:#2c2c2c;fill-opacity:1"
       d="m 331.94611,1039.8642 c -0.11091,-4.4895 -0.11982,-4.4982 -1.72383,-1.6923 -1.52656,2.6704 -1.61446,2.692 -1.65231,0.4062 -0.0566,-3.4176 -9.89563,-16.5082 -11.63609,-15.4816 -0.75799,0.4471 -4.48059,3.5143 -8.27245,6.816 -3.79187,3.3016 -7.3203,6.003 -7.84097,6.003 -0.52067,0 -0.33744,-0.6092 0.40717,-1.3538 1.84258,-1.8426 1.70154,-3.159 -0.33846,-3.159 -2.60037,0 -2.01165,-1.7042 1.1785,-3.4115 1.57895,-0.845 3.61442,-3.0885 4.52327,-4.9855 3.807,-7.946 20.15949,-22.0643 25.55605,-22.0643 l 3.30582,0 -2.52289,3.5431 c -2.44005,3.4267 -2.45401,3.5934 -0.4253,5.0769 1.15368,0.8436 2.44025,1.5338 2.85905,1.5338 1.23881,0 6.78872,16.2342 7.29718,21.3452 0.25772,2.5906 0.76749,5.1938 1.13282,5.7849 0.36532,0.5912 0.36407,1.0748 -0.002,1.0748 -0.36687,0 -1.12618,-1.1423 -1.68736,-2.5384 -0.87377,-2.1739 -1.03791,-1.8903 -1.14273,1.9743 l -0.1224,4.5128 -1.54978,-3.3846 -1.54977,-3.3846 -0.0916,3.036 c -0.0504,1.6697 -0.6793,3.3991 -1.39754,3.843 -0.89476,0.553 -1.10562,0.041 -0.66972,-1.6257 0.84269,-3.2225 -1.1989,-3.1363 -2.502,0.1056 -0.87272,2.1712 -1.03645,1.8856 -1.13182,-1.9743 l -5.7e-4,0 z"
       id="path3649" />
    <path
       inkscape:connector-curvature="0"
       style="fill:#171717;fill-opacity:1"
       d="m 183.41672,1026.3264 c 5.71924,-2.7034 6.01261,-3.0224 3.74695,-4.0742 -1.35198,-0.6276 -3.02216,-2.5028 -3.7115,-4.167 -0.68935,-1.6642 -2.43669,-4.302 -3.88297,-5.8618 -2.29264,-2.4725 -2.43391,-3.1035 -1.10245,-4.9244 1.20845,-1.6527 1.24089,-2.461 0.15547,-3.8734 -0.82148,-1.0689 -0.36125,-0.9228 1.1473,0.3643 1.38545,1.1821 2.51901,1.8003 2.51901,1.3737 0,-0.4265 2.71149,1.2717 6.02555,3.7739 3.31405,2.5021 6.36429,4.5493 6.77831,4.5493 0.41402,0 1.56399,-2.0274 2.55549,-4.5054 0.99151,-2.4781 2.21325,-4.2518 2.715,-3.9417 0.50175,0.3101 1.12691,-0.074 1.38926,-0.8535 0.37367,-1.1103 0.8833,-1.0819 2.35275,0.1311 2.28586,1.8869 2.39056,5.3357 0.28454,9.3723 -1.37633,2.6381 -1.35775,3.1076 0.14579,3.6845 3.42113,1.3128 -8.01638,8.494 -16.33674,10.2573 -10.84305,2.2978 -11.83235,2.0278 -4.78176,-1.305 z"
       id="path3651" />
    <path
       inkscape:connector-curvature="0"
       style="fill:#2c2c2c;fill-opacity:1"
       d="m 299.25592,1014.6939 c -2.94644,-3.7458 -5.58075,-5.2191 -13.1835,-7.3734 -7.11536,-2.0161 -8.22694,-1.7546 -12.56232,2.9564 -3.40825,3.7035 -7.47024,4.9853 -8.82937,2.7862 -0.35926,-0.5813 1.38768,-2.697 3.88211,-4.7016 2.49442,-2.0045 4.53532,-3.9468 4.53532,-4.3161 0,-1.2928 -14.12698,-4.61171 -16.6409,-3.9095 -2.81777,0.787 -3.08994,0.1998 -1.38439,-2.98707 1.53488,-2.86796 4.30439,-4.24501 13.86703,-6.89495 6.5732,-1.82153 8.46348,-1.97089 10.58353,-0.83628 1.98491,1.06229 3.24692,1.07792 5.46424,0.0677 3.98947,-1.81773 9.34473,-1.78912 7.51547,0.0402 -2.25442,2.25442 -1.5361,4.28715 1.51498,4.28715 2.89864,0 14.05413,9.23095 14.05413,11.62955 0,0.6419 0.85999,2.1173 1.91108,3.2787 1.80303,1.9923 1.7956,2.0674 -0.13124,1.328 -1.84235,-0.7069 -1.90092,-0.5184 -0.59818,1.9258 1.35651,2.5451 1.32037,2.6074 -0.5956,1.0261 -1.89134,-1.561 -1.9826,-1.4789 -1.25449,1.1282 0.75433,2.7009 0.71629,2.7254 -0.96545,0.6217 -1.70236,-2.1295 -1.75119,-2.1139 -1.76799,0.5641 -0.0124,1.9845 -0.28953,2.3243 -0.99162,1.2161 -0.76464,-1.2069 -1.07729,-1.2291 -1.45256,-0.1033 -0.30521,0.9156 -1.37965,0.2885 -2.97028,-1.7336 l 0,-10e-5 z"
       id="path3653" />
    <path
       inkscape:connector-curvature="0"
       style="fill:#2c2c2c;fill-opacity:1"
       d="m 156.91066,1006.1367 c -1.73296,-1.733 -0.50497,-3.915 3.19655,-5.6802 3.4585,-1.6492 5.49402,-4.84964 3.08447,-4.84964 -0.47533,0 -2.60555,-2.66536 -4.73381,-5.92303 -2.12828,-3.25767 -5.03935,-6.84833 -6.46906,-7.97926 -4.0574,-3.20948 -3.13421,-4.14885 4.07744,-4.14885 8.69355,0 9.67645,0.45788 13.77714,6.41802 2.94382,4.2787 3.97729,4.99011 7.01203,4.82683 1.95763,-0.10538 4.82855,-0.12391 6.37982,-0.0413 2.5906,0.13795 2.65956,0.27235 0.84614,1.64893 -2.48917,1.88956 -2.51565,2.94229 -0.074,2.94229 1.04518,0 4.86531,0.83193 8.48916,1.84873 6.47406,1.81653 6.54448,1.8798 4.04271,3.63209 -1.94454,1.36199 -5.53211,1.79159 -15.18428,1.81789 -12.22836,0.033 -12.74318,0.1352 -15.8765,3.1371 -3.07046,2.9417 -6.92035,3.9978 -8.5678,2.3504 l 0,0 z"
       id="path3655" />
    <path
       inkscape:connector-curvature="0"
       id="path3661"
       d="m 649.62324,1044.7461 c -0.025,-2.8688 -0.2997,-2.9385 -1.8888,-0.4796 -1.49595,2.3149 -1.86518,2.0115 -1.88882,-1.5518 -0.0153,-2.4361 -0.67676,-4.0293 -1.46801,-3.5405 -0.79126,0.4887 -1.62904,-3.5362 -1.86179,-8.9443 -0.42065,-9.7757 -3.63878,-20.4909 -6.15411,-20.4909 -0.72397,0 -2.74662,3.237 -4.49475,7.1932 -2.95573,6.6893 -23.3647,29.2525 -26.45954,29.2525 -2.75877,0 -3.64217,-6.1333 -1.47052,-10.2095 1.94823,-3.6568 1.85885,-3.8747 -0.71787,-1.7502 -2.47147,2.0377 -2.37425,0.6541 0.60656,-8.6319 1.95238,-6.0822 4.49009,-12.6532 5.63938,-14.6022 2.78676,-4.726 1.49996,-5.5995 -4.74875,-3.2238 -9.68015,3.6804 -9.78199,1.7737 -0.14112,-2.6433 5.27504,-2.4168 13.273,-7.48938 17.77324,-11.27218 8.4782,-7.1265 26.0329,-14.8038 33.8503,-14.8038 6.9507,0 16.4725,2.236 16.4725,3.8682 0,0.8088 -2.158,2.0121 -4.7955,2.6741 -5.3732,1.3485 -6.2687,3.991 -1.9182,5.6605 2.3055,0.8847 2.8773,5.1182 2.8773,21.30548 0,12.1887 -0.7609,20.2013 -1.9182,20.2013 -1.055,0 -1.9182,2.5895 -1.9182,5.7545 0,5.7953 -2.6883,7.8077 -4.4842,3.3569 -0.5322,-1.3188 -1.0357,-0.4556 -1.119,1.9182 -0.1791,5.1059 -3.3279,5.7647 -4.5837,0.9591 -0.8355,-3.197 -0.8879,-3.197 -1.0998,0 -0.1224,1.8462 -1.0857,3.3568 -2.1407,3.3568 -1.055,0 -1.9314,-1.5106 -1.9476,-3.3568 z"
       style="fill:#0e0e0e;fill-opacity:1" />
    <path
       inkscape:connector-curvature="0"
       id="path3657"
       d="m 662.47576,1057.0048 c -3.52044,-3.5204 -1.02583,-7.9532 6.49366,-11.539 7.02581,-3.3504 11.16088,-9.8519 6.26598,-9.8519 -0.96561,0 -5.29307,-5.4146 -9.61655,-12.0325 -4.32351,-6.6178 -10.23723,-13.9121 -13.14163,-16.2095 -8.24245,-6.5199 -6.36702,-8.42822 8.28315,-8.42822 17.6606,0 19.65732,0.93016 27.98771,13.03792 5.98025,8.692 8.07971,10.1372 14.24466,9.8055 3.97685,-0.214 9.80901,-0.2517 12.96035,-0.084 5.2627,0.2803 5.40279,0.5533 1.7189,3.3498 -5.05665,3.8385 -5.11044,5.9771 -0.15033,5.9771 2.12324,0 9.88368,1.69 17.24539,3.7556 13.1518,3.6903 13.2948,3.8188 8.2126,7.3785 -3.95025,2.7669 -11.23826,3.6394 -30.84625,3.693 -24.84143,0.068 -25.88726,0.2745 -32.25248,6.3729 -6.23751,5.9759 -14.05841,8.1214 -17.40514,4.7747 l 0,0 z"
       style="fill:#1d1d1d;fill-opacity:1" />
    <path
       inkscape:connector-curvature="0"
       id="path3659"
       d="m 570.22572,1016.1229 c 10.48204,-4.9549 11.01972,-5.5395 6.86729,-7.4672 -2.47786,-1.1503 -5.53892,-4.587 -6.80232,-7.6372 -1.26342,-3.05007 -4.46589,-7.88457 -7.11658,-10.74327 -4.20188,-4.5315 -4.4608,-5.688 -2.02054,-9.0253 2.21481,-3.0289 2.27426,-4.5104 0.28494,-7.099 -1.50558,-1.959 -0.66209,-1.6911 2.10274,0.6678 2.53921,2.1664 4.61676,3.2994 4.61676,2.5177 0,-0.7818 4.96953,2.3307 11.04344,6.9165 6.07389,4.5859 11.66427,8.3379 12.42307,8.3379 0.75881,0 2.86644,-3.7159 4.68363,-8.2575 1.8172,-4.5416 4.05637,-7.7925 4.97596,-7.2241 0.9196,0.5683 2.06537,-0.1357 2.5462,-1.5642 0.68485,-2.0349 1.61888,-1.9829 4.31204,0.2403 4.18946,3.4582 4.38135,9.7789 0.5215,17.1772 -2.5225,4.8349 -2.48844,5.6954 0.2672,6.7528 6.27014,2.40607 -14.69217,15.56757 -29.94147,18.79917 -19.8728,4.2113 -21.68596,3.7166 -8.76386,-2.3916 z"
       style="fill:#2c2c2c;fill-opacity:1" />
    <path
       inkscape:connector-curvature="0"
       id="path3663"
       d="m 714.55839,1033.1406 c 11.6351,-11.0038 13.679,-14.3636 8.7383,-14.3636 -1.5048,0 -11.4402,-5.8196 -22.0785,-12.9325 -10.6383,-7.11288 -21.1634,-13.63128 -23.389,-14.48538 -3.1266,-1.1998 -3.4233,-1.9381 -1.305,-3.24731 2.2754,-1.40629 2.2657,-1.85478 -0.057,-2.63665 -1.5396,-0.51817 0.8333,-1.62732 5.2729,-2.46484 5.9731,-1.12677 7.308,-2.01368 5.134,-3.41072 -3.7642,-2.41865 6.0851,-0.80138 27.865,4.57548 12.0963,2.98623 18.1303,5.69644 22.8827,10.27764 5.4505,5.2542 7.1137,5.86908 10.6933,3.9534 2.3314,-1.2477 5.0882,-3.7862 6.1262,-5.641 2.4408,-4.36171 8.5562,-2.1238 8.5562,3.1311 0,3.6735 1.2279,3.8677 17.8871,2.8283 l 17.88702,-1.1159 -7.10582,6.07708 c -4.9176,4.2056 -11.864,7.1691 -22.556,9.623 -9.1262,2.0944 -17.9521,5.5901 -21.5624,8.5403 -3.3617,2.747 -7.1798,5.0277 -8.4847,5.0684 -1.305,0.04 -6.244,3.3082 -10.9756,7.2612 -4.7314,3.9532 -10.1325,7.2001 -12.0022,7.2155 -1.8697,0.017 -5.5596,0.6065 -8.2,1.3134 -3.5429,0.9486 -1.7945,-1.5578 6.674,-9.5669 z"
       style="fill:#222222;fill-opacity:1" />
    <path
       inkscape:connector-curvature="0"
       id="path3665"
       d="m 655.95043,915.9683 c 12.0992,-6.5474 12.2066,-6.8699 3.3769,-10.1363 -5.016,-1.8555 -12.0504,-9.0404 -15.632,-15.9665 -3.5818,-6.926 -12.2034,-15.95481 -19.1598,-20.06403 -12.8237,-7.57496 -17.0044,-14.94523 -7.3872,-13.02177 2.8939,0.57872 4.7409,-1.45599 4.1048,-4.5216 -0.6361,-3.0656 0.8155,-4.35499 3.2257,-2.8653 2.4104,1.48971 9.1783,3.57814 15.0393,4.64093 5.8611,1.06287 19.561,7.4842 30.4442,14.26963 l 19.78752,12.33713 2.62,-12.43055 c 1.4406,-6.83679 5.0264,-15.33092 7.9688,-18.87579 4.7878,-5.76894 6.1587,-5.7126 13.064,0.53653 4.243,3.83998 6.7582,8.52945 5.589,10.42099 -1.1687,1.89152 -2.379,10.18767 -2.6893,18.43581 -0.4089,10.88382 -4.4714,19.02042 -14.813,29.66862 -12.7418,13.1199 -16.5648,14.654 -36.14242,14.5033 l -21.8934,-0.1682 12.4969,-6.7626 0,-2e-4 z"
       style="fill:#2c2c2c;fill-opacity:1" />
    <path
       inkscape:connector-curvature="0"
       id="path3667"
       d="m 571.66586,1064.4518 c 0,-0.8492 3.3589,-2.7517 7.4641,-4.228 4.1053,-1.4762 9.0975,-3.9401 11.0937,-5.4752 l 3.6296,-2.7911 -3.4036,-0.034 c -1.9388,-0.019 -5.5604,-2.4187 -8.4158,-5.5756 -8.8037,-9.7329 -12.5784,-13.1271 -16.1061,-14.4824 -1.8936,-0.7274 -3.4429,-2.0746 -3.4429,-2.9938 0,-1.0171 1.3475,-1.2694 3.4429,-0.6447 3.3937,1.0118 3.3991,0.9913 0.3825,-1.4359 -2.9389,-2.3648 -2.8934,-2.4029 1.1476,-0.9612 2.3144,0.8256 4.208,0.9236 4.208,0.2178 0,-2.0734 14.4513,1.1535 24.0429,5.3686 4.8706,2.1405 10.2941,5.6719 12.0523,7.8476 l 3.1966,3.9559 7.5145,-3.5979 c 4.133,-1.9789 8.6787,-4.9066 10.1016,-6.506 3.04772,-3.4256 7.87242,-2.9727 8.60032,0.8072 0.3254,1.6894 -0.8626,3.1782 -3.2648,4.0915 -2.0769,0.7897 -4.0206,1.9967 -4.3193,2.6823 -0.83302,1.9122 -16.89082,15.0523 -21.15232,17.3089 -3.3367,1.7669 -17.0688,4.8781 -31.7988,7.2045 -2.8437,0.4491 -4.973,0.1244 -4.973,-0.7585 l 0,0 z"
       style="fill:#272727;fill-opacity:1" />
    <path
       inkscape:connector-curvature="0"
       id="path3669"
       d="m 849.44913,1070.9339 c -1.1347,-1.836 -6.7248,-4.2705 -12.4224,-5.41 -5.6979,-1.1395 -18.8203,-7.4843 -29.1616,-14.0995 -10.3413,-6.6151 -20.3712,-12.0275 -22.2888,-12.0275 -1.9174,0 -7.8586,3.2323 -13.2021,7.183 -11.8355,8.7505 -22.5918,6.3348 -25.6263,-5.7551 -3.0947,-12.3303 -0.03,-15.0863 16.8383,-15.0863 14.4535,0 22.3439,-4.2236 15.6357,-8.3696 -3.7702,-2.3302 -24.27,-44.73573 -26.0209,-53.82605 -0.9646,-5.00979 -0.03,-5.51099 5.1503,-2.74207 5.4301,2.90605 6.2015,2.20821 5.421,-4.90374 l -0.9104,-8.29196 12.1818,9.18895 c 17.6938,13.34709 30.9455,28.10881 36.6031,40.77403 4.4437,9.94784 6.4291,11.09734 19.1651,11.09734 l 14.2078,0 -7.5432,8.0295 -7.5435,8.0296 18.8993,14.5806 c 20.9992,16.2009 25.7552,29.2401 9.8906,27.117 -1.1985,-0.1604 -3.3111,1.5402 -4.6948,3.7791 -1.5436,2.4973 -3.3136,2.7805 -4.579,0.7327 z"
       style="fill:#121212;fill-opacity:1" />
    <path
       style="fill:#1d1d1d;fill-opacity:1"
       d="m 211.46701,1001.3462 c -1.49315,-1.49321 -0.43509,-3.37328 2.7542,-4.89414 2.97991,-1.42102 4.73374,-4.17857 2.65764,-4.17857 -0.40955,0 -2.24499,-2.29652 -4.07874,-5.10338 -1.83376,-2.80687 -4.34198,-5.90064 -5.57385,-6.87507 -3.49592,-2.76534 -2.70049,-3.57472 3.51319,-3.57472 7.49051,0 8.3374,0.39452 11.87062,5.52988 2.53645,3.6866 3.42691,4.29956 6.04169,4.15887 1.68673,-0.0908 4.16036,-0.10676 5.49696,-0.0356 2.23211,0.11886 2.29152,0.23466 0.72905,1.42075 -2.14471,1.62807 -2.16753,2.53512 -0.0638,2.53512 0.90054,0 4.19203,0.71681 7.3144,1.5929 5.57817,1.56515 5.63882,1.61967 3.48327,3.12947 -1.67545,1.17354 -4.76656,1.54362 -13.08303,1.56634 -10.53617,0.0288 -10.97974,0.11645 -13.67947,2.70294 -2.64556,2.53471 -5.96269,3.44461 -7.38216,2.02521 l 0,0 z"
       id="path3081"
       inkscape:connector-curvature="0" />
    <g
       inkscape:export-ydpi="72"
       inkscape:export-xdpi="72"
       inkscape:export-filename="/home/elijah/Desktop/shirt-placement.png"
       style="fill:#000000;fill-opacity:1;stroke:none;display:inline"
       id="g3937"
       transform="matrix(0.52886538,0,0,0.52886538,328.35256,297.00374)">
      <g
         inkscape:export-ydpi="72.000000"
         inkscape:export-xdpi="72.000000"
         inkscape:export-filename="/home/elijah/Desktop/shirt-placement.png"
         transform="matrix(0.90434,0,0,0.90434,-905.33541,896.21281)"
         style="fill:#000000;fill-opacity:1;stroke:none"
         id="g3939">
        <path
           inkscape:connector-curvature="0"
           id="path3941"
           d="m 319.57007,488.75423 -1.85748,-19.64814 -0.35407,-14.67091 6.66674,-0.71057 0.70816,5.68461 4.60303,-4.61875 9.56011,-1.42116 3.89487,1.42116 -0.70816,7.65133 -4.95711,-1.06586 -3.99856,0.56341 -3.60154,3.96913 -2.62521,3.44883 0.95852,13.1457 0.4578,7.357 -8.7471,-1.10578 z"
           style="fill:#000000;fill-opacity:1;fill-rule:evenodd;stroke:none;display:block" />
        <path
           inkscape:connector-curvature="0"
           id="path3943"
           d="m 346.10876,467.74443 -2.21155,22.11558 9.95201,0 0,-14.5817 0,-7.29084 -7.74046,-0.24304 z"
           style="fill:#000000;fill-opacity:1;fill-rule:evenodd;stroke:none;display:block" />
        <path
           inkscape:connector-curvature="0"
           id="path3945"
           d="m 381.49369,464.4271 2.9674,-6.01012 -5.4589,-2.15012 -5.82284,-1.79177 -9.09818,3.58354 -4.73106,7.52543 1.45572,7.52545 9.09817,2.86683 8.0064,3.58354 -0.55882,4.04686 -4.06564,2.06317 -8.47691,-0.37636 -4.0032,-3.58354 -3.63928,5.73367 4.73105,4.30024 14.55709,1.43342 7.64247,-1.43342 1.09178,-7.52544 0.72786,-9.67555 -9.09817,-4.65862 -6.5507,-1.43341 -0.36393,-4.30025 4.36713,-2.50848 7.22256,2.78493 z"
           style="fill:#000000;fill-opacity:1;fill-rule:evenodd;stroke:none;display:block" />
        <path
           inkscape:connector-curvature="0"
           id="path3947"
           d="m 394.76303,472.16755 10.0537,-0.48785 11.03236,-0.35775 -0.35588,-9.30155 -5.69413,-4.65077 -13.16766,-1.78876 -7.82942,4.29302 -1.77942,9.6593 0,10.73256 5.69413,7.15504 13.52355,4.65078 8.54119,0 3.20294,-3.93528 -3.91471,-5.72403 -3.55883,2.50426 -10.3206,-1.431 -3.91471,-2.50426 -2.1353,-4.65078 0.62279,-4.16293 z"
           style="fill:#000000;fill-opacity:1;fill-rule:evenodd;stroke:none;display:block" />
        <path
           inkscape:connector-curvature="0"
           id="path3949"
           d="m 420.19594,460.00398 0,13.12414 1.79855,10.00785 5.03596,6.79106 3.95683,2.14454 9.71219,0 7.19423,-4.64652 1.79856,-10.36528 0.35971,-13.58208 0,-6.43362 -7.74045,-0.35743 0,8.57817 -0.1732,11.79496 -2.15826,8.22074 -4.31654,1.07228 -5.03595,-2.50196 -2.15827,-5.71878 -0.67578,-11.75161 0.25435,-7.50589 -7.85193,1.12943 z"
           style="fill:#000000;fill-opacity:1;fill-rule:evenodd;stroke:none;display:block" />
        <path
           inkscape:connector-curvature="0"
           id="path3951"
           d="m 454.47509,456.68664 -0.25101,16.89964 -0.85477,15.38049 0.69032,1.99902 6.89161,-0.64114 0.64738,-18.53699 10.63961,-0.96017 3.35099,-3.46077 1.00144,-7.57007 -3.24729,-5.0086 -12.03807,-1.41874 -6.83021,3.31733 z"
           style="fill:#000000;fill-opacity:1;fill-rule:evenodd;stroke:none;display:block" />
        <path
           inkscape:connector-curvature="0"
           id="path3953"
           d="m 492.07157,490.96579 -1.10578,-15.86553 0,-16.20206 7.74045,0 0,6.46641 5.73704,-5.76929 10.19919,-1.8029 6.92087,5.40871 -0.36426,13.34146 0.72851,14.4232 -8.3779,-0.72116 0.36426,-14.06262 -1.82129,-7.93277 -4.37107,1.08175 -5.09959,1.44231 -3.91576,5.04813 0,8.65392 0,6.49044 -6.63467,0 z"
           style="fill:#000000;fill-opacity:1;fill-rule:evenodd;stroke:none;display:block" />
        <path
           inkscape:connector-curvature="0"
           id="path3955"
           d="m 537.4085,475.48488 11.95784,-0.92327 6.8404,-1.09504 -1.08006,-10.2204 -14.40084,-7.6653 -8.6405,5.1102 -4.32027,8.39533 -2.52014,11.68046 5.40032,10.58541 8.6405,1.82507 10.08059,-0.36501 6.12036,-4.38017 -5.0403,-6.57026 -1.80011,2.19009 -9.36054,2.19009 -5.76034,-5.84024 0.72005,-3.28513 3.16304,-1.63183 z"
           style="fill:#000000;fill-opacity:1;fill-rule:evenodd;stroke:none;display:block" />
        <path
           inkscape:connector-curvature="0"
           id="path3957"
           d="m 559.52407,456.68664 6.53923,-0.11017 -0.20611,-7.63028 7.03677,1.0812 0.74636,6.69837 7.99933,-0.25485 0,7.44477 -8.49691,-0.14928 -0.34932,6.08311 0,7.56844 0,5.76643 1.90241,3.15617 5.52636,-0.47346 1.03052,5.90511 1.49272,5.82826 -10.94968,-4.43788 -5.58673,-5.04563 -1.40734,-6.17056 -0.0427,-7.05126 0.60063,-11.33985 -5.83552,-0.19301 0.0603,-6.67563 z"
           style="fill:#000000;fill-opacity:1;fill-rule:evenodd;stroke:none;display:block" />
        <path
           inkscape:connector-curvature="0"
           id="path3959"
           d="m 354.95499,465.53287 -6.80017,-0.54015 -0.6948,-7.2937 c 0,0 -3.4551,-6.85764 -5.58387,-7.91055 -2.12928,-1.05456 -4.61362,-3.16258 -4.61362,-3.16258 0,0 2.83887,-2.45971 5.32321,-0.70285 2.48433,1.75741 2.48433,2.10857 2.48433,2.10857 0,0 2.83836,1.05456 3.54897,-4.21714 0.71009,-5.2706 2.78071,-12.96366 2.78071,-12.96366 0,0 1.41918,-2.10857 2.48433,-0.70286 1.06464,1.40571 -2.07214,13.31591 -2.07214,13.31591 l 6.20011,-13.1932 c 0,0 1.77475,-1.75686 2.1298,0.35171 0.35402,2.10856 -4.42538,13.19155 -4.42538,13.19155 l 6.11237,-9.14315 c 0,0 2.48433,-1.40516 2.48433,0.70285 0,2.10803 -5.75783,9.49486 -5.75783,9.49486 l 7.53972,-4.48666 c 0,0 2.48382,-0.70286 2.12928,1.40516 -0.35454,2.10802 -7.41576,3.87639 -9.31395,8.35155 -2.04088,4.47626 -3.9554,15.39434 -3.9554,15.39434 z"
           style="fill:#000000;fill-opacity:1;stroke:none;display:block" />
        <path
           inkscape:connector-curvature="0"
           id="path3961"
           d="m 477.69644,483.22534 -1.10578,7.74045 7.74045,-0.70368 -1.40735,-7.03677 -5.22732,0 z"
           style="fill:#000000;fill-opacity:1;fill-rule:evenodd;stroke:none;display:block" />
      </g>
    </g>
    <rect
       inkscape:export-filename="/data/dev/cg-static/public/images/riseup-masthead-blue-bg.png"
       inkscape:export-ydpi="89.928123"
       inkscape:export-xdpi="89.928123"
       style="fill:url(#linearGradient4039);fill-opacity:1;stroke:none;display:inline"
       id="rect4037"
       width="864.69055"
       height="80.054573"
       x="5.3696868e-07"
       y="-1276.616"
       transform="scale(1,-1)" />
    <rect
       style="opacity:1;fill:#5e9ee3;fill-opacity:1;fill-rule:evenodd;stroke:none"
       id="rect4049"
       width="107.07619"
       height="80"
       x="100.0051"
       y="1323.8953" />
  </g>
</svg>
