<?xml version="1.0" encoding="UTF-8" standalone="no"?>
<!-- Generator: Adobe Illustrator 12.0.1, SVG Export Plug-In . SVG Version: 6.00 Build 51448)  -->

<svg
   xmlns:dc="http://purl.org/dc/elements/1.1/"
   xmlns:cc="http://creativecommons.org/ns#"
   xmlns:rdf="http://www.w3.org/1999/02/22-rdf-syntax-ns#"
   xmlns:svg="http://www.w3.org/2000/svg"
   xmlns="http://www.w3.org/2000/svg"
   xmlns:sodipodi="http://sodipodi.sourceforge.net/DTD/sodipodi-0.dtd"
   xmlns:inkscape="http://www.inkscape.org/namespaces/inkscape"
   version="1.1"
   width="468.25903"
   height="424.68903"
   viewBox="0 0 468.25905 424.68903"
   overflow="visible"
   enable-background="new 0 0 610.131 794.912"
   xml:space="preserve"
   id="svg2"
   sodipodi:version="0.32"
   inkscape:version="0.48.1 r9760"
   sodipodi:docname="apt-get-install-anarchism.svg"
   inkscape:output_extension="org.inkscape.output.svg.inkscape"
   style="overflow:visible"><metadata
   id="metadata164"><rdf:RDF><cc:Work
       rdf:about=""><dc:format>image/svg+xml</dc:format><dc:type
         rdf:resource="http://purl.org/dc/dcmitype/StillImage" /><dc:title></dc:title><cc:license
         rdf:resource="http://creativecommons.org/licenses/by-nc-sa/3.0/" /></cc:Work><cc:License
       rdf:about="http://creativecommons.org/licenses/by-nc-sa/3.0/"><cc:permits
         rdf:resource="http://creativecommons.org/ns#Reproduction" /><cc:permits
         rdf:resource="http://creativecommons.org/ns#Distribution" /><cc:requires
         rdf:resource="http://creativecommons.org/ns#Notice" /><cc:requires
         rdf:resource="http://creativecommons.org/ns#Attribution" /><cc:prohibits
         rdf:resource="http://creativecommons.org/ns#CommercialUse" /><cc:permits
         rdf:resource="http://creativecommons.org/ns#DerivativeWorks" /><cc:requires
         rdf:resource="http://creativecommons.org/ns#ShareAlike" /></cc:License></rdf:RDF></metadata><defs
   id="defs162" /><sodipodi:namedview
   inkscape:window-height="893"
   inkscape:window-width="1157"
   inkscape:pageshadow="2"
   inkscape:pageopacity="0.0"
   guidetolerance="10.0"
   gridtolerance="10.0"
   objecttolerance="10.0"
   borderopacity="1.0"
   bordercolor="#666666"
   pagecolor="#ffffff"
   id="base"
   inkscape:zoom="1.0240127"
   inkscape:cx="302.54704"
   inkscape:cy="111.08518"
   inkscape:window-x="0"
   inkscape:window-y="25"
   inkscape:current-layer="svg2"
   showgrid="false"
   fit-margin-top="0"
   fit-margin-left="0"
   fit-margin-right="0"
   fit-margin-bottom="0"
   inkscape:window-maximized="0" />
<g
   id="black_background"
   transform="matrix(0.7676817,0,0,0.53412556,-0.06366964,0.05310269)">
	<rect
   x="0.5"
   y="0.5"
   width="609.13098"
   height="793.91199"
   id="rect5"
   style="stroke:#ffffff" />
</g>
<g
   id="red_swirl"
   transform="translate(-71.422599,-186.58364)">
	<g
   id="g8">
		<path
   d="m 299.937,223.659 c 3.211,0.577 6.936,1.018 6.412,1.784 3.509,-0.77 4.306,-1.479 -6.412,-1.784 z"
   id="path10"
   inkscape:connector-curvature="0"
   style="fill:#fb0f0c" />
		<path
   d="m 298.005,449.457 c -8.652,-4.053 -16.575,-10.168 -23.09,-17.658 3.457,5.059 7.188,9.979 12.008,13.842 -8.157,-2.766 -19.053,-19.768 -22.236,-20.461 14.063,25.178 57.05,44.154 79.562,34.738 -10.416,0.387 -23.648,0.217 -35.352,-4.109 -4.497,-2.314 -10.461,-6.891 -10.525,-8.402 -0.222,0.583 -0.6,1.169 -0.367,2.05 z"
   id="path12"
   inkscape:connector-curvature="0"
   style="fill:#fb0f0c" />
		<path
   d="m 160.065,302.984 c 4.177,-9.408 -1.156,-3.37 -1.617,-5.887 0.647,8.346 -6.421,11.508 1.617,5.887 z"
   id="path14"
   inkscape:connector-curvature="0"
   style="fill:#fb0f0c" />
		<path
   d="m 298.467,447.104 c -0.073,0.08 -0.101,0.182 -0.095,0.303 0.037,-0.102 0.07,-0.202 0.095,-0.303 z"
   id="path16"
   inkscape:connector-curvature="0"
   style="fill:#fb0f0c" />
		<path
   d="m 151.748,324.199 c -5.207,6.654 -2.395,8.074 -2.944,12.601 1.884,-5.782 2.225,-9.255 2.944,-12.601 z"
   id="path18"
   inkscape:connector-curvature="0"
   style="fill:#fb0f0c" />
		<path
   d="m 420.392,418.293 c 5.92,-11.135 9.75,-23.315 11.357,-35.655 l -0.883,2.215 c -1.619,11.504 -5.115,22.885 -10.474,33.44 z"
   id="path20"
   inkscape:connector-curvature="0"
   style="fill:#fb0f0c" />
		<path
   d="m 427.612,348.626 c 0.098,-5.52 1.535,-2.893 2.092,-4.252 -1.086,-0.623 -3.928,-4.854 -5.66,-12.971 1.256,-1.907 3.354,4.945 5.059,5.226 -1.098,-6.453 -2.986,-11.375 -3.064,-16.327 -4.986,-10.418 -1.766,1.389 -5.811,-4.473 -5.305,-16.553 4.406,-3.841 5.059,-11.362 8.045,11.653 12.631,29.713 14.736,37.195 -1.607,-9.121 -4.203,-17.957 -7.371,-26.506 2.443,1.028 -3.934,-18.766 3.176,-5.657 -7.594,-27.944 -32.504,-54.053 -55.422,-66.306 2.805,2.566 6.346,5.788 5.072,6.293 -11.396,-6.785 -9.391,-7.314 -11.025,-10.181 -9.285,-3.777 -9.893,0.304 -16.041,0.006 -17.5,-9.281 -20.873,-8.294 -36.975,-14.108 l 0.732,3.423 c -11.592,-3.862 -13.506,1.465 -26.035,0.013 -0.762,-0.597 4.012,-2.155 7.947,-2.727 -11.209,1.479 -10.684,-2.208 -21.651,0.409 2.703,-1.898 5.561,-3.153 8.444,-4.766 -9.139,0.556 -21.821,5.321 -17.907,0.987 -14.908,6.652 -41.387,15.99 -56.245,29.922 l -0.469,-3.122 c -6.808,8.173 -29.688,24.41 -31.514,34.997 l -1.82,0.425 c -3.542,5.999 -5.833,12.798 -8.645,18.97 -4.633,7.897 -6.792,3.039 -6.133,4.277 -9.113,18.479 -13.64,34.006 -17.552,46.739 2.787,4.166 0.067,25.077 1.122,41.811 -4.577,82.655 58.008,162.907 126.418,181.432 10.027,3.588 24.939,3.451 37.623,3.816 -14.967,-4.279 -16.9,-2.268 -31.477,-7.352 -10.514,-4.953 -12.82,-10.605 -20.268,-17.068 l 2.947,5.209 c -14.607,-5.17 -8.494,-6.398 -20.378,-10.162 l 3.147,-4.109 c -4.734,-0.359 -12.539,-7.979 -14.675,-12.201 l -5.179,0.203 c -6.223,-7.678 -9.539,-13.213 -9.297,-17.5 l -1.675,2.98 c -1.896,-3.254 -22.894,-28.799 -12.001,-22.852 -2.023,-1.85 -4.713,-3.014 -7.631,-8.313 l 2.219,-2.535 c -5.244,-6.744 -9.65,-15.391 -9.315,-18.271 2.797,3.777 4.737,4.482 6.659,5.129 -13.239,-32.85 -13.983,-1.809 -24.01,-33.438 l 2.122,-0.17 c -1.627,-2.449 -2.614,-5.109 -3.922,-7.717 l 0.925,-9.201 c -9.526,-11.004 -2.661,-46.844 -1.286,-66.5 0.954,-7.994 7.956,-16.502 13.283,-29.844 l -3.246,-0.559 c 6.203,-10.82 35.417,-43.454 48.948,-41.774 6.555,-8.235 -1.3,-0.031 -2.583,-2.106 14.398,-14.897 18.925,-10.526 28.641,-13.205 10.479,-6.219 -8.994,2.426 -4.025,-2.372 18.113,-4.628 12.839,-10.519 36.469,-12.868 2.492,1.419 -5.784,2.192 -7.862,4.032 15.092,-7.384 47.76,-5.705 68.977,4.099 24.623,11.506 52.285,45.519 53.377,77.521 l 1.24,0.335 c -0.627,12.72 1.947,27.431 -2.516,40.945 l 3.039,-6.398 c 0.359,9.724 -2.844,14.441 -5.73,22.793 l -5.195,2.594 c -4.254,8.26 0.412,5.246 -2.635,11.814 -6.639,5.9 -20.146,18.467 -24.465,19.617 -3.156,-0.072 2.137,-3.725 2.83,-5.156 -8.889,6.104 -7.131,9.162 -20.723,12.867 l -0.398,-0.883 c -24.877,11.703 -56.937,-2.5 -71.563,-28.033 11.976,10.602 22.997,11.951 39.526,11.709 11.709,-0.172 16.172,-1.672 32.064,-14.219 0,0 -0.064,-0.563 -0.211,-1.164 l 0.629,-0.09 2.928,-2.928 1.887,-2.832 c 0.078,0.217 0.113,0.475 0.08,0.799 2.148,-2.965 5.924,-8.752 7.109,-15.944 -0.805,3.988 -3.641,8.219 -5.592,10.029 -5.162,4.795 -0.473,-3.166 0.58,-7.453 -3.764,4.738 -5.343,7.408 -5.748,8.969 l -0.408,-0.26 -1.674,-2.928 -2.09,-5.438 -2.928,-4.182 -0.418,-2.789 -0.559,-3.066 -2.787,-3.763 -3.244,-8.551 v -1.213 c -0.153,-0.025 -0.315,-0.048 -0.485,-0.067 l -0.872,-2.297 -3.764,-7.528 c 0,0 -2.51,-3.346 -2.51,-6.691 0,-3.345 0.838,-1.673 0.838,-1.673 0,0 -0.838,-3.346 -1.674,-3.346 -0.836,0 -2.09,-3.346 -2.09,-3.346 l -6.928,-15.007 c 13.298,-0.463 26.206,4.184 35.332,12.688 -7.697,-10.084 -23.021,-20.773 -41.18,-19.774 -17.789,0.281 -34.43,11.588 -39.985,23.86 -9.114,5.737 -10.172,22.118 -14.143,25.116 -5.348,39.266 10.047,56.231 36.09,76.188 2.091,1.41 2.345,2.209 2.169,2.934 0.012,-0.014 0.012,-0.033 0.026,-0.045 30.721,11.475 62.453,8.691 89.035,-12.619 6.764,-5.268 14.148,-14.227 16.285,-14.35 -3.215,4.836 0.549,2.326 -1.922,6.594 6.738,-10.867 -2.928,-4.424 6.967,-18.768 l 3.652,5.031 c -1.359,-9.025 11.201,-19.975 9.926,-34.243 2.883,-4.363 3.215,4.693 0.158,14.73 4.24,-11.135 1.117,-12.924 2.207,-22.111 1.178,3.088 2.727,6.369 3.518,9.628 -2.766,-10.759 2.836,-18.12 4.221,-24.372 -1.36,-0.604 -4.263,4.759 -4.923,-7.952 z m -96.165,25.821 v -1.483 l 0.731,3.212 -19.012,0.742 14.99,-1.73 3.291,-0.741 z m -13.943,-1.492 c 1.656,-0.515 3.139,-0.632 4.593,-0.61 -2.419,0.333 -4.104,0.61 -4.104,0.61 h -0.489 z m 10.442,-19.31 c -0.152,-0.229 -0.279,-0.4 -0.387,-0.527 -0.072,-0.338 -0.132,-0.682 -0.162,-1.028 0.974,1.903 1.319,2.708 0.549,1.555 z m -12.101,-16.062 c 4.931,9.004 11.612,21.329 9.435,18.062 -2.23,-3.346 0.558,4.647 2.664,10.347 0.038,0.102 0.074,0.2 0.111,0.3 -5.124,0.518 -10.062,1.33 -10.062,1.33 h -12.477 c 2.502,-7.725 5.161,-15.936 5.161,-15.936 l 5.168,-14.103 z m -45.226,43.692 c -0.358,2.707 -1.017,2.031 -1.759,3.125 -1.73,-21.938 10.131,-43.973 30.135,-52.97 2.184,-1.081 4.411,-1.982 6.661,-2.729 -0.313,4.343 -3.431,16.022 -3.431,16.022 l 5.653,-16.707 c 0.436,-0.123 0.871,-0.238 1.308,-0.349 -1.572,4.55 -4.156,12.057 -5.637,16.499 -2.23,6.691 -3.346,10.595 -5.018,16.45 -0.854,2.988 -3.015,8.732 -4.926,13.644 l -0.189,0.288 c 0.022,0.01 0.045,0.017 0.067,0.026 -1.783,4.574 -3.317,8.346 -3.317,8.346 0,0 -9.202,13.941 -6.134,12.268 1.648,-0.898 2.626,-1.264 3.168,-1.303 -0.268,0.512 -0.501,0.985 -0.685,1.401 -1.435,0.714 -4.456,3.228 -6.108,6.037 -2.789,4.74 1.394,4.74 1.394,4.74 l 0.664,0.793 c 0.021,0.027 0.045,0.053 0.068,0.08 l 1.777,2.123 c 0,0 0.169,-0.354 0.462,-0.967 l 2.205,2.633 c 0,0 7.999,-16.743 11.998,-25.114 0.222,-0.465 0.41,-0.914 0.535,-1.358 0.389,-1.421 1.087,-2.901 1.824,-4.444 1.724,0.342 3.516,1.036 5.381,-0.51 0.473,-0.041 0.934,-0.078 1.386,-0.111 0.396,-0.027 0.784,-0.053 1.169,-0.076 0.386,-0.023 0.774,-0.045 1.168,-0.064 0.394,-0.019 0.764,-0.035 1.124,-0.053 0.361,-0.017 0.733,-0.033 1.112,-0.049 0.758,-0.031 1.526,-0.064 2.323,-0.103 0.398,-0.019 0.805,-0.04 1.236,-0.098 4.267,-1.781 7.267,-0.781 11.164,-0.876 0.299,-0.076 0.626,-0.113 0.953,-0.153 1.343,-0.163 2.682,-0.378 4.017,-0.634 0.099,0.352 0.214,0.705 0.352,1.059 0.261,0.83 0.545,1.605 0.857,2.358 0.156,0.377 0.318,0.747 0.487,1.115 1.437,2.017 2.437,4.017 1.893,5.559 0.108,0.24 0.227,0.488 0.356,0.742 0.391,0.761 0.886,1.579 1.513,2.442 3.346,4.6 2.648,12.407 3.205,4.879 0.35,-4.719 1.395,4.741 1.395,4.741 l 2.51,3.346 v 6.691 l 1.648,-0.236 c -2.599,3.117 -7.844,5.979 -14.038,8.273 -7.527,2.787 -12.824,4.74 -30.947,1.672 -18.124,-3.066 -13.662,-6.133 -13.662,-6.133 0,0 -8.345,-6.832 -14.738,-14.443 -1.741,-5.641 -2.669,-11.633 -2.579,-17.872 z"
   id="path22"
   inkscape:connector-curvature="0"
   style="fill:#fb0f0c" />
		<polygon
   points="306.349,225.442 304.081,225.911 306.192,225.724 "
   id="polygon24"
   style="fill:#fb0f0c" />
		<path
   d="m 366.919,371.643 c 0.725,-10.828 -2.131,-7.405 -3.092,-3.272 1.117,0.581 2.006,7.631 3.092,3.272 z"
   id="path26"
   inkscape:connector-curvature="0"
   style="fill:#fb0f0c" />
		<path
   d="m 266.455,418.566 c -2.091,-2.313 -3.329,-5.096 -4.715,-7.867 1.325,4.875 4.038,9.064 6.563,13.324 l -1.848,-5.457 z"
   id="path28"
   inkscape:connector-curvature="0"
   style="fill:#fb0f0c" />
		<path
   d="m 315.433,218.978 c -5.621,0.472 -11.215,0.753 -16.74,1.465 l 2.438,0.332 c 4.061,-1.488 9.989,-0.815 14.302,-1.797 z"
   id="path30"
   inkscape:connector-curvature="0"
   style="fill:#fb0f0c" />
		<path
   d="m 256.27,423.148 c 3.95,5.363 7.086,11.18 12.132,15.375 -3.63,-7.084 -6.327,-10.012 -11.288,-19.59 l -0.844,4.215 z"
   id="path32"
   inkscape:connector-curvature="0"
   style="fill:#fb0f0c" />
	</g>
	<path
   d="m 363.665,365.694 c -0.836,-13.661 -5.469,-24.095 -6.412,-25.093 4.742,5.02 8.922,17.008 10.316,23.978 l -1.316,5.729"
   id="path34"
   inkscape:connector-curvature="0"
   style="fill:#fb100c" />
</g>
<g
   id="white_text"
   transform="translate(-71.422599,-186.58364)">
	<g
   id="g37">
		<rect
   x="96.625999"
   y="481.311"
   width="420.08701"
   height="34"
   id="rect39" />
		<g
   id="g41">
			<line
   x1="516.71399"
   y1="515.31097"
   x2="96.625999"
   y2="515.31097"
   id="line43"
   style="fill:#ffffff;stroke:#ffffff;stroke-width:2" />
			<line
   x1="96.625999"
   y1="481.311"
   x2="516.71399"
   y2="481.311"
   id="line45"
   style="fill:#ffffff;stroke:#ffffff;stroke-width:2" />
		</g>
	</g>
	<g
   id="g47">
		<path
   d="m 101.047,497.365 h 4.498 c 0.246,0 0.602,0.054 1.066,0.16 l -0.037,-1.623 c 0,-0.318 -0.111,-0.59 -0.334,-0.813 -0.223,-0.223 -0.493,-0.334 -0.812,-0.334 h -4.35 c -0.309,0 -0.577,-0.113 -0.805,-0.342 -0.228,-0.228 -0.341,-0.496 -0.341,-0.807 0,-0.318 0.111,-0.59 0.334,-0.813 0.223,-0.223 0.494,-0.335 0.812,-0.335 h 4.355 c 0.946,0 1.754,0.332 2.423,0.998 0.669,0.664 1.017,1.48 1.044,2.445 l 0.281,8.596 c 0,0.319 -0.114,0.591 -0.343,0.813 -0.228,0.224 -0.497,0.335 -0.808,0.335 -0.329,0 -0.607,-0.112 -0.835,-0.337 -0.228,-0.226 -0.342,-0.498 -0.342,-0.819 l -1.938,1.156 h -3.876 c -0.965,0 -1.783,-0.337 -2.457,-1.012 -0.673,-0.674 -1.01,-1.493 -1.01,-2.459 v -1.34 c 0,-0.956 0.339,-1.773 1.019,-2.453 0.681,-0.676 1.499,-1.016 2.456,-1.016 z m 5.722,4.453 -0.068,-0.959 c -0.009,-0.324 -0.123,-0.594 -0.341,-0.811 -0.218,-0.216 -0.485,-0.324 -0.804,-0.324 h -4.509 c -0.318,0 -0.588,0.111 -0.811,0.333 -0.223,0.223 -0.334,0.492 -0.334,0.81 v 1.277 c 0,0.309 0.113,0.576 0.341,0.803 0.227,0.227 0.495,0.34 0.804,0.34 h 3.229 l 2.493,-1.469 z"
   id="path49"
   inkscape:connector-curvature="0"
   style="fill:#ffffff" />
		<path
   d="m 116.862,504.334 v 5.089 c 0,0.328 -0.112,0.606 -0.336,0.835 -0.224,0.228 -0.495,0.342 -0.814,0.342 -0.319,0 -0.596,-0.114 -0.829,-0.342 -0.233,-0.229 -0.349,-0.507 -0.349,-0.835 V 493.03 c 0,-0.31 0.114,-0.579 0.342,-0.808 0.228,-0.228 0.507,-0.342 0.835,-0.342 0.311,0 0.58,0.114 0.808,0.343 0.229,0.229 0.343,0.497 0.343,0.808 v 0.74 c 1.111,-1.239 2.208,-1.859 3.292,-1.859 h 0.533 c 0.811,0 1.557,0.301 2.24,0.902 l 1.912,1.654 c 0.838,0.729 1.257,1.655 1.257,2.776 v 3.582 c 0,1.131 -0.451,2.083 -1.353,2.858 l -1.871,1.613 c -0.62,0.564 -1.403,0.848 -2.35,0.848 h -0.506 c -0.893,0 -1.648,-0.309 -2.268,-0.927 l -0.886,-0.884 z m 3.238,-0.516 h 0.588 c 0.282,0 0.583,-0.141 0.901,-0.424 l 1.79,-1.571 c 0.301,-0.236 0.451,-0.56 0.451,-0.97 v -3.703 c 0,-0.364 -0.169,-0.688 -0.506,-0.97 l -1.926,-1.653 c -0.219,-0.191 -0.456,-0.287 -0.71,-0.287 h -0.67 c -0.255,0 -0.587,0.209 -0.997,0.627 l -1.708,1.689 c -0.301,0.3 -0.451,0.637 -0.451,1.012 v 2.949 c 0,0.357 0.168,0.703 0.506,1.039 l 1.653,1.648 c 0.41,0.41 0.77,0.614 1.079,0.614 z"
   id="path51"
   inkscape:connector-curvature="0"
   style="fill:#ffffff" />
		<path
   d="m 139.517,505.646 h -2.299 c -0.949,0 -1.766,-0.337 -2.449,-1.012 -0.685,-0.674 -1.026,-1.484 -1.026,-2.432 v -7.447 h -1.178 c -0.319,0 -0.591,-0.109 -0.815,-0.328 -0.224,-0.219 -0.335,-0.492 -0.335,-0.82 0,-0.318 0.112,-0.59 0.336,-0.813 0.224,-0.223 0.496,-0.335 0.816,-0.335 h 1.207 v -2.819 c 0,-0.319 0.111,-0.591 0.335,-0.813 0.223,-0.225 0.494,-0.336 0.813,-0.336 0.301,0 0.567,0.114 0.8,0.342 0.232,0.229 0.349,0.498 0.349,0.808 v 2.819 h 4.618 c 0.31,0 0.578,0.114 0.806,0.342 0.228,0.229 0.342,0.497 0.342,0.807 0,0.319 -0.114,0.59 -0.342,0.813 -0.228,0.224 -0.497,0.335 -0.807,0.335 h -4.648 v 7.446 c 0,0.31 0.116,0.578 0.349,0.806 0.232,0.229 0.508,0.342 0.828,0.342 h 2.243 c 0.611,0 1.016,-0.33 1.217,-0.992 0.2,-0.661 0.589,-0.992 1.165,-0.992 0.338,0 0.615,0.111 0.83,0.335 0.215,0.224 0.322,0.504 0.322,0.841 0,0.693 -0.326,1.385 -0.979,2.072 -0.653,0.688 -1.485,1.031 -2.498,1.031 z"
   id="path53"
   inkscape:connector-curvature="0"
   style="fill:#ffffff" />
		<path
   d="m 159.92,496.485 v 1.014 c 0,0.32 -0.112,0.597 -0.335,0.829 -0.223,0.233 -0.494,0.35 -0.813,0.35 h -9.267 c -0.319,0 -0.59,-0.116 -0.813,-0.35 -0.224,-0.232 -0.335,-0.509 -0.335,-0.829 v -1.014 c 0,-0.32 0.111,-0.592 0.335,-0.815 0.223,-0.224 0.494,-0.336 0.813,-0.336 h 9.267 c 0.292,0 0.556,0.107 0.792,0.322 0.236,0.215 0.356,0.491 0.356,0.829 z"
   id="path55"
   inkscape:connector-curvature="0"
   style="fill:#ffffff" />
		<path
   d="m 172.484,510.568 h -4.973 c -0.319,0 -0.59,-0.109 -0.813,-0.328 -0.224,-0.219 -0.335,-0.492 -0.335,-0.819 0,-0.319 0.111,-0.587 0.334,-0.806 0.223,-0.219 0.494,-0.328 0.813,-0.328 h 4.972 c 0.3,0 0.583,-0.114 0.847,-0.342 l 0.779,-0.672 c 0.264,-0.2 0.396,-0.465 0.396,-0.794 v -3.505 c -1.075,1.084 -2.123,1.625 -3.144,1.625 h -1.763 c -0.911,0 -1.731,-0.314 -2.46,-0.942 l -0.861,-0.765 c -0.283,-0.237 -0.526,-0.583 -0.731,-1.039 -0.205,-0.455 -0.308,-0.901 -0.308,-1.339 v -3.798 c 0,-0.537 0.103,-1.047 0.308,-1.529 0.205,-0.482 0.448,-0.843 0.73,-1.08 l 0.942,-0.806 c 0.674,-0.583 1.467,-0.874 2.377,-0.874 h 1.653 c 0.901,0 1.721,0.318 2.459,0.956 l 0.792,0.669 -0.027,-0.449 c 0,-0.309 0.114,-0.577 0.342,-0.804 0.228,-0.228 0.498,-0.341 0.808,-0.341 0.319,0 0.596,0.111 0.828,0.335 0.233,0.224 0.35,0.494 0.35,0.813 v 12.874 c 0,0.976 -0.392,1.809 -1.175,2.501 l -0.929,0.807 c -0.237,0.21 -0.571,0.393 -1.004,0.547 -0.433,0.154 -0.833,0.233 -1.207,0.233 z m -1.314,-15.843 h -1.544 c -0.337,0 -0.661,0.132 -0.971,0.396 l -0.71,0.587 c -0.273,0.228 -0.41,0.537 -0.41,0.929 v 3.822 c 0,0.311 0.15,0.602 0.451,0.874 l 0.751,0.669 c 0.237,0.201 0.487,0.301 0.752,0.301 h 1.872 c 0.273,0 0.573,-0.137 0.901,-0.411 l 1.817,-1.547 c 0.282,-0.247 0.424,-0.548 0.424,-0.901 v -1.732 c 0,-0.418 -0.159,-0.759 -0.479,-1.022 l -1.872,-1.596 c -0.262,-0.246 -0.59,-0.369 -0.982,-0.369 z"
   id="path57"
   inkscape:connector-curvature="0"
   style="fill:#ffffff" />
		<path
   d="m 193.745,496.782 v 2.777 c 0,0.311 -0.114,0.579 -0.342,0.808 -0.228,0.228 -0.497,0.342 -0.806,0.342 h -8.118 v 0.667 c 0,0.39 0.168,0.722 0.506,0.993 l 0.669,0.559 c 0.364,0.281 0.71,0.422 1.039,0.422 h 5.904 c 0.31,0 0.579,0.111 0.806,0.335 0.227,0.224 0.342,0.495 0.342,0.813 0,0.311 -0.116,0.579 -0.349,0.807 -0.232,0.229 -0.499,0.342 -0.8,0.342 h -6.057 c -0.401,0 -0.823,-0.084 -1.265,-0.253 -0.442,-0.168 -0.768,-0.344 -0.978,-0.526 l -1.025,-0.901 c -0.319,-0.255 -0.586,-0.61 -0.8,-1.066 -0.214,-0.455 -0.321,-0.874 -0.321,-1.257 v -5.262 c 0,-0.301 0.116,-0.706 0.349,-1.216 0.232,-0.511 0.526,-0.907 0.882,-1.189 l 0.957,-0.751 c 0.629,-0.511 1.326,-0.766 2.092,-0.766 h 3.227 c 0.811,0 1.577,0.338 2.297,1.013 l 0.861,0.82 c 0.62,0.556 0.93,1.386 0.93,2.489 z m -9.235,-0.178 v 1.776 h 6.969 v -1.599 c 0,-0.429 -0.132,-0.756 -0.396,-0.983 l -0.669,-0.588 c -0.346,-0.282 -0.656,-0.424 -0.929,-0.424 h -2.883 c -0.355,0 -0.679,0.123 -0.971,0.369 l -0.669,0.561 c -0.301,0.228 -0.452,0.524 -0.452,0.888 z"
   id="path59"
   inkscape:connector-curvature="0"
   style="fill:#ffffff" />
		<path
   d="m 207.166,505.646 h -2.299 c -0.949,0 -1.766,-0.337 -2.449,-1.012 -0.685,-0.674 -1.026,-1.484 -1.026,-2.432 v -7.447 h -1.178 c -0.319,0 -0.591,-0.109 -0.815,-0.328 -0.224,-0.219 -0.335,-0.492 -0.335,-0.82 0,-0.318 0.112,-0.59 0.336,-0.813 0.224,-0.223 0.496,-0.335 0.816,-0.335 h 1.207 v -2.819 c 0,-0.319 0.111,-0.591 0.335,-0.813 0.223,-0.225 0.494,-0.336 0.813,-0.336 0.301,0 0.567,0.114 0.8,0.342 0.232,0.229 0.349,0.498 0.349,0.808 v 2.819 h 4.618 c 0.31,0 0.578,0.114 0.806,0.342 0.228,0.229 0.342,0.497 0.342,0.807 0,0.319 -0.114,0.59 -0.342,0.813 -0.228,0.224 -0.497,0.335 -0.807,0.335 h -4.648 v 7.446 c 0,0.31 0.116,0.578 0.349,0.806 0.232,0.229 0.508,0.342 0.828,0.342 h 2.243 c 0.611,0 1.016,-0.33 1.217,-0.992 0.2,-0.661 0.589,-0.992 1.165,-0.992 0.338,0 0.615,0.111 0.83,0.335 0.215,0.224 0.322,0.504 0.322,0.841 0,0.693 -0.326,1.385 -0.979,2.072 -0.654,0.688 -1.486,1.031 -2.498,1.031 z"
   id="path61"
   inkscape:connector-curvature="0"
   style="fill:#ffffff" />
		<path
   d="m 242.192,505.615 h -7 c -0.319,0 -0.59,-0.111 -0.813,-0.335 -0.224,-0.224 -0.335,-0.494 -0.335,-0.813 0,-0.31 0.111,-0.578 0.335,-0.807 0.223,-0.228 0.494,-0.342 0.813,-0.342 h 2.352 v -8.563 h -2.321 c -0.319,0 -0.59,-0.114 -0.813,-0.342 -0.223,-0.229 -0.334,-0.498 -0.334,-0.809 0,-0.319 0.111,-0.596 0.335,-0.828 0.223,-0.233 0.494,-0.35 0.813,-0.35 h 3.5 c 0.319,0 0.59,0.116 0.813,0.349 0.223,0.232 0.335,0.508 0.335,0.826 v 9.716 h 2.294 c 0.319,0 0.594,0.111 0.826,0.335 0.232,0.224 0.349,0.495 0.349,0.813 0,0.319 -0.114,0.59 -0.342,0.813 -0.228,0.226 -0.498,0.337 -0.807,0.337 z m -4.675,-19.156 h 1.205 c 0.319,0 0.59,0.111 0.814,0.336 0.224,0.223 0.335,0.494 0.335,0.814 v 0.984 c 0,0.32 -0.112,0.596 -0.335,0.829 -0.224,0.232 -0.495,0.349 -0.814,0.349 h -1.232 c -0.328,0 -0.604,-0.118 -0.828,-0.355 -0.224,-0.237 -0.331,-0.502 -0.321,-0.795 l 0.027,-1.012 c 0,-0.32 0.111,-0.592 0.335,-0.814 0.223,-0.225 0.495,-0.336 0.814,-0.336 z"
   id="path63"
   inkscape:connector-curvature="0"
   style="fill:#ffffff" />
		<path
   d="m 255.263,495.122 -3.136,2.04 v 7.337 c 0,0.31 -0.114,0.578 -0.342,0.806 -0.228,0.229 -0.497,0.342 -0.807,0.342 -0.31,0 -0.579,-0.113 -0.807,-0.342 -0.228,-0.228 -0.342,-0.496 -0.342,-0.807 v -10.895 c 0,-0.319 0.111,-0.595 0.335,-0.827 0.223,-0.232 0.494,-0.349 0.813,-0.349 0.31,0 0.579,0.116 0.807,0.348 0.228,0.232 0.342,0.508 0.342,0.826 v 0.764 l 2.095,-1.27 c 0.703,-0.445 1.497,-0.668 2.383,-0.668 h 1.068 c 0.912,0 1.702,0.324 2.368,0.971 0.667,0.646 1.018,1.444 1.055,2.393 l 0.313,8.707 c 0.009,0.311 -0.101,0.579 -0.328,0.807 -0.228,0.229 -0.501,0.342 -0.82,0.342 -0.301,0 -0.565,-0.103 -0.793,-0.308 -0.228,-0.205 -0.347,-0.485 -0.355,-0.841 l -0.344,-8.57 c -0.027,-0.802 -0.447,-1.203 -1.26,-1.203 h -1.123 c -0.346,0 -0.72,0.132 -1.122,0.397 z"
   id="path65"
   inkscape:connector-curvature="0"
   style="fill:#ffffff" />
		<path
   d="m 269.955,492.459 h 5.255 c 0.818,0 1.541,0.244 2.17,0.731 0.627,0.487 0.941,0.964 0.941,1.429 0,0.328 -0.116,0.598 -0.348,0.807 -0.232,0.21 -0.488,0.314 -0.771,0.314 -0.364,0 -0.695,-0.164 -0.995,-0.492 -0.301,-0.328 -0.614,-0.492 -0.941,-0.492 h -5.182 c -0.51,0 -0.764,0.21 -0.764,0.631 0,0.295 0.17,0.519 0.51,0.67 l 6.093,2.729 c 0.618,0.273 1.126,0.713 1.522,1.319 0.396,0.605 0.594,1.277 0.594,2.016 0,0.983 -0.349,1.817 -1.045,2.5 -0.697,0.684 -1.488,1.025 -2.371,1.025 h -4.646 c -0.802,0 -1.546,-0.241 -2.234,-0.725 -0.688,-0.482 -1.031,-0.952 -1.031,-1.408 0,-0.301 0.111,-0.567 0.335,-0.8 0.223,-0.232 0.513,-0.349 0.868,-0.349 0.291,0 0.604,0.164 0.936,0.492 0.332,0.328 0.813,0.492 1.441,0.492 h 4.277 c 0.338,0 0.62,-0.13 0.848,-0.389 0.228,-0.26 0.342,-0.558 0.342,-0.895 0,-0.52 -0.255,-0.893 -0.765,-1.12 l -6.157,-2.774 c -0.592,-0.265 -1.047,-0.647 -1.366,-1.148 -0.318,-0.501 -0.478,-1.012 -0.478,-1.53 0,-0.82 0.284,-1.53 0.854,-2.132 0.568,-0.6 1.271,-0.901 2.108,-0.901 z"
   id="path67"
   inkscape:connector-curvature="0"
   style="fill:#ffffff" />
		<path
   d="m 291.726,505.646 h -2.299 c -0.948,0 -1.766,-0.337 -2.449,-1.012 -0.685,-0.674 -1.026,-1.484 -1.026,-2.432 v -7.447 h -1.178 c -0.319,0 -0.592,-0.109 -0.814,-0.328 -0.225,-0.219 -0.336,-0.492 -0.336,-0.82 0,-0.318 0.111,-0.59 0.336,-0.813 0.225,-0.223 0.496,-0.335 0.816,-0.335 h 1.207 v -2.819 c 0,-0.319 0.111,-0.591 0.335,-0.813 0.224,-0.225 0.494,-0.336 0.813,-0.336 0.301,0 0.567,0.114 0.8,0.342 0.232,0.229 0.349,0.498 0.349,0.808 v 2.819 h 4.618 c 0.31,0 0.578,0.114 0.806,0.342 0.228,0.229 0.342,0.497 0.342,0.807 0,0.319 -0.114,0.59 -0.342,0.813 -0.229,0.224 -0.497,0.335 -0.807,0.335 h -4.648 v 7.446 c 0,0.31 0.116,0.578 0.349,0.806 0.232,0.229 0.509,0.342 0.827,0.342 h 2.244 c 0.61,0 1.016,-0.33 1.217,-0.992 0.2,-0.661 0.589,-0.992 1.164,-0.992 0.339,0 0.615,0.111 0.83,0.335 0.215,0.224 0.322,0.504 0.322,0.841 0,0.693 -0.326,1.385 -0.979,2.072 -0.652,0.688 -1.484,1.031 -2.497,1.031 z"
   id="path69"
   inkscape:connector-curvature="0"
   style="fill:#ffffff" />
		<path
   d="m 303.993,497.365 h 4.498 c 0.246,0 0.602,0.054 1.066,0.16 l -0.037,-1.623 c 0,-0.318 -0.111,-0.59 -0.334,-0.813 -0.223,-0.223 -0.492,-0.334 -0.811,-0.334 h -4.35 c -0.31,0 -0.577,-0.113 -0.805,-0.342 -0.228,-0.228 -0.341,-0.496 -0.341,-0.807 0,-0.318 0.111,-0.59 0.334,-0.813 0.224,-0.224 0.494,-0.335 0.813,-0.335 h 4.355 c 0.945,0 1.754,0.332 2.422,0.998 0.67,0.664 1.018,1.48 1.045,2.445 l 0.281,8.596 c 0,0.319 -0.113,0.591 -0.342,0.813 -0.229,0.224 -0.498,0.335 -0.809,0.335 -0.328,0 -0.607,-0.112 -0.836,-0.337 -0.227,-0.226 -0.342,-0.498 -0.342,-0.819 l -1.938,1.156 h -3.876 c -0.965,0 -1.783,-0.337 -2.457,-1.012 -0.673,-0.674 -1.01,-1.493 -1.01,-2.459 v -1.34 c 0,-0.956 0.34,-1.773 1.019,-2.453 0.679,-0.676 1.498,-1.016 2.455,-1.016 z m 5.722,4.453 -0.068,-0.959 c -0.01,-0.324 -0.123,-0.594 -0.342,-0.811 -0.217,-0.216 -0.484,-0.324 -0.803,-0.324 h -4.509 c -0.318,0 -0.588,0.111 -0.811,0.333 -0.223,0.223 -0.334,0.492 -0.334,0.81 v 1.277 c 0,0.309 0.113,0.576 0.341,0.803 0.227,0.227 0.495,0.34 0.804,0.34 h 3.228 l 2.494,-1.469 z"
   id="path71"
   inkscape:connector-curvature="0"
   style="fill:#ffffff" />
		<path
   d="m 326.752,505.646 h -6.951 c -0.32,0 -0.592,-0.116 -0.814,-0.35 -0.225,-0.232 -0.336,-0.509 -0.336,-0.828 0,-0.311 0.111,-0.58 0.336,-0.808 0.225,-0.229 0.496,-0.343 0.816,-0.343 h 2.301 V 489.77 h -2.332 c -0.32,0 -0.592,-0.111 -0.816,-0.335 -0.224,-0.224 -0.336,-0.494 -0.336,-0.813 0,-0.318 0.111,-0.59 0.336,-0.813 0.225,-0.223 0.496,-0.335 0.816,-0.335 h 3.51 c 0.311,0 0.58,0.114 0.809,0.342 0.229,0.229 0.342,0.497 0.342,0.807 v 14.695 h 2.322 c 0.309,0 0.578,0.114 0.805,0.343 0.229,0.228 0.342,0.497 0.342,0.808 0,0.319 -0.111,0.596 -0.334,0.828 -0.226,0.233 -0.498,0.349 -0.816,0.349 z"
   id="path73"
   inkscape:connector-curvature="0"
   style="fill:#ffffff" />
		<path
   d="m 343.664,505.646 h -6.951 c -0.32,0 -0.592,-0.116 -0.814,-0.35 -0.225,-0.232 -0.336,-0.509 -0.336,-0.828 0,-0.311 0.111,-0.58 0.336,-0.808 0.225,-0.229 0.496,-0.343 0.816,-0.343 h 2.301 V 489.77 h -2.332 c -0.32,0 -0.592,-0.111 -0.816,-0.335 -0.224,-0.224 -0.336,-0.494 -0.336,-0.813 0,-0.318 0.111,-0.59 0.336,-0.813 0.225,-0.223 0.496,-0.335 0.816,-0.335 h 3.51 c 0.311,0 0.58,0.114 0.809,0.342 0.229,0.229 0.342,0.497 0.342,0.807 v 14.695 h 2.322 c 0.309,0 0.578,0.114 0.805,0.343 0.229,0.228 0.342,0.497 0.342,0.808 0,0.319 -0.111,0.596 -0.334,0.828 -0.226,0.233 -0.498,0.349 -0.816,0.349 z"
   id="path75"
   inkscape:connector-curvature="0"
   style="fill:#ffffff" />
		<path
   d="m 371.641,497.365 h 4.498 c 0.246,0 0.602,0.054 1.066,0.16 l -0.037,-1.623 c 0,-0.318 -0.111,-0.59 -0.334,-0.813 -0.223,-0.223 -0.492,-0.334 -0.811,-0.334 h -4.35 c -0.311,0 -0.578,-0.113 -0.805,-0.342 -0.229,-0.228 -0.342,-0.496 -0.342,-0.807 0,-0.318 0.111,-0.59 0.334,-0.813 0.225,-0.224 0.494,-0.335 0.813,-0.335 h 4.355 c 0.945,0 1.754,0.332 2.422,0.998 0.67,0.664 1.018,1.48 1.045,2.445 l 0.281,8.596 c 0,0.319 -0.113,0.591 -0.342,0.813 -0.229,0.224 -0.498,0.335 -0.809,0.335 -0.328,0 -0.607,-0.112 -0.836,-0.337 -0.227,-0.226 -0.342,-0.498 -0.342,-0.819 l -1.938,1.156 h -3.877 c -0.965,0 -1.783,-0.337 -2.457,-1.012 -0.672,-0.674 -1.01,-1.493 -1.01,-2.459 v -1.34 c 0,-0.956 0.34,-1.773 1.02,-2.453 0.68,-0.676 1.499,-1.016 2.456,-1.016 z m 5.722,4.453 -0.068,-0.959 c -0.01,-0.324 -0.123,-0.594 -0.342,-0.811 -0.217,-0.216 -0.484,-0.324 -0.803,-0.324 h -4.51 c -0.318,0 -0.588,0.111 -0.811,0.333 -0.223,0.223 -0.334,0.492 -0.334,0.81 v 1.277 c 0,0.309 0.113,0.576 0.342,0.803 0.227,0.227 0.494,0.34 0.803,0.34 h 3.229 l 2.494,-1.469 z"
   id="path77"
   inkscape:connector-curvature="0"
   style="fill:#ffffff" />
		<path
   d="m 390.561,495.122 -3.137,2.04 v 7.337 c 0,0.31 -0.113,0.578 -0.342,0.806 -0.229,0.229 -0.496,0.342 -0.807,0.342 -0.311,0 -0.578,-0.113 -0.807,-0.342 -0.229,-0.228 -0.342,-0.496 -0.342,-0.807 v -10.895 c 0,-0.319 0.111,-0.595 0.336,-0.827 0.223,-0.232 0.494,-0.349 0.813,-0.349 0.311,0 0.578,0.116 0.807,0.348 0.229,0.232 0.342,0.508 0.342,0.826 v 0.764 l 2.096,-1.27 c 0.703,-0.445 1.496,-0.668 2.383,-0.668 h 1.068 c 0.912,0 1.701,0.324 2.367,0.971 0.668,0.646 1.018,1.444 1.055,2.393 l 0.313,8.707 c 0.01,0.311 -0.1,0.579 -0.328,0.807 -0.229,0.229 -0.502,0.342 -0.82,0.342 -0.301,0 -0.564,-0.103 -0.793,-0.308 -0.229,-0.205 -0.346,-0.485 -0.355,-0.841 l -0.344,-8.57 c -0.027,-0.802 -0.447,-1.203 -1.26,-1.203 h -1.123 c -0.347,0 -0.722,0.132 -1.122,0.397 z"
   id="path79"
   inkscape:connector-curvature="0"
   style="fill:#ffffff" />
		<path
   d="m 405.465,497.365 h 4.498 c 0.246,0 0.602,0.054 1.066,0.16 l -0.037,-1.623 c 0,-0.318 -0.111,-0.59 -0.334,-0.813 -0.223,-0.223 -0.492,-0.334 -0.811,-0.334 h -4.35 c -0.311,0 -0.578,-0.113 -0.805,-0.342 -0.229,-0.228 -0.342,-0.496 -0.342,-0.807 0,-0.318 0.111,-0.59 0.334,-0.813 0.225,-0.224 0.494,-0.335 0.813,-0.335 h 4.355 c 0.945,0 1.754,0.332 2.422,0.998 0.67,0.664 1.018,1.48 1.045,2.445 l 0.281,8.596 c 0,0.319 -0.113,0.591 -0.342,0.813 -0.229,0.224 -0.498,0.335 -0.809,0.335 -0.328,0 -0.607,-0.112 -0.836,-0.337 -0.227,-0.226 -0.342,-0.498 -0.342,-0.819 l -1.938,1.156 h -3.877 c -0.965,0 -1.783,-0.337 -2.457,-1.012 -0.672,-0.674 -1.01,-1.493 -1.01,-2.459 v -1.34 c 0,-0.956 0.34,-1.773 1.02,-2.453 0.68,-0.676 1.499,-1.016 2.456,-1.016 z m 5.723,4.453 -0.068,-0.959 c -0.01,-0.324 -0.123,-0.594 -0.342,-0.811 -0.217,-0.216 -0.484,-0.324 -0.803,-0.324 h -4.51 c -0.318,0 -0.588,0.111 -0.811,0.333 -0.223,0.223 -0.334,0.492 -0.334,0.81 v 1.277 c 0,0.309 0.113,0.576 0.342,0.803 0.227,0.227 0.494,0.34 0.803,0.34 h 3.229 l 2.494,-1.469 z"
   id="path81"
   inkscape:connector-curvature="0"
   style="fill:#ffffff" />
		<path
   d="m 418.951,504.498 v -10.895 c 0,-0.319 0.111,-0.595 0.336,-0.827 0.223,-0.232 0.494,-0.349 0.813,-0.349 0.319,0 0.59,0.114 0.814,0.342 0.223,0.228 0.334,0.506 0.334,0.833 v 1.435 l 1.873,-1.596 c 0.773,-0.655 1.529,-0.982 2.268,-0.982 h 1.682 c 0.947,0 1.758,0.337 2.432,1.012 0.676,0.674 1.012,1.484 1.012,2.433 v 0.614 c 0,0.328 -0.111,0.606 -0.334,0.834 -0.225,0.229 -0.496,0.342 -0.814,0.342 -0.318,0 -0.59,-0.111 -0.813,-0.335 -0.225,-0.223 -0.336,-0.494 -0.336,-0.813 v -0.643 c 0,-0.318 -0.111,-0.59 -0.334,-0.813 -0.223,-0.224 -0.494,-0.335 -0.813,-0.335 h -1.49 c -0.318,0 -0.674,0.168 -1.066,0.505 l -3.266,2.823 v 6.414 c 0,0.318 -0.113,0.59 -0.342,0.813 -0.229,0.223 -0.496,0.335 -0.807,0.335 -0.318,0 -0.59,-0.111 -0.813,-0.335 -0.224,-0.222 -0.336,-0.493 -0.336,-0.812 z"
   id="path83"
   inkscape:connector-curvature="0"
   style="fill:#ffffff" />
		<path
   d="m 446.309,505.646 h -4.906 c -0.865,0 -1.604,-0.26 -2.213,-0.779 l -2.229,-1.94 c -0.711,-0.592 -1.066,-1.394 -1.066,-2.405 v -2.992 c -0.037,-0.975 0.365,-1.822 1.203,-2.542 l 2.01,-1.735 c 0.646,-0.528 1.34,-0.793 2.078,-0.793 h 5.154 c 0.318,0 0.59,0.111 0.814,0.335 0.223,0.224 0.334,0.495 0.334,0.813 0,0.328 -0.111,0.602 -0.334,0.82 -0.225,0.219 -0.494,0.328 -0.814,0.328 h -4.934 c -0.309,0 -0.605,0.123 -0.887,0.369 l -1.846,1.571 c -0.301,0.255 -0.451,0.597 -0.451,1.024 v 2.801 c 0,0.301 0.119,0.556 0.355,0.766 l 2.021,1.721 c 0.256,0.229 0.592,0.342 1.012,0.342 h 4.699 c 0.309,0 0.578,0.111 0.805,0.335 0.229,0.224 0.342,0.495 0.342,0.813 0,0.319 -0.111,0.59 -0.334,0.813 -0.224,0.224 -0.493,0.335 -0.813,0.335 z"
   id="path85"
   inkscape:connector-curvature="0"
   style="fill:#ffffff" />
		<path
   d="m 452.744,504.498 v -15.871 c 0,-0.31 0.111,-0.574 0.336,-0.793 0.223,-0.219 0.494,-0.328 0.813,-0.328 0.319,0 0.59,0.111 0.814,0.336 0.223,0.223 0.334,0.494 0.334,0.813 v 5.804 l 1.846,-1.205 c 0.84,-0.53 1.588,-0.795 2.244,-0.795 h 1.422 c 0.939,0 1.746,0.335 2.42,1.004 0.674,0.67 1.025,1.483 1.053,2.439 l 0.281,8.596 c 0.01,0.319 -0.1,0.591 -0.328,0.813 -0.229,0.224 -0.502,0.335 -0.82,0.335 -0.318,0 -0.588,-0.116 -0.807,-0.349 -0.219,-0.233 -0.332,-0.499 -0.342,-0.8 l -0.281,-8.625 c -0.01,-0.311 -0.127,-0.579 -0.355,-0.807 -0.228,-0.228 -0.502,-0.342 -0.82,-0.342 h -1.285 c -0.293,0 -0.611,0.114 -0.957,0.344 l -3.27,2.141 v 7.291 c 0,0.318 -0.111,0.589 -0.334,0.813 -0.225,0.223 -0.496,0.334 -0.814,0.334 -0.318,0 -0.59,-0.111 -0.813,-0.335 -0.226,-0.223 -0.337,-0.494 -0.337,-0.813 z"
   id="path87"
   inkscape:connector-curvature="0"
   style="fill:#ffffff" />
		<path
   d="m 478.961,505.615 h -7 c -0.318,0 -0.59,-0.111 -0.813,-0.335 -0.225,-0.224 -0.336,-0.494 -0.336,-0.813 0,-0.31 0.111,-0.578 0.336,-0.807 0.223,-0.228 0.494,-0.342 0.813,-0.342 h 2.352 v -8.563 h -2.32 c -0.32,0 -0.59,-0.114 -0.814,-0.342 -0.223,-0.229 -0.334,-0.498 -0.334,-0.809 0,-0.319 0.111,-0.596 0.336,-0.828 0.223,-0.233 0.494,-0.35 0.813,-0.35 h 3.5 c 0.318,0 0.59,0.116 0.814,0.349 0.223,0.232 0.334,0.508 0.334,0.826 v 9.716 h 2.295 c 0.318,0 0.594,0.111 0.826,0.335 0.232,0.224 0.348,0.495 0.348,0.813 0,0.319 -0.113,0.59 -0.342,0.813 -0.229,0.223 -0.498,0.337 -0.808,0.337 z m -4.674,-19.156 h 1.205 c 0.318,0 0.59,0.111 0.813,0.336 0.225,0.223 0.336,0.494 0.336,0.814 v 0.984 c 0,0.32 -0.111,0.596 -0.336,0.829 -0.223,0.232 -0.494,0.349 -0.813,0.349 h -1.232 c -0.328,0 -0.605,-0.118 -0.828,-0.355 -0.225,-0.237 -0.332,-0.502 -0.322,-0.795 l 0.027,-1.012 c 0,-0.32 0.111,-0.592 0.336,-0.814 0.222,-0.225 0.494,-0.336 0.814,-0.336 z"
   id="path89"
   inkscape:connector-curvature="0"
   style="fill:#ffffff" />
		<path
   d="m 489.813,492.459 h 5.254 c 0.818,0 1.541,0.244 2.17,0.731 0.627,0.487 0.941,0.964 0.941,1.429 0,0.328 -0.115,0.598 -0.348,0.807 -0.232,0.21 -0.488,0.314 -0.77,0.314 -0.365,0 -0.695,-0.164 -0.996,-0.492 -0.301,-0.328 -0.613,-0.492 -0.941,-0.492 h -5.182 c -0.51,0 -0.764,0.21 -0.764,0.631 0,0.295 0.17,0.519 0.51,0.67 l 6.094,2.729 c 0.617,0.273 1.125,0.713 1.521,1.319 0.396,0.605 0.594,1.277 0.594,2.016 0,0.983 -0.348,1.817 -1.045,2.5 -0.697,0.684 -1.488,1.025 -2.371,1.025 h -4.646 c -0.801,0 -1.545,-0.241 -2.234,-0.725 -0.688,-0.482 -1.031,-0.952 -1.031,-1.408 0,-0.301 0.111,-0.567 0.336,-0.8 0.223,-0.232 0.512,-0.349 0.867,-0.349 0.291,0 0.604,0.164 0.936,0.492 0.332,0.328 0.813,0.492 1.441,0.492 h 4.277 c 0.338,0 0.621,-0.13 0.848,-0.389 0.229,-0.26 0.342,-0.558 0.342,-0.895 0,-0.52 -0.254,-0.893 -0.764,-1.12 l -6.158,-2.774 c -0.592,-0.265 -1.047,-0.647 -1.365,-1.148 -0.318,-0.501 -0.479,-1.012 -0.479,-1.53 0,-0.82 0.285,-1.53 0.854,-2.132 0.569,-0.602 1.271,-0.901 2.109,-0.901 z"
   id="path91"
   inkscape:connector-curvature="0"
   style="fill:#ffffff" />
		<path
   d="m 503.23,504.498 v -10.891 c 0,-0.319 0.111,-0.59 0.334,-0.813 0.223,-0.223 0.494,-0.335 0.813,-0.335 0.592,0 0.965,0.291 1.119,0.873 0.637,-0.604 1.348,-0.904 2.129,-0.904 0.92,0 1.674,0.393 2.266,1.178 0.729,-0.785 1.527,-1.178 2.402,-1.178 0.709,0 1.326,0.253 1.848,0.759 0.523,0.506 0.803,1.15 0.84,1.935 l 0.344,9.377 c 0,0.311 -0.113,0.579 -0.342,0.807 -0.229,0.229 -0.498,0.342 -0.809,0.342 -0.318,0 -0.594,-0.113 -0.822,-0.342 -0.227,-0.228 -0.346,-0.496 -0.355,-0.806 l -0.281,-9.005 c -0.018,-0.492 -0.168,-0.738 -0.451,-0.738 -0.154,0 -0.314,0.068 -0.479,0.205 l -1.367,1.148 v 8.386 c 0,0.31 -0.111,0.574 -0.334,0.792 -0.225,0.219 -0.496,0.328 -0.814,0.328 -0.311,0 -0.578,-0.111 -0.807,-0.335 -0.229,-0.223 -0.342,-0.493 -0.342,-0.813 v -9.124 c 0,-0.393 -0.168,-0.588 -0.502,-0.588 -0.164,0 -0.313,0.06 -0.449,0.178 l -1.643,1.395 v 8.171 c 0,0.31 -0.109,0.578 -0.328,0.806 -0.219,0.229 -0.482,0.342 -0.793,0.342 -0.318,0 -0.594,-0.113 -0.826,-0.342 -0.233,-0.229 -0.351,-0.497 -0.351,-0.808 z"
   id="path93"
   inkscape:connector-curvature="0"
   style="fill:#ffffff" />
	</g>
</g>
<g
   id="black_swirl"
   display="none"
   style="display:none"
   transform="translate(-71.422599,-186.58364)">
	<path
   display="inline"
   d="m 363.665,365.694 c -0.836,-13.661 -5.469,-24.095 -6.412,-25.093 4.742,5.02 8.922,17.008 10.316,23.978 l -1.316,5.729"
   id="path96"
   inkscape:connector-curvature="0"
   style="display:inline" />
	<g
   display="inline"
   id="g98"
   style="display:inline">
		<g
   id="g100">
			<path
   d="m 306.349,225.442 -2.268,0.469 2.111,-0.188 0.157,-0.281 z m -39.894,193.124 c -2.091,-2.313 -3.329,-5.096 -4.715,-7.867 1.325,4.875 4.038,9.064 6.563,13.324 l -1.848,-5.457 z m 32.012,28.538 c -0.073,0.08 -0.101,0.182 -0.095,0.303 0.037,-0.102 0.07,-0.202 0.095,-0.303 z m 16.966,-228.126 c -5.621,0.472 -11.215,0.753 -16.74,1.465 l 2.438,0.332 c 4.061,-1.488 9.989,-0.815 14.302,-1.797 z m -47.031,219.545 c -3.63,-7.084 -6.327,-10.012 -11.288,-19.59 l -0.844,4.215 c 3.95,5.364 7.086,11.18 12.132,15.375 z m 151.99,-20.23 c 5.92,-11.135 9.75,-23.315 11.357,-35.655 l -0.883,2.215 c -1.619,11.504 -5.115,22.885 -10.474,33.44 z M 299.937,223.659 c 3.211,0.577 6.936,1.018 6.412,1.784 3.509,-0.77 4.306,-1.479 -6.412,-1.784 z m 66.982,147.984 c 0.725,-10.828 -2.131,-7.405 -3.092,-3.272 1.117,0.581 2.006,7.631 3.092,3.272 z M 160.065,302.984 c 4.177,-9.408 -1.156,-3.37 -1.617,-5.887 0.647,8.346 -6.421,11.508 1.617,5.887 z m 267.547,45.642 c 0.098,-5.52 1.535,-2.893 2.092,-4.252 -1.086,-0.623 -3.928,-4.854 -5.66,-12.971 1.256,-1.907 3.354,4.945 5.059,5.226 -1.098,-6.453 -2.986,-11.375 -3.064,-16.327 -4.986,-10.418 -1.766,1.389 -5.811,-4.473 -5.305,-16.553 4.406,-3.841 5.059,-11.362 8.045,11.653 12.631,29.713 14.736,37.195 -1.607,-9.121 -4.203,-17.957 -7.371,-26.506 2.443,1.028 -3.934,-18.766 3.176,-5.657 -7.594,-27.944 -32.504,-54.053 -55.422,-66.306 2.805,2.566 6.346,5.788 5.072,6.293 -11.396,-6.785 -9.391,-7.314 -11.025,-10.181 -9.285,-3.777 -9.893,0.304 -16.041,0.006 -17.5,-9.281 -20.873,-8.294 -36.975,-14.108 l 0.732,3.423 c -11.592,-3.862 -13.506,1.465 -26.035,0.013 -0.762,-0.597 4.012,-2.155 7.947,-2.727 -11.209,1.479 -10.684,-2.208 -21.651,0.409 2.703,-1.898 5.561,-3.153 8.444,-4.766 -9.139,0.556 -21.821,5.321 -17.907,0.987 -14.908,6.652 -41.387,15.99 -56.245,29.922 l -0.469,-3.122 c -6.808,8.173 -29.688,24.41 -31.514,34.997 l -1.82,0.425 c -3.542,5.999 -5.833,12.798 -8.645,18.97 -4.633,7.897 -6.792,3.039 -6.133,4.277 -9.113,18.479 -13.64,34.006 -17.552,46.739 2.787,4.166 0.067,25.077 1.122,41.811 -1.631,29.452 5.271,58.594 17.918,84.75 h 27.215 c -2.933,-4.883 -4.902,-9.514 -4.674,-11.473 2.797,3.777 4.737,4.482 6.659,5.129 -13.239,-32.85 -13.983,-1.809 -24.01,-33.438 l 2.122,-0.17 c -1.627,-2.449 -2.614,-5.109 -3.922,-7.717 l 0.925,-9.201 c -9.526,-11.004 -2.661,-46.844 -1.286,-66.5 0.954,-7.994 7.956,-16.502 13.283,-29.844 l -3.246,-0.559 c 6.203,-10.82 35.417,-43.454 48.948,-41.774 6.555,-8.235 -1.3,-0.031 -2.583,-2.106 14.398,-14.897 18.925,-10.526 28.641,-13.205 10.479,-6.219 -8.994,2.426 -4.025,-2.372 18.113,-4.628 12.839,-10.519 36.469,-12.868 2.492,1.419 -5.784,2.192 -7.862,4.032 15.092,-7.384 47.76,-5.705 68.977,4.099 24.623,11.506 52.285,45.519 53.377,77.521 l 1.24,0.335 c -0.627,12.72 1.947,27.431 -2.516,40.945 l 3.039,-6.398 c 0.359,9.724 -2.844,14.441 -5.73,22.793 l -5.195,2.594 c -4.254,8.26 0.412,5.246 -2.635,11.814 -6.639,5.9 -20.146,18.467 -24.465,19.617 -3.156,-0.072 2.137,-3.725 2.83,-5.156 -8.889,6.104 -7.131,9.162 -20.723,12.867 l -0.398,-0.883 c -24.877,11.703 -56.937,-2.5 -71.563,-28.033 11.976,10.602 22.997,11.951 39.526,11.709 11.709,-0.172 16.172,-1.672 32.064,-14.219 0,0 -0.064,-0.563 -0.211,-1.164 l 0.629,-0.09 2.928,-2.928 1.887,-2.832 c 0.078,0.217 0.113,0.475 0.08,0.799 2.148,-2.965 5.924,-8.752 7.109,-15.944 -0.805,3.988 -3.641,8.219 -5.592,10.029 -5.162,4.795 -0.473,-3.166 0.58,-7.453 -3.764,4.738 -5.343,7.408 -5.748,8.969 l -0.408,-0.26 -1.674,-2.928 -2.09,-5.438 -2.928,-4.182 -0.418,-2.789 -0.559,-3.066 -2.787,-3.763 -3.244,-8.551 v -1.213 c -0.153,-0.025 -0.315,-0.048 -0.485,-0.067 l -0.872,-2.297 -3.764,-7.528 c 0,0 -2.51,-3.346 -2.51,-6.691 0,-3.345 0.838,-1.673 0.838,-1.673 0,0 -0.838,-3.346 -1.674,-3.346 -0.836,0 -2.09,-3.346 -2.09,-3.346 l -6.928,-15.007 c 13.298,-0.463 26.206,4.184 35.332,12.688 -7.697,-10.084 -23.021,-20.773 -41.18,-19.774 -17.789,0.281 -34.43,11.588 -39.985,23.86 -9.114,5.737 -10.172,22.118 -14.143,25.116 -5.348,39.266 10.047,56.231 36.09,76.188 2.091,1.41 2.345,2.209 2.169,2.934 0.012,-0.014 0.012,-0.033 0.026,-0.045 30.721,11.475 62.453,8.691 89.035,-12.619 6.764,-5.268 14.148,-14.227 16.285,-14.35 -3.215,4.836 0.549,2.326 -1.922,6.594 6.738,-10.867 -2.928,-4.424 6.967,-18.768 l 3.652,5.031 c -1.359,-9.025 11.201,-19.975 9.926,-34.243 2.883,-4.363 3.215,4.693 0.158,14.73 4.24,-11.135 1.117,-12.924 2.207,-22.111 1.178,3.088 2.727,6.369 3.518,9.628 -2.766,-10.759 2.836,-18.12 4.221,-24.372 -1.361,-0.604 -4.264,4.759 -4.924,-7.952 z m -96.165,25.821 v -1.483 l 0.731,3.212 -19.012,0.742 14.99,-1.73 3.291,-0.741 z m -13.943,-1.492 c 1.656,-0.515 3.139,-0.632 4.593,-0.61 -2.419,0.333 -4.104,0.61 -4.104,0.61 h -0.489 z m 10.442,-19.31 c -0.152,-0.229 -0.279,-0.4 -0.387,-0.527 -0.072,-0.338 -0.132,-0.682 -0.162,-1.028 0.974,1.903 1.319,2.708 0.549,1.555 z m -12.101,-16.062 c 4.931,9.004 11.612,21.329 9.435,18.062 -2.23,-3.346 0.558,4.647 2.664,10.347 0.038,0.102 0.074,0.2 0.111,0.3 -5.124,0.518 -10.062,1.33 -10.062,1.33 h -12.477 c 2.502,-7.725 5.161,-15.936 5.161,-15.936 l 5.168,-14.103 z m -45.226,43.692 c -0.358,2.707 -1.017,2.031 -1.759,3.125 -1.73,-21.938 10.131,-43.973 30.135,-52.97 2.184,-1.081 4.411,-1.982 6.661,-2.729 -0.313,4.343 -3.431,16.022 -3.431,16.022 l 5.653,-16.707 c 0.436,-0.123 0.871,-0.238 1.308,-0.349 -1.572,4.55 -4.156,12.057 -5.637,16.499 -2.23,6.691 -3.346,10.595 -5.018,16.45 -0.854,2.988 -3.015,8.732 -4.926,13.644 l -0.189,0.288 c 0.022,0.01 0.045,0.017 0.067,0.026 -1.783,4.574 -3.317,8.346 -3.317,8.346 0,0 -9.202,13.941 -6.134,12.268 1.648,-0.898 2.626,-1.264 3.168,-1.303 -0.268,0.512 -0.501,0.985 -0.685,1.401 -1.435,0.714 -4.456,3.228 -6.108,6.037 -2.789,4.74 1.394,4.74 1.394,4.74 l 0.664,0.793 c 0.021,0.027 0.045,0.053 0.068,0.08 l 1.777,2.123 c 0,0 0.169,-0.354 0.462,-0.967 l 2.205,2.633 c 0,0 7.999,-16.743 11.998,-25.114 0.222,-0.465 0.41,-0.914 0.535,-1.358 0.389,-1.421 1.087,-2.901 1.824,-4.444 1.724,0.342 3.516,1.036 5.381,-0.51 0.473,-0.041 0.934,-0.078 1.386,-0.111 0.396,-0.027 0.784,-0.053 1.169,-0.076 0.386,-0.023 0.774,-0.045 1.168,-0.064 0.394,-0.019 0.764,-0.035 1.124,-0.053 0.361,-0.017 0.733,-0.033 1.112,-0.049 0.758,-0.031 1.526,-0.064 2.323,-0.103 0.398,-0.019 0.805,-0.04 1.236,-0.098 4.267,-1.781 7.267,-0.781 11.164,-0.876 0.299,-0.076 0.626,-0.113 0.953,-0.153 1.343,-0.163 2.682,-0.378 4.017,-0.634 0.099,0.352 0.214,0.705 0.352,1.059 0.261,0.83 0.545,1.605 0.857,2.358 0.156,0.377 0.318,0.747 0.487,1.115 1.437,2.017 2.437,4.017 1.893,5.559 0.108,0.24 0.227,0.488 0.356,0.742 0.391,0.761 0.886,1.579 1.513,2.442 3.346,4.6 2.648,12.407 3.205,4.879 0.35,-4.719 1.395,4.741 1.395,4.741 l 2.51,3.346 v 6.691 l 1.648,-0.236 c -2.599,3.117 -7.844,5.979 -14.038,8.273 -7.527,2.787 -12.824,4.74 -30.947,1.672 -18.124,-3.066 -13.662,-6.133 -13.662,-6.133 0,0 -8.345,-6.832 -14.738,-14.443 -1.741,-5.641 -2.669,-11.633 -2.579,-17.872 z m -6.611,176.114 2.947,5.209 c -14.607,-5.17 -8.494,-6.398 -20.378,-10.162 l 3.147,-4.109 c -4.734,-0.359 -12.539,-7.979 -14.675,-12.201 l -5.179,0.203 c -6.223,-7.678 -9.539,-13.213 -9.297,-17.5 l -1.675,2.98 c -0.514,-0.883 -2.437,-3.41 -4.743,-6.498 h -23.642 c 23.361,30.723 54.816,53.799 87.615,62.682 10.027,3.588 24.939,3.451 37.623,3.816 -14.967,-4.279 -16.9,-2.268 -31.477,-7.352 -10.512,-4.953 -12.818,-10.605 -20.266,-17.068 z m -112.26,-233.19 c -5.207,6.654 -2.395,8.074 -2.944,12.601 1.884,-5.782 2.225,-9.255 2.944,-12.601 z m 146.257,125.258 c -8.652,-4.053 -16.575,-10.168 -23.09,-17.658 3.457,5.059 7.188,9.979 12.008,13.842 -8.157,-2.766 -19.053,-19.768 -22.236,-20.461 14.063,25.178 57.05,44.154 79.562,34.738 -10.416,0.387 -23.648,0.217 -35.352,-4.109 -4.497,-2.314 -10.461,-6.891 -10.525,-8.402 -0.222,0.583 -0.6,1.169 -0.367,2.05 z"
   id="path102"
   inkscape:connector-curvature="0" />
		</g>
	</g>
</g>
<g
   id="black_text"
   display="none"
   style="display:none"
   transform="translate(-71.422599,-186.58364)">
	<g
   display="inline"
   id="g105"
   style="display:inline">
		<g
   id="g107">
			<line
   x1="516.62701"
   y1="515.31097"
   x2="96.540001"
   y2="515.31097"
   id="line109"
   style="fill:#ffffff;stroke:#000000;stroke-width:2" />
			<line
   x1="96.540001"
   y1="481.311"
   x2="516.62701"
   y2="481.311"
   id="line111"
   style="fill:#ffffff;stroke:#000000;stroke-width:2" />
		</g>
	</g>
	<g
   display="inline"
   id="g113"
   style="display:inline">
		<path
   d="m 100.89,497.365 h 4.522 c 0.247,0 0.604,0.053 1.072,0.158 l -0.053,-1.613 c 0,-0.316 -0.113,-0.586 -0.338,-0.807 -0.226,-0.221 -0.499,-0.332 -0.821,-0.332 h -4.401 c -0.313,0 -0.584,-0.115 -0.814,-0.344 -0.23,-0.23 -0.345,-0.5 -0.345,-0.813 0,-0.322 0.112,-0.594 0.336,-0.818 0.224,-0.224 0.497,-0.338 0.818,-0.338 h 4.385 c 0.953,0 1.766,0.332 2.44,0.998 0.674,0.664 1.024,1.48 1.052,2.445 l 0.281,8.596 c 0,0.32 -0.114,0.59 -0.34,0.814 -0.227,0.223 -0.494,0.334 -0.802,0.334 -0.327,0 -0.604,-0.113 -0.83,-0.338 -0.226,-0.225 -0.34,-0.498 -0.34,-0.818 l -1.945,1.156 h -3.889 c -0.968,0 -1.79,-0.338 -2.465,-1.012 -0.675,-0.674 -1.013,-1.494 -1.013,-2.459 v -1.34 c 0,-0.957 0.341,-1.773 1.024,-2.453 0.681,-0.676 1.504,-1.016 2.466,-1.016 z m 5.734,4.469 -0.068,-0.973 c -0.01,-0.33 -0.124,-0.604 -0.343,-0.824 -0.22,-0.219 -0.489,-0.328 -0.809,-0.328 h -4.54 c -0.32,0 -0.593,0.111 -0.816,0.336 -0.224,0.225 -0.336,0.496 -0.336,0.816 v 1.289 c 0,0.311 0.114,0.58 0.343,0.809 0.229,0.229 0.498,0.344 0.81,0.344 h 3.25 l 2.509,-1.469 z"
   id="path115"
   inkscape:connector-curvature="0" />
		<path
   d="m 116.686,504.334 v 5.076 c 0,0.328 -0.111,0.605 -0.333,0.832 -0.222,0.229 -0.492,0.342 -0.809,0.342 -0.317,0 -0.592,-0.113 -0.823,-0.34 -0.231,-0.229 -0.347,-0.504 -0.347,-0.832 v -16.311 c 0,-0.309 0.113,-0.576 0.34,-0.803 0.227,-0.227 0.503,-0.34 0.83,-0.34 0.308,0 0.576,0.111 0.802,0.334 0.226,0.223 0.34,0.484 0.34,0.787 v 0.723 c 1.109,-1.229 2.205,-1.844 3.287,-1.844 h 0.532 c 0.809,0 1.555,0.299 2.236,0.898 l 1.91,1.65 c 0.836,0.727 1.254,1.648 1.254,2.766 v 3.57 c 0,1.127 -0.45,2.076 -1.35,2.85 l -1.868,1.607 c -0.618,0.564 -1.4,0.846 -2.346,0.846 h -0.504 c -0.891,0 -1.646,-0.309 -2.264,-0.928 l -0.887,-0.883 z m 3.224,-0.5 h 0.584 c 0.281,0 0.581,-0.141 0.898,-0.424 l 1.782,-1.568 c 0.299,-0.236 0.449,-0.559 0.449,-0.969 v -3.695 c 0,-0.365 -0.168,-0.688 -0.503,-0.969 l -1.918,-1.65 c -0.218,-0.191 -0.454,-0.287 -0.708,-0.287 h -0.667 c -0.254,0 -0.585,0.211 -0.993,0.631 l -1.701,1.697 c -0.299,0.303 -0.449,0.639 -0.449,1.01 v 2.914 c 0,0.354 0.167,0.697 0.503,1.035 l 1.646,1.658 c 0.41,0.412 0.769,0.617 1.077,0.617 z"
   id="path117"
   inkscape:connector-curvature="0" />
		<path
   d="m 139.341,505.646 h -2.299 c -0.949,0 -1.765,-0.336 -2.449,-1.01 -0.685,-0.674 -1.026,-1.482 -1.026,-2.43 v -7.436 h -1.17 c -0.317,0 -0.587,-0.109 -0.81,-0.33 -0.223,-0.221 -0.333,-0.496 -0.333,-0.826 0,-0.322 0.109,-0.594 0.329,-0.818 0.22,-0.224 0.486,-0.338 0.8,-0.338 h 1.183 v -2.82 c 0,-0.318 0.112,-0.59 0.337,-0.813 0.225,-0.225 0.498,-0.336 0.819,-0.336 0.303,0 0.571,0.113 0.805,0.342 0.234,0.229 0.351,0.498 0.351,0.807 v 2.82 h 4.63 c 0.311,0 0.58,0.115 0.808,0.344 0.229,0.23 0.343,0.5 0.343,0.813 0,0.32 -0.114,0.594 -0.341,0.818 -0.228,0.225 -0.496,0.338 -0.805,0.338 h -4.636 v 7.418 c 0,0.309 0.116,0.578 0.349,0.805 0.233,0.227 0.508,0.34 0.828,0.34 h 2.243 c 0.611,0 1.017,-0.328 1.217,-0.984 0.2,-0.656 0.586,-0.984 1.158,-0.984 0.335,0 0.61,0.111 0.823,0.336 0.213,0.223 0.32,0.504 0.32,0.84 0,0.693 -0.326,1.385 -0.979,2.072 -0.65,0.689 -1.482,1.032 -2.495,1.032 z"
   id="path119"
   inkscape:connector-curvature="0" />
		<path
   d="m 159.729,496.484 v 1.014 c 0,0.32 -0.111,0.598 -0.334,0.83 -0.223,0.232 -0.493,0.35 -0.811,0.35 h -9.241 c -0.318,0 -0.588,-0.117 -0.811,-0.35 -0.223,-0.233 -0.334,-0.51 -0.334,-0.83 v -1.014 c 0,-0.318 0.111,-0.592 0.334,-0.814 0.223,-0.225 0.493,-0.336 0.811,-0.336 h 9.241 c 0.291,0 0.554,0.107 0.791,0.322 0.237,0.215 0.354,0.49 0.354,0.828 z"
   id="path121"
   inkscape:connector-curvature="0" />
		<path
   d="m 172.324,510.584 h -4.973 c -0.319,0 -0.59,-0.109 -0.813,-0.328 -0.223,-0.219 -0.334,-0.492 -0.334,-0.82 0,-0.318 0.111,-0.586 0.334,-0.805 0.223,-0.219 0.493,-0.328 0.811,-0.328 h 4.962 c 0.3,0 0.582,-0.115 0.845,-0.342 l 0.777,-0.672 c 0.264,-0.201 0.396,-0.465 0.396,-0.793 v -3.506 c -1.073,1.084 -2.119,1.625 -3.138,1.625 h -1.76 c -0.91,0 -1.728,-0.314 -2.456,-0.941 l -0.859,-0.764 c -0.282,-0.236 -0.526,-0.582 -0.73,-1.037 -0.204,-0.455 -0.307,-0.9 -0.307,-1.338 v -3.793 c 0,-0.535 0.103,-1.045 0.308,-1.527 0.205,-0.482 0.449,-0.842 0.732,-1.078 l 0.944,-0.805 c 0.675,-0.582 1.469,-0.873 2.381,-0.873 h 1.655 c 0.903,0 1.724,0.318 2.463,0.955 l 0.793,0.67 -0.027,-0.459 c 0,-0.314 0.113,-0.588 0.34,-0.818 0.227,-0.232 0.494,-0.348 0.803,-0.348 0.317,0 0.591,0.111 0.823,0.336 0.231,0.223 0.347,0.494 0.347,0.813 v 12.887 c 0,0.975 -0.392,1.809 -1.175,2.502 l -0.929,0.809 c -0.237,0.209 -0.571,0.391 -1.004,0.547 -0.432,0.153 -0.836,0.231 -1.209,0.231 z m -1.315,-15.813 h -1.537 c -0.335,0 -0.657,0.131 -0.966,0.393 l -0.707,0.584 c -0.272,0.227 -0.408,0.535 -0.408,0.924 v 3.799 c 0,0.307 0.149,0.598 0.449,0.869 l 0.749,0.664 c 0.235,0.199 0.485,0.299 0.748,0.299 h 1.863 c 0.272,0 0.571,-0.137 0.898,-0.408 l 1.809,-1.537 c 0.281,-0.244 0.422,-0.543 0.422,-0.896 v -1.723 c 0,-0.416 -0.159,-0.754 -0.476,-1.016 l -1.864,-1.586 c -0.263,-0.244 -0.59,-0.366 -0.98,-0.366 z"
   id="path123"
   inkscape:connector-curvature="0" />
		<path
   d="m 193.553,496.766 v 2.768 c 0,0.309 -0.114,0.576 -0.341,0.803 -0.228,0.229 -0.496,0.342 -0.805,0.342 h -8.104 v 0.67 c 0,0.393 0.168,0.727 0.505,1 l 0.668,0.563 c 0.364,0.283 0.709,0.424 1.037,0.424 h 5.894 c 0.309,0 0.577,0.113 0.805,0.338 0.228,0.225 0.341,0.496 0.341,0.818 0,0.313 -0.116,0.582 -0.348,0.813 -0.232,0.229 -0.498,0.344 -0.798,0.344 h -6.04 c -0.4,0 -0.821,-0.084 -1.262,-0.254 -0.441,-0.168 -0.766,-0.344 -0.975,-0.525 l -1.022,-0.902 c -0.318,-0.254 -0.584,-0.609 -0.798,-1.064 -0.214,-0.457 -0.32,-0.875 -0.32,-1.258 v -5.262 c 0,-0.301 0.116,-0.705 0.348,-1.217 0.231,-0.51 0.525,-0.906 0.879,-1.188 l 0.955,-0.752 c 0.627,-0.51 1.322,-0.766 2.086,-0.766 h 3.218 c 0.809,0 1.572,0.336 2.291,1.008 l 0.859,0.818 c 0.618,0.553 0.927,1.379 0.927,2.479 z m -9.25,-0.178 v 1.777 h 6.969 v -1.6 c 0,-0.428 -0.132,-0.756 -0.396,-0.982 l -0.669,-0.588 c -0.346,-0.283 -0.656,-0.424 -0.929,-0.424 h -2.883 c -0.355,0 -0.679,0.123 -0.97,0.369 l -0.67,0.561 c -0.302,0.227 -0.452,0.524 -0.452,0.887 z"
   id="path125"
   inkscape:connector-curvature="0" />
		<path
   d="m 206.99,505.646 h -2.299 c -0.949,0 -1.765,-0.336 -2.449,-1.01 -0.685,-0.674 -1.026,-1.482 -1.026,-2.43 v -7.436 h -1.17 c -0.317,0 -0.587,-0.109 -0.81,-0.33 -0.223,-0.221 -0.333,-0.496 -0.333,-0.826 0,-0.322 0.109,-0.594 0.329,-0.818 0.22,-0.224 0.486,-0.338 0.8,-0.338 h 1.183 v -2.82 c 0,-0.318 0.112,-0.59 0.337,-0.813 0.225,-0.225 0.498,-0.336 0.819,-0.336 0.303,0 0.571,0.113 0.805,0.342 0.234,0.229 0.351,0.498 0.351,0.807 v 2.82 h 4.63 c 0.311,0 0.58,0.115 0.808,0.344 0.229,0.23 0.343,0.5 0.343,0.813 0,0.32 -0.114,0.594 -0.341,0.818 -0.228,0.225 -0.496,0.338 -0.805,0.338 h -4.636 v 7.418 c 0,0.309 0.116,0.578 0.349,0.805 0.233,0.227 0.508,0.34 0.828,0.34 h 2.243 c 0.611,0 1.017,-0.328 1.217,-0.984 0.2,-0.656 0.586,-0.984 1.158,-0.984 0.335,0 0.61,0.111 0.823,0.336 0.213,0.223 0.32,0.504 0.32,0.84 0,0.693 -0.326,1.385 -0.979,2.072 -0.651,0.689 -1.483,1.032 -2.495,1.032 z"
   id="path127"
   inkscape:connector-curvature="0" />
		<path
   d="m 242.014,505.646 h -7.012 c -0.32,0 -0.592,-0.113 -0.814,-0.338 -0.225,-0.225 -0.336,-0.498 -0.336,-0.818 0,-0.313 0.111,-0.582 0.335,-0.813 0.224,-0.229 0.494,-0.344 0.813,-0.344 h 2.352 v -8.563 h -2.342 c -0.322,0 -0.596,-0.113 -0.82,-0.34 -0.226,-0.227 -0.338,-0.494 -0.338,-0.803 0,-0.318 0.111,-0.592 0.336,-0.822 0.224,-0.232 0.496,-0.348 0.815,-0.348 h 3.51 c 0.319,0 0.591,0.115 0.815,0.348 0.224,0.232 0.336,0.508 0.336,0.826 v 9.701 h 2.314 c 0.322,0 0.6,0.113 0.834,0.338 0.234,0.225 0.352,0.496 0.352,0.818 0,0.32 -0.114,0.594 -0.342,0.818 -0.228,0.227 -0.497,0.34 -0.808,0.34 z m -4.703,-19.156 h 1.203 c 0.32,0 0.592,0.111 0.814,0.336 0.225,0.223 0.336,0.494 0.336,0.814 v 0.984 c 0,0.32 -0.111,0.596 -0.336,0.828 -0.223,0.232 -0.494,0.35 -0.814,0.35 h -1.23 c -0.33,0 -0.605,-0.119 -0.829,-0.355 -0.224,-0.238 -0.331,-0.502 -0.321,-0.795 l 0.027,-1.012 c 0,-0.32 0.111,-0.592 0.336,-0.814 0.222,-0.224 0.494,-0.336 0.814,-0.336 z"
   id="path129"
   inkscape:connector-curvature="0" />
		<path
   d="m 255.094,495.164 -3.143,2.014 v 7.322 c 0,0.311 -0.115,0.578 -0.344,0.805 -0.23,0.229 -0.501,0.342 -0.813,0.342 -0.313,0 -0.582,-0.113 -0.813,-0.342 -0.229,-0.227 -0.344,-0.494 -0.344,-0.805 v -10.869 c 0,-0.318 0.112,-0.592 0.337,-0.824 0.225,-0.232 0.498,-0.348 0.819,-0.348 0.312,0 0.582,0.115 0.813,0.348 0.229,0.232 0.344,0.508 0.344,0.826 v 0.764 l 2.1,-1.27 c 0.702,-0.445 1.496,-0.668 2.381,-0.668 h 1.067 c 0.912,0 1.701,0.322 2.367,0.969 0.666,0.645 1.017,1.441 1.054,2.387 l 0.344,8.686 c 0.009,0.311 -0.102,0.578 -0.33,0.805 -0.23,0.229 -0.505,0.342 -0.826,0.342 -0.303,0 -0.568,-0.102 -0.799,-0.307 -0.229,-0.203 -0.349,-0.482 -0.357,-0.836 l -0.344,-8.535 c -0.027,-0.799 -0.448,-1.197 -1.263,-1.197 h -1.125 c -0.346,-0.002 -0.722,0.129 -1.125,0.391 z"
   id="path131"
   inkscape:connector-curvature="0" />
		<path
   d="m 269.79,492.459 h 5.249 c 0.816,0 1.539,0.244 2.166,0.73 0.627,0.488 0.941,0.965 0.941,1.43 0,0.328 -0.117,0.598 -0.348,0.807 -0.232,0.209 -0.488,0.314 -0.771,0.314 -0.363,0 -0.695,-0.162 -0.994,-0.484 -0.301,-0.322 -0.615,-0.484 -0.941,-0.484 h -5.182 c -0.51,0 -0.764,0.207 -0.764,0.619 0,0.289 0.177,0.508 0.53,0.656 l 6.076,2.74 c 0.617,0.273 1.125,0.713 1.52,1.318 0.396,0.605 0.594,1.277 0.594,2.016 0,0.984 -0.348,1.816 -1.045,2.5 -0.695,0.684 -1.484,1.025 -2.368,1.025 h -4.639 c -0.801,0 -1.545,-0.244 -2.231,-0.732 -0.687,-0.486 -1.03,-0.961 -1.03,-1.422 0,-0.303 0.111,-0.572 0.334,-0.807 0.223,-0.235 0.512,-0.352 0.867,-0.352 0.291,0 0.602,0.166 0.934,0.5 0.332,0.334 0.812,0.5 1.439,0.5 h 4.27 c 0.336,0 0.62,-0.129 0.846,-0.387 0.229,-0.258 0.342,-0.555 0.342,-0.889 0,-0.516 -0.254,-0.887 -0.764,-1.113 l -6.146,-2.771 c -0.591,-0.264 -1.046,-0.646 -1.364,-1.148 -0.318,-0.5 -0.477,-1.012 -0.477,-1.531 0,-0.82 0.283,-1.531 0.852,-2.133 0.569,-0.602 1.268,-0.902 2.104,-0.902 z"
   id="path133"
   inkscape:connector-curvature="0" />
		<path
   d="m 291.55,505.646 h -2.299 c -0.947,0 -1.764,-0.336 -2.449,-1.01 -0.684,-0.674 -1.025,-1.482 -1.025,-2.43 v -7.436 h -1.17 c -0.318,0 -0.588,-0.109 -0.811,-0.33 -0.221,-0.221 -0.332,-0.496 -0.332,-0.826 0,-0.322 0.109,-0.594 0.328,-0.818 0.221,-0.225 0.486,-0.338 0.801,-0.338 h 1.184 v -2.82 c 0,-0.318 0.111,-0.59 0.336,-0.813 0.225,-0.225 0.498,-0.336 0.82,-0.336 0.303,0 0.57,0.113 0.805,0.342 0.235,0.229 0.352,0.498 0.352,0.807 v 2.82 h 4.631 c 0.311,0 0.578,0.115 0.807,0.344 0.229,0.23 0.344,0.5 0.344,0.813 0,0.32 -0.113,0.594 -0.342,0.818 -0.227,0.225 -0.494,0.338 -0.805,0.338 h -4.635 v 7.418 c 0,0.309 0.115,0.578 0.348,0.805 0.233,0.227 0.51,0.34 0.828,0.34 h 2.244 c 0.609,0 1.016,-0.328 1.217,-0.984 0.199,-0.656 0.586,-0.984 1.158,-0.984 0.334,0 0.609,0.111 0.822,0.336 0.213,0.223 0.32,0.504 0.32,0.84 0,0.693 -0.326,1.385 -0.979,2.072 -0.652,0.689 -1.485,1.032 -2.498,1.032 z"
   id="path135"
   inkscape:connector-curvature="0" />
		<path
   d="m 303.835,497.365 h 4.521 c 0.248,0 0.605,0.053 1.072,0.158 l -0.053,-1.613 c 0,-0.316 -0.113,-0.586 -0.338,-0.807 -0.227,-0.221 -0.5,-0.332 -0.82,-0.332 h -4.402 c -0.313,0 -0.584,-0.115 -0.814,-0.344 -0.229,-0.23 -0.344,-0.5 -0.344,-0.813 0,-0.322 0.111,-0.594 0.336,-0.818 0.225,-0.224 0.498,-0.338 0.818,-0.338 h 4.385 c 0.953,0 1.766,0.332 2.439,0.998 0.674,0.664 1.025,1.48 1.053,2.445 l 0.281,8.596 c 0,0.32 -0.113,0.59 -0.34,0.814 -0.227,0.223 -0.494,0.334 -0.803,0.334 -0.326,0 -0.604,-0.113 -0.83,-0.338 -0.226,-0.225 -0.34,-0.498 -0.34,-0.818 l -1.945,1.156 h -3.889 c -0.969,0 -1.789,-0.338 -2.465,-1.012 -0.676,-0.674 -1.014,-1.494 -1.014,-2.459 v -1.34 c 0,-0.957 0.342,-1.773 1.023,-2.453 0.686,-0.676 1.508,-1.016 2.469,-1.016 z m 5.734,4.469 -0.068,-0.973 c -0.01,-0.33 -0.123,-0.604 -0.344,-0.824 -0.219,-0.219 -0.488,-0.328 -0.809,-0.328 h -4.539 c -0.32,0 -0.594,0.111 -0.816,0.336 -0.225,0.225 -0.336,0.496 -0.336,0.816 v 1.289 c 0,0.311 0.113,0.58 0.342,0.809 0.229,0.229 0.498,0.344 0.811,0.344 h 3.25 l 2.509,-1.469 z"
   id="path137"
   inkscape:connector-curvature="0" />
		<path
   d="m 326.575,505.646 h -6.951 c -0.318,0 -0.59,-0.115 -0.814,-0.348 -0.223,-0.23 -0.334,-0.506 -0.334,-0.822 0,-0.309 0.111,-0.576 0.334,-0.803 0.223,-0.227 0.494,-0.34 0.813,-0.34 h 2.291 v -13.531 h -2.301 c -0.316,0 -0.584,-0.113 -0.805,-0.338 -0.223,-0.225 -0.332,-0.498 -0.332,-0.818 0,-0.322 0.109,-0.594 0.332,-0.818 0.221,-0.225 0.49,-0.338 0.807,-0.338 h 3.473 c 0.307,0 0.572,0.113 0.799,0.342 0.227,0.229 0.34,0.496 0.34,0.807 v 14.695 h 2.342 c 0.313,0 0.584,0.113 0.813,0.34 0.23,0.227 0.346,0.494 0.346,0.803 0,0.316 -0.111,0.592 -0.336,0.822 -0.225,0.232 -0.496,0.347 -0.817,0.347 z"
   id="path139"
   inkscape:connector-curvature="0" />
		<path
   d="m 343.487,505.646 h -6.951 c -0.318,0 -0.59,-0.115 -0.814,-0.348 -0.223,-0.23 -0.334,-0.506 -0.334,-0.822 0,-0.309 0.111,-0.576 0.334,-0.803 0.223,-0.227 0.494,-0.34 0.813,-0.34 h 2.291 v -13.531 h -2.301 c -0.316,0 -0.584,-0.113 -0.805,-0.338 -0.223,-0.225 -0.332,-0.498 -0.332,-0.818 0,-0.322 0.109,-0.594 0.332,-0.818 0.221,-0.225 0.49,-0.338 0.807,-0.338 H 340 c 0.307,0 0.572,0.113 0.799,0.342 0.227,0.229 0.34,0.496 0.34,0.807 v 14.695 h 2.342 c 0.313,0 0.584,0.113 0.813,0.34 0.23,0.227 0.346,0.494 0.346,0.803 0,0.316 -0.111,0.592 -0.336,0.822 -0.225,0.232 -0.496,0.347 -0.817,0.347 z"
   id="path141"
   inkscape:connector-curvature="0" />
		<path
   d="m 371.483,497.365 h 4.521 c 0.248,0 0.605,0.053 1.072,0.158 l -0.053,-1.613 c 0,-0.316 -0.113,-0.586 -0.338,-0.807 -0.227,-0.221 -0.5,-0.332 -0.82,-0.332 h -4.402 c -0.313,0 -0.584,-0.115 -0.814,-0.344 -0.229,-0.23 -0.344,-0.5 -0.344,-0.813 0,-0.322 0.111,-0.594 0.336,-0.818 0.225,-0.224 0.498,-0.338 0.818,-0.338 h 4.385 c 0.953,0 1.766,0.332 2.439,0.998 0.674,0.664 1.025,1.48 1.053,2.445 l 0.281,8.596 c 0,0.32 -0.113,0.59 -0.34,0.814 -0.227,0.223 -0.494,0.334 -0.803,0.334 -0.326,0 -0.604,-0.113 -0.83,-0.338 -0.226,-0.225 -0.34,-0.498 -0.34,-0.818 l -1.945,1.156 h -3.889 c -0.969,0 -1.789,-0.338 -2.465,-1.012 -0.676,-0.674 -1.014,-1.494 -1.014,-2.459 v -1.34 c 0,-0.957 0.342,-1.773 1.023,-2.453 0.686,-0.676 1.508,-1.016 2.469,-1.016 z m 5.735,4.469 -0.068,-0.973 c -0.01,-0.33 -0.123,-0.604 -0.344,-0.824 -0.219,-0.219 -0.488,-0.328 -0.809,-0.328 h -4.539 c -0.32,0 -0.594,0.111 -0.816,0.336 -0.225,0.225 -0.336,0.496 -0.336,0.816 v 1.289 c 0,0.311 0.113,0.58 0.342,0.809 0.229,0.229 0.498,0.344 0.811,0.344 h 3.25 l 2.509,-1.469 z"
   id="path143"
   inkscape:connector-curvature="0" />
		<path
   d="m 390.392,495.164 -3.143,2.014 v 7.322 c 0,0.311 -0.115,0.578 -0.344,0.805 -0.23,0.229 -0.502,0.342 -0.813,0.342 -0.313,0 -0.582,-0.113 -0.813,-0.342 -0.229,-0.227 -0.344,-0.494 -0.344,-0.805 v -10.869 c 0,-0.318 0.111,-0.592 0.336,-0.824 0.225,-0.232 0.498,-0.348 0.82,-0.348 0.311,0 0.582,0.115 0.813,0.348 0.229,0.232 0.344,0.508 0.344,0.826 v 0.764 l 2.1,-1.27 c 0.701,-0.445 1.496,-0.668 2.381,-0.668 h 1.066 c 0.912,0 1.701,0.322 2.367,0.969 0.666,0.645 1.018,1.441 1.055,2.387 l 0.344,8.686 c 0.008,0.311 -0.102,0.578 -0.33,0.805 -0.23,0.229 -0.506,0.342 -0.826,0.342 -0.303,0 -0.568,-0.102 -0.799,-0.307 -0.229,-0.203 -0.35,-0.482 -0.357,-0.836 l -0.344,-8.535 c -0.027,-0.799 -0.449,-1.197 -1.264,-1.197 h -1.125 c -0.347,-0.002 -0.722,0.129 -1.124,0.391 z"
   id="path145"
   inkscape:connector-curvature="0" />
		<path
   d="m 405.308,497.365 h 4.521 c 0.248,0 0.605,0.053 1.072,0.158 l -0.053,-1.613 c 0,-0.316 -0.113,-0.586 -0.338,-0.807 -0.227,-0.221 -0.5,-0.332 -0.82,-0.332 h -4.402 c -0.313,0 -0.584,-0.115 -0.814,-0.344 -0.229,-0.23 -0.344,-0.5 -0.344,-0.813 0,-0.322 0.111,-0.594 0.336,-0.818 0.225,-0.224 0.498,-0.338 0.818,-0.338 h 4.385 c 0.953,0 1.766,0.332 2.439,0.998 0.674,0.664 1.025,1.48 1.053,2.445 l 0.281,8.596 c 0,0.32 -0.113,0.59 -0.34,0.814 -0.227,0.223 -0.494,0.334 -0.803,0.334 -0.326,0 -0.604,-0.113 -0.83,-0.338 -0.226,-0.225 -0.34,-0.498 -0.34,-0.818 l -1.945,1.156 h -3.889 c -0.969,0 -1.789,-0.338 -2.465,-1.012 -0.676,-0.674 -1.014,-1.494 -1.014,-2.459 v -1.34 c 0,-0.957 0.342,-1.773 1.023,-2.453 0.685,-0.676 1.508,-1.016 2.469,-1.016 z m 5.734,4.469 -0.068,-0.973 c -0.01,-0.33 -0.123,-0.604 -0.344,-0.824 -0.219,-0.219 -0.488,-0.328 -0.809,-0.328 h -4.539 c -0.32,0 -0.594,0.111 -0.816,0.336 -0.225,0.225 -0.336,0.496 -0.336,0.816 v 1.289 c 0,0.311 0.113,0.58 0.342,0.809 0.229,0.229 0.498,0.344 0.811,0.344 h 3.25 l 2.509,-1.469 z"
   id="path147"
   inkscape:connector-curvature="0" />
		<path
   d="m 418.761,504.5 v -10.869 c 0,-0.318 0.111,-0.592 0.336,-0.824 0.225,-0.232 0.498,-0.348 0.82,-0.348 0.32,0 0.594,0.113 0.818,0.34 0.224,0.227 0.338,0.502 0.338,0.828 v 1.426 l 1.869,-1.605 c 0.773,-0.658 1.527,-0.988 2.264,-0.988 h 1.68 c 0.945,0 1.754,0.338 2.428,1.014 0.672,0.678 1.01,1.49 1.01,2.439 v 0.617 c 0,0.33 -0.113,0.607 -0.338,0.836 -0.225,0.229 -0.498,0.344 -0.818,0.344 -0.322,0 -0.596,-0.111 -0.82,-0.334 -0.225,-0.225 -0.336,-0.494 -0.336,-0.814 v -0.643 c 0,-0.318 -0.111,-0.588 -0.334,-0.813 -0.223,-0.223 -0.492,-0.334 -0.809,-0.334 h -1.482 c -0.318,0 -0.672,0.168 -1.063,0.506 l -3.25,2.838 v 6.387 c 0,0.318 -0.115,0.588 -0.344,0.811 -0.23,0.223 -0.502,0.334 -0.813,0.334 -0.322,0 -0.596,-0.111 -0.82,-0.334 -0.224,-0.223 -0.336,-0.496 -0.336,-0.814 z"
   id="path149"
   inkscape:connector-curvature="0" />
		<path
   d="m 446.118,505.646 h -4.906 c -0.865,0 -1.604,-0.26 -2.215,-0.779 l -2.227,-1.941 c -0.711,-0.592 -1.066,-1.393 -1.066,-2.404 v -2.992 c -0.037,-0.975 0.363,-1.822 1.199,-2.543 l 2.004,-1.734 c 0.646,-0.529 1.338,-0.793 2.074,-0.793 h 5.139 c 0.318,0 0.59,0.113 0.813,0.338 0.223,0.225 0.334,0.496 0.334,0.818 0,0.33 -0.111,0.605 -0.334,0.826 -0.223,0.221 -0.494,0.33 -0.813,0.33 h -4.926 c -0.309,0 -0.604,0.123 -0.887,0.367 l -1.842,1.566 c -0.299,0.254 -0.449,0.594 -0.449,1.02 v 2.791 c 0,0.301 0.119,0.555 0.355,0.762 l 2.025,1.717 c 0.256,0.227 0.592,0.34 1.012,0.34 h 4.707 c 0.311,0 0.58,0.113 0.809,0.338 0.227,0.225 0.342,0.496 0.342,0.818 0,0.32 -0.111,0.594 -0.336,0.818 -0.222,0.224 -0.493,0.337 -0.812,0.337 z"
   id="path151"
   inkscape:connector-curvature="0" />
		<path
   d="m 452.554,504.496 v -15.885 c 0,-0.309 0.111,-0.574 0.336,-0.793 0.225,-0.219 0.498,-0.328 0.82,-0.328 0.32,0 0.594,0.111 0.818,0.336 0.224,0.225 0.338,0.496 0.338,0.816 v 5.816 l 1.842,-1.205 c 0.838,-0.529 1.584,-0.795 2.24,-0.795 h 1.42 c 0.936,0 1.742,0.334 2.416,1.004 0.672,0.67 1.023,1.482 1.051,2.439 l 0.281,8.596 c 0.008,0.32 -0.102,0.59 -0.33,0.814 -0.23,0.223 -0.506,0.334 -0.826,0.334 -0.322,0 -0.592,-0.115 -0.813,-0.348 -0.221,-0.233 -0.336,-0.498 -0.344,-0.799 l -0.281,-8.613 c -0.01,-0.309 -0.127,-0.578 -0.354,-0.805 -0.229,-0.229 -0.5,-0.342 -0.816,-0.342 h -1.281 c -0.289,0 -0.607,0.113 -0.951,0.34 l -3.254,2.129 v 7.291 c 0,0.318 -0.113,0.59 -0.338,0.813 -0.225,0.223 -0.498,0.334 -0.818,0.334 -0.322,0 -0.596,-0.111 -0.82,-0.336 -0.225,-0.221 -0.336,-0.493 -0.336,-0.813 z"
   id="path153"
   inkscape:connector-curvature="0" />
		<path
   d="m 478.784,505.646 h -7.012 c -0.32,0 -0.592,-0.113 -0.814,-0.338 -0.225,-0.225 -0.336,-0.498 -0.336,-0.818 0,-0.313 0.111,-0.582 0.334,-0.813 0.225,-0.229 0.494,-0.344 0.814,-0.344 h 2.352 v -8.563 h -2.342 c -0.322,0 -0.596,-0.113 -0.82,-0.34 -0.227,-0.227 -0.338,-0.494 -0.338,-0.803 0,-0.318 0.111,-0.592 0.336,-0.822 0.223,-0.232 0.496,-0.348 0.814,-0.348 h 3.51 c 0.32,0 0.592,0.115 0.816,0.348 0.223,0.232 0.336,0.508 0.336,0.826 v 9.701 h 2.314 c 0.322,0 0.6,0.113 0.834,0.338 0.234,0.225 0.352,0.496 0.352,0.818 0,0.32 -0.115,0.594 -0.342,0.818 -0.228,0.227 -0.497,0.34 -0.808,0.34 z m -4.703,-19.156 h 1.203 c 0.32,0 0.592,0.111 0.814,0.336 0.225,0.223 0.336,0.494 0.336,0.814 v 0.984 c 0,0.32 -0.111,0.596 -0.336,0.828 -0.223,0.232 -0.494,0.35 -0.814,0.35 h -1.23 c -0.33,0 -0.605,-0.119 -0.83,-0.355 -0.223,-0.238 -0.33,-0.502 -0.32,-0.795 l 0.027,-1.012 c 0,-0.32 0.111,-0.592 0.336,-0.814 0.222,-0.224 0.494,-0.336 0.814,-0.336 z"
   id="path155"
   inkscape:connector-curvature="0" />
		<path
   d="m 489.647,492.459 h 5.248 c 0.816,0 1.539,0.244 2.166,0.73 0.627,0.488 0.941,0.965 0.941,1.43 0,0.328 -0.117,0.598 -0.348,0.807 -0.232,0.209 -0.488,0.314 -0.771,0.314 -0.363,0 -0.695,-0.162 -0.994,-0.484 -0.301,-0.322 -0.615,-0.484 -0.941,-0.484 h -5.182 c -0.51,0 -0.764,0.207 -0.764,0.619 0,0.289 0.176,0.508 0.529,0.656 l 6.076,2.74 c 0.617,0.273 1.125,0.713 1.52,1.318 0.396,0.605 0.594,1.277 0.594,2.016 0,0.984 -0.348,1.816 -1.045,2.5 -0.695,0.684 -1.484,1.025 -2.367,1.025 h -4.639 c -0.801,0 -1.545,-0.244 -2.232,-0.732 -0.686,-0.486 -1.029,-0.961 -1.029,-1.422 0,-0.303 0.111,-0.572 0.334,-0.807 0.223,-0.235 0.512,-0.352 0.867,-0.352 0.291,0 0.602,0.166 0.934,0.5 0.332,0.334 0.811,0.5 1.439,0.5 h 4.27 c 0.336,0 0.619,-0.129 0.846,-0.387 0.229,-0.258 0.342,-0.555 0.342,-0.889 0,-0.516 -0.254,-0.887 -0.764,-1.113 l -6.146,-2.771 c -0.59,-0.264 -1.045,-0.646 -1.363,-1.148 -0.318,-0.5 -0.477,-1.012 -0.477,-1.531 0,-0.82 0.283,-1.531 0.852,-2.133 0.569,-0.602 1.269,-0.902 2.104,-0.902 z"
   id="path157"
   inkscape:connector-curvature="0" />
		<path
   d="m 503.04,504.498 v -10.891 c 0,-0.32 0.113,-0.59 0.342,-0.814 0.227,-0.223 0.504,-0.334 0.828,-0.334 0.604,0 0.984,0.299 1.143,0.898 0.637,-0.6 1.348,-0.898 2.133,-0.898 0.92,0 1.676,0.391 2.268,1.17 0.73,-0.779 1.531,-1.17 2.406,-1.17 0.711,0 1.328,0.252 1.852,0.756 0.525,0.506 0.805,1.148 0.842,1.93 l 0.313,9.355 c 0,0.311 -0.113,0.578 -0.34,0.805 -0.227,0.229 -0.494,0.342 -0.803,0.342 -0.318,0 -0.59,-0.113 -0.816,-0.342 -0.227,-0.227 -0.346,-0.494 -0.354,-0.805 l -0.281,-8.992 c -0.02,-0.49 -0.17,-0.736 -0.455,-0.736 -0.156,0 -0.316,0.068 -0.48,0.205 l -1.377,1.148 v 8.4 c 0,0.309 -0.113,0.574 -0.338,0.793 -0.225,0.219 -0.498,0.328 -0.818,0.328 -0.313,0 -0.582,-0.111 -0.813,-0.336 -0.229,-0.223 -0.344,-0.494 -0.344,-0.813 v -9.139 c 0,-0.393 -0.168,-0.588 -0.502,-0.588 -0.164,0 -0.313,0.059 -0.449,0.178 l -1.643,1.395 v 8.156 c 0,0.311 -0.111,0.578 -0.33,0.805 -0.221,0.229 -0.486,0.342 -0.799,0.342 -0.322,0 -0.6,-0.113 -0.832,-0.342 -0.236,-0.226 -0.353,-0.495 -0.353,-0.806 z"
   id="path159"
   inkscape:connector-curvature="0" />
	</g>
</g>
</svg>