<?xml version="1.0" encoding="UTF-8" standalone="no"?>
<!-- Created with Inkscape (http://www.inkscape.org/) -->

<svg
   xmlns:dc="http://purl.org/dc/elements/1.1/"
   xmlns:cc="http://creativecommons.org/ns#"
   xmlns:rdf="http://www.w3.org/1999/02/22-rdf-syntax-ns#"
   xmlns:svg="http://www.w3.org/2000/svg"
   xmlns="http://www.w3.org/2000/svg"
   xmlns:sodipodi="http://sodipodi.sourceforge.net/DTD/sodipodi-0.dtd"
   xmlns:inkscape="http://www.inkscape.org/namespaces/inkscape"
   width="1200"
   height="128"
   id="svg3500"
   version="1.1"
   inkscape:version="0.91 r13725"
   inkscape:export-xdpi="90"
   inkscape:export-ydpi="90"
   sodipodi:docname="masthead.svg">
  <defs
     id="defs3502">
    <clipPath
       clipPathUnits="userSpaceOnUse"
       id="clipPath12012">
      <rect
         style="fill:#494949;fill-opacity:1;stroke:none;display:inline"
         id="rect12014"
         width="1000"
         height="60"
         x="221.81274"
         y="192.86029" />
    </clipPath>
  </defs>
  <sodipodi:namedview
     id="base"
     pagecolor="#ffffff"
     bordercolor="#666666"
     borderopacity="1.0"
     inkscape:pageopacity="0.0"
     inkscape:pageshadow="2"
     inkscape:zoom="1"
     inkscape:cx="393.39974"
     inkscape:cy="-13.149299"
     inkscape:document-units="px"
     inkscape:current-layer="layer1"
     showgrid="false"
     showborder="true"
     borderlayer="false"
     inkscape:showpageshadow="false"
     inkscape:window-width="1867"
     inkscape:window-height="818"
     inkscape:window-x="51"
     inkscape:window-y="52"
     inkscape:window-maximized="0" />
  <metadata
     id="metadata3505">
    <rdf:RDF>
      <cc:Work
         rdf:about="">
        <dc:format>image/svg+xml</dc:format>
        <dc:type
           rdf:resource="http://purl.org/dc/dcmitype/StillImage" />
        <dc:title />
      </cc:Work>
    </rdf:RDF>
  </metadata>
  <g
     inkscape:label="Layer 1"
     inkscape:groupmode="layer"
     id="layer1"
     transform="translate(0,-924.36218)">
    <rect
       style="fill:#5e9ee3;fill-opacity:1;stroke:none"
       id="rect3128"
       width="1200"
       height="128"
       x="0"
       y="924.36218" />
    <g
       style="display:inline"
       id="g3212"
       transform="matrix(2.5253875,0,0,2.5253875,231.27479,1279.3464)">
      <path
         inkscape:connector-curvature="0"
         style="fill:#2c2c2c;fill-opacity:1"
         d="m 20.376978,-109.48333 1.229905,-0.96745 -1.231572,-1.57859 -1.478488,-1.38267 -1.36341,-0.8643 -0.843524,-0.3518 0.875115,-0.31185 -1.010903,-0.13842 1.500763,-0.32623 -0.909872,-0.2506 1.024677,-0.19772 1.252888,0.24999 2.159218,0.92653 1.35751,1.12563 0.308174,0.45419 0.438836,-0.22425 0.385972,-0.65546 0.551292,-0.8039 0.298583,0.0949 0.406896,-0.5567 0.242876,0.2809 0.44547,-0.25939 -0.256667,1.04256 -0.73772,1.67647 0.429279,-0.0162 0.22331,0.12546 -0.919673,0.7214 -0.830908,1.14708 -0.95508,0.6169 -1.808654,0.87533 -0.436878,0.43014 -1.266671,-0.0483 z"
         id="path3218"
         sodipodi:nodetypes="ccccccccccccccccccccccccccccccccc" />
      <path
         inkscape:connector-curvature="0"
         style="fill:#0d0d0d;fill-opacity:1"
         d="m 131.05235,-98.899563 -1.66828,-0.726533 -3.91627,-1.893504 -1.63702,-1.21698 -1.35627,-0.39827 -1.77299,0.96465 -1.52226,0.68468 -0.94788,-0.12545 -0.97136,-1.33212 -0.1418,-0.98511 0.38441,-0.73662 2.01867,-0.3043 2.01156,-0.30271 0.0883,-0.82128 -1.57809,-2.72089 -1.91641,-4.50775 0.18788,-0.58509 0.72155,0.14426 -0.15428,-0.89477 1.13631,0.96204 -0.48725,-1.01572 -0.10679,-0.7511 1.63594,1.23404 2.33499,2.00787 1.44016,1.61678 1.14052,1.85114 1.01932,0.70598 1.2719,-0.22865 1.06111,0.0268 0.73058,0.21941 1.5235,0.23813 0.39253,0.23958 -1.87895,0.81137 -1.24076,0.97747 0.15324,0.8964 1.96138,1.71863 2.22666,2.19142 0.36323,0.980132 -1.13508,-0.813912 0.45414,1.284057 -0.88273,-0.368714 0.14333,0.767364 -1.24391,-0.938107 z"
         id="path3220"
         sodipodi:nodetypes="cccccccccccccccccccccccccccccccccccccccccccc" />
      <path
         inkscape:connector-curvature="0"
         style="fill:#2c2c2c;fill-opacity:1"
         d="m 57.206143,-107.88409 0.809642,-0.46319 0.188453,-0.35052 -0.630165,-0.2907 -0.741511,-0.49905 -0.961671,-1.24057 -2.087562,-2.18609 -1.315519,-1.09087 1.330327,-0.15308 -0.474886,-0.62847 0.937138,0.16059 -0.483202,-0.5118 1.638584,0.50566 3.317051,1.55475 2.155952,1.34419 0.285433,-1.35437 0.409046,-1.24707 0.459195,-0.80954 0.450769,-0.42409 0.545351,0.12505 0.427262,0.35749 0.60899,1.13542 -0.293016,2.00868 -0.08753,0.39084 0.550724,0.22543 0.549334,0.36012 -1.42209,0.66626 -1.204381,1.58989 -1.220155,1.08611 -1.094184,0.41566 -1.623584,0.0784 -1.305978,0.24442 -1.079425,-0.26275 1.361609,-0.73682 0,-2e-5 z"
         id="path3222"
         sodipodi:nodetypes="cccccccccccccccccccccccccccccccccccc" />
      <path
         inkscape:connector-curvature="0"
         style="fill:#222222;fill-opacity:1"
         d="m 146.57201,-96.78022 -0.0796,-0.232715 -0.34598,0.01009 -0.3001,-0.01707 -0.41463,-0.631022 -1.43104,-1.807584 -1.68527,-1.621859 -2.48103,-2.02714 -0.51973,-0.13083 -0.75555,0.47207 -1.04552,0.85163 -0.96679,0.39808 -0.97093,-0.27575 -0.82442,-0.68376 0.0288,-0.44371 1.35632,-0.99887 1.06332,-0.64121 0.0318,-0.20623 -0.52195,-0.27852 -2.73199,-0.38908 -1.18271,-0.0738 -0.26309,-0.24087 0.29938,-0.36427 2.38558,-1.0699 3.31307,-0.86291 2.77182,-0.0556 1.28079,-0.65134 0.9627,-0.14419 0.32664,0.11776 1.13922,0.0637 0.21563,0.0809 -1.14188,0.66974 -0.11734,0.83817 0.251,0.72831 0.90809,0.9164 0.79856,0.87204 1.20155,1.76989 1.53087,2.862797 0.79344,2.242698 -0.0146,0.430435 -0.30534,0.391382 -0.61682,-0.579012 -0.52391,-0.525689 0.20524,0.80168 0.14518,0.87786 -0.64435,-0.419292 -0.56384,-0.320841 0.0662,0.209796 -0.14127,0.573207 z"
         id="path3224"
         sodipodi:nodetypes="cccccccccccccccccccccccccccccccccccccccccccccccccc" />
      <path
         inkscape:connector-curvature="0"
         style="fill:#252724;fill-opacity:1"
         d="m 99.963901,-118.39461 1.922129,-1.89405 -0.24661,-0.86008 -3.258273,-2.47972 -3.040592,-1.4699 -2.419236,-1.30757 -0.250201,-0.62265 -0.011,-0.50556 1.520479,0.35428 -0.509451,-0.82689 1.349434,0.0593 -0.365047,-0.71326 2.930895,0.30405 2.412043,0.57326 2.834339,0.92223 1.55327,1.04845 1.19551,0.90703 0.85485,-0.149 0.81163,-0.62394 0.36302,-0.45769 0.67087,-0.44259 0.69612,0.30234 0.27363,0.74062 0.41271,0.59003 3.017,-0.0477 1.39234,-0.0869 2.03739,-0.1271 -1.3625,1.16524 -2.00179,1.15293 -2.32319,0.6922 -3.01864,0.9927 -1.11578,0.64485 -1.62691,0.97182 -2.10447,1.39231 -2.30135,1.38352 -1.5723,0.25183 1.279701,-1.83439 z"
         id="path3226"
         sodipodi:nodetypes="cccccccccccccccccccccccccccccccccccccc" />
      <path
         inkscape:connector-curvature="0"
         style="fill:#2c2c2c;fill-opacity:1"
         d="m 145.6656,-122.41874 2.45317,-1.89492 1.06609,-0.97959 -0.43172,-0.71887 -1.01131,-1.44157 -2.33679,-4.04805 -0.41967,-0.98597 0.80408,0.42922 -0.31797,-0.5469 -0.26066,-0.53258 0.54844,0.15986 0.5977,0.1648 -0.4182,-0.68794 -0.26784,-0.60508 0.72641,0.36501 0.83078,0.39422 -0.31372,-0.54842 -0.1708,-0.49075 1.01727,0.40101 0.85864,0.61505 2.19862,0.94853 2.22563,1.91292 0.69065,1.19218 0.56998,0.39852 1.18531,-0.25569 0.51637,-0.22694 0.5913,-0.0933 0.34564,0.15786 1.1631,-0.0735 0.30813,0.0793 -0.76213,0.55023 -0.21512,0.25403 -0.0408,0.22133 0.42171,0.41926 0.73144,-0.007 1.35171,0.0844 -1.07189,0.25743 0.92147,0.15296 -1.30508,0.15608 0.85053,0.0816 -1.45985,0.80135 -1.79532,0.33318 -1.3746,0.53807 -1.14263,0.4285 -2.7154,1.14089 -2.66783,1.07634 -1.19102,0.80897 z"
         id="path3228"
         sodipodi:nodetypes="cccccccccccccccccccccccccccccccccccccccccccccccc" />
      <path
         inkscape:connector-curvature="0"
         style="fill:#141414;fill-opacity:1"
         d="m -0.73001941,-118.0542 -0.50795339,-0.63538 1.14496889,-0.74188 0.6724286,-0.52406 -0.1815197,-0.77102 -3.96527679,-1.72906 -1.5997542,-1.10977 -1.2706614,-0.41536 1.544901,-0.29598 -1.1797293,-0.35591 1.8422495,-0.1867 2.7404563,0.43938 2.6095696,0.87737 1.2677782,0.19441 0.6508078,-0.254 0.7914103,-0.65632 0.4193186,-0.22003 0.4151203,0.0201 0.6258005,0.20986 1.2312821,0.17318 0.01586,0.21708 -0.7570152,0.29624 -0.54904,0.29472 -0.1569766,0.54109 0.2716839,0.40779 1.0818208,0.14746 2.2382621,0.33584 2.1107225,0.669 1.202397,0.80071 -1.715935,-0.20305 0.485004,0.62696 -1.3666675,-0.11623 -1.455792,0.1921 -2.8107715,0.0231 -2.30538,0.27498 -0.5761607,0.91604 -0.4531069,0.80615 -0.87106961,0.25125 z"
         id="path3230"
         sodipodi:nodetypes="ccccccccccccccccccccccccccccccccccccccc" />
      <path
         inkscape:connector-curvature="0"
         style="fill:#1b1b1b;fill-opacity:1"
         d="m 108.36529,-100.8628 -0.15789,-1.47116 -0.54278,0.78331 -0.61998,0.79912 -0.0516,-0.63404 -0.60623,-1.55136 -1.68672,-2.51499 -1.99659,-1.9818 -1.72034,1.14657 -2.082146,1.28157 -1.622394,2.63559 -1.399157,-0.64808 -0.418813,-0.6826 0.281242,-0.60138 -0.660655,-0.42949 1.139665,-0.95716 1.127358,-0.97278 0.711179,-1.05362 2.625651,-3.48235 3.22204,-2.95884 2.36167,-1.61661 0.74678,-1.15426 1.25948,-0.63257 0.95917,-0.0554 0.94628,0.54495 2.17269,-0.0455 0.31374,0.28801 -2.1624,0.97199 -0.77707,0.86643 -1.13514,1.80952 1.16209,0.62343 1.85997,4.35685 1.10604,4.31915 0.46045,2.35133 -8.1e-4,0.43685 -0.68585,-1.03177 -0.23868,-0.50043 -0.22579,1.30292 -0.0498,1.834269 -0.62992,-1.375699 -0.62992,-1.3757 -0.0373,1.23399 -0.56805,1.56205 -0.27221,-0.66079 -0.15494,-0.9635 -0.86202,1.00642 -0.34957,0.516174 -0.11048,-1.318664 -2.3e-4,2e-5 z"
         id="path3232"
         sodipodi:nodetypes="cccccccccccccccccccccccccccccccccccccccccccccccccc" />
      <path
         inkscape:connector-curvature="0"
         style="fill:#171717;fill-opacity:1"
         d="m 45.236699,-114.50928 2.044439,-1.17596 -0.521451,-0.48006 -1.50858,-1.69372 -1.578278,-2.38259 -0.448103,-2.00158 0.06317,-1.57437 0.466328,0.14809 1.023877,0.55836 2.449152,1.53391 2.755117,1.84913 1.038703,-1.8313 1.103541,-1.60213 0.564684,-0.3469 0.956296,0.0533 0.726303,1.78052 -0.610648,2.02895 0.05925,1.4976 -0.656839,1.41076 -2.259007,1.38267 -3.724389,1.37573 -2.214725,0.44158 -0.703112,-0.49399 z"
         id="path3234"
         sodipodi:nodetypes="cccccccccccccccccccccccc" />
      <path
         inkscape:connector-curvature="0"
         style="fill:#000000;fill-opacity:1"
         d="m 85.000648,-115.49233 -2.065005,-1.79349 -3.293568,-1.20351 -2.386387,-0.48457 -1.129207,0.26816 -1.590494,1.41807 -1.102501,1.37373 -1.38545,-0.41925 -0.741577,-0.2839 1.218663,-1.4491 1.176223,-2.06227 -1.701657,-0.63535 -4.39501,-0.64581 -0.987204,-0.20882 0.424504,-1.00529 1.183765,-1.21025 0.948504,-0.46763 3.504129,-1.12464 2.282598,-0.55026 2.019189,0.21034 1.405308,0.30216 0.815692,-0.27464 1.345327,-0.43041 1.477197,-0.0838 0.232218,0.53058 -0.535676,1.03074 0.284692,0.49936 0.866766,0.21246 2.543232,1.4008 2.082712,1.79892 1.086509,1.52724 0.776777,1.33268 0.50301,0.71446 -0.556359,-0.17467 -0.5477,-0.13997 0.304566,0.92273 0.372189,0.75988 -0.614273,-0.34283 -0.593399,-0.41722 0.0835,0.87579 0.09488,0.82327 -0.487302,-0.57059 -0.629948,-0.61154 -0.08867,0.84082 -0.08368,0.70018 -0.319374,-0.20585 -0.378222,-0.37541 -0.212185,0.33341 -0.174412,0.16636 -1.032885,-0.87101 0,-10e-6 z"
         id="path3236"
         sodipodi:nodetypes="cccccccccccccccccccccccccccccccccccccccccccccccccccc" />
      <path
         inkscape:connector-curvature="0"
         style="fill:#212121;fill-opacity:1"
         d="m 19.51286,-118.51359 -0.314265,-0.68507 0.292516,-0.69086 1.321019,-0.93283 1.562653,-1.30575 0.229959,-1.23001 -1.949766,-2.43314 -3.142656,-2.65304 1.425857,0.056 -0.76571,-1.2009 1.906326,0.28411 -0.909156,-0.82553 3.287352,1.05853 2.312513,1.55015 0.958888,1.25639 0.773836,0.57702 1.082817,-0.18267 1.097378,-0.56203 0.788082,-0.20422 0.504064,0.10984 0.415266,0.32303 0.922217,0.13889 0.51593,0.17165 0.105106,0.12748 -1.062772,0.37061 c -0.38902,0.0822 -0.379104,0.20151 -0.700374,0.39277 l -0.285058,0.30178 -0.0325,0.48967 0.674247,0.50116 0.965746,0.14384 2.484759,0.6076 1.472797,0.42988 0.74242,0.5818 -0.44307,0.0684 0.09736,0.22478 -0.226301,0.1714 -0.649239,-0.0275 0.238068,0.19609 -1.182907,0.36183 -4.577737,0.003 -1.895235,-0.17166 -1.979016,0.46324 -1.31256,0.26234 -1.266362,0.92648 -1.466723,1.0012 -1.501947,0.23018 -0.513801,-0.27604 z"
         id="path3238"
         sodipodi:nodetypes="cccccccccccccccccccccccccccccccccccccccccccccccc" />
      <path
         sodipodi:nodetypes="cccccccccccccccccccccccccccccccccccc"
         id="path3240"
         d="m 216.22996,-119.73465 1.61058,-0.92139 0.37486,-0.69726 -1.25353,-0.57827 -1.47504,-0.99273 -1.91299,-2.46779 -4.15266,-4.34863 -2.61687,-2.17 2.64632,-0.30453 -0.94466,-1.25017 1.86419,0.31945 -0.9612,-1.01807 3.25954,1.00586 6.59838,3.09276 4.2887,2.67392 0.56779,-2.69417 0.81368,-2.48071 0.91346,-1.61037 0.89669,-0.8436 1.08482,0.24874 0.84993,0.71114 1.21142,2.25862 -0.58288,3.99572 -0.17411,0.77748 1.09551,0.44843 1.09275,0.71637 -2.82887,1.32533 -2.39579,3.16268 -2.42718,2.16052 -2.17658,0.82685 -3.22969,0.15604 -2.5979,0.48621 -2.14723,-0.52267 2.70856,-1.46571 0,-3e-5 z"
         style="fill:#222222;fill-opacity:1"
         inkscape:connector-curvature="0" />
      <path
         inkscape:connector-curvature="0"
         style="fill:#1d1d1d;fill-opacity:1"
         d="m 75.471292,-101.79192 0.464711,-0.52021 0.910989,-0.60488 0.600766,-0.39125 0.732003,-0.83115 -0.600316,-0.51855 -1.987157,-1.53393 -1.399066,-1.35351 -1.399841,-1.0382 -0.876174,-0.58856 -0.545292,-0.6602 1.251554,0.10569 -0.594332,-0.4341 1.177523,0.013 -0.489677,-0.42328 1.805912,0.0382 2.896072,1.02988 2.268657,1.16032 0.742902,0.60511 1.163174,0.3535 0.771802,-0.40549 0.792143,-0.72881 0.312674,-0.79158 0.351364,-1.37571 0.356381,-0.50961 0.232393,-0.76155 0.274309,-0.71894 0.685737,0.0121 0.699154,0.83374 0.248218,0.92922 -0.223068,0.71687 -0.974238,1.37062 -0.517793,0.66881 -0.536375,1.09244 0.621098,0.0556 0.240093,0.23498 -0.951714,0.55857 -0.477694,0.5642 -0.895156,1.12914 -2.687419,1.48386 -1.270162,0.39775 -1.100901,0.55059 -1.506779,0.61578 z"
         id="path3246"
         sodipodi:nodetypes="cccccccccccccccccccccccccccccccccccccccccccc" />
      <path
         sodipodi:nodetypes="ccccccccccccccccccccccccccccccccc"
         id="path3248"
         d="m 124.92621,-121.75737 2.4751,-1.94691 -2.47845,-3.1768 -2.97535,-2.78253 -2.74376,-1.73934 -1.69753,-0.70797 1.76111,-0.62758 -2.03436,-0.27855 3.02017,-0.65652 -1.83106,-0.5043 2.06209,-0.39791 2.52135,0.50309 4.34525,1.86457 2.7319,2.26526 0.62017,0.91402 0.88313,-0.45129 0.77673,-1.31907 1.10943,-1.61778 0.60088,0.19091 0.81886,-1.12033 0.48877,0.56531 0.89647,-0.52202 -0.51653,2.09809 -1.4846,3.37376 0.86389,-0.0326 0.44939,0.25248 -1.85078,1.45177 -1.67212,2.3084 -1.92203,1.24146 -3.63979,1.76154 -0.87918,0.86564 -2.54907,-0.0973 z"
         style="fill:#181818;fill-opacity:1"
         inkscape:connector-curvature="0" />
      <path
         sodipodi:nodetypes="ccccccccccccccccccccccccccccccccccccc"
         id="path3250"
         d="m 128.78716,-114.41954 -0.59372,-1.08131 1.90346,-0.81075 1.14086,-0.60816 -0.0708,-1.1991 -5.47474,-3.61406 -2.10158,-2.07389 -1.79042,-0.95085 2.38506,-0.0406 -1.67003,-0.83841 2.80091,0.19996 3.98008,1.36884 3.67068,1.98919 1.81355,1.26271 0.75347,-0.14507 1.57791,-0.75969 1.15887,0.0786 0.33231,0.30666 1.60378,0.32096 0.12472,0.16877 c -0.40408,0.22452 -1.03909,0.55733 -1.78416,0.8496 l -0.20002,0.40818 0.61541,0.43646 1.57792,0.50153 3.25672,1.0836 2.97956,1.5482 1.58826,1.50884 -2.51086,-0.74942 0.56162,1.06278 -2.01161,-0.52892 -2.22493,-0.0914 -4.20538,-0.69607 -3.51578,-0.18847 -1.09892,1.2188 -0.88652,1.08663 -1.36671,0.14894 z"
         style="fill:#2c2c2c;fill-opacity:1"
         inkscape:connector-curvature="0"
         inkscape:transform-center-x="3.8100694"
         inkscape:transform-center-y="-1.7074597" />
      <path
         inkscape:connector-curvature="0"
         style="fill:#000000;fill-opacity:1"
         d="m 157.60359,-103.10573 -0.0722,-0.52881 -0.37938,0.41417 -0.30527,0.35243 -0.14627,-0.72342 -0.17911,-0.8111 -0.17184,-0.0353 -0.14159,-0.10313 -0.3035,-2.03511 -0.84345,-4.14469 -0.62775,-0.75389 -1.07453,1.71962 -2.29723,3.12733 -2.50078,2.68822 -1.52746,1.17761 -0.5848,-0.67902 0.23325,-1.76168 0.32185,-0.69079 -0.49346,0.27236 -0.27144,0.1824 0.41645,-2.24595 1.34816,-3.49084 -0.31408,-0.0265 -0.99549,0.61163 -0.65534,0.0486 -1.49784,-0.73217 -0.49628,-0.47334 2.66173,-0.72812 2.23233,-1.27078 2.14489,-1.52659 3.66721,-2.21123 1.69966,-0.90059 1.53985,-1.33385 1.52204,-0.4299 1.25252,0.44034 1.03083,0.36705 1.85451,0.28572 0.77779,0.31619 0.0994,0.27374 -2.5429,0.85386 -0.49967,0.91953 0.024,0.79744 0.45707,0.67328 0.23079,4.42003 -0.27401,4.49968 -0.18456,0.32966 -0.27843,0.28449 -0.18014,1.09122 -0.29743,1.24553 -0.77457,-0.44304 -0.16037,-0.12174 -0.10712,0.58031 -0.43065,0.99803 -0.66515,-0.76875 -0.17306,-0.56369 -0.0899,0.56369 -0.51176,0.8025 -0.46558,-0.8025 z"
         id="path3252"
         sodipodi:nodetypes="ccccccccccccccccccccccccccccccccccccccccccccccccccccccccccc" />
      <path
         inkscape:connector-curvature="0"
         style="fill:#282828;fill-opacity:1"
         d="m 159.55018,-99.817541 3.03388,-1.718499 2.46223,-1.04795 2.04691,-1.17752 0.87576,-0.67345 0.59954,-0.46104 -1.38344,-0.0138 -1.01785,-0.3259 -2.40286,-1.94033 -1.50056,-1.63549 -3.40286,-3.27979 -1.64306,-0.97125 -1.39939,-1.21686 0.26496,-0.3506 1.13443,0.0886 0.90937,0.24815 -0.75388,-0.83181 -0.71585,-0.59895 1.18231,0.20825 1.25591,0.27959 -0.16249,-0.40881 -0.53744,-0.47294 6.23894,1.23948 4.68794,1.63336 3.22771,1.79166 1.67108,1.39808 1.29928,1.60791 3.05435,-1.46242 3.26506,-2.1066 0.73197,-0.86445 0.0874,0.85951 0.87843,-1.04228 0.11456,0.8922 0.62723,-1.08672 0.18301,0.96933 0.68634,-1.164 0.13221,1.44785 0.56874,-0.91069 -0.10757,1.23367 -0.89282,1.11889 -1.75563,1.09023 -1.84191,1.83237 -3.2474,2.68757 -3.50827,2.51545 -4.46728,1.31986 -3.86024,0.7041 -3.58127,1.376174 -1.93526,-0.390177 -1.10224,-0.389892 0,-2e-5 z"
         id="path3216"
         sodipodi:nodetypes="ccccccccccccccccccccccccccccccccccccccccccccccccccc" />
      <path
         sodipodi:nodetypes="cccccccccccccccccccccccccccccccccccccccccccc"
         id="path3254"
         d="m 185.12418,-116.88475 0.64337,-0.7202 1.26121,-0.83741 0.83171,-0.54167 1.01341,-1.15067 -0.83109,-0.7179 -2.75109,-2.12364 -1.93692,-1.87384 -1.93798,-1.43732 -1.21301,-0.81482 -0.75492,-0.914 1.73269,0.14632 -0.82281,-0.60099 1.63021,0.018 -0.67793,-0.586 2.50016,0.0528 4.00943,1.42581 3.14081,1.60638 1.0285,0.83773 1.61033,0.4894 1.06852,-0.56137 1.09666,-1.009 0.43287,-1.09589 0.48645,-1.90457 0.49338,-0.70553 0.32174,-1.05431 0.37976,-0.99532 0.94936,0.0168 0.96793,1.15425 0.34365,1.28645 -0.30882,0.99246 -1.34878,1.89753 -0.71685,0.92592 -0.74257,1.51242 0.85986,0.077 0.33241,0.32531 -1.31759,0.77331 -0.66134,0.78109 -1.23928,1.56322 -3.72056,2.05431 -1.75846,0.55066 -1.52412,0.76226 -2.08605,0.8525 z"
         style="fill:#1d1e1c;fill-opacity:1"
         inkscape:connector-curvature="0" />
      <path
         sodipodi:nodetypes="ccccccccccccccccccccccccccccccccccccccccccc"
         id="path3214"
         d="m 181.69089,-105.1613 3.79642,-2.33367 -0.0773,-1.47552 -4.3217,-5.20039 -4.34653,-3.49464 -3.407,-3.00264 -0.17131,-1.09484 0.17006,-0.81757 2.31496,1.13487 -0.51258,-1.51978 2.14933,0.59665 -0.32245,-1.2833 4.60309,1.57796 3.66821,1.81842 4.21809,2.53678 2.10987,2.26401 0.8044,1.46351 1.43087,0.0778 1.09769,-1.02262 0.80995,-0.69437 1.36349,-0.38625 0.996,0.11485 0.69724,0.0621 1.39459,-0.0834 0.24562,0.24075 -1.57472,2.14954 -0.0488,0.99347 5.82712,1.48399 2.27263,0.37743 3.32553,0.55229 -2.62522,1.36884 -3.64927,1.11157 -3.99531,0.25082 -5.22599,0.47603 -2.0349,0.62313 -2.97883,0.9594 -2.5177,1.02234 -2.38224,1.48166 -1.62943,0.94179 -0.79764,0.11732 -2.71534,-0.42476 -0.70155,-0.48727 z"
         style="fill:#000000;fill-opacity:1"
         inkscape:connector-curvature="0" />
      <path
         sodipodi:nodetypes="ccccccccccccccccccccccccccccccccccccccccccccc"
         id="path3242"
         d="m 205.95543,-93.358362 -0.69018,-1.504531 0.64242,-1.51724 2.90117,-2.048654 3.43186,-2.867653 0.50503,-2.7013 -4.28202,-5.34359 -6.9018,-5.82651 3.13143,0.12293 -1.68163,-2.63739 4.1866,0.62395 -1.99665,-1.81299 7.21957,2.3247 5.07868,3.40439 2.10588,2.75924 1.69946,1.26725 2.45399,-0.18282 2.6755,-1.1278 2.09179,-0.26028 1.33698,0.60001 2.14671,0.014 0.45054,0.42263 -2.24647,1.75464 -0.39149,0.53234 -1.16007,1.4903 1.48076,1.10063 2.12094,0.31589 5.45697,1.33439 3.23448,0.94409 1.63049,1.27773 -0.97306,0.15031 0.21384,0.49364 -0.497,0.376443 -1.42584,-0.0604 0.52283,0.43064 -2.59785,0.79464 -10.05349,0.007 -4.16225,-0.37698 -4.34626,1.01735 -2.88259,0.576137 -2.78115,2.034694 -3.22118,2.198822 -3.29851,0.505498 -1.12841,-0.606219 z"
         style="fill:#212121;fill-opacity:1"
         inkscape:connector-curvature="0" />
      <path
         sodipodi:nodetypes="cccccccccccccccccccccccccccccccccccccccccccccccccccccccccccc"
         id="path3244"
         d="m 252.78839,-106.83771 -0.12013,-0.88021 -0.63148,0.68939 -0.50813,0.58663 -0.24348,-1.20415 -0.29813,-1.35009 -0.28603,-0.0587 -0.23567,-0.17166 -0.50517,-3.38749 -1.40396,-6.89894 -1.04492,-1.25488 -1.78857,2.86236 -3.82378,5.20551 -4.16264,4.47462 -2.54247,1.96014 -0.97342,-1.13023 0.38826,-2.93237 0.5357,-1.14982 -0.82136,0.45335 -0.45181,0.3036 0.69318,-3.73844 2.24404,-5.81058 -0.52277,-0.0441 -1.65703,1.01807 -1.09083,0.0808 -2.49319,-1.21872 -0.82608,-0.78788 4.43053,-1.21197 3.71575,-2.11524 3.57023,-2.54105 6.10415,-3.68065 3.24859,-1.20732 2.17219,-2.05349 2.59677,-1.36424 3.20392,-0.1087 2.02207,0.94996 2.9777,0.55127 1.41111,0.45498 0.71365,0.52586 -0.64284,0.37334 -5.00452,1.24121 -0.92882,1.57508 -0.52088,1.70769 0.7608,1.1207 0.38415,7.35723 -0.4561,7.48983 -0.30719,0.54873 -0.46346,0.47354 -0.29985,1.81635 -0.49509,2.07323 -1.28928,-0.73745 -0.26696,-0.20264 -0.1783,0.96593 -0.7168,1.66126 -1.10719,-1.27961 -0.28804,-0.93827 -0.14957,0.93827 -0.85184,1.33577 -0.77498,-1.33577 z"
         style="fill:#000000;fill-opacity:1"
         inkscape:connector-curvature="0" />
      <path
         sodipodi:nodetypes="ccccccccccccccccccccccccccccccccccccccccccccccccccc"
         id="path3262"
         d="m 268.01566,-91.931347 3.03388,-1.7185 2.46223,-1.047951 2.04691,-1.177519 0.87574,-0.673447 0.59954,-0.461041 -1.38343,-0.01382 -1.01785,-0.325899 -2.40285,-1.940339 -1.50057,-1.635487 -3.40285,-3.27979 -1.64307,-0.97124 -1.39939,-1.21687 0.26496,-0.35059 1.13443,0.0886 0.90938,0.24814 -0.75389,-0.83181 -0.71585,-0.59895 1.18231,0.20826 1.25592,0.27959 -0.1625,-0.40881 -0.53744,-0.47295 6.23894,1.23948 4.68794,1.63336 3.22772,1.79166 1.67107,1.39808 1.29929,1.60791 3.05434,-1.46242 3.26506,-2.1066 0.73197,-0.86445 0.0874,0.85951 0.87843,-1.04228 0.11456,0.89221 0.62723,-1.08673 0.18301,0.96933 0.68635,-1.164 0.1322,1.44786 0.56875,-0.9107 -0.10758,1.23367 -0.89282,1.11889 -1.75563,1.09024 -1.8419,1.832363 -3.24741,2.687573 -3.50827,2.51545 -4.46727,1.319857 -3.86024,0.704097 -3.58129,1.376177 -1.93525,-0.390177 -1.10223,-0.389893 0,-2e-5 z"
         style="fill:#131313;fill-opacity:1"
         inkscape:connector-curvature="0" />
      <path
         inkscape:connector-curvature="0"
         id="path3256"
         d="m 270.31047,-106.18713 3.94178,-4.07766 1.17465,-2.93408 -5.94352,-1.97271 -4.59518,-2.11035 -9.5067,-5.88773 -1.03659,-0.58931 0.50616,-0.73061 0.68921,-0.63295 -0.71238,-0.43873 2.45117,-0.74524 -0.33438,-1.05147 2.51097,-0.12695 -0.39776,-0.46452 -0.28499,-0.37817 5.64956,0.83372 5.96145,1.4042 6.44894,2.16983 2.36303,1.4209 2.40775,0.44163 2.6465,-2.71065 1.50945,-2.64087 2.90103,-0.98019 2.43172,0.46034 4.71491,0.0538 -4.57458,2.17353 -0.44854,2.02095 0.26054,1.45305 0.86723,0.58103 5.35757,1.47086 5.77242,-0.36013 1.49793,-0.0935 -2.02615,0.57744 0.93539,0.35542 -2.34845,0.95572 0.55098,0.58153 -2.11738,0.83332 0.0188,0.60933 -7.06949,2.46869 -4.87751,0.29746 -3.88675,3.17385 -3.4487,2.06009 -3.28766,3.34259 -1.55658,3.09557 -3.26738,-0.14657 0.49699,-1.50859 -1.24091,1.65443 -1.02801,0.22249 -1.06625,-0.46441 1.82696,-2.57099 -2.43402,2.31664 -1.10338,-0.40294 2.7004,-3.00872 z"
         style="fill:#2f2f2f;fill-opacity:1"
         sodipodi:nodetypes="cccccccccccccccccccccccccccccccccccccccccccccccccccccc" />
      <path
         inkscape:connector-curvature="0"
         id="path3260"
         d="m 336.90001,-97.284199 -2.64869,-1.095112 -8.89641,-5.559599 -5.3608,-3.46844 -3.49342,-0.59912 -2.41548,0.90797 -3.46389,2.11432 -1.26028,0.88214 -3.05813,1.4472 -0.92139,0.0671 -1.59757,-0.82315 -1.42313,-3.19401 -0.75787,-3.08051 0.2488,-1.83854 2.26429,-1.18667 2.9333,-0.74481 3.53747,-1.25461 1.7169,-1.30992 1.10093,-0.83734 -0.0828,-0.97258 -1.10307,-2.88528 -4.28673,-8.4252 -4.43292,-8.65641 -0.87619,-2.37582 -0.0156,-0.57055 0.4713,-0.19452 2.3562,1.70346 -0.61666,-2.74746 -0.60506,-1.97861 1.15624,0.64631 1.75567,1.47071 -0.34833,-2.54565 -0.0217,-0.82471 0.92535,0.69802 4.02607,3.03693 6.93453,5.9461 3.83444,4.19366 2.81278,3.96844 1.29597,2.46483 0.75075,1.88267 0.66632,1.26122 0.79705,0.12537 2.81161,-0.83228 2.11856,-0.28366 1.61734,0.24502 1.59586,0.61919 1.11213,0.42185 2.40087,0.26729 2.22937,0.49755 0.39687,0.59037 -5.0934,1.33214 -2.4835,1.7706 -1.9335,1.86163 -0.34798,1.1202 0.72026,1.23597 7.75582,4.84939 2.66717,2.06167 1.58996,1.61578 1.90856,2.29027 1.41411,2.978217 0.25425,1.409818 -3.02313,-2.675575 1.23022,3.715822 0.30875,1.480899 -1.20273,-1.106156 -2.52204,-2.292109 0.80562,1.990464 0.26374,1.359903 -2.98943,-0.935402 z"
         style="fill:#000000;fill-opacity:1"
         sodipodi:nodetypes="cccccccccccccccccccccccccccccccccccccccccccccccccccccccccccccccccccccc" />
    </g>
  </g>
</svg>
