<?xml version="1.0" encoding="UTF-8" standalone="no"?>
<!-- Created with Inkscape (http://www.inkscape.org/) -->

<svg
   xmlns:dc="http://purl.org/dc/elements/1.1/"
   xmlns:cc="http://creativecommons.org/ns#"
   xmlns:rdf="http://www.w3.org/1999/02/22-rdf-syntax-ns#"
   xmlns:svg="http://www.w3.org/2000/svg"
   xmlns="http://www.w3.org/2000/svg"
   xmlns:sodipodi="http://sodipodi.sourceforge.net/DTD/sodipodi-0.dtd"
   xmlns:inkscape="http://www.inkscape.org/namespaces/inkscape"
   width="64"
   height="64"
   viewBox="0 0 64.000002 63.999999"
   id="svg4825"
   version="1.1"
   inkscape:version="0.91 r13725"
   sodipodi:docname="nav-pad.svg">
  <defs
     id="defs4827" />
  <sodipodi:namedview
     id="base"
     pagecolor="#222222"
     bordercolor="#666666"
     borderopacity="1.0"
     inkscape:pageopacity="0"
     inkscape:pageshadow="2"
     inkscape:zoom="5.6"
     inkscape:cx="-1.8851001"
     inkscape:cy="30.043735"
     inkscape:document-units="px"
     inkscape:current-layer="layer1"
     showgrid="false"
     fit-margin-top="0"
     fit-margin-left="0"
     fit-margin-right="0"
     fit-margin-bottom="0"
     inkscape:window-width="1317"
     inkscape:window-height="764"
     inkscape:window-x="1997"
     inkscape:window-y="143"
     inkscape:window-maximized="0"
     units="px"
     showguides="true"
     inkscape:guide-bbox="true">
    <sodipodi:guide
       position="8.0000002,0"
       orientation="1,0"
       id="guide4134"
       inkscape:label=""
       inkscape:color="rgb(0,0,255)" />
    <sodipodi:guide
       position="0,55.999999"
       orientation="0,1"
       id="guide4136"
       inkscape:label=""
       inkscape:color="rgb(0,0,255)" />
    <sodipodi:guide
       position="56.000002,0"
       orientation="1,0"
       id="guide4138"
       inkscape:label=""
       inkscape:color="rgb(0,0,255)" />
    <sodipodi:guide
       position="0,7.9999999"
       orientation="0,1"
       id="guide4140"
       inkscape:label=""
       inkscape:color="rgb(0,0,255)" />
  </sodipodi:namedview>
  <metadata
     id="metadata4830">
    <rdf:RDF>
      <cc:Work
         rdf:about="">
        <dc:format>image/svg+xml</dc:format>
        <dc:type
           rdf:resource="http://purl.org/dc/dcmitype/StillImage" />
        <dc:title />
      </cc:Work>
    </rdf:RDF>
  </metadata>
  <g
     inkscape:label="Layer 1"
     inkscape:groupmode="layer"
     id="layer1"
     transform="translate(543.81678,36.392479)">
    <g
       transform="matrix(3.3580029,0,0,3.3580029,-537.91343,-31.292402)"
       style="fill:#ffffff;fill-rule:evenodd;stroke:none;stroke-width:1"
       id="g8">
      <g
         style="fill:#ffffff"
         transform="translate(0,1)"
         id="g10">
        <path
           inkscape:connector-curvature="0"
           d="M 15.682,1.91 14.147,0.396 C 13.737,-0.012 12.929,-0.181 12.54,0.207 L 6.485,6.234 c 0,0 -1.321,3.913 -1.446,4.242 -0.099,0.262 0.231,0.59 0.46,0.475 C 5.873,10.765 9.604,9.32 9.604,9.32 l 6.071,-6.057 c 0.39,-0.388 0.418,-0.946 0.007,-1.353 l 0,0 z M 9.021,8.854 6.454,9.828 5.993,9.403 7.218,6.438 l 0.741,0.546 1.058,0 0.004,1.87 0,0 z"
           class="si-glyph-fill"
           id="path12"
           style="fill:#ffffff" />
        <path
           inkscape:connector-curvature="0"
           d="m 12.042,9.345 0,3.697 -11.084,0 L 0.958,2 9.141,1.917 9.953,1.058 0,1.058 0,14 13,14 12.943,8.578 12.042,9.345 Z"
           class="si-glyph-fill"
           id="path14"
           style="fill:#ffffff" />
      </g>
    </g>
  </g>
</svg>
