<?xml version="1.0" encoding="UTF-8" standalone="no"?>
<!-- Created with Inkscape (http://www.inkscape.org/) -->

<svg
   xmlns:dc="http://purl.org/dc/elements/1.1/"
   xmlns:cc="http://creativecommons.org/ns#"
   xmlns:rdf="http://www.w3.org/1999/02/22-rdf-syntax-ns#"
   xmlns:svg="http://www.w3.org/2000/svg"
   xmlns="http://www.w3.org/2000/svg"
   xmlns:sodipodi="http://sodipodi.sourceforge.net/DTD/sodipodi-0.dtd"
   xmlns:inkscape="http://www.inkscape.org/namespaces/inkscape"
   width="64"
   height="64"
   viewBox="0 0 64.000002 63.999999"
   id="svg4825"
   version="1.1"
   inkscape:version="0.91 r13725"
   sodipodi:docname="nav-donate.svg">
  <defs
     id="defs4827" />
  <sodipodi:namedview
     id="base"
     pagecolor="#222222"
     bordercolor="#666666"
     borderopacity="1.0"
     inkscape:pageopacity="0"
     inkscape:pageshadow="2"
     inkscape:zoom="11.2"
     inkscape:cx="16.526494"
     inkscape:cy="35.6854"
     inkscape:document-units="px"
     inkscape:current-layer="layer1"
     showgrid="false"
     fit-margin-top="0"
     fit-margin-left="0"
     fit-margin-right="0"
     fit-margin-bottom="0"
     inkscape:window-width="1627"
     inkscape:window-height="824"
     inkscape:window-x="1969"
     inkscape:window-y="110"
     inkscape:window-maximized="0"
     units="px"
     showguides="true"
     inkscape:guide-bbox="true">
    <sodipodi:guide
       position="8.0000002,0"
       orientation="1,0"
       id="guide4134"
       inkscape:label=""
       inkscape:color="rgb(0,0,255)" />
    <sodipodi:guide
       position="0,55.999999"
       orientation="0,1"
       id="guide4136"
       inkscape:label=""
       inkscape:color="rgb(0,0,255)" />
    <sodipodi:guide
       position="56.000002,0"
       orientation="1,0"
       id="guide4138"
       inkscape:label=""
       inkscape:color="rgb(0,0,255)" />
    <sodipodi:guide
       position="0,7.9999999"
       orientation="0,1"
       id="guide4140"
       inkscape:label=""
       inkscape:color="rgb(0,0,255)" />
    <sodipodi:guide
       position="56.000002,91.785713"
       orientation="0,1"
       id="guide4154" />
  </sodipodi:namedview>
  <metadata
     id="metadata4830">
    <rdf:RDF>
      <cc:Work
         rdf:about="">
        <dc:format>image/svg+xml</dc:format>
        <dc:type
           rdf:resource="http://purl.org/dc/dcmitype/StillImage" />
        <dc:title />
      </cc:Work>
    </rdf:RDF>
  </metadata>
  <g
     inkscape:label="Layer 1"
     inkscape:groupmode="layer"
     id="layer1"
     transform="translate(543.81678,36.392479)">
    <path
       id="path6792"
       d="m -520.02704,-28.353083 c 0.30509,-0.0036 0.68841,0.18925 0.9342,0.263575 0.87016,0.262899 1.76505,0.498745 2.6378,0.750019 0.81152,0.233624 1.55792,0.517837 2.34471,0.816168 0.24716,0.09372 0.76849,0.208767 0.91079,0.446755 0.12668,0.211446 -0.0979,0.578465 -0.18418,0.770373 -0.29505,0.653683 -0.66011,1.277318 -0.96068,1.92237 -0.35105,0.753463 -0.86204,1.438498 -1.17338,2.213422 -0.11006,0.273809 -0.24298,0.521663 -0.38364,0.781567 -0.0521,0.09624 -0.10665,0.266613 -0.20762,0.321582 -0.13644,0.07425 -0.43523,-0.06358 -0.57396,-0.102784 -0.48946,-0.138305 -0.98574,-0.242009 -1.46543,-0.413172 -0.6881,-0.245543 -1.43516,-0.34713 -2.14931,-0.535293 -0.96003,-0.252869 -1.91224,-0.56158 -2.86575,-0.800902 0.0446,-0.508117 0.43572,-1.098394 0.64316,-1.563135 0.50672,-1.134803 0.95279,-2.298457 1.52854,-3.386789 0.17911,-0.338191 0.36005,-0.681819 0.51798,-1.029878 0.0655,-0.144035 0.0856,-0.344778 0.25137,-0.416225 0.0594,-0.02559 0.12499,-0.03684 0.1954,-0.03765 z m 8.17694,2.841322 c 0.0872,5.16e-4 0.17568,0.01015 0.24729,0.01018 0.47435,1.69e-4 0.92683,0.08456 1.37079,0.239152 1.30682,0.455003 2.51014,0.903026 3.64426,1.737155 0.32718,0.240657 0.67229,0.458648 0.97697,0.728648 0.10521,0.09323 0.29044,0.202768 0.30529,0.356182 0.0225,0.23229 -0.16185,0.555955 -0.27274,0.749003 -0.2842,0.494796 -0.57423,0.990245 -0.89046,1.465439 -1.19137,1.790309 -2.41084,3.572314 -3.60355,5.373272 l -0.0326,0 c 0.0322,-0.749784 0.1951,-1.493248 0.19539,-2.247006 1e-4,-0.275599 0.0367,-0.628183 -0.10176,-0.879262 -0.19791,-0.358967 -0.87145,-0.466905 -1.2334,-0.580069 -1.15184,-0.360073 -2.35969,-0.84655 -3.54962,-1.048196 l -0.0976,-0.0977 c 0.23805,-0.650491 0.63352,-1.266788 0.9393,-1.888787 0.38069,-0.774207 0.70456,-1.589608 1.07058,-2.377266 0.16707,-0.359845 0.33375,-0.719921 0.51189,-1.074653 0.0674,-0.134886 0.14381,-0.345739 0.28189,-0.422332 0.0649,-0.03589 0.15094,-0.04435 0.23814,-0.04376 z m 7.92454,3.724655 c 0.40736,0.01371 0.89978,0.305783 1.21307,0.419277 1.15572,0.418693 2.21562,1.178286 3.10287,2.024138 0.33641,0.320734 0.73762,0.708009 0.93421,1.13673 0.2005,0.437158 0.0119,0.624253 -0.1679,1.010542 -0.25523,0.548367 -0.57964,1.047097 -0.89962,1.562118 -1.21583,1.957011 -2.73794,3.666461 -4.1012,5.503535 -0.40159,0.5412019 -0.80097,1.0900975 -1.31075,1.5397268 -0.14235,0.1255388 -0.30401,0.3861023 -0.49155,0.4365784 -0.54878,0.1476837 -1.21581,-0.070528 -1.75545,-0.1455267 -1.05467,-0.1465433 -2.10523,-0.2911162 -3.15884,-0.4823723 -0.476,-0.086428 -0.95068,-0.2642767 -1.43287,-0.3063174 0.0762,-0.3557432 0.33461,-0.5780827 0.49356,-0.8812989 0.37668,-0.7186519 0.76042,-1.4192859 1.17439,-2.1197979 1.31147,-2.219194 2.6125,-4.437793 4.00858,-6.605664 0.46421,-0.720898 0.93566,-1.435544 1.41151,-2.14931 0.16698,-0.250526 0.3928,-0.735969 0.66351,-0.878245 0.0949,-0.0499 0.20243,-0.06795 0.31648,-0.06412 z m -20.27086,0.550557 c 0.29541,0.0076 0.58964,0.102576 0.8701,0.178091 0.66466,0.178978 1.32508,0.37008 1.98648,0.558698 2.25484,0.642807 4.50573,1.328974 6.7736,1.919318 0.81771,0.212846 1.63443,0.437457 2.44238,0.680817 0.25925,0.07813 0.70495,0.132184 0.90471,0.321583 0.13779,0.130685 0.10482,0.338793 0.10482,0.510868 0,0.426376 -0.0236,0.851288 -0.10381,1.270046 -0.0829,0.433542 -0.12116,0.86959 -0.2076,1.302612 -0.0316,0.158169 -0.0243,0.375885 -0.11193,0.514939 -0.11295,0.178978 -0.52692,0.277701 -0.71644,0.372465 -0.91689,0.459331 -1.9714,0.897029 -2.93088,1.184562 -0.59041,0.120165 -1.19223,0.246308 -1.79109,0.311405 -0.31034,0.03371 -0.63145,0.113278 -0.94439,0.03461 -1.01408,-0.25492 -1.88065,-1.021678 -2.6378,-1.706624 -0.27908,-0.252479 -0.53602,-0.648921 -0.87925,-0.809044 0.20451,0.710151 0.60038,1.389527 0.85992,2.084179 0.0993,0.264984 0.28568,0.588943 0.2707,0.879261 -0.0199,0.386811 -0.40675,0.95029 -0.74086,1.127576 -0.198,0.105054 -0.46499,0.11213 -0.68286,0.155702 -0.6145,0.12287 -1.26841,0.185549 -1.88878,0.247291 l 0,0.03257 c 0.59301,0.1460877 1.22185,0.1318901 1.82366,0.1994634 0.37906,0.042534 0.74085,0.1794258 1.10722,0.2472915 0.76201,0.1410081 1.58137,0.2614922 2.31213,0.524098 1.14532,0.4116577 2.21867,1.1564424 3.22396,1.8297619 2.45151,1.6423014 4.78021,3.6577333 6.29935,6.2199707 0.54507,0.91931862 1.13062,1.98811259 1.28836,3.0611386 l 0.0977,0 c 0,0.3510523 0.28038,1.0118836 0.0966,1.329071 -0.14873,0.2569383 -0.86919,0.3239422 -1.13876,0.3317577 -0.96384,0.028332 -1.9451,0.2299124 -2.89831,0.3582181 l 0.22693,0.6187429 0.75817,2.0190467 2.39966,6.2199695 0.77851,2.14931 0.33074,0.749002 -0.3745,-1.758525 -0.68082,-3.028574 -1.19169,-5.8291858 c 0.31886,0 0.60009,0.091342 0.91184,0.1261912 0.62388,0.070014 1.32158,0.026495 1.92134,-0.1516335 0.18993,-0.05634 0.5565,-0.1142238 0.6971,-0.2584874 0.15348,-0.1572898 0.0519,-0.7418775 0.0519,-0.953552 0,-1.0205975 -0.22546,-2.0366339 -0.56378,-2.99600568 -0.98048,-2.78010012 -2.99987,-4.77671952 -5.09952,-6.75017462 -0.6372,-0.5991041 -1.35907,-1.0974028 -2.08723,-1.5814534 -0.35919,-0.2388657 -0.75486,-0.566382 -1.17236,-0.6889592 l 0,-0.032562 c 0.84279,0.1564767 1.72011,0.1688512 2.57266,0.2645927 0.94512,0.1060971 1.88893,0.294114 2.83318,0.4131717 0.51985,0.065555 1.04184,0.1434592 1.56314,0.1964091 0.31947,0.032468 0.71702,0.03876 1.00952,0.1801279 1.31672,0.6363255 2.53779,1.5890228 3.74501,2.3976189 l 0.94439,0.6299347 c 0.10412,0.069689 0.2545,0.2354479 0.39078,0.2116745 0.14776,-0.025724 0.30846,-0.2049178 0.42336,-0.2951236 0.30402,-0.2383775 0.60203,-0.4868923 0.91182,-0.7174533 1.20746,-0.898477 2.35761,-1.8699968 3.54962,-2.7802625 0.34226,-0.261336 0.66325,-0.5461842 1.00851,-0.7978485 0.16973,-0.1237155 0.27499,-0.2729639 0.48949,-0.3215817 0.0269,0.3292019 0.13719,0.6465496 0.15977,0.9769586 0.0601,0.8772099 -0.0367,1.8392633 -0.20047,2.6998657 -0.19099,1.0043127 -0.50124,2.0432688 -0.76427,3.0316257 -0.1102,0.4142301 -0.32211,0.7985006 -0.3348,1.2374796 l -0.0977,0 c -0.0483,0.32272296 -0.21465,0.63176803 -0.30734,0.94439347 -0.12757,0.43051385 -0.20616,0.93755453 -0.44776,1.32703563 -0.60695,0.9785873 -1.58894,1.8416899 -2.43629,2.6082767 -0.49637,0.4490756 -1.00206,0.8881785 -1.49801,1.3382296 -0.15651,0.1416597 -0.50087,0.3267926 -0.56886,0.5332574 -0.0731,0.2220959 0.0421,0.570788 0.0478,0.8039549 0.0208,0.8483264 0.1039,1.7311723 0.22084,2.5726577 0.21357,1.5370825 0.23343,3.1080275 0.30122,4.6568365 0.0252,1.052424 0.19114,2.266901 0.25443,3.125249 -3.31502,1.530379 -7.00619,2.43629 -10.89715,2.43629 -3.2325,0 -6.32685,-0.641851 -9.1824,-1.718834 0.0804,-0.427432 0.1606,-1.333533 0.21371,-1.758526 0.0795,-0.662714 0.11796,-1.331393 0.19741,-1.989538 0.0649,-0.536024 0.0495,-1.087882 0.10685,-1.625209 0.10389,-0.968498 0.25556,-1.930795 0.34805,-2.8983112 0.0382,-0.3972957 0.0139,-0.8115258 0.0784,-1.2049142 0.16022,-0.978913 0.24037,-1.9711792 0.28595,-2.9634423 0.0147,-0.3210926 0.22911,-0.7183903 0.10992,-1.0420888 -0.0622,-0.168038 -0.24961,-0.297974 -0.37044,-0.4233501 -0.24846,-0.2579168 -0.47667,-0.4897001 -0.74697,-0.7225422 -0.59203,-0.5099714 -1.10859,-1.1134882 -1.68728,-1.6384409 -0.50899,-0.4617759 -0.94475,-1.0046802 -1.43389,-1.48273883 -1.48791,-1.45371517 -2.99601,-2.88915177 -4.46959,-4.36273107 -0.58128,-0.5812895 -1.14597,-1.1756072 -1.72595,-1.758525 -0.23122,-0.2324188 -0.63991,-0.5564107 -0.73273,-0.879264 -0.0967,-0.3363664 0.13152,-0.7440191 0.25137,-1.042089 0.1651,-0.409476 0.26334,-0.8774391 0.38773,-1.3026113 0.60669,-2.0770471 1.32557,-4.1078851 2.03126,-6.1548401 0.40804,-1.184236 0.85097,-2.359421 1.24663,-3.549617 0.15404,-0.462329 0.26826,-1.23521 0.60043,-1.592646 0.41944,-0.451191 1.13527,-0.601953 1.71884,-0.677766 0.0681,-0.0088 0.13638,-0.01193 0.20455,-0.01017 z m 26.68929,4.684313 c 0.0627,5.17e-4 0.12904,0.0081 0.20049,0.02341 0.70716,0.15081 1.32451,0.71909 1.85622,1.174385 0.59414,0.508835 1.10009,1.081405 1.56822,1.706627 0.27627,0.368996 0.54197,0.75255 0.51493,1.23748 -0.0337,0.604835 -0.78253,1.140632 -1.17133,1.530569 -1.1587,1.1619957 -2.36924,2.2030257 -3.61271,3.2667059 -0.79335,0.6785961 -1.58934,1.3433923 -2.41186,1.9834306 -0.32012,0.2487989 -0.6689,0.6278587 -1.10723,0.5291858 -0.87825,-0.197347 -1.77272,-0.9143527 -2.4434,-1.483756 -0.19902,-0.1689496 -0.62497,-0.4831793 -0.60552,-0.7785145 0.0132,-0.2002766 0.1496,-0.3042977 0.25237,-0.4569307 0.27649,-0.4106498 0.59662,-0.7802822 0.89048,-1.1743874 1.13215,-1.5186507 2.23544,-3.0660297 3.37559,-4.5886537 0.57284,-0.765056 1.14645,-1.523175 1.73308,-2.27957 0.28015,-0.361169 0.52189,-0.693998 0.96067,-0.689977 z m -13.93287,3.979073 c -0.0424,0.292402 -0.31604,0.572431 -0.47727,0.814132 -0.41497,0.621996 -0.83602,1.249619 -1.28023,1.8511334 -0.13806,0.1869895 -0.35329,0.7249359 -0.5933,0.7734257 -0.32011,0.064613 -0.70613,-0.1928356 -1.00443,-0.2666297 -0.93201,-0.230758 -1.91415,-0.5572644 -2.86472,-0.6971014 0.045,-0.216297 0.17345,-0.706422 0.34702,-0.848731 0.11072,-0.09093 0.33066,-0.116592 0.46711,-0.155703 0.36767,-0.105414 0.73662,-0.210991 1.10721,-0.305301 1.44232,-0.367076 2.85957,-0.822476 4.29861,-1.165225 z"
       style="fill:#ffffff;stroke:none"
       inkscape:connector-curvature="0" />
  </g>
</svg>
