<?xml version="1.0" encoding="UTF-8" standalone="no"?>
<!-- Created with Inkscape (http://www.inkscape.org/) -->

<svg
   xmlns:dc="http://purl.org/dc/elements/1.1/"
   xmlns:cc="http://creativecommons.org/ns#"
   xmlns:rdf="http://www.w3.org/1999/02/22-rdf-syntax-ns#"
   xmlns:svg="http://www.w3.org/2000/svg"
   xmlns="http://www.w3.org/2000/svg"
   xmlns:sodipodi="http://sodipodi.sourceforge.net/DTD/sodipodi-0.dtd"
   xmlns:inkscape="http://www.inkscape.org/namespaces/inkscape"
   width="64mm"
   height="64mm"
   viewBox="0 0 226.77166 226.77165"
   id="svg4825"
   version="1.1"
   inkscape:version="0.91 r13725"
   sodipodi:docname="nav-support.svg">
  <defs
     id="defs4827" />
  <sodipodi:namedview
     id="base"
     pagecolor="#222222"
     bordercolor="#666666"
     borderopacity="1.0"
     inkscape:pageopacity="0"
     inkscape:pageshadow="2"
     inkscape:zoom="0.98994949"
     inkscape:cx="104.9803"
     inkscape:cy="16.544391"
     inkscape:document-units="px"
     inkscape:current-layer="layer1"
     showgrid="false"
     fit-margin-top="0"
     fit-margin-left="0"
     fit-margin-right="0"
     fit-margin-bottom="0"
     inkscape:window-width="1871"
     inkscape:window-height="1056"
     inkscape:window-x="1969"
     inkscape:window-y="24"
     inkscape:window-maximized="1" />
  <metadata
     id="metadata4830">
    <rdf:RDF>
      <cc:Work
         rdf:about="">
        <dc:format>image/svg+xml</dc:format>
        <dc:type
           rdf:resource="http://purl.org/dc/dcmitype/StillImage" />
        <dc:title />
      </cc:Work>
    </rdf:RDF>
  </metadata>
  <g
     inkscape:label="Layer 1"
     inkscape:groupmode="layer"
     id="layer1"
     transform="translate(543.81678,199.16413)">
    <path
       style="display:inline;fill:#ffffff;fill-opacity:1"
       id="path3635"
       d="m -431.77007,-158.09991 q 15.16751,0 29.00165,5.91701 13.83414,5.91699 23.83472,15.91763 10.00058,10.00053 15.91758,23.83471 5.91706,13.83415 5.91706,29.001571 0,15.167679 -5.91706,29.001778 -5.917,13.834099 -15.91758,23.834513 -10.00058,10.000826 -23.83472,15.917999 -13.83414,5.91676 -29.00165,5.91676 -15.16756,0 -29.0017,-5.91676 -13.83414,-5.917173 -23.83472,-15.917999 -10.00062,-10.000414 -15.91758,-23.834513 -5.91706,-13.834099 -5.91706,-29.001778 0,-15.167421 5.91706,-29.001571 5.91696,-13.83418 15.91758,-23.83471 10.00058,-10.00064 23.83472,-15.91763 13.83414,-5.91701 29.0017,-5.91701 z m 0,10.66728 q -15.83427,0 -30.0851,7.50043 l 16.16759,16.16765 q 6.83377,-2.3335 13.91751,-2.3335 7.08373,0 13.91746,2.3335 l 16.16759,-16.16765 q -14.25083,-7.50043 -30.08505,-7.50043 z m -56.5033,94.089031 16.16761,-16.167968 q -2.3335,-6.833727 -2.3335,-13.917422 0,-7.083695 2.3335,-13.917377 l -16.16761,-16.167594 q -7.50046,14.250832 -7.50046,30.084971 0,15.834264 7.50046,30.08539 z m 56.5033,33.918662 q 15.83422,0 30.08505,-7.500724 l -16.16759,-16.167555 q -6.83373,2.333457 -13.91746,2.333457 -7.08374,0 -13.91751,-2.333457 l -16.16759,16.167555 q 14.25083,7.500724 30.0851,7.500724 z m 0,-32.002232 q 13.25075,0 22.62628,-9.375491 9.37558,-9.375491 9.37558,-22.626329 0,-13.250669 -9.37558,-22.626201 -9.37553,-9.37558 -22.62628,-9.37558 -13.2508,0 -22.62632,9.37558 -9.37559,9.375532 -9.37559,22.626201 0,13.250838 9.37559,22.626329 9.37552,9.375491 22.62632,9.375491 z m 40.33565,-18.084398 16.1676,16.167968 q 7.50047,-14.251126 7.50047,-30.08539 0,-15.834139 -7.50047,-30.084971 l -16.1676,16.167594 q 2.33345,6.833682 2.33345,13.917377 0,7.083695 -2.33345,13.917422 z"
       inkscape:connector-curvature="0" />
  </g>
</svg>
