<?xml version="1.0" encoding="UTF-8" standalone="no"?>
<!-- Created with Inkscape (http://www.inkscape.org/) -->

<svg
   xmlns:dc="http://purl.org/dc/elements/1.1/"
   xmlns:cc="http://creativecommons.org/ns#"
   xmlns:rdf="http://www.w3.org/1999/02/22-rdf-syntax-ns#"
   xmlns:svg="http://www.w3.org/2000/svg"
   xmlns="http://www.w3.org/2000/svg"
   xmlns:sodipodi="http://sodipodi.sourceforge.net/DTD/sodipodi-0.dtd"
   xmlns:inkscape="http://www.inkscape.org/namespaces/inkscape"
   width="511.2691"
   height="130.21161"
   id="svg1418"
   sodipodi:version="0.32"
   inkscape:version="0.91 r13725"
   sodipodi:docname="riseup.net.svg"
   version="1.0"
   inkscape:export-xdpi="78.079361"
   inkscape:export-ydpi="78.079361">
  <defs
     id="defs1420" />
  <sodipodi:namedview
     id="base"
     pagecolor="#ffffff"
     bordercolor="#666666"
     borderopacity="1.0"
     inkscape:pageopacity="0.0"
     inkscape:pageshadow="2"
     inkscape:zoom="0.98994949"
     inkscape:cx="-7.9242621"
     inkscape:cy="64.068792"
     inkscape:document-units="px"
     inkscape:current-layer="layer1"
     inkscape:window-width="1050"
     inkscape:window-height="812"
     inkscape:window-x="61"
     inkscape:window-y="30"
     width="689px"
     height="174.61px"
     showgrid="false"
     fit-margin-top="0"
     fit-margin-left="0"
     fit-margin-right="0"
     fit-margin-bottom="0"
     inkscape:window-maximized="0" />
  <metadata
     id="metadata1423">
    <rdf:RDF>
      <cc:Work
         rdf:about="">
        <dc:format>image/svg+xml</dc:format>
        <dc:type
           rdf:resource="http://purl.org/dc/dcmitype/StillImage" />
        <dc:title></dc:title>
      </cc:Work>
    </rdf:RDF>
  </metadata>
  <g
     inkscape:label="Layer 1"
     inkscape:groupmode="layer"
     id="layer1"
     transform="translate(-66.864601,-158.54056)">
    <g
       inkscape:export-ydpi="72.000000"
       inkscape:export-xdpi="72.000000"
       transform="matrix(1.9228,0,0,1.9228,-543.2423,-667.3182)"
       style="fill:#000000;fill-opacity:1;stroke:none;stroke-width:0.99300146;stroke-miterlimit:4;stroke-opacity:1"
       id="g1812">
      <path
         id="path1813"
         d="m 319.71511,490.07402 -2.05394,-20.45208 -0.35989,-14.86097 6.77619,-0.71978 0.71979,5.75826 4.67859,-4.67859 9.71706,-1.43957 3.95881,1.43957 -0.71978,7.75046 -5.03849,-1.07967 -4.06421,0.57071 -3.66066,4.02055 -2.66831,3.49351 0.97426,13.316 0.46531,7.45231 -8.72473,-0.57071 z"
         style="display:block;fill-rule:evenodd;stroke:none;stroke-linecap:butt;stroke-linejoin:miter"
         inkscape:connector-curvature="0" />
      <path
         id="path1814"
         d="m 346.18408,468.0211 -2.27158,22.06512 9.99497,0 0,-14.54843 0,-7.27421 -7.72339,-0.24248 z"
         style="display:block;fill-rule:evenodd;stroke:none;stroke-linecap:butt;stroke-linejoin:miter"
         inkscape:connector-curvature="0" />
      <path
         id="path1815"
         d="m 380.92111,465.19783 2.87913,-6.47805 -5.39837,-2.15935 -5.75827,-1.79946 -8.9973,3.59892 -4.67859,7.55772 1.43957,7.55773 8.99729,2.87913 7.91762,3.59892 -0.55263,4.06422 -4.02055,2.07202 -8.38292,-0.37797 -3.95881,-3.59892 -3.59892,5.75827 4.67859,4.3187 14.39567,1.43957 7.55773,-1.43957 1.07967,-7.55773 0.71979,-9.71707 -8.99729,-4.6786 -6.47806,-1.43956 -0.35989,-4.3187 4.3187,-2.51925 7.19784,3.23903 z"
         style="display:block;fill-rule:evenodd;stroke:none;stroke-linecap:butt;stroke-linejoin:miter"
         inkscape:connector-curvature="0" />
      <path
         id="path1816"
         d="m 395.69591,472.03577 9.71708,-0.35989 11.15664,-0.35989 -0.35989,-9.35719 -5.75827,-4.67859 -13.31599,-1.79946 -7.91762,4.3187 -1.79946,9.71708 0,10.79675 5.75827,7.19784 13.67589,4.67859 8.6374,0 3.23902,-3.95881 -3.9588,-5.75827 -3.59892,2.51924 -10.43686,-1.43956 -3.95881,-2.51924 -2.15935,-4.6786 1.07967,-4.3187 z"
         style="display:block;fill-rule:evenodd;stroke:none;stroke-linecap:butt;stroke-linejoin:miter"
         inkscape:connector-curvature="0" />
      <path
         id="path1817"
         d="m 420.16855,459.43956 -0.35989,13.316 1.79945,10.07696 5.03849,6.83795 3.95881,2.15935 9.71707,0 7.19784,-4.6786 1.79946,-10.43686 0.35989,-13.67588 0,-6.47805 -7.19784,-0.35989 0,8.6374 -0.71978,11.87642 -2.15935,8.27751 -4.3187,1.07968 -5.03848,-2.51924 -2.15935,-5.75827 -0.67612,-11.83276 0.25448,-7.55773 -7.49598,1.03601 z"
         style="display:block;fill-rule:evenodd;stroke:none;stroke-linecap:butt;stroke-linejoin:miter"
         inkscape:connector-curvature="0" />
      <path
         id="path1818"
         d="m 455.07804,456.56043 -0.35989,17.63469 -0.86885,15.60633 0.70169,2.02837 7.0051,-0.65055 0.65804,-18.80918 10.81483,-0.97427 3.40618,-3.51159 1.01793,-7.68122 -3.30077,-5.08215 -12.23632,-1.43957 -6.83794,2.87914 z"
         style="display:block;fill-rule:evenodd;stroke:none;stroke-linecap:butt;stroke-linejoin:miter"
         inkscape:connector-curvature="0" />
      <path
         id="path1819"
         d="m 491.91049,490.39025 -1.07968,-15.83524 0,-16.19512 7.55773,0 0,6.47805 5.75827,-5.75827 10.07697,-1.79946 6.83794,5.39838 -0.35989,13.31599 0.71978,14.39567 -8.27751,-0.71978 0.35989,-14.03578 -1.79946,-7.91762 -4.3187,1.07968 -5.03848,1.43956 -3.95881,5.03849 0,8.6374 0,6.47805 -6.47805,0 z"
         style="display:block;fill-rule:evenodd;stroke:none;stroke-linecap:butt;stroke-linejoin:miter"
         inkscape:connector-curvature="0" />
      <path
         id="path1820"
         d="m 537.40592,475.33654 11.51654,-0.71978 6.83794,-1.07967 -1.07967,-10.07697 -14.39567,-7.55773 -8.6374,5.03849 -4.31871,8.27751 -2.51924,11.51653 5.39838,10.43686 8.6374,1.79946 10.07697,-0.35989 6.11816,-4.3187 -5.03849,-6.47805 -1.79946,2.15935 -9.35718,2.15935 -5.75827,-5.75827 0.71979,-3.23903 3.59891,-1.79946 z"
         style="display:block;fill-rule:evenodd;stroke:none;stroke-linecap:butt;stroke-linejoin:miter"
         inkscape:connector-curvature="0" />
      <path
         id="path1821"
         d="m 559.50839,456.51676 6.62713,-0.25448 -0.21083,-7.61947 7.19784,1.07967 0.76345,6.68888 7.72488,-0.25449 0,7.43423 -8.23385,-0.14907 0.10541,6.0745 0,7.55773 0,5.75826 1.48323,3.1517 5.65286,-0.47279 1.0541,5.89675 1.52689,5.82001 -11.20031,-4.4316 -5.71461,-5.03848 -1.43956,-6.16183 -0.0437,-7.04127 0.61438,-11.3238 -5.96909,-0.19273 0.0617,-6.52172 z"
         style="display:block;fill-rule:evenodd;stroke:none;stroke-linecap:butt;stroke-linejoin:miter"
         inkscape:connector-curvature="0" />
      <path
         id="path1822"
         d="m 354.97232,465.97776 -7.04192,-0.54798 -0.70466,-7.3994 c 0,0 -3.50414,-6.95702 -5.66312,-8.02519 -2.1595,-1.06984 -4.6791,-3.20841 -4.6791,-3.20841 0,0 2.87916,-2.49536 5.39876,-0.71304 2.51959,1.78288 2.51959,2.13913 2.51959,2.13913 0,0 2.87864,1.06984 3.59934,-4.27825 0.72017,-5.34698 2.82018,-13.15153 2.82018,-13.15153 0,0 1.43932,-2.13912 2.51959,-0.71304 1.07975,1.42608 -2.10155,13.50888 -2.10155,13.50888 l 6.28811,-13.38439 c 0,0 1.79993,-1.78232 2.16002,0.3568 0.35905,2.13912 -4.48819,13.38272 -4.48819,13.38272 l 6.19913,-9.27565 c 0,0 2.51959,-1.42552 2.51959,0.71304 0,2.13857 -5.83955,9.63245 -5.83955,9.63245 l 7.64673,-4.55168 c 0,0 2.51907,-0.71304 2.1595,1.42553 -0.35957,2.13857 -7.52101,3.93256 -9.44614,8.47257 -1.92462,4.54113 -3.86631,15.61744 -3.86631,15.61744 z"
         style="display:block;stroke:none"
         inkscape:connector-curvature="0" />
      <path
         id="path1823"
         d="m 477.34026,482.96852 -0.9846,7.33037 7.22037,-0.6664 -1.31279,-6.66397 -4.92298,0 z"
         style="display:block;fill-rule:evenodd;stroke:none;stroke-linecap:butt;stroke-linejoin:miter"
         inkscape:connector-curvature="0" />
    </g>
  </g>
</svg>
