<?xml version="1.0" encoding="UTF-8" standalone="no"?>
<!-- Created with Inkscape (http://www.inkscape.org/) -->

<svg
   xmlns:dc="http://purl.org/dc/elements/1.1/"
   xmlns:cc="http://creativecommons.org/ns#"
   xmlns:rdf="http://www.w3.org/1999/02/22-rdf-syntax-ns#"
   xmlns:svg="http://www.w3.org/2000/svg"
   xmlns="http://www.w3.org/2000/svg"
   xmlns:sodipodi="http://sodipodi.sourceforge.net/DTD/sodipodi-0.dtd"
   xmlns:inkscape="http://www.inkscape.org/namespaces/inkscape"
   width="116.92913"
   height="116.92913"
   id="svg4506"
   version="1.1"
   inkscape:version="0.48.1 r9760"
   sodipodi:docname="New document 10">
  <defs
     id="defs4508" />
  <sodipodi:namedview
     id="base"
     pagecolor="#ffffff"
     bordercolor="#666666"
     borderopacity="1.0"
     inkscape:pageopacity="0.0"
     inkscape:pageshadow="2"
     inkscape:zoom="2.8"
     inkscape:cx="102.03623"
     inkscape:cy="85.143307"
     inkscape:document-units="mm"
     inkscape:current-layer="layer1"
     showgrid="false"
     units="mm"
     inkscape:snap-global="false"
     inkscape:window-width="1579"
     inkscape:window-height="887"
     inkscape:window-x="1"
     inkscape:window-y="23"
     inkscape:window-maximized="0">
    <inkscape:grid
       type="xygrid"
       id="grid5125"
       empspacing="5"
       visible="true"
       enabled="true"
       snapvisiblegridlinesonly="true" />
  </sodipodi:namedview>
  <metadata
     id="metadata4511">
    <rdf:RDF>
      <cc:Work
         rdf:about="">
        <dc:format>image/svg+xml</dc:format>
        <dc:type
           rdf:resource="http://purl.org/dc/dcmitype/StillImage" />
        <dc:title></dc:title>
      </cc:Work>
    </rdf:RDF>
  </metadata>
  <g
     inkscape:label="Layer 1"
     inkscape:groupmode="layer"
     id="layer1"
     transform="translate(0,-935.433)">
    <circle
       d="m 6749,5236 c 0,1424.3424 -1154.6576,2579 -2579,2579 -1424.3424,0 -2579,-1154.6576 -2579,-2579 0,-1424.3424 1154.6576,-2579 2579,-2579 1424.3424,0 2579,1154.6576 2579,2579 z"
       style="fill:#007cc3;fill-opacity:1;fill-rule:evenodd;stroke:none"
       transform="matrix(0.02266947,0,0,0.02266947,-36.067127,875.20022)"
       sodipodi:ry="2579"
       sodipodi:rx="2579"
       sodipodi:cy="5236"
       sodipodi:cx="4170"
       id="circle4615"
       r="2579"
       cy="5236"
       cx="4170"
       class="fil0 str0" />
    <circle
       class="fil0 str0"
       cx="4170"
       cy="5236"
       r="2579"
       id="circle9"
       sodipodi:cx="4170"
       sodipodi:cy="5236"
       sodipodi:rx="2579"
       sodipodi:ry="2579"
       transform="matrix(0.01373907,0,0,0.01373907,1.1726357,921.9598)"
       style="fill:#204a87;fill-rule:evenodd;stroke:none"
       d="m 6749,5236 c 0,1424.3424 -1154.6576,2579 -2579,2579 -1424.3424,0 -2579,-1154.6576 -2579,-2579 0,-1424.3424 1154.6576,-2579 2579,-2579 1424.3424,0 2579,1154.6576 2579,2579 z" />
    <path
       style="fill:#000000;fill-opacity:1;stroke:none"
       d="m 50.834753,982.12949 c 0,0 -0.998366,-1.93415 -1.064922,-2.20092 -0.06657,-0.2668 -0.599027,-3.00126 -0.599027,-3.00126 l 0.665583,-1.20053 1.46429,-2.20091 2.129865,-1.66738 0.532464,-0.20009 5.125009,-1.93415 0.465903,-0.46687 -0.532466,-0.80033 -0.732144,-0.40016 -1.343572,-0.34492 -3.365938,-0.34491 -2.61192,0.023 -1.797074,0.40017 -1.597409,-0.60025 -1.996754,-0.26678 -2.928564,-0.0667 -1.464292,-0.0667 -2.462655,0.93373 -3.727274,4.33517 -0.465911,1.66737 -0.266234,1.46727 -1.264603,2.73449 -0.798716,2.60109 -0.399339,2.80119 0,0.60025 -1.930198,2.93458 -1.064936,2.20093 0,3.13465 0.33279,6.46936 0.599028,2.33442 1.198055,2.1342 1.530837,1.4006 0.665581,2.7346 2.529228,5.6023 2.995137,3.6014 0.199655,0.2001 1.064945,5.4023 -3.660709,6.6696 -0.998375,1.5339 -0.931826,0.6002 -1.464283,-0.2002 -0.865255,0.3337 -0.99838,-0.066 -0.665584,0.5334 -1.26461,-0.3334 -1.264608,-0.2 -1.064937,0.6668 -0.266236,1.1338 0.732146,-0.6669 1.13149,-0.2001 0,1.0672 1.797082,-0.4001 0.998374,0.066 1.730518,0.4003 c 0,0 1.530846,0.066 1.797082,0.066 0.266237,0 1.86363,0.3334 1.86363,0.3334 l 1.198054,0 0.599026,0.3334 0.865257,-0.1333 0.865263,0.5337 1.331173,0 0.26622,-0.8671 0,-0.4669 0.86527,0.4002 0.665583,0.667 0.399354,0.7337 0.06658,-0.8673 -0.465911,-1.0669 c 0,0 -0.33279,-0.6003 -0.599026,-0.6003 -0.266228,0 -1.264609,-0.3336 -1.264609,-0.3336 l -0.732146,0.2002 -0.732137,-0.4004 -0.798701,0.3338 -0.665589,-0.3338 -0.266228,-0.6668 -0.46591,-0.2002 0.399345,-1.2004 1.198055,-2.7344 1.597402,-2.6678 1.397735,-1.6675 0.532464,-0.6668 c 0,0 0.665582,-1.0004 0.665582,-1.2672 0,-0.2669 0.133123,-3.0679 0.133123,-3.0679 l -0.865263,-1.8009 -0.399347,-1.4673 7.720776,1.8676 0.465916,0 6.589276,4.7353 0.931819,1.2005 0.332791,4.6019 -0.133122,1.0672 -0.465909,0.867 -0.532465,0.5335 -0.199674,0.9336 -0.266243,0.4671 -1.264601,0.1999 -1.198063,-0.4001 -0.732139,-0.2001 -1.397719,0 -0.665589,0.5335 -0.332791,0.7337 0.06657,0.8004 0.399346,-0.7337 0.46591,-0.4669 0.399346,-0.066 -0.06657,0.6669 0.465917,0.4002 1.131493,-0.3335 0.532456,0 0.06657,0.7337 1.597402,0.2001 1.13149,-0.2001 0.865257,0.2667 1.264617,0.3334 0.46591,-0.066 0.399339,-0.2667 0.399361,1.2671 0.199665,-1.334 -0.332784,-1.6006 -0.732145,-0.6002 0.266228,-1.0005 -0.599019,-1.1337 0.06658,-4.2019 3.327919,3.9351 4.392864,3.4681 c 0,0 2.995128,1.0672 3.261356,1.0672 0.266236,0 2.329547,-0.2668 2.329547,-0.2668 l 1.331164,-2.2009 -0.998374,-3.0013 0.399353,-1.0005 -2.129871,-2.801 -4.511915,-4.5941 -1.078996,-3.6095 0.06658,-2.4677 -0.998373,-2.6012 -1.131484,-2.0675 0.665575,-2.0675 -0.532456,-3.0012 -2.269799,-5.10922 0.838449,-0.1415 -1.407161,-2.436 0.914241,-0.2902 -1.607134,-2.61987 0.675972,-0.3644 -1.204634,-1.97774 0.392752,-0.21989 -1.457696,-1.18069 0.532465,-0.2767 -3.793821,-2.65789 z"
       id="path5892"
       inkscape:connector-curvature="0"
       sodipodi:nodetypes="csccccccccccccccccccccccccccccccccccccccccccccccccccccccscccccccccccccsccccccccccccscccccccccccccccccccccccccccccccccccccccccccscccccccccccccccccccccccc" />
    <g
       id="g5611"
       style="fill:#ffffff;fill-opacity:1;stroke:#000000;stroke-opacity:1"
       transform="matrix(0.16790791,0,0,0.16790791,90.214372,855.20858)">
      <g
         transform="matrix(0.88756457,0,0,0.88756457,-499.06371,442.04081)"
         id="g4263"
         style="fill:#ffffff;fill-opacity:1;stroke:none">
        <path
           style="fill:#ffffff;fill-opacity:1;stroke:none"
           d="m 218.09375,367.25 -0.625,82.46875 12.09375,2.4375 1.21875,-28.5 c 0,0 14.54003,25.44933 15.75,27.875 1.21002,2.42565 21.15625,-0.59375 21.15625,-0.59375 0,0 -26.67607,-41.42207 -24.1875,-41.25 l 17.53125,1.21875 L 269.5,400 l -2.40625,-20 -15.125,-11.53125 -33.875,-1.21875 z m 18.5,13.34375 12.6875,0 6.0625,6.65625 -6.0625,9.71875 -6.65625,1.8125 -6.03125,-8.5 0,-9.6875 z"
           transform="matrix(1.1266786,0,0,1.1266786,-65.501071,-37.555679)"
           id="path3167"
           inkscape:connector-curvature="0" />
        <path
           style="fill:#ffffff;fill-opacity:1;stroke:none"
           d="m 243.59851,408.33247 c 1.36329,2.73294 0.68166,61.49105 0.68166,61.49105 0,0 25.22069,2.73292 23.8574,0 -1.36329,-2.73294 0,-58.75811 0,-58.75811 z"
           id="path3171"
           inkscape:connector-curvature="0" />
        <path
           style="fill:#ffffff;fill-opacity:1;stroke:none"
           d="m 244.9618,393.30132 14.31446,8.19881 8.17968,-11.61498 -0.68166,-12.29821 -14.31445,-2.04969 -10.22458,7.51557 z"
           id="path3173"
           inkscape:connector-curvature="0" />
        <path
           style="fill:#ffffff;fill-opacity:1;stroke:none"
           d="m 284.49695,394.66779 -0.68167,20.49702 10.22461,19.81379 5.45314,14.34789 -25.22069,4.78265 c 0,0 -3.40821,17.76408 1.36326,17.76408 4.7715,0 29.31052,0.68322 29.31052,0.68322 l 14.31446,-15.03114 0.68165,-16.39762 -11.58789,-19.13054 -2.04492,-12.98144 11.58789,-8.1988 4.77148,8.88204 12.95115,2.0497 -1.36329,-32.79522 -23.85739,-0.68324 -17.041,6.83234 z"
           id="path3175"
           inkscape:connector-curvature="0" />
        <path
           style="fill:#ffffff;fill-opacity:1;stroke:none"
           d="m 343.118,382.36958 -0.68166,87.45394 65.50596,2.0497 -4.77147,-15.03114 -38.92201,-1.36649 -1.36326,-13.66466 33.46887,-0.68325 0.68163,-15.03111 -23.92589,-2.73296 -2.72658,-26.64612 33.46887,-1.36646 -2.72655,-15.03115 z"
           id="path3177"
           inkscape:connector-curvature="0"
           sodipodi:nodetypes="ccccccccccccc" />
        <path
           style="fill:#ffffff;fill-opacity:1;stroke:none"
           d="m 414.7587,378.7533 4.08984,84.03775 23.85742,8.88207 19.08593,-6.1491 4.08984,-8.19881 0.68163,12.98144 c 0,0 14.31448,6.1491 13.63283,0 -0.68167,-6.14911 2.04494,-92.23659 -2.72659,-92.91982 -4.77147,-0.68323 -23.85739,2.04971 -23.85739,2.04971 l 5.45313,51.92578 -8.17969,10.24849 -10.90626,2.73296 c 0,0 -6.13474,-11.615 -6.13474,-14.34792 0,-2.73292 1.36326,-51.24255 1.36326,-51.24255 z"
           id="path3179"
           inkscape:connector-curvature="0" />
        <path
           style="fill:#ffffff;fill-opacity:1;stroke:none"
           d="m 518.21875,367.6875 c -3.02501,0 -29.65625,1.8125 -29.65625,1.8125 0,3.63849 3.03125,83.09375 3.03125,83.09375 0,0 19.51377,1.38847 17.09375,-2.25 -2.42,-3.63849 -4.0625,-36.5625 -4.0625,-36.5625 l 17.84375,-0.625 13.3125,-6.0625 6.625,-13.34375 -8.46875,-20 c 0,0 -12.69377,-6.0625 -15.71875,-6.0625 z m -8.40625,5.78125 5.78125,9.875 13.03125,-2.8125 -8.0625,9.34375 7.40625,13.375 -14.03125,-6.34375 -10.71875,3.5 2.625,-10.53125 -7.46875,-5.3125 9.875,-1.0625 1.5625,-10.03125 z"
           transform="matrix(1.1266786,0,0,1.1266786,-65.501071,-37.555679)"
           id="path3181"
           inkscape:connector-curvature="0" />
        <g
           id="g5674"
           transform="matrix(0.28115503,0,0,0.28115503,795.46983,181.97574)"
           style="fill:#ffffff;fill-opacity:1;stroke:none" />
      </g>
    </g>
    <g
       id="g5436"
       style="fill:#d70000;fill-opacity:1;stroke:none"
       transform="matrix(0.16790791,0,0,0.16790791,90.214372,855.20858)">
      <g
         transform="translate(-490.18795,352.90873)"
         id="g4045"
         style="fill:#d70000;fill-opacity:1;stroke:none">
        <rect
           y="528.36218"
           x="250"
           height="3.9999981"
           width="3.9999981"
           id="rect3664"
           style="fill:#d70000;fill-opacity:1;fill-rule:evenodd;stroke:none" />
        <rect
           style="fill:#d70000;fill-opacity:1;fill-rule:evenodd;stroke:none"
           id="rect3666"
           width="3.9999981"
           height="3.9999981"
           x="250"
           y="520.36218" />
      </g>
      <g
         transform="translate(-512.18795,360.90873)"
         id="g4094"
         style="fill:#d70000;fill-opacity:1;stroke:none">
        <path
           style="fill:#d70000;fill-opacity:1;fill-rule:evenodd;stroke:none"
           d="m 277,460.5625 0,12 0,4 0,4 4,0 0,-4 0,-4 12,0 0,-12 -16,0 z"
           transform="translate(-45.01219,47.79899)"
           id="rect3692"
           inkscape:connector-curvature="0" />
      </g>
      <g
         transform="translate(-488.18795,352.90873)"
         id="g4049"
         style="fill:#d70000;fill-opacity:1;stroke:none">
        <path
           style="fill:#d70000;fill-opacity:1;fill-rule:evenodd;stroke:none"
           d="m 333,460.5625 0,4 -2,0 0,4 -2,0 0,4 -2,0 0,4 -2,0 0,4 4,0 0,-4 2,0 0,-4 2,0 0,-4 2,0 0,-4 2,0 0,-4 -4,0 z"
           transform="translate(-69.01219,55.79899)"
           id="rect3748"
           inkscape:connector-curvature="0" />
      </g>
      <g
         transform="translate(-486.18795,352.90873)"
         id="g4056"
         style="fill:#d70000;fill-opacity:1;stroke:none">
        <path
           style="fill:#d70000;fill-opacity:1;fill-rule:evenodd;stroke:none"
           d="m 345,460.5625 0,4 -2,0 0,4 -2,0 0,4 -2,0 0,4 -2,0 0,4 4,0 0,-4 2,0 0,-4 2,0 0,-4 2,0 0,-4 2,0 0,-4 -4,0 z"
           transform="translate(-71.01219,55.79899)"
           id="rect3758"
           inkscape:connector-curvature="0" />
      </g>
      <g
         transform="translate(-516.18795,388.90873)"
         id="g4191"
         style="fill:#d70000;fill-opacity:1;stroke:none">
        <path
           style="fill:#d70000;fill-opacity:1;fill-rule:evenodd;stroke:none"
           d="m 413,460.5625 0,4 0,4 0,4 0,4 0,4 4,0 4,0 4,0 4,0 0,-4 -4,0 -4,0 -4,0 0,-4 4,0 4,0 0,-4 -4,0 -4,0 0,-4 4,0 4,0 4,0 0,-4 -4,0 -4,0 -4,0 -4,0 z"
           transform="translate(-41.01219,19.79899)"
           id="rect3802"
           inkscape:connector-curvature="0" />
      </g>
      <g
         transform="translate(-486.18795,352.90873)"
         id="g4080"
         style="fill:#d70000;fill-opacity:1;stroke:none">
        <path
           style="fill:#d70000;fill-opacity:1;fill-rule:evenodd;stroke:none"
           d="m 373,460.5625 0,4 6,0 0,4 0,4 0,4 -6,0 0,4 16,0 0,-4 -6,0 0,-4 0,-4 0,-4 6,0 0,-4 -6,0 -4,0 -6,0 z"
           transform="translate(-71.01219,55.79899)"
           id="rect3768"
           inkscape:connector-curvature="0" />
      </g>
      <g
         transform="translate(-470.18795,352.90873)"
         id="g3996"
         style="fill:#d70000;fill-opacity:1;stroke:none">
        <path
           style="fill:#d70000;fill-opacity:1;fill-rule:evenodd;stroke:none"
           d="m 433,460.5625 0,4 0,4 0,4 0,4 0,4 4,0 8,0 4,0 0,-4 0,-4 0,-4 0,-4 0,-4 -4,0 0,4 0,4 0,4 0,4 -8,0 0,-4 0,-4 0,-4 0,-4 -4,0 z"
           transform="translate(-87.01219,55.79899)"
           id="rect3832"
           inkscape:connector-curvature="0" />
      </g>
      <rect
         y="883.27094"
         x="-84.18795"
         height="5.9999971"
         width="5.9999971"
         id="rect3874"
         style="fill:#d70000;fill-opacity:1;fill-rule:evenodd;stroke:none" />
      <path
         style="fill:#d70000;fill-opacity:1;fill-rule:evenodd;stroke:none"
         d="m 483,460.5625 0,4 0,4 0,4 0,4 0,4 4,0 0,-4 0,-4 4,0 0,4 4,0 0,4 4,0 0,-4 0,-4 0,-4 0,-4 0,-4 -4,0 0,4 0,4 -4,0 0,-4 -4,0 0,-4 -4,0 z"
         transform="translate(-557.20014,408.70772)"
         id="rect3876"
         inkscape:connector-curvature="0" />
      <g
         transform="translate(-512.18795,388.90873)"
         id="g4131"
         style="fill:#d70000;fill-opacity:1;stroke:none">
        <path
           style="fill:#d70000;fill-opacity:1;fill-rule:evenodd;stroke:none"
           d="m 217,460.5625 0,4 0,4 0,4 0,4 0,4 4,0 0,-4 0,-4 4,0 4,0 0,4 0,4 4,0 0,-4 0,-4 0,-4 0,-4 0,-4 -4,0 0,4 0,4 -4,0 -4,0 0,-4 0,-4 -4,0 z"
           transform="translate(-45.01219,19.79899)"
           id="rect3674"
           inkscape:connector-curvature="0" />
      </g>
      <g
         transform="translate(-512.18795,388.90873)"
         id="g4145"
         style="fill:#d70000;fill-opacity:1;stroke:none">
        <path
           style="fill:#d70000;fill-opacity:1;fill-rule:evenodd;stroke:none"
           d="m 237,460.5625 0,4 4,0 2,0 0,4 0,4 0,4 0,4 4,0 0,-4 0,-4 0,-4 0,-4 2,0 4,0 0,-4 -4,0 -4,0 -4,0 -4,0 z"
           transform="translate(-45.01219,19.79899)"
           id="rect3668"
           inkscape:connector-curvature="0" />
      </g>
      <g
         transform="translate(-484.18795,352.90873)"
         id="g4063"
         style="fill:#d70000;fill-opacity:1;stroke:none">
        <path
           style="fill:#d70000;fill-opacity:1;fill-rule:evenodd;stroke:none"
           d="m 353,460.5625 0,4 0,4 0,4 0,4 0,4 4,0 0,-4 0,-4 4,0 0,4 0,4 4,0 0,-4 0,-4 4,0 0,-4 0,-4 0,-4 -4,0 -4,0 -4,0 z"
           transform="translate(-73.01219,55.79899)"
           id="rect3944"
           inkscape:connector-curvature="0"
           sodipodi:nodetypes="ccccccccccccccccccccccc" />
      </g>
      <g
         transform="translate(-512.18795,388.90873)"
         id="g4121"
         style="fill:#d70000;fill-opacity:1;stroke:none">
        <path
           style="fill:#d70000;fill-opacity:1;fill-rule:evenodd;stroke:none"
           d="m 257,460.5625 0,4 4,0 2,0 0,4 0,4 0,4 0,4 4,0 0,-4 0,-4 0,-4 0,-4 2,0 4,0 0,-4 -4,0 -4,0 -4,0 -4,0 z"
           transform="translate(-45.01219,19.79899)"
           id="rect3980"
           inkscape:connector-curvature="0" />
      </g>
      <g
         transform="translate(-508.18795,388.90873)"
         id="g4105"
         style="fill:#d70000;fill-opacity:1;stroke:none">
        <path
           style="fill:#d70000;fill-opacity:1;fill-rule:evenodd;stroke:none"
           d="m 297,460.5625 0,4 0,4 0,4 4,0 4,0 4,0 0,4 -4,0 -4,0 -4,0 0,4 4,0 4,0 4,0 4,0 0,-4 0,-4 0,-4 -4,0 -4,0 -4,0 0,-4 4,0 4,0 4,0 0,-4 -4,0 -4,0 -4,0 -4,0 z"
           transform="translate(-49.01219,19.79899)"
           id="rect3718"
           inkscape:connector-curvature="0" />
      </g>
      <g
         id="g4161"
         transform="translate(-412.18795,388.90873)"
         style="fill:#d70000;fill-opacity:1;stroke:none">
        <path
           style="fill:#d70000;fill-opacity:1;fill-rule:evenodd;stroke:none"
           d="m 393,460.5625 0,4 0,4 0,4 4,0 4,0 4,0 0,4 -4,0 -4,0 -4,0 0,4 4,0 4,0 4,0 4,0 0,-4 0,-4 0,-4 -4,0 -4,0 -4,0 0,-4 4,0 4,0 4,0 0,-4 -4,0 -4,0 -4,0 -4,0 z"
           transform="translate(-145.01219,19.79899)"
           id="rect4163"
           inkscape:connector-curvature="0" />
      </g>
      <g
         id="g4209"
         transform="translate(-336.18795,360.90873)"
         style="fill:#d70000;fill-opacity:1;stroke:none">
        <path
           style="fill:#d70000;fill-opacity:1;fill-rule:evenodd;stroke:none"
           d="m 453,460.5625 0,12 0,4 0,4 4,0 0,-4 0,-4 12,0 0,-12 -16,0 z"
           transform="translate(-221.01219,47.79899)"
           id="rect4211"
           inkscape:connector-curvature="0" />
      </g>
      <g
         transform="translate(-426.18795,388.90873)"
         id="g4217"
         style="fill:#d70000;fill-opacity:1;stroke:none">
        <path
           style="fill:#d70000;fill-opacity:1;fill-rule:evenodd;stroke:none"
           d="m 503,460.5625 0,4 0,4 0,4 0,4 0,4 4,0 4,0 4,0 4,0 0,-4 -4,0 -4,0 -4,0 0,-4 4,0 4,0 0,-4 -4,0 -4,0 0,-4 4,0 4,0 4,0 0,-4 -4,0 -4,0 -4,0 -4,0 z"
           transform="translate(-131.01219,19.79899)"
           id="rect4219"
           inkscape:connector-curvature="0" />
      </g>
      <g
         id="g4245"
         transform="translate(-246.18795,388.90873)"
         style="fill:#d70000;fill-opacity:1;stroke:none">
        <path
           style="fill:#d70000;fill-opacity:1;fill-rule:evenodd;stroke:none"
           d="m 523,460.5625 0,4 4,0 2,0 0,4 0,4 0,4 0,4 4,0 0,-4 0,-4 0,-4 0,-4 2,0 4,0 0,-4 -4,0 -4,0 -4,0 -4,0 z"
           transform="translate(-311.01219,19.79899)"
           id="rect4247"
           inkscape:connector-curvature="0" />
      </g>
    </g>
  </g>
</svg>
