<?xml version="1.0" encoding="UTF-8" standalone="no"?>
<!-- Created with Inkscape (http://www.inkscape.org/) -->

<svg
   xmlns:dc="http://purl.org/dc/elements/1.1/"
   xmlns:cc="http://creativecommons.org/ns#"
   xmlns:rdf="http://www.w3.org/1999/02/22-rdf-syntax-ns#"
   xmlns:svg="http://www.w3.org/2000/svg"
   xmlns="http://www.w3.org/2000/svg"
   xmlns:sodipodi="http://sodipodi.sourceforge.net/DTD/sodipodi-0.dtd"
   xmlns:inkscape="http://www.inkscape.org/namespaces/inkscape"
   width="116.92913"
   height="116.92913"
   id="svg4506"
   version="1.1"
   inkscape:version="0.48.1 r9760"
   sodipodi:docname="button-star.svg">
  <defs
     id="defs4508" />
  <sodipodi:namedview
     id="base"
     pagecolor="#ffffff"
     bordercolor="#666666"
     borderopacity="1.0"
     inkscape:pageopacity="0.0"
     inkscape:pageshadow="2"
     inkscape:zoom="2.8"
     inkscape:cx="67.932001"
     inkscape:cy="37.520914"
     inkscape:document-units="mm"
     inkscape:current-layer="layer1"
     showgrid="false"
     units="mm"
     inkscape:snap-global="false"
     inkscape:window-width="1579"
     inkscape:window-height="887"
     inkscape:window-x="56"
     inkscape:window-y="23"
     inkscape:window-maximized="0">
    <inkscape:grid
       type="xygrid"
       id="grid5125"
       empspacing="5"
       visible="true"
       enabled="true"
       snapvisiblegridlinesonly="true" />
  </sodipodi:namedview>
  <metadata
     id="metadata4511">
    <rdf:RDF>
      <cc:Work
         rdf:about="">
        <dc:format>image/svg+xml</dc:format>
        <dc:type
           rdf:resource="http://purl.org/dc/dcmitype/StillImage" />
        <dc:title></dc:title>
      </cc:Work>
    </rdf:RDF>
  </metadata>
  <g
     inkscape:label="Layer 1"
     inkscape:groupmode="layer"
     id="layer1"
     transform="translate(0,-935.433)">
    <circle
       d="m 6749,5236 c 0,1424.3424 -1154.6576,2579 -2579,2579 -1424.3424,0 -2579,-1154.6576 -2579,-2579 0,-1424.3424 1154.6576,-2579 2579,-2579 1424.3424,0 2579,1154.6576 2579,2579 z"
       style="fill:#007cc3;fill-opacity:1;fill-rule:evenodd;stroke:none"
       transform="matrix(0.02266947,0,0,0.02266947,-36.067127,875.20022)"
       sodipodi:ry="2579"
       sodipodi:rx="2579"
       sodipodi:cy="5236"
       sodipodi:cx="4170"
       id="circle4615"
       r="2579"
       cy="5236"
       cx="4170"
       class="fil0 str0" />
    <circle
       class="fil0 str0"
       cx="4170"
       cy="5236"
       r="2579"
       id="circle9"
       sodipodi:cx="4170"
       sodipodi:cy="5236"
       sodipodi:rx="2579"
       sodipodi:ry="2579"
       transform="matrix(0.01373907,0,0,0.01373907,1.1726357,921.9598)"
       style="fill:#000000;fill-rule:evenodd;stroke:none;fill-opacity:1"
       d="m 6749,5236 c 0,1424.3424 -1154.6576,2579 -2579,2579 -1424.3424,0 -2579,-1154.6576 -2579,-2579 0,-1424.3424 1154.6576,-2579 2579,-2579 1424.3424,0 2579,1154.6576 2579,2579 z" />
    <g
       id="g5333"
       style="fill:#d70000;fill-opacity:1;stroke:none"
       transform="matrix(0.17342722,0,0,0.17342722,89.977366,856.25847)">
      <g
         transform="translate(-490.18795,352.90873)"
         id="g5335"
         style="fill:#d70000;fill-opacity:1;stroke:none">
        <rect
           y="528.36218"
           x="250"
           height="3.9999981"
           width="3.9999981"
           id="rect5337"
           style="fill:#d70000;fill-opacity:1;fill-rule:evenodd;stroke:none" />
        <rect
           style="fill:#d70000;fill-opacity:1;fill-rule:evenodd;stroke:none"
           id="rect5339"
           width="3.9999981"
           height="3.9999981"
           x="250"
           y="520.36218" />
      </g>
      <g
         transform="translate(-512.18795,360.90873)"
         id="g5341"
         style="fill:#d70000;fill-opacity:1;stroke:none">
        <path
           style="fill:#d70000;fill-opacity:1;fill-rule:evenodd;stroke:none"
           d="m 277,460.5625 0,12 0,4 0,4 4,0 0,-4 0,-4 12,0 0,-12 -16,0 z"
           transform="translate(-45.01219,47.79899)"
           id="path5343"
           inkscape:connector-curvature="0" />
      </g>
      <g
         transform="translate(-488.18795,352.90873)"
         id="g5345"
         style="fill:#d70000;fill-opacity:1;stroke:none">
        <path
           style="fill:#d70000;fill-opacity:1;fill-rule:evenodd;stroke:none"
           d="m 333,460.5625 0,4 -2,0 0,4 -2,0 0,4 -2,0 0,4 -2,0 0,4 4,0 0,-4 2,0 0,-4 2,0 0,-4 2,0 0,-4 2,0 0,-4 -4,0 z"
           transform="translate(-69.01219,55.79899)"
           id="path5347"
           inkscape:connector-curvature="0" />
      </g>
      <g
         transform="translate(-486.18795,352.90873)"
         id="g5349"
         style="fill:#d70000;fill-opacity:1;stroke:none">
        <path
           style="fill:#d70000;fill-opacity:1;fill-rule:evenodd;stroke:none"
           d="m 345,460.5625 0,4 -2,0 0,4 -2,0 0,4 -2,0 0,4 -2,0 0,4 4,0 0,-4 2,0 0,-4 2,0 0,-4 2,0 0,-4 2,0 0,-4 -4,0 z"
           transform="translate(-71.01219,55.79899)"
           id="path5351"
           inkscape:connector-curvature="0" />
      </g>
      <g
         transform="translate(-516.18795,388.90873)"
         id="g5353"
         style="fill:#d70000;fill-opacity:1;stroke:none">
        <path
           style="fill:#d70000;fill-opacity:1;fill-rule:evenodd;stroke:none"
           d="m 413,460.5625 0,4 0,4 0,4 0,4 0,4 4,0 4,0 4,0 4,0 0,-4 -4,0 -4,0 -4,0 0,-4 4,0 4,0 0,-4 -4,0 -4,0 0,-4 4,0 4,0 4,0 0,-4 -4,0 -4,0 -4,0 -4,0 z"
           transform="translate(-41.01219,19.79899)"
           id="path5355"
           inkscape:connector-curvature="0" />
      </g>
      <g
         transform="translate(-486.18795,352.90873)"
         id="g5357"
         style="fill:#d70000;fill-opacity:1;stroke:none">
        <path
           style="fill:#d70000;fill-opacity:1;fill-rule:evenodd;stroke:none"
           d="m 373,460.5625 0,4 6,0 0,4 0,4 0,4 -6,0 0,4 16,0 0,-4 -6,0 0,-4 0,-4 0,-4 6,0 0,-4 -6,0 -4,0 -6,0 z"
           transform="translate(-71.01219,55.79899)"
           id="path5359"
           inkscape:connector-curvature="0" />
      </g>
      <g
         transform="translate(-470.18795,352.90873)"
         id="g5361"
         style="fill:#d70000;fill-opacity:1;stroke:none">
        <path
           style="fill:#d70000;fill-opacity:1;fill-rule:evenodd;stroke:none"
           d="m 433,460.5625 0,4 0,4 0,4 0,4 0,4 4,0 8,0 4,0 0,-4 0,-4 0,-4 0,-4 0,-4 -4,0 0,4 0,4 0,4 0,4 -8,0 0,-4 0,-4 0,-4 0,-4 -4,0 z"
           transform="translate(-87.01219,55.79899)"
           id="path5363"
           inkscape:connector-curvature="0" />
      </g>
      <rect
         y="883.27094"
         x="-84.18795"
         height="5.9999971"
         width="5.9999971"
         id="rect5365"
         style="fill:#d70000;fill-opacity:1;fill-rule:evenodd;stroke:none" />
      <path
         style="fill:#d70000;fill-opacity:1;fill-rule:evenodd;stroke:none"
         d="m 483,460.5625 0,4 0,4 0,4 0,4 0,4 4,0 0,-4 0,-4 4,0 0,4 4,0 0,4 4,0 0,-4 0,-4 0,-4 0,-4 0,-4 -4,0 0,4 0,4 -4,0 0,-4 -4,0 0,-4 -4,0 z"
         transform="translate(-557.20014,408.70772)"
         id="path5367"
         inkscape:connector-curvature="0" />
      <g
         transform="translate(-512.18795,388.90873)"
         id="g5369"
         style="fill:#d70000;fill-opacity:1;stroke:none">
        <path
           style="fill:#d70000;fill-opacity:1;fill-rule:evenodd;stroke:none"
           d="m 217,460.5625 0,4 0,4 0,4 0,4 0,4 4,0 0,-4 0,-4 4,0 4,0 0,4 0,4 4,0 0,-4 0,-4 0,-4 0,-4 0,-4 -4,0 0,4 0,4 -4,0 -4,0 0,-4 0,-4 -4,0 z"
           transform="translate(-45.01219,19.79899)"
           id="path5371"
           inkscape:connector-curvature="0" />
      </g>
      <g
         transform="translate(-512.18795,388.90873)"
         id="g5373"
         style="fill:#d70000;fill-opacity:1;stroke:none">
        <path
           style="fill:#d70000;fill-opacity:1;fill-rule:evenodd;stroke:none"
           d="m 237,460.5625 0,4 4,0 2,0 0,4 0,4 0,4 0,4 4,0 0,-4 0,-4 0,-4 0,-4 2,0 4,0 0,-4 -4,0 -4,0 -4,0 -4,0 z"
           transform="translate(-45.01219,19.79899)"
           id="path5375"
           inkscape:connector-curvature="0" />
      </g>
      <g
         transform="translate(-484.18795,352.90873)"
         id="g5377"
         style="fill:#d70000;fill-opacity:1;stroke:none">
        <path
           style="fill:#d70000;fill-opacity:1;fill-rule:evenodd;stroke:none"
           d="m 353,460.5625 0,4 0,4 0,4 0,4 0,4 4,0 0,-4 0,-4 4,0 0,4 0,4 4,0 0,-4 0,-4 4,0 0,-4 0,-4 0,-4 -4,0 -4,0 -4,0 z"
           transform="translate(-73.01219,55.79899)"
           id="path5379"
           inkscape:connector-curvature="0"
           sodipodi:nodetypes="ccccccccccccccccccccccc" />
      </g>
      <g
         transform="translate(-512.18795,388.90873)"
         id="g5381"
         style="fill:#d70000;fill-opacity:1;stroke:none">
        <path
           style="fill:#d70000;fill-opacity:1;fill-rule:evenodd;stroke:none"
           d="m 257,460.5625 0,4 4,0 2,0 0,4 0,4 0,4 0,4 4,0 0,-4 0,-4 0,-4 0,-4 2,0 4,0 0,-4 -4,0 -4,0 -4,0 -4,0 z"
           transform="translate(-45.01219,19.79899)"
           id="path5383"
           inkscape:connector-curvature="0" />
      </g>
      <g
         transform="translate(-508.18795,388.90873)"
         id="g5385"
         style="fill:#d70000;fill-opacity:1;stroke:none">
        <path
           style="fill:#d70000;fill-opacity:1;fill-rule:evenodd;stroke:none"
           d="m 297,460.5625 0,4 0,4 0,4 4,0 4,0 4,0 0,4 -4,0 -4,0 -4,0 0,4 4,0 4,0 4,0 4,0 0,-4 0,-4 0,-4 -4,0 -4,0 -4,0 0,-4 4,0 4,0 4,0 0,-4 -4,0 -4,0 -4,0 -4,0 z"
           transform="translate(-49.01219,19.79899)"
           id="path5387"
           inkscape:connector-curvature="0" />
      </g>
      <g
         id="g5389"
         transform="translate(-412.18795,388.90873)"
         style="fill:#d70000;fill-opacity:1;stroke:none">
        <path
           style="fill:#d70000;fill-opacity:1;fill-rule:evenodd;stroke:none"
           d="m 393,460.5625 0,4 0,4 0,4 4,0 4,0 4,0 0,4 -4,0 -4,0 -4,0 0,4 4,0 4,0 4,0 4,0 0,-4 0,-4 0,-4 -4,0 -4,0 -4,0 0,-4 4,0 4,0 4,0 0,-4 -4,0 -4,0 -4,0 -4,0 z"
           transform="translate(-145.01219,19.79899)"
           id="path5391"
           inkscape:connector-curvature="0" />
      </g>
      <g
         id="g5393"
         transform="translate(-336.18795,360.90873)"
         style="fill:#d70000;fill-opacity:1;stroke:none">
        <path
           style="fill:#d70000;fill-opacity:1;fill-rule:evenodd;stroke:none"
           d="m 453,460.5625 0,12 0,4 0,4 4,0 0,-4 0,-4 12,0 0,-12 -16,0 z"
           transform="translate(-221.01219,47.79899)"
           id="path5395"
           inkscape:connector-curvature="0" />
      </g>
      <g
         transform="translate(-426.18795,388.90873)"
         id="g5397"
         style="fill:#d70000;fill-opacity:1;stroke:none">
        <path
           style="fill:#d70000;fill-opacity:1;fill-rule:evenodd;stroke:none"
           d="m 503,460.5625 0,4 0,4 0,4 0,4 0,4 4,0 4,0 4,0 4,0 0,-4 -4,0 -4,0 -4,0 0,-4 4,0 4,0 0,-4 -4,0 -4,0 0,-4 4,0 4,0 4,0 0,-4 -4,0 -4,0 -4,0 -4,0 z"
           transform="translate(-131.01219,19.79899)"
           id="path5399"
           inkscape:connector-curvature="0" />
      </g>
      <g
         id="g5401"
         transform="translate(-246.18795,388.90873)"
         style="fill:#d70000;fill-opacity:1;stroke:none">
        <path
           style="fill:#d70000;fill-opacity:1;fill-rule:evenodd;stroke:none"
           d="m 523,460.5625 0,4 4,0 2,0 0,4 0,4 0,4 0,4 4,0 0,-4 0,-4 0,-4 0,-4 2,0 4,0 0,-4 -4,0 -4,0 -4,0 -4,0 z"
           transform="translate(-311.01219,19.79899)"
           id="path5403"
           inkscape:connector-curvature="0" />
      </g>
    </g>
    <g
       transform="matrix(0.17342722,0,0,0.17342722,-21.862618,862.39005)"
       style="stroke:none"
       id="g5405">
      <g
         id="g5407"
         transform="matrix(0.88756457,0,0,0.88756457,153.49176,386.9138)"
         style="fill:#ffffff;fill-opacity:1;stroke:none">
        <path
           style="fill:#ffffff;fill-opacity:1;stroke:none"
           d="m 167.46053,393.75874 -0.66896,92.91577 13.62577,2.71107 1.37314,-32.11034 c 0,0 16.34673,28.70843 17.70998,31.44138 1.3633,2.73293 23.83629,-0.66897 23.83629,-0.66897 0,0 -30.05536,-46.66936 -27.25154,-46.47549 l 19.78729,1.37314 9.54156,-12.28784 -2.74627,-22.56878 -17.04102,-12.99201 -38.16624,-1.33793 z m 20.84356,15.03411 14.32994,0 6.79528,7.49946 -6.79528,10.94991 -7.49945,2.0421 -6.83049,-9.57677 0,-10.9147 z"
           id="path5409"
           inkscape:connector-curvature="0" />
        <path
           inkscape:connector-curvature="0"
           id="path5411"
           d="m 230.8516,425.85948 c 1.36329,2.73294 0.68166,61.49105 0.68166,61.49105 0,0 25.22069,2.73292 23.8574,0 -1.36329,-2.73294 0,-58.75811 0,-58.75811 z"
           style="fill:#ffffff;fill-opacity:1;stroke:none" />
        <path
           inkscape:connector-curvature="0"
           id="path5413"
           d="m 232.21489,410.82833 14.31446,8.19881 8.17968,-11.61498 -0.68166,-12.29821 -14.31445,-2.04969 -10.22458,7.51557 z"
           style="fill:#ffffff;fill-opacity:1;stroke:none" />
        <path
           inkscape:connector-curvature="0"
           id="path5415"
           d="m 271.75004,412.1948 -0.68167,20.49702 10.22461,19.81379 5.45314,14.34789 -25.22069,4.78265 c 0,0 -3.40821,17.76408 1.36326,17.76408 4.7715,0 29.31052,0.68322 29.31052,0.68322 l 14.31446,-15.03114 0.68165,-16.39762 -11.58789,-19.13054 -2.04492,-12.98144 11.58789,-8.1988 4.77148,8.88204 12.95115,2.0497 -1.36329,-32.79522 -23.85739,-0.68324 -17.041,6.83234 z"
           style="fill:#ffffff;fill-opacity:1;stroke:none" />
        <path
           sodipodi:nodetypes="ccccccccccccc"
           inkscape:connector-curvature="0"
           id="path5417"
           d="m 330.37109,399.89659 -0.68166,87.45394 65.50596,2.0497 -4.77147,-15.03114 -38.92201,-1.36649 -1.36326,-13.66466 33.46887,-0.68325 0.68163,-15.03111 -23.92589,-2.73296 -2.72658,-26.64612 33.46887,-1.36646 -2.72655,-15.03115 z"
           style="fill:#ffffff;fill-opacity:1;stroke:none" />
        <path
           inkscape:connector-curvature="0"
           id="path5419"
           d="m 402.01179,396.28031 4.08984,84.03775 23.85742,8.88207 19.08593,-6.1491 4.08984,-8.19881 0.68163,12.98144 c 0,0 14.31448,6.1491 13.63283,0 -0.68167,-6.14911 2.04494,-92.23659 -2.72659,-92.91982 -4.77147,-0.68323 -23.85739,2.04971 -23.85739,2.04971 l 5.45313,51.92578 -8.17969,10.24849 -10.90626,2.73296 c 0,0 -6.13474,-11.615 -6.13474,-14.34792 0,-2.73292 1.36326,-51.24255 1.36326,-51.24255 z"
           style="fill:#ffffff;fill-opacity:1;stroke:none" />
        <path
           style="fill:#ffffff;fill-opacity:1;stroke:none"
           d="m 505.60495,394.21645 c -3.40822,0 -33.37786,2.07731 -33.37786,2.07731 0,4.09941 3.41525,93.58475 3.41525,93.58475 0,0 21.95054,1.56435 19.22395,-2.53503 -2.72656,-4.09941 -4.54192,-41.19419 -4.54192,-41.19419 l 20.06896,-0.66896 14.99891,-6.83049 7.49946,-15.03412 -9.54156,-22.56878 c 0,0 -14.33701,-6.83049 -17.74519,-6.83049 z m 2.99274,17.95644 5.42214,9.54156 -4.75318,10.24573 -10.21052,-1.33793 -2.74628,-17.11143 12.28784,-1.33793 z"
           id="path5421"
           inkscape:connector-curvature="0" />
      </g>
    </g>
    <g
       transform="matrix(0.13557857,0,0,0.13557857,147.88172,905.42881)"
       id="g5423">
      <g
         transform="translate(-522.05485,-125.13213)"
         id="g5425">
        <path
           style="fill:#fb0000;fill-opacity:1;stroke:none"
           d="m -141.47493,683.8528 -60.01866,19.5795 14.71697,-59.09476 -41.8382,-29.66727 55.30132,-5.95319 8.73596,-56.21671 32.38921,55.24062 73.11213,-15.63033 -45.18557,52.36073 41.52514,74.89108 z"
           id="path5427"
           inkscape:connector-curvature="0"
           sodipodi:nodetypes="ccccccccccc" />
        <path
           sodipodi:nodetypes="ccccccc"
           inkscape:connector-curvature="0"
           id="path5429"
           d="m -141.47493,683.8528 -60.01866,19.5795 69.30526,-95.69131 73.11213,-15.63033 -45.18557,52.36073 41.52514,74.89108 z"
           style="fill:#000000;fill-opacity:1;stroke:none" />
        <path
           sodipodi:nodetypes="ccccccccccc"
           inkscape:connector-curvature="0"
           id="path5431"
           d="m -141.47493,683.8528 -60.01866,19.5795 14.71697,-59.09476 -41.8382,-29.66727 55.30132,-5.95319 8.73596,-56.21671 32.38921,55.24062 73.11213,-15.63033 -45.18557,52.36073 41.52514,74.89108 z"
           style="fill:none;stroke:#ffffff;stroke-width:5.3724885;stroke-miterlimit:4;stroke-opacity:1;stroke-dasharray:none" />
      </g>
    </g>
  </g>
</svg>
