<?xml version="1.0" encoding="UTF-8" standalone="no"?>
<!-- Created with Inkscape (http://www.inkscape.org/) -->
<svg
   xmlns:dc="http://purl.org/dc/elements/1.1/"
   xmlns:cc="http://creativecommons.org/ns#"
   xmlns:rdf="http://www.w3.org/1999/02/22-rdf-syntax-ns#"
   xmlns:svg="http://www.w3.org/2000/svg"
   xmlns="http://www.w3.org/2000/svg"
   xmlns:sodipodi="http://sodipodi.sourceforge.net/DTD/sodipodi-0.dtd"
   xmlns:inkscape="http://www.inkscape.org/namespaces/inkscape"
   width="765"
   height="990"
   id="svg2708"
   sodipodi:version="0.32"
   inkscape:version="0.46"
   version="1.0"
   sodipodi:docname="shirt-birds.svg"
   inkscape:output_extension="org.inkscape.output.svg.inkscape">
  <defs
     id="defs2710">
    <inkscape:perspective
       sodipodi:type="inkscape:persp3d"
       inkscape:vp_x="0 : 526.18109 : 1"
       inkscape:vp_y="0 : 1000 : 0"
       inkscape:vp_z="744.09448 : 526.18109 : 1"
       inkscape:persp3d-origin="372.04724 : 350.78739 : 1"
       id="perspective2716" />
  </defs>
  <sodipodi:namedview
     id="base"
     pagecolor="#ffffff"
     bordercolor="#666666"
     borderopacity="1.0"
     gridtolerance="10000"
     guidetolerance="10"
     objecttolerance="10"
     inkscape:pageopacity="0.0"
     inkscape:pageshadow="2"
     inkscape:zoom="1.15"
     inkscape:cx="375.25727"
     inkscape:cy="348.32709"
     inkscape:document-units="px"
     inkscape:current-layer="layer3"
     showgrid="false"
     units="in"
     borderlayer="false"
     inkscape:showpageshadow="false"
     inkscape:window-width="1600"
     inkscape:window-height="1110"
     inkscape:window-x="0"
     inkscape:window-y="25" />
  <metadata
     id="metadata2713">
    <rdf:RDF>
      <cc:Work
         rdf:about="">
        <dc:format>image/svg+xml</dc:format>
        <dc:type
           rdf:resource="http://purl.org/dc/dcmitype/StillImage" />
      </cc:Work>
    </rdf:RDF>
  </metadata>
  <g
     inkscape:label="bottom"
     inkscape:groupmode="layer"
     id="layer1"
     style="display:none">
    <g
       id="g3622"
       style="stroke:#000000;stroke-width:7.5;stroke-linecap:round;stroke-linejoin:round;stroke-miterlimit:4;stroke-dasharray:none;stroke-opacity:1">
      <path
         style="fill:#000000;stroke:#000000;stroke-width:7.5;stroke-linecap:round;stroke-linejoin:round;stroke-miterlimit:4;stroke-dasharray:none;stroke-opacity:1"
         d="M 527.41918,439.83568 L 540.07613,435.58725 L 573.82803,433.45541 L 607.57989,431.32334 L 619.82682,425.02824 L 632.0738,418.73314 L 649.35972,402.70146 C 658.86704,393.88413 671.45383,383.02135 677.33047,378.56206 L 688.01522,370.45437 L 712.1838,361.36309 L 736.35219,352.27197 L 713.47247,345.42805 L 699.84361,344.07614 L 688.039,339.74191 L 678.74869,341.33987 C 673.63903,342.21889 665.52892,343.74752 660.72632,344.73691 L 651.99427,346.536 L 647.10155,334.32305 C 644.41054,327.60583 640.42939,312.82241 638.25447,301.47079 L 634.30016,280.83168 L 634.30016,267.19889 L 634.30016,253.5661 L 631.75594,246.87429 L 629.21179,240.18269 L 605.1024,222.66601 C 591.84229,213.03186 574.48026,198.80579 566.52019,191.05233 L 552.04729,176.95532 L 553.78452,183.87705 C 554.74,187.68409 556.35018,193.13137 557.36276,195.98238 L 559.20374,201.16579 L 548.93729,191.47326 C 543.29074,186.14253 535.31831,176.94321 531.2208,171.03052 C 527.12336,165.11784 523.24282,160.80826 522.59749,161.45356 C 521.47092,162.58014 525.85442,181.15828 529.46959,190.57938 L 531.20845,195.11074 L 526.50011,193.30391 L 521.79176,191.49728 L 526.01184,201.59704 C 528.33286,207.15213 530.23184,212.88275 530.23184,214.33218 L 530.23184,216.96736 L 527.21201,215.10097 L 524.19215,213.23458 L 530.08185,224.7792 C 533.32115,231.1289 535.48796,236.32402 534.89703,236.32402 C 534.30605,236.32402 525.54613,232.57119 515.43048,227.98463 L 497.03836,219.64524 L 478.47687,205.59608 C 468.26803,197.86902 459.91538,192.19182 459.91538,192.98027 C 459.91538,193.76852 461.84644,198.14759 464.20657,202.71171 L 468.49779,211.01001 L 465.83307,211.01001 C 464.36744,211.01001 454.67458,205.31434 444.29344,198.35309 C 433.9123,191.39185 424.92761,185.69618 424.32755,185.69618 C 422.4691,185.69618 434.99626,209.30067 439.85134,214.9471 L 444.44578,220.29033 L 436.50754,218.35822 L 428.56934,216.42611 L 436.50754,226.54612 C 440.87357,232.11213 449.50855,240.53452 455.69641,245.26265 L 466.94701,253.85916 L 458.50907,251.91811 L 450.0711,249.97727 L 459.46841,259.72162 C 464.63691,265.08094 473.18037,271.78962 478.45384,274.62951 C 483.72731,277.4694 488.04197,280.85611 488.04197,282.15563 L 488.04197,284.5182 L 482.41665,282.73282 L 476.79133,280.94744 L 476.79133,283.52882 L 476.79133,286.11019 L 495.77673,295.26206 C 506.21874,300.29576 516.66074,305.35648 518.98117,306.50825 C 521.30163,307.66007 525.07581,312.27443 527.36813,316.76251 C 529.66056,321.25058 534.89373,330.61827 538.99744,337.57951 L 546.45877,350.23661 L 549.91914,365.18082 L 553.37951,380.12508 L 546.7758,387.1544 C 543.1438,391.02061 536.24752,396.60928 531.45075,399.57384 L 522.7295,404.96396 L 502.38917,409.24256 C 491.20202,411.59578 478.01811,413.54062 473.0916,413.56444 L 464.13435,413.60752 L 460.3379,416.01318 L 456.54148,418.41925 L 464.4399,430.73661 C 468.78405,437.51144 472.43837,443.31252 472.56061,443.62824 C 472.68286,443.94391 480.9625,443.04131 490.95988,441.62246 L 509.13688,439.04246 L 510.07442,441.75149 C 511.24045,445.12074 511.88701,445.04928 527.41918,439.83568 z"
         id="path2788"
         inkscape:export-filename="/home/elijah/Desktop/crows-in-flight.png"
         inkscape:export-xdpi="72"
         inkscape:export-ydpi="72"
         sodipodi:nodetypes="cccccccccccccccccccccccccccccccssccccccccccscccscccssccccccccccscccccccsscccccccccccccscccc" />
      <path
         style="fill:#000000;stroke:#000000;stroke-width:7.5;stroke-linecap:round;stroke-linejoin:round;stroke-miterlimit:4;stroke-dasharray:none;stroke-opacity:1"
         d="M 386.24023,514.60706 L 384.03848,511.68478 L 378.80241,509.62659 L 373.56629,509.05754 L 369.94144,496.7707 L 366.31658,484.48391 L 359.525,479.83023 L 349.62902,470.97482 L 346.5247,466.77285 L 346.87349,471.88556 L 347.22232,476.99828 L 341.49143,471.57346 L 335.76063,466.1486 L 337.44851,475.98705 L 339.13635,485.82574 L 345.55556,492.91664 L 352.51874,501.6531 L 343.34083,499.19304 L 336.83375,493.44655 L 323.64154,488.4909 L 324.16283,492.02472 L 314.30902,489.00831 L 312.82636,489.41355 L 316.97601,496.82771 L 310.44932,495.28157 L 305.64073,494.95895 L 310.76329,501.90033 L 322.58568,512.0676 L 327.06502,513.41276 L 331.54436,514.75817 L 338.77184,516.70535 L 342.52533,521.87805 L 337.53049,525.27486 L 331.02882,524.871 L 326.77472,529.01938 L 331.79655,532.35782 L 344.45218,530.82303 L 358.84485,530.28077 L 368.72288,525.36939 L 378.60091,520.45801 L 384.82471,519.46703 L 393.71549,519.49164 L 386.24023,514.60706 z"
         id="path2786"
         inkscape:export-filename="/home/elijah/Desktop/crows-in-flight.png"
         inkscape:export-xdpi="72"
         inkscape:export-ydpi="72"
         sodipodi:nodetypes="ccccccccccccccccccccccccccccccccccccccccccc" />
      <path
         style="fill:#000000;stroke:#000000;stroke-width:7.5;stroke-linecap:round;stroke-linejoin:round;stroke-miterlimit:4;stroke-dasharray:none;stroke-opacity:1"
         d="M 146.92581,851.54899 L 145.49016,849.22611 L 148.46155,850.36641 L 151.43294,851.50647 L 148.27665,839.97617 L 145.12037,828.44564 L 141.31605,824.24191 L 137.51178,820.03835 L 139.91141,813.76906 L 146.69764,809.25478 L 138.52428,806.76971 L 131.57913,809.19781 L 130.07229,803.64427 L 128.56545,798.09078 L 121.46935,790.23627 L 114.37325,782.38173 L 114.30718,784.86938 L 114.24115,787.35703 L 110.07178,782.39324 L 105.9024,777.42945 L 107.49991,782.39324 C 108.37853,785.12332 108.99218,789.02153 108.86354,791.05609 L 108.62969,794.75531 L 112.38712,799.99091 L 116.14454,805.22674 L 117.43357,812.5027 L 118.72256,819.77866 L 113.56962,823.15501 L 108.41669,826.53141 L 108.41669,829.32386 L 108.41669,832.11627 L 113.32208,834.35137 L 118.2275,836.58648 L 121.9546,831.98366 L 125.68169,827.38081 L 135.41524,840.54484 C 140.76875,847.78502 145.8717,853.74555 146.75517,853.79045 L 148.3615,853.87204 L 146.92581,851.54899 z"
         id="path2790"
         inkscape:export-filename="/home/elijah/Desktop/crows-in-flight.png"
         inkscape:export-xdpi="72"
         inkscape:export-ydpi="72"
         sodipodi:nodetypes="ccccccccccccccccccccccccccccccccccccccc" />
      <path
         style="fill:#000000;stroke:#000000;stroke-width:7.5;stroke-linecap:round;stroke-linejoin:round;stroke-miterlimit:4;stroke-dasharray:none;stroke-opacity:1"
         d="M 182.75567,538.63109 C 167.4234,529.83821 165.56349,527.33805 176.22279,529.84932 L 183.40898,531.54256 L 172.12396,521.70293 L 160.83898,511.86309 L 152.78045,497.58417 L 144.72195,483.30529 L 133.97721,478.6995 C 128.06762,476.16635 121.68688,472.23145 119.79779,469.95526 L 116.3631,465.81661 L 127.75008,457.2209 L 144.56096,448.94229 L 126.35778,446.0289 L 120.06538,443.36374 L 97.951096,444.95494 C 95.111797,445.15925 90.673075,426.24576 90.656718,415.24478 L 90.642147,405.45298 L 81.822112,395.6461 C 76.971117,390.25221 69.427763,380.18126 65.059156,373.26608 L 57.116313,360.69295 L 56.118663,365.42666 L 55.120974,370.16034 L 50.598717,362.32088 L 46.076421,354.48146 L 46.800797,366.64458 L 47.525172,378.80747 L 45.203636,377.37253 L 42.882061,375.93779 L 44.790093,386.11479 C 45.839515,391.71219 48.250302,399.23157 50.147417,402.82474 C 53.873555,409.8819 60.809815,432.66279 63.593888,446.98713 L 65.320796,455.87196 L 60.496521,459.39962 L 55.672286,462.92709 L 41.799408,462.92709 C 34.169343,462.92709 27.92653,463.56265 27.92653,464.33959 C 27.92653,465.80132 37.022974,479.31938 43.025824,486.77817 L 46.448157,491.03037 L 61.942255,487.12743 L 77.436354,483.2245 L 87.305691,485.075 L 97.175028,486.9255 L 119.38678,509.55052 L 141.59854,532.17554 L 153.0991,538.44424 L 164.59962,544.71274 L 162.74416,541.71063 C 160.34675,537.83151 161.28278,537.9191 172.55331,542.62815 L 181.9345,546.54796 L 189.20462,546.52355 L 196.4747,546.49893 L 182.75567,538.63109 z"
         id="path2792"
         inkscape:export-filename="/home/elijah/Desktop/crows-in-flight.png"
         inkscape:export-xdpi="72"
         inkscape:export-ydpi="72"
         sodipodi:nodetypes="ccccccccccccccsccccccccccccccscccccscccccccccccccccc" />
      <path
         style="fill:#000000;stroke:#000000;stroke-width:7.5;stroke-linecap:round;stroke-linejoin:round;stroke-miterlimit:4;stroke-dasharray:none;stroke-opacity:1"
         d="M 206.57018,472.26361 L 213.51951,469.58753 L 226.67214,469.43642 L 239.82481,469.28535 L 248.14768,466.34894 C 252.72529,464.73372 259.01682,461.59939 262.12887,459.38334 L 267.78714,455.35431 L 273.41444,454.46084 C 276.50947,453.9694 282.44443,453.03305 286.60328,452.37983 L 294.16486,451.19228 L 284.61779,446.34839 C 279.36687,443.68442 273.55984,441.50093 271.71322,441.49636 C 267.15373,441.48505 266.44035,439.89603 264.92227,426.36908 L 263.61085,414.68346 L 256.85639,406.31588 C 253.14141,401.71366 247.91264,394.11901 245.23688,389.43894 L 240.37187,380.92961 L 240.34797,384.40428 L 240.32407,387.87894 L 238.4773,387.87894 L 236.63053,387.87894 L 232.62417,377.45495 L 228.61785,367.03093 L 228.51438,375.46942 L 228.41092,383.90787 L 226.59087,383.90787 C 225.58984,383.90787 224.24313,382.79104 223.59815,381.42598 L 222.42554,378.94408 L 223.42986,387.21816 L 224.43421,395.49201 L 222.09652,396.27133 L 219.75882,397.05046 L 227.22651,409.14902 L 234.69415,421.24763 L 234.03445,425.60941 L 233.37471,429.97138 L 227.75785,425.53477 L 222.14103,421.09811 L 213.8592,423.61971 L 205.57742,426.14134 L 189.69324,427.45098 L 173.80906,428.76045 L 182.21182,431.45678 L 190.61462,434.15311 L 187.17565,436.76467 L 183.73668,439.37624 L 187.7623,439.43937 L 191.78795,439.50249 L 195.94907,442.41707 L 200.1102,445.3316 L 208.80036,446.66029 C 218.30852,448.11413 224.43989,450.66094 224.43989,453.15673 L 224.43989,454.75806 L 216.76381,457.05788 C 212.54198,458.32288 205.78808,459.35773 201.7552,459.35773 L 194.4227,459.35773 L 195.6498,461.34327 L 196.87693,463.32876 L 192.7887,463.32876 L 188.70047,463.32876 L 188.70047,464.9682 C 188.70047,466.70476 197.2861,475.34772 198.75606,475.0908 C 199.23169,475.00782 202.74804,473.73547 206.57018,472.26361 z"
         id="path2794"
         inkscape:export-filename="/home/elijah/Desktop/crows-in-flight.png"
         inkscape:export-xdpi="72"
         inkscape:export-ydpi="72" />
      <path
         style="fill:#000000;stroke:#000000;stroke-width:7.5;stroke-linecap:round;stroke-linejoin:round;stroke-miterlimit:4;stroke-dasharray:none;stroke-opacity:1"
         d="M 126.58079,655.82198 L 129.13253,647.30508 L 131.91048,650.97155 L 134.6884,654.63821 L 134.75157,648.23825 L 134.8147,641.83853 L 139.1673,632.87946 L 143.51995,623.92059 L 140.16007,616.87475 L 136.80023,606.24486 L 136.80023,602.66058 L 144.22328,597.87391 L 151.66766,595.32051 L 141.76338,591.29668 L 134.8147,591.24324 L 134.8147,589.49322 L 138.14921,582.09816 L 142.47629,576.70149 L 151.29557,571.87964 L 162.38894,563.57284 L 164.66307,560.8328 L 154.36637,565.29486 L 141.32912,569.26092 L 133.08461,573.09954 L 127.58071,575.94579 L 118.09482,587.04924 L 108.60893,598.15246 L 102.94796,601.07994 L 93.334546,604.00738 L 89.382063,604.00738 L 88.214803,605.896 L 87.047583,607.78465 L 95.223719,610.23419 L 103.39986,612.68393 L 107.24411,610.28303 L 111.0884,607.88232 L 114.97661,616.953 L 118.86477,626.02384 L 118.19261,637.89228 L 117.52044,649.76077 L 118.71029,648.57084 L 119.90014,647.38111 L 121.9646,655.8599 L 124.02906,664.33885 L 126.58079,655.82198 z"
         id="path2796"
         inkscape:export-filename="/home/elijah/Desktop/crows-in-flight.png"
         inkscape:export-xdpi="72"
         inkscape:export-ydpi="72"
         sodipodi:nodetypes="ccccccccccccccccccccccccccccccccccccccccccccc" />
      <path
         style="fill:#000000;stroke:#000000;stroke-width:7.5;stroke-linecap:round;stroke-linejoin:round;stroke-miterlimit:4;stroke-dasharray:none;stroke-opacity:1"
         d="M 136.90171,752.32587 L 136.63233,748.66953 L 132.26971,743.12338 C 129.87028,740.07302 127.9071,736.94762 127.9071,736.17803 C 127.9071,735.40863 125.67339,733.76124 122.94331,732.51732 L 117.97952,730.25581 L 117.97952,727.1725 L 119.38321,725.49316 L 122.50694,723.56738 L 126.33253,721.99265 L 119.55866,720.0949 L 113.66213,721.70675 L 108.10987,710.80228 L 105.18957,702.35446 L 97.297828,698.44994 C 92.95741,696.30238 89.122407,694.82913 88.775683,695.17582 C 88.42892,695.52266 90.390551,700.8834 93.134762,707.08853 C 95.878973,713.29371 98.12428,720.12011 98.12428,722.25854 L 97.071483,728.60267 L 90.999511,731.33076 L 84.225635,731.95342 L 84.225635,733.82044 C 84.225635,734.84715 85.195373,737.92709 87.238434,740.45008 L 91.654883,744.86192 L 97.062113,741.31893 L 102.46934,737.77618 L 107.13763,738.94785 L 111.80591,740.11947 L 120.97001,748.05084 L 130.13415,755.98241 L 133.6526,755.98241 L 137.17109,755.98241 L 136.90171,752.32587 z"
         id="path2798"
         inkscape:export-filename="/home/elijah/Desktop/crows-in-flight.png"
         inkscape:export-xdpi="72"
         inkscape:export-ydpi="72"
         sodipodi:nodetypes="cccscccccccccccsscccccccccccccccc" />
      <path
         style="fill:#000000;stroke:#000000;stroke-width:7.5;stroke-linecap:round;stroke-linejoin:round;stroke-miterlimit:4;stroke-dasharray:none;stroke-opacity:1"
         d="M 124.26267,878.21059 L 132.7367,871.85649 L 123.37845,871.23224 L 116.12584,873.41554 L 113.39465,867.78518 L 110.66342,862.15466 L 105.36704,858.81677 L 97.562804,856.13037 L 102.73265,864.28947 L 105.09504,870.34274 L 98.763215,865.64361 L 82.849896,862.66035 L 87.179476,867.26658 L 92.042898,870.96401 L 98.557436,877.64094 L 101.21192,882.73936 L 99.069125,885.37494 L 92.869151,890.14216 L 89.513796,891.0456 L 89.311352,893.1427 L 90.512597,894.88894 L 102.44878,891.48142 L 114.38496,888.07405 L 124.26267,878.21059 z"
         id="path2800"
         inkscape:export-filename="/home/elijah/Desktop/crows-in-flight.png"
         inkscape:export-xdpi="72"
         inkscape:export-ydpi="72"
         sodipodi:nodetypes="cccccccccccccccccccccccc" />
      <path
         style="fill:#000000;stroke:#000000;stroke-width:7.5;stroke-linecap:round;stroke-linejoin:round;stroke-miterlimit:4;stroke-dasharray:none;stroke-opacity:1"
         d="M 288.69339,735.85223 L 283.38872,727.76121 L 281.04129,723.30669 L 285.5834,726.33124 L 290.12551,729.35619 L 282.6086,717.49584 L 275.09172,705.63573 L 272.8305,696.93814 L 271.21801,677.73041 L 271.86679,667.21964 L 262.68427,658.37773 L 250.18499,644.44514 L 246.86823,639.35426 L 252.2236,635.8653 L 257.57898,632.37591 L 265.36635,631.59325 L 278.02639,632.32072 L 284.7907,632.59908 L 286.68237,631.36667 L 275.69127,623.10295 L 269.66853,620.98993 L 264.71121,616.22231 L 255.39323,613.40267 L 246.0752,610.58302 L 244.05668,607.48462 L 242.03819,604.38642 L 243.42167,588.88228 L 244.80519,573.37774 L 236.26177,555.00785 L 225.56483,530.56092 L 223.41135,524.48406 L 223.21359,529.10077 L 223.01584,533.71772 L 221.6401,531.62201 L 215.78423,515.98899 L 211.30402,502.45188 L 210.65031,510.35764 L 211.0571,519.99341 L 212.11752,529.16771 L 208.93579,521.79901 L 205.75421,521.87508 L 205.53593,528.37568 L 206.31017,541.82441 L 202.70242,534.93901 L 200.08721,535.00134 L 200.13938,541.79464 L 204.80369,569.99201 L 209.41579,591.39574 L 207.95847,606.20953 L 206.5011,621.02332 L 198.77579,624.27759 L 178.84503,629.65794 L 165.16031,632.74801 L 163.68098,633.71179 L 166.38263,638.63091 L 169.66303,650.25852 L 170.2417,656.96721 L 176.17689,657.28769 L 182.11205,657.60813 L 180.15625,658.92813 L 178.20042,660.24808 L 182.67761,660.23141 L 187.15485,660.21493 L 193.04744,656.42157 L 198.94008,652.62826 L 206.99278,654.32746 L 215.04548,656.02669 L 228.03168,672.78449 L 241.01791,689.54208 L 246.66642,705.18145 L 252.31488,720.82102 L 254.09789,721.19748 L 255.88082,721.57371 L 255.82182,717.21074 L 255.76282,712.84777 L 261.56807,721.68789 L 267.37328,730.52762 L 269.52112,727.56286 L 271.66903,724.59806 L 278.48162,732.11922 L 285.29425,739.64058 L 288.47245,739.56455 L 291.65057,739.48868 L 288.69339,735.85223 z"
         id="path2802"
         inkscape:export-filename="/home/elijah/Desktop/crows-in-flight.png"
         inkscape:export-xdpi="72"
         inkscape:export-ydpi="72"
         sodipodi:nodetypes="cccccccccccccccccccccccccccccccccccccccccccccccccccccccccccccccccccccccccccccccccccc" />
      <path
         style="fill:#000000;stroke:#000000;stroke-width:7.5;stroke-linecap:round;stroke-linejoin:round;stroke-miterlimit:4;stroke-dasharray:none;stroke-opacity:1"
         d="M 203.57453,806.45856 L 200.16534,799.7199 L 195.82012,793.01101 L 202.52904,796.3036 L 200.54585,791.71746 C 199.16555,790.8357 194.67152,785.92587 190.55908,780.8068 L 183.08187,771.4993 L 179.14233,770.24898 L 175.20275,768.9985 L 175.20275,766.2051 L 175.20275,763.41166 L 181.65571,759.9761 L 188.10866,756.54055 L 179.17381,754.76925 C 174.25965,753.79499 170.79031,755.15624 169.53407,754.79192 L 165.67088,751.67304 L 164.23225,743.09618 L 162.79359,734.51953 L 157.48688,728.45514 C 154.56818,725.11967 151.02237,719.59556 149.60725,716.17926 L 144.40234,706.45833 L 145.60403,718.00614 L 141.71729,712.00786 L 138.45841,705.70581 C 134.30646,697.67697 133.24688,698.75172 135.49357,708.71329 L 137.2609,716.54957 L 138.57629,723.52033 L 132.17125,715.57665 L 135.48901,725.89761 C 136.92775,729.5476 139.77313,736.33132 141.81206,740.97249 C 143.85099,745.61361 146.04143,752.02211 146.67969,755.21325 L 147.84012,761.01552 L 138.99353,762.34227 L 130.14697,763.66877 L 131.10674,773.34583 C 133.08219,777.22058 133.9757,778.74881 134.37904,779.95879 L 138.79712,782.15876 L 145.9471,776.70531 C 149.87957,773.70578 153.65125,771.25167 154.32861,771.25167 C 155.00594,771.25167 162.78307,778.40689 171.61108,787.15233 L 190.99581,806.21137 L 190.54141,800.95449 L 186.92866,794.11876 L 188.21535,796.20057 C 188.92305,797.3456 191.97472,799.68615 193.06674,799.68615 L 199.43882,804.24827 L 203.57453,806.45856 z"
         id="path2804"
         inkscape:export-filename="/home/elijah/Desktop/crows-in-flight.png"
         inkscape:export-xdpi="72"
         inkscape:export-ydpi="72"
         sodipodi:nodetypes="cccccccccccccccccccccccccccccsccccccccscccccccc" />
      <path
         style="fill:#000000;stroke:#000000;stroke-width:7.5;stroke-linecap:round;stroke-linejoin:round;stroke-miterlimit:4;stroke-dasharray:none;stroke-opacity:1"
         d="M 333.64535,397.40091 L 353.57999,393.5174 L 372.17511,395.11694 L 399.35256,398.38709 L 407.93494,400.05774 L 397.02932,389.88492 L 380.26755,378.78344 L 372.30577,370.13433 L 363.32054,365.17765 L 352.54296,362.66439 L 348.64507,360.1948 L 353.75504,325.57345 L 358.86494,290.95209 L 346.92495,267.1844 L 334.98488,243.4167 L 334.78378,237.80582 L 334.58273,232.19493 L 332.21593,237.91641 L 329.84921,243.63809 L 325.26506,233.00204 L 320.63715,217.26758 L 320.59332,212.16935 L 317.82017,216.46066 L 315.04701,220.75177 L 314.91222,232.19493 L 314.77743,243.63809 L 310.79073,238.37685 L 306.80406,233.11562 L 304.83206,246.26553 L 302.86015,259.41525 L 304.35075,265.11548 L 305.84139,270.81552 L 303.48682,270.81552 L 299.68929,267.2396 L 298.24638,263.66347 L 298.02051,273.053 L 297.79468,282.44234 L 302.08583,292.71265 L 306.37702,302.98296 L 306.36106,310.50075 L 303.05271,329.46169 L 299.76028,340.90484 L 293.45244,314.28414 L 287.14459,287.66347 L 278.03806,275.66357 L 260.301,246.49883 L 251.67039,229.33419 L 252.56143,244.21508 L 253.45248,259.09598 L 251.16064,256.79932 L 241.78279,237.62712 L 234.69681,220.75177 L 235.49225,240.06812 L 235.08264,259.37832 L 228.90255,254.86999 L 223.92757,250.36782 L 226.60754,262.29545 L 233.2843,283.78872 L 237.2811,293.35457 L 232.87568,291.6639 L 228.47019,289.97343 L 231.40593,295.41356 L 246.04269,320.83382 L 257.74367,340.81393 L 257.74367,349.98803 L 257.74367,359.16213 L 255.1508,360.76465 L 252.55794,362.36717 L 227.25811,354.03413 L 196.68552,343.60971 L 191.41268,341.51857 L 197.45885,353.36994 L 203.50501,365.22136 L 208.04415,365.22136 L 212.58324,365.22136 L 211.05758,369.19715 L 209.53196,373.17298 L 218.26112,374.91882 L 234.58048,376.66451 L 242.17076,376.66451 L 263.54594,386.96994 L 284.92112,397.27561 L 299.31593,399.28 L 313.7107,401.28459 L 333.64535,397.40091 z"
         id="path2806"
         inkscape:export-filename="/home/elijah/Desktop/crows-in-flight.png"
         inkscape:export-xdpi="72"
         inkscape:export-ydpi="72"
         sodipodi:nodetypes="ccccccccccccccccccccccccccccccccccccccccccccccccccccccccccccccccccccccccccccccccccccc" />
      <g
         id="g2808"
         style="fill:#000000;fill-opacity:1;stroke:#000000;stroke-width:4.78149176;stroke-linecap:round;stroke-linejoin:round;stroke-miterlimit:4;stroke-dasharray:none;stroke-opacity:1"
         transform="matrix(1.5685481,0,0,1.5685481,-453.82358,175.82695)"
         inkscape:export-filename="/home/elijah/Desktop/crows-in-flight.png"
         inkscape:export-xdpi="72.000000"
         inkscape:export-ydpi="72.000000">
        <path
           style="fill-rule:evenodd;stroke:#000000;stroke-width:4.78149176;stroke-linecap:round;stroke-linejoin:round;stroke-miterlimit:4;stroke-dasharray:none;stroke-opacity:1;display:block"
           d="M 319.71511,490.07402 L 317.66117,469.62194 L 317.30128,454.76097 L 324.07747,454.04119 L 324.79726,459.79945 L 329.47585,455.12086 L 339.19291,453.68129 L 343.15172,455.12086 L 342.43194,462.87132 L 337.39345,461.79165 L 333.32924,462.36236 L 329.66858,466.38291 L 327.00027,469.87642 L 327.97453,483.19242 L 328.43984,490.64473 L 319.71511,490.07402 z"
           id="path2810" />
        <path
           style="fill-rule:evenodd;stroke:#000000;stroke-width:4.78149176;stroke-linecap:round;stroke-linejoin:round;stroke-miterlimit:4;stroke-dasharray:none;stroke-opacity:1;display:block"
           d="M 346.18408,468.0211 L 343.9125,490.08622 L 353.90747,490.08622 L 353.90747,475.53779 L 353.90747,468.26358 L 346.18408,468.0211 z"
           id="path2812" />
        <path
           style="fill-rule:evenodd;stroke:#000000;stroke-width:4.78149176;stroke-linecap:round;stroke-linejoin:round;stroke-miterlimit:4;stroke-dasharray:none;stroke-opacity:1;display:block"
           d="M 380.92111,465.19783 L 383.80024,458.71978 L 378.40187,456.56043 L 372.6436,454.76097 L 363.6463,458.35989 L 358.96771,465.91761 L 360.40728,473.47534 L 369.40457,476.35447 L 377.32219,479.95339 L 376.76956,484.01761 L 372.74901,486.08963 L 364.36609,485.71166 L 360.40728,482.11274 L 356.80836,487.87101 L 361.48695,492.18971 L 375.88262,493.62928 L 383.44035,492.18971 L 384.52002,484.63198 L 385.23981,474.91491 L 376.24252,470.23631 L 369.76446,468.79675 L 369.40457,464.47805 L 373.72327,461.9588 L 380.92111,465.19783 z"
           id="path2814" />
        <path
           style="fill-rule:evenodd;stroke:#000000;stroke-width:4.78149176;stroke-linecap:round;stroke-linejoin:round;stroke-miterlimit:4;stroke-dasharray:none;stroke-opacity:1;display:block"
           d="M 395.69591,472.03577 L 405.41299,471.67588 L 416.56963,471.31599 L 416.20974,461.9588 L 410.45147,457.28021 L 397.13548,455.48075 L 389.21786,459.79945 L 387.4184,469.51653 L 387.4184,480.31328 L 393.17667,487.51112 L 406.85256,492.18971 L 415.48996,492.18971 L 418.72898,488.2309 L 414.77018,482.47263 L 411.17126,484.99187 L 400.7344,483.55231 L 396.77559,481.03307 L 394.61624,476.35447 L 395.69591,472.03577 z"
           id="path2816" />
        <path
           style="fill-rule:evenodd;stroke:#000000;stroke-width:4.78149176;stroke-linecap:round;stroke-linejoin:round;stroke-miterlimit:4;stroke-dasharray:none;stroke-opacity:1;display:block"
           d="M 420.16855,459.43956 L 419.80866,472.75556 L 421.60811,482.83252 L 426.6466,489.67047 L 430.60541,491.82982 L 440.32248,491.82982 L 447.52032,487.15122 L 449.31978,476.71436 L 449.67967,463.03848 L 449.67967,456.56043 L 442.48183,456.20054 L 442.48183,464.83794 L 441.76205,476.71436 L 439.6027,484.99187 L 435.284,486.07155 L 430.24552,483.55231 L 428.08617,477.79404 L 427.41005,465.96128 L 427.66453,458.40355 L 420.16855,459.43956 z"
           id="path2818" />
        <path
           style="fill-rule:evenodd;stroke:#000000;stroke-width:4.78149176;stroke-linecap:round;stroke-linejoin:round;stroke-miterlimit:4;stroke-dasharray:none;stroke-opacity:1;display:block"
           d="M 455.07804,456.56043 L 454.71815,474.19512 L 453.8493,489.80145 L 454.55099,491.82982 L 461.55609,491.17927 L 462.21413,472.37009 L 473.02896,471.39582 L 476.43514,467.88423 L 477.45307,460.20301 L 474.1523,455.12086 L 461.91598,453.68129 L 455.07804,456.56043 z"
           id="path2820" />
        <path
           style="fill-rule:evenodd;stroke:#000000;stroke-width:4.78149176;stroke-linecap:round;stroke-linejoin:round;stroke-miterlimit:4;stroke-dasharray:none;stroke-opacity:1;display:block"
           d="M 491.91049,490.39025 L 490.83081,474.55501 L 490.83081,458.35989 L 498.38854,458.35989 L 498.38854,464.83794 L 504.14681,459.07967 L 514.22378,457.28021 L 521.06172,462.67859 L 520.70183,475.99458 L 521.42161,490.39025 L 513.1441,489.67047 L 513.50399,475.63469 L 511.70453,467.71707 L 507.38583,468.79675 L 502.34735,470.23631 L 498.38854,475.2748 L 498.38854,483.9122 L 498.38854,490.39025 L 491.91049,490.39025 z"
           id="path2822" />
        <path
           style="fill-rule:evenodd;stroke:#000000;stroke-width:4.78149176;stroke-linecap:round;stroke-linejoin:round;stroke-miterlimit:4;stroke-dasharray:none;stroke-opacity:1;display:block"
           d="M 537.40592,475.33654 L 548.92246,474.61676 L 555.7604,473.53709 L 554.68073,463.46012 L 540.28506,455.90239 L 531.64766,460.94088 L 527.32895,469.21839 L 524.80971,480.73492 L 530.20809,491.17178 L 538.84549,492.97124 L 548.92246,492.61135 L 555.04062,488.29265 L 550.00213,481.8146 L 548.20267,483.97395 L 538.84549,486.1333 L 533.08722,480.37503 L 533.80701,477.136 L 537.40592,475.33654 z"
           id="path2824" />
        <path
           style="fill-rule:evenodd;stroke:#000000;stroke-width:4.78149176;stroke-linecap:round;stroke-linejoin:round;stroke-miterlimit:4;stroke-dasharray:none;stroke-opacity:1;display:block"
           d="M 559.50839,456.51676 L 566.13552,456.26228 L 565.92469,448.64281 L 573.12253,449.72248 L 573.88598,456.41136 L 581.61086,456.15687 L 581.61086,463.5911 L 573.37701,463.44203 L 573.48242,469.51653 L 573.48242,477.07426 L 573.48242,482.83252 L 574.96565,485.98422 L 580.61851,485.51143 L 581.67261,491.40818 L 583.1995,497.22819 L 571.99919,492.79659 L 566.28458,487.75811 L 564.84502,481.59628 L 564.80135,474.55501 L 565.41573,463.23121 L 559.44664,463.03848 L 559.50839,456.51676 z"
           id="path2826" />
        <path
           style="fill-rule:evenodd;stroke:#000000;stroke-width:4.78149176;stroke-linecap:round;stroke-linejoin:round;stroke-miterlimit:4;stroke-dasharray:none;stroke-opacity:1;display:block"
           d="M 477.34026,482.96852 L 476.35566,490.29889 L 483.57603,489.63249 L 482.26324,482.96852 L 477.34026,482.96852 z"
           id="path2828" />
      </g>
    </g>
  </g>
  <g
     inkscape:groupmode="layer"
     id="layer2"
     inkscape:label="top"
     style="display:none">
    <g
       id="g2740"
       transform="matrix(3.9702701,0,0,3.9702701,-3247.8218,-93.687233)"
       style="fill:#ffffff;fill-opacity:1;stroke:none;stroke-width:3.14840031;stroke-miterlimit:4;stroke-dasharray:none;stroke-opacity:1;display:inline">
      <path
         sodipodi:nodetypes="ccccccccccccccccccccccccccccccccccccccccccc"
         inkscape:export-ydpi="72"
         inkscape:export-xdpi="72"
         inkscape:export-filename="/home/elijah/Desktop/crows-in-flight.png"
         id="path2431"
         d="M 915.31859,153.21232 L 914.76403,152.47628 L 913.44521,151.95788 L 912.12638,151.81455 L 911.21338,148.71984 L 910.30038,145.62514 L 908.58977,144.45301 L 906.09725,142.22258 L 905.31536,141.16422 L 905.40321,142.45197 L 905.49107,143.73972 L 904.04762,142.37336 L 902.60419,141.00699 L 903.02932,143.48502 L 903.45444,145.96311 L 905.07126,147.74911 L 906.82509,149.94958 L 904.51343,149.32996 L 902.87448,147.88258 L 899.55173,146.63439 L 899.68303,147.52446 L 897.20113,146.76471 L 896.82769,146.86678 L 897.87287,148.7342 L 896.22898,148.34477 L 895.01783,148.26351 L 896.30806,150.01185 L 899.28579,152.5727 L 900.41401,152.91151 L 901.54223,153.25038 L 903.36263,153.74082 L 904.30803,155.04368 L 903.04997,155.89924 L 901.41238,155.79752 L 900.34089,156.84238 L 901.60575,157.68324 L 904.79335,157.29667 L 908.41846,157.16009 L 910.90646,155.92305 L 913.39446,154.68601 L 914.96206,154.43641 L 917.2014,154.44261 L 915.31859,153.21232 z"
         style="fill:#ffffff;fill-opacity:1;stroke:none;stroke-width:3.14840031;stroke-miterlimit:4;stroke-dasharray:none;stroke-opacity:1" />
      <path
         sodipodi:nodetypes="cccccccccccccccccccccccccccccccssccccccccccscccscccssccccccccccscccccccsscccccccccccccscccc"
         inkscape:export-ydpi="72"
         inkscape:export-xdpi="72"
         inkscape:export-filename="/home/elijah/Desktop/crows-in-flight.png"
         id="path2433"
         d="M 950.87762,134.3795 L 954.06555,133.30944 L 962.56671,132.77249 L 971.06786,132.23548 L 974.15252,130.64992 L 977.23719,129.06436 L 981.59103,125.02643 C 983.98566,122.80559 987.15592,120.06956 988.63608,118.94639 L 991.32727,116.90429 L 997.41466,114.61445 L 1003.502,112.32465 L 997.73924,110.60086 L 994.30651,110.26035 L 991.33326,109.16868 L 988.99329,109.57116 C 987.70631,109.79256 985.6636,110.17758 984.45396,110.42678 L 982.2546,110.87992 L 981.02226,107.80382 C 980.34447,106.11194 979.34173,102.38841 978.79393,99.529255 L 977.79795,94.330841 L 977.79795,90.897122 L 977.79795,87.463402 L 977.15713,85.777924 L 976.51633,84.092495 L 970.44385,79.680535 C 967.104,77.253962 962.73099,73.670813 960.72607,71.717933 L 957.08075,68.16729 L 957.51831,69.91068 C 957.75897,70.869567 958.16453,72.241585 958.41957,72.959675 L 958.88326,74.265229 L 956.29743,71.823953 C 954.87522,70.481291 952.86719,68.16424 951.83514,66.674999 C 950.80311,65.185759 949.82571,64.100297 949.66317,64.262829 C 949.37942,64.546584 950.4835,69.225897 951.39406,71.598809 L 951.83203,72.740132 L 950.64613,72.285043 L 949.46023,71.830004 L 950.52315,74.37385 C 951.10775,75.773023 951.58605,77.216405 951.58605,77.581476 L 951.58605,78.245205 L 950.82544,77.775113 L 950.06482,77.305022 L 951.54827,80.212789 C 952.36416,81.8121 952.90992,83.120606 952.76108,83.120606 C 952.61223,83.120606 950.40585,82.175371 947.858,81.020146 L 943.22554,78.919687 L 938.55042,75.381097 C 935.9791,73.434867 933.8753,72.004938 933.8753,72.203527 C 933.8753,72.402066 934.36168,73.505031 934.95613,74.654605 L 936.03697,76.744713 L 935.3658,76.744713 C 934.99665,76.744713 932.55529,75.310133 929.94057,73.556791 C 927.32585,71.803449 925.06286,70.368869 924.91172,70.368869 C 924.44363,70.368869 927.59887,76.314179 928.82173,77.736356 L 929.97894,79.082168 L 927.97952,78.595523 L 925.98011,78.108879 L 927.97952,80.657825 C 929.0792,82.059749 931.25411,84.181112 932.81266,85.371995 L 935.64637,87.537217 L 933.52109,87.048321 L 931.3958,86.559476 L 933.76272,89.013805 C 935.06452,90.363668 937.21638,92.053397 938.54462,92.768687 C 939.87286,93.483976 940.9596,94.336992 940.9596,94.664306 L 940.9596,95.259372 L 939.54274,94.809685 L 938.12588,94.359997 L 938.12588,95.010174 L 938.12588,95.66035 L 942.90777,97.96545 C 945.53782,99.233297 948.16787,100.50795 948.75232,100.79805 C 949.33678,101.08816 950.28739,102.25039 950.86476,103.38081 C 951.44216,104.51123 952.76025,106.87069 953.79386,108.62403 L 955.67316,111.812 L 956.54473,115.57603 L 957.4163,119.34007 L 955.75301,121.11056 C 954.83821,122.08435 953.10123,123.49198 951.89306,124.23867 L 949.69642,125.59629 L 944.57326,126.67395 C 941.75553,127.26666 938.43487,127.75651 937.19402,127.76251 L 934.93794,127.77336 L 933.98172,128.37928 L 933.02551,128.9853 L 935.0149,132.0877 C 936.10907,133.79409 937.02949,135.25522 937.06028,135.33474 C 937.09107,135.41425 939.17648,135.18691 941.69454,134.82954 L 946.27282,134.17971 L 946.50896,134.86204 C 946.80265,135.71066 946.9655,135.69266 950.87762,134.3795 z"
         style="fill:#ffffff;fill-opacity:1;stroke:none;stroke-width:3.14840031;stroke-miterlimit:4;stroke-dasharray:none;stroke-opacity:1" />
      <path
         sodipodi:nodetypes="ccccccccccccccccccccccccccccccccccccccc"
         inkscape:export-ydpi="72"
         inkscape:export-xdpi="72"
         inkscape:export-filename="/home/elijah/Desktop/crows-in-flight.png"
         id="path2435"
         d="M 855.04198,238.07857 L 854.68038,237.4935 L 855.42879,237.78071 L 856.1772,238.06786 L 855.38222,235.1637 L 854.58724,232.25948 L 853.62904,231.20068 L 852.67085,230.14192 L 853.27525,228.56286 L 854.98451,227.42584 L 852.92587,226.79992 L 851.17658,227.41149 L 850.79705,226.01271 L 850.41752,224.61394 L 848.63021,222.63561 L 846.8429,220.65727 L 846.82626,221.28384 L 846.80963,221.91041 L 845.75948,220.66017 L 844.70933,219.40993 L 845.1117,220.66017 C 845.333,221.3478 845.48756,222.32965 845.45516,222.8421 L 845.39626,223.77383 L 846.34265,225.09253 L 847.28904,226.41129 L 847.61371,228.2439 L 847.93837,230.07651 L 846.64049,230.92692 L 845.34261,231.77734 L 845.34261,232.48068 L 845.34261,233.18401 L 846.57814,233.74697 L 847.81368,234.30993 L 848.75243,233.15061 L 849.69118,231.99128 L 852.14279,235.30693 C 853.49119,237.13053 854.77648,238.63182 854.999,238.64313 L 855.40359,238.66368 L 855.04198,238.07857 z"
         style="fill:#ffffff;fill-opacity:1;stroke:none;stroke-width:3.14840031;stroke-miterlimit:4;stroke-dasharray:none;stroke-opacity:1" />
      <path
         sodipodi:nodetypes="ccccccccccccccsccccccccccccccscccccscccccccccccccccc"
         inkscape:export-ydpi="72"
         inkscape:export-xdpi="72"
         inkscape:export-filename="/home/elijah/Desktop/crows-in-flight.png"
         id="path2437"
         d="M 864.06652,159.2633 C 860.20475,157.04862 859.73629,156.4189 862.42107,157.05142 L 864.23107,157.4779 L 861.38869,154.99957 L 858.54632,152.52119 L 856.5166,148.92473 L 854.48689,145.32828 L 851.78059,144.16821 C 850.29213,143.53018 848.685,142.53909 848.20919,141.96578 L 847.34409,140.92337 L 850.21215,138.75835 L 854.44634,136.6732 L 849.86147,135.9394 L 848.27659,135.26812 L 842.70662,135.6689 C 841.99148,135.72036 840.87349,130.95658 840.86937,128.18574 L 840.8657,125.71946 L 838.64418,123.24938 C 837.42235,121.89081 835.52239,119.35422 834.42206,117.61248 L 832.42148,114.44566 L 832.1702,115.63795 L 831.91891,116.83023 L 830.77988,114.85569 L 829.64084,112.88116 L 829.82329,115.94471 L 830.00574,119.0082 L 829.42101,118.64678 L 828.83627,118.28541 L 829.31685,120.84871 C 829.58117,122.25854 830.18838,124.15246 830.66621,125.05748 C 831.60472,126.83498 833.35177,132.57285 834.053,136.18075 L 834.48796,138.41859 L 833.27286,139.30711 L 832.05777,140.19558 L 828.56358,140.19558 C 826.64178,140.19558 825.06939,140.35566 825.06939,140.55135 C 825.06939,140.91952 827.36053,144.32434 828.87248,146.203 L 829.73447,147.27401 L 833.637,146.29097 L 837.53953,145.30793 L 840.02534,145.77402 L 842.51115,146.24011 L 848.10567,151.93872 L 853.70019,157.63733 L 856.59686,159.21624 L 859.49352,160.7951 L 859.02618,160.03895 C 858.42234,159.06191 858.6581,159.08397 861.49683,160.27005 L 863.85969,161.25734 L 865.69083,161.25119 L 867.52196,161.24499 L 864.06652,159.2633 z"
         style="fill:#ffffff;fill-opacity:1;stroke:none;stroke-width:3.14840031;stroke-miterlimit:4;stroke-dasharray:none;stroke-opacity:1" />
      <path
         inkscape:export-ydpi="72"
         inkscape:export-xdpi="72"
         inkscape:export-filename="/home/elijah/Desktop/crows-in-flight.png"
         id="path2439"
         d="M 870.06473,142.54719 L 871.81507,141.87316 L 875.12785,141.8351 L 878.44064,141.79705 L 880.53694,141.05745 C 881.68991,140.65062 883.27457,139.86117 884.05841,139.30301 L 885.48357,138.28821 L 886.90093,138.06317 C 887.68048,137.93939 889.17533,137.70355 890.22283,137.53902 L 892.12738,137.23991 L 889.72274,136.01987 C 888.40018,135.34889 886.93755,134.79893 886.47244,134.79778 C 885.32403,134.79493 885.14435,134.3947 884.76199,130.98764 L 884.43168,128.04436 L 882.73042,125.9368 C 881.79472,124.77763 880.47774,122.86475 879.80379,121.68597 L 878.57843,119.54271 L 878.57241,120.41788 L 878.56639,121.29305 L 878.10124,121.29305 L 877.63609,121.29305 L 876.627,118.66754 L 875.61792,116.04202 L 875.59186,118.16744 L 875.5658,120.29285 L 875.10738,120.29285 C 874.85525,120.29285 874.51605,120.01155 874.3536,119.66773 L 874.05825,119.04261 L 874.31121,121.12662 L 874.56418,123.21057 L 873.97538,123.40686 L 873.38658,123.6031 L 875.26748,126.65039 L 877.14837,129.69769 L 876.98221,130.7963 L 876.81604,131.89496 L 875.40131,130.7775 L 873.98659,129.66003 L 871.90063,130.29515 L 869.81468,130.93028 L 865.8139,131.26014 L 861.81312,131.58996 L 863.92954,132.26909 L 866.04597,132.94822 L 865.17979,133.606 L 864.31361,134.26378 L 865.32755,134.27968 L 866.3415,134.29558 L 867.38957,135.02968 L 868.43764,135.76377 L 870.62645,136.09843 C 873.02129,136.46461 874.56561,137.10608 874.56561,137.7347 L 874.56561,138.13803 L 872.63222,138.71729 C 871.56886,139.03591 869.86774,139.29656 868.85197,139.29656 L 867.00512,139.29656 L 867.31419,139.79666 L 867.62327,140.29675 L 866.59356,140.29675 L 865.56385,140.29675 L 865.56385,140.70968 C 865.56385,141.14707 867.72633,143.32399 868.09657,143.25928 C 868.21637,143.23838 869.10204,142.91791 870.06473,142.54719 z"
         style="fill:#ffffff;fill-opacity:1;stroke:none;stroke-width:3.14840031;stroke-miterlimit:4;stroke-dasharray:none;stroke-opacity:1" />
      <path
         sodipodi:nodetypes="ccccccccccccccccccccccccccccccccccccccccccccc"
         inkscape:export-ydpi="72"
         inkscape:export-xdpi="72"
         inkscape:export-filename="/home/elijah/Desktop/crows-in-flight.png"
         id="path2441"
         d="M 849.91764,188.78041 L 850.56035,186.63524 L 851.26004,187.55872 L 851.95972,188.48225 L 851.97563,186.87028 L 851.99153,185.25837 L 853.08783,183.00183 L 854.18414,180.74534 L 853.33788,178.97069 L 852.49163,176.29332 L 852.49163,175.39054 L 854.36129,174.18491 L 856.23632,173.54178 L 853.74171,172.52829 L 851.99153,172.51483 L 851.99153,172.07405 L 852.8314,170.21144 L 853.92127,168.85217 L 856.1426,167.63768 L 858.93671,165.54543 L 859.5095,164.85529 L 856.91605,165.97916 L 853.63233,166.9781 L 851.55577,167.94494 L 850.16949,168.66183 L 847.78026,171.45848 L 845.39103,174.25507 L 843.96519,174.99242 L 841.54384,175.72976 L 840.54832,175.72976 L 840.25432,176.20545 L 839.96033,176.68115 L 842.01967,177.29812 L 844.07901,177.91514 L 845.04727,177.31042 L 846.01554,176.70575 L 846.99487,178.9904 L 847.97419,181.27509 L 847.80489,184.26442 L 847.63559,187.25376 L 847.93528,186.95405 L 848.23497,186.65439 L 848.75495,188.78996 L 849.27493,190.92557 L 849.91764,188.78041 z"
         style="fill:#ffffff;fill-opacity:1;stroke:none;stroke-width:3.14840031;stroke-miterlimit:4;stroke-dasharray:none;stroke-opacity:1" />
      <path
         sodipodi:nodetypes="cccscccccccccccsscccccccccccccccc"
         inkscape:export-ydpi="72"
         inkscape:export-xdpi="72"
         inkscape:export-filename="/home/elijah/Desktop/crows-in-flight.png"
         id="path2443"
         d="M 852.51719,213.08704 L 852.44934,212.16611 L 851.35052,210.76919 C 850.74617,210.00089 850.2517,209.21369 850.2517,209.01985 C 850.2517,208.82606 849.68909,208.41113 849.00146,208.09782 L 847.75122,207.52821 L 847.75122,206.75161 L 848.10477,206.32863 L 848.89155,205.84358 L 849.85511,205.44695 L 848.14896,204.96896 L 846.66379,205.37494 L 845.26533,202.62841 L 844.52979,200.50064 L 842.54208,199.5172 C 841.44885,198.97629 840.48292,198.60522 840.39559,198.69254 C 840.30825,198.7799 840.80233,200.13012 841.49352,201.69302 C 842.18471,203.25593 842.75024,204.97531 842.75024,205.51392 L 842.48507,207.11183 L 840.95571,207.79896 L 839.24956,207.95579 L 839.24956,208.42604 C 839.24956,208.68464 839.49381,209.46039 840.0084,210.09586 L 841.12078,211.20708 L 842.48271,210.3147 L 843.84464,209.42238 L 845.02045,209.71749 L 846.19626,210.01259 L 848.50444,212.01028 L 850.81263,214.00802 L 851.69883,214.00802 L 852.58504,214.00802 L 852.51719,213.08704 z"
         style="fill:#ffffff;fill-opacity:1;stroke:none;stroke-width:3.14840031;stroke-miterlimit:4;stroke-dasharray:none;stroke-opacity:1" />
      <path
         sodipodi:nodetypes="cccccccccccccccccccccccc"
         inkscape:export-ydpi="72"
         inkscape:export-xdpi="72"
         inkscape:export-filename="/home/elijah/Desktop/crows-in-flight.png"
         id="path2445"
         d="M 849.33377,244.79388 L 851.46814,243.19346 L 849.11106,243.03623 L 847.28433,243.58614 L 846.59642,242.16801 L 845.9085,240.74984 L 844.57449,239.90912 L 842.60882,239.23249 L 843.91096,241.28754 L 844.50598,242.81219 L 842.91117,241.62861 L 838.90305,240.87721 L 839.99355,242.03739 L 841.21851,242.96867 L 842.85934,244.6504 L 843.52793,245.93455 L 842.98822,246.59838 L 841.42662,247.79911 L 840.5815,248.02666 L 840.53051,248.55486 L 840.83307,248.99469 L 843.83946,248.13643 L 846.84585,247.27821 L 849.33377,244.79388 z"
         style="fill:#ffffff;fill-opacity:1;stroke:none;stroke-width:3.14840031;stroke-miterlimit:4;stroke-dasharray:none;stroke-opacity:1" />
      <path
         sodipodi:nodetypes="cccccccccccccccccccccccccccccccccccccccccccccccccccccccccccccccccccccccccccccccccccc"
         inkscape:export-ydpi="72"
         inkscape:export-xdpi="72"
         inkscape:export-filename="/home/elijah/Desktop/crows-in-flight.png"
         id="path2447"
         d="M 890.74927,208.93779 L 889.41317,206.89989 L 888.82192,205.77792 L 889.96595,206.53972 L 891.10998,207.30162 L 889.21668,204.31433 L 887.32339,201.3271 L 886.75385,199.13642 L 886.34771,194.29853 L 886.51112,191.65116 L 884.1983,189.42413 L 881.05008,185.9149 L 880.21468,184.63265 L 881.56355,183.75388 L 882.91242,182.875 L 884.87384,182.67787 L 888.06255,182.8611 L 889.76629,182.93121 L 890.24275,182.6208 L 887.4744,180.5394 L 885.95744,180.00719 L 884.70883,178.80636 L 882.36189,178.09617 L 880.01494,177.38598 L 879.50653,176.60558 L 878.99813,175.82523 L 879.34659,171.92017 L 879.69506,168.01501 L 877.54321,163.38815 L 874.84895,157.23065 L 874.30655,155.70006 L 874.25674,156.86288 L 874.20693,158.02576 L 873.86042,157.49791 L 872.38549,153.56039 L 871.25705,150.15077 L 871.0924,152.14201 L 871.19486,154.56899 L 871.46195,156.87974 L 870.66056,155.02377 L 869.85921,155.04293 L 869.80423,156.68025 L 869.99924,160.06761 L 869.09055,158.33337 L 868.43185,158.34907 L 868.44499,160.06011 L 869.6198,167.16224 L 870.78146,172.55324 L 870.4144,176.28442 L 870.04733,180.0156 L 868.10154,180.83526 L 863.08154,182.19042 L 859.63474,182.96872 L 859.26214,183.21147 L 859.94261,184.45046 L 860.76885,187.37913 L 860.9146,189.06886 L 862.40951,189.14958 L 863.90441,189.23029 L 863.4118,189.56276 L 862.91918,189.89522 L 864.04686,189.89102 L 865.17455,189.88687 L 866.65873,188.93143 L 868.14292,187.976 L 870.17117,188.40398 L 872.19942,188.83197 L 875.47028,193.05279 L 878.74115,197.27356 L 880.16385,201.21268 L 881.58654,205.15185 L 882.03563,205.24667 L 882.4847,205.34143 L 882.46984,204.24252 L 882.45498,203.14361 L 883.91716,205.37019 L 885.37933,207.59667 L 885.92031,206.84993 L 886.46131,206.10318 L 888.17721,207.99755 L 889.89312,209.89197 L 890.69362,209.87282 L 891.4941,209.85371 L 890.74927,208.93779 z"
         style="fill:#ffffff;fill-opacity:1;stroke:none;stroke-width:3.14840031;stroke-miterlimit:4;stroke-dasharray:none;stroke-opacity:1" />
      <path
         sodipodi:nodetypes="cccccccccccccccccccccccccccccsccccccccscccccccc"
         inkscape:export-ydpi="72"
         inkscape:export-xdpi="72"
         inkscape:export-filename="/home/elijah/Desktop/crows-in-flight.png"
         id="path2451"
         d="M 869.31021,226.72155 L 868.45153,225.02427 L 867.35709,223.33449 L 869.04688,224.1638 L 868.54737,223.00868 C 868.19971,222.78659 867.06779,221.54994 866.03198,220.26059 L 864.14868,217.91629 L 863.15642,217.60137 L 862.16415,217.28641 L 862.16415,216.58283 L 862.16415,215.87924 L 863.78947,215.01392 L 865.41479,214.1486 L 863.16435,213.70246 C 861.92661,213.45707 861.05278,213.79993 860.73637,213.70817 L 859.76334,212.92261 L 859.40099,210.76234 L 859.03863,208.60212 L 857.70202,207.07467 C 856.96688,206.23456 856.07379,204.84319 855.71736,203.98272 L 854.40639,201.53429 L 854.70906,204.44286 L 853.7301,202.93206 L 852.90928,201.34475 C 851.86352,199.32251 851.59664,199.59321 852.16252,202.10225 L 852.60766,204.07599 L 852.93897,205.83173 L 851.32572,203.83094 L 852.16137,206.4305 C 852.52375,207.34983 853.24042,209.05846 853.75397,210.22744 C 854.26752,211.39641 854.81923,213.01053 854.97999,213.81429 L 855.27227,215.27572 L 853.04406,215.60989 L 850.81586,215.944 L 851.0576,218.38138 C 851.55516,219.35732 851.78021,219.74224 851.8818,220.047 L 852.99459,220.60111 L 854.79547,219.22754 C 855.78595,218.47204 856.73593,217.85392 856.90654,217.85392 C 857.07714,217.85392 859.03598,219.65612 861.25951,221.85885 L 866.14198,226.65929 L 866.02753,225.33523 L 865.11758,223.6135 L 865.44166,224.13785 C 865.61991,224.42625 866.38854,225.01577 866.66359,225.01577 L 868.26854,226.16484 L 869.31021,226.72155 z"
         style="fill:#ffffff;fill-opacity:1;stroke:none;stroke-width:3.14840031;stroke-miterlimit:4;stroke-dasharray:none;stroke-opacity:1" />
      <path
         sodipodi:nodetypes="ccccccccccccccccccccccccccccccccccccccccccccccccccccccccccccccccccccccccccccccccccccc"
         inkscape:export-ydpi="72"
         inkscape:export-xdpi="72"
         inkscape:export-filename="/home/elijah/Desktop/crows-in-flight.png"
         id="path2453"
         d="M 902.07141,123.69137 L 907.09239,122.71322 L 911.77598,123.1161 L 918.62122,123.93976 L 920.78288,124.36055 L 918.03606,121.7983 L 913.81424,119.00215 L 911.80889,116.82368 L 909.54576,115.57523 L 906.83119,114.94221 L 905.84942,114.32019 L 907.13648,105.60004 L 908.42352,96.879888 L 905.41617,90.893471 L 902.4088,84.907054 L 902.35815,83.493828 L 902.30751,82.080603 L 901.71138,83.521684 L 901.11527,84.962815 L 899.96065,82.283892 L 898.79501,78.32082 L 898.78397,77.036719 L 898.08549,78.11758 L 897.38701,79.198391 L 897.35306,82.080603 L 897.31911,84.962815 L 896.31497,83.637656 L 895.31084,82.312498 L 894.81415,85.624594 L 894.31748,88.93664 L 894.69292,90.372369 L 895.06837,91.808049 L 894.47532,91.808049 L 893.51883,90.907374 L 893.1554,90.006648 L 893.09851,92.371609 L 893.04163,94.73652 L 894.12245,97.323325 L 895.20328,99.910129 L 895.19926,101.80365 L 894.36598,106.57938 L 893.53671,109.46159 L 891.94794,102.75658 L 890.35917,96.051577 L 888.06549,93.029137 L 883.59802,85.683355 L 881.42421,81.360062 L 881.64864,85.108143 L 881.87307,88.856224 L 881.29582,88.277761 L 878.9338,83.44882 L 877.14904,79.198391 L 877.34939,84.063639 L 877.24622,88.927338 L 875.68963,87.791816 L 874.43657,86.657845 L 875.11158,89.662081 L 876.79327,95.075636 L 877.79995,97.485006 L 876.69035,97.059173 L 875.58073,96.63339 L 876.32016,98.003607 L 880.00675,104.40626 L 882.9539,109.43869 L 882.9539,111.74939 L 882.9539,114.06009 L 882.30083,114.46372 L 881.64776,114.86735 L 875.27544,112.76849 L 867.57506,110.14287 L 866.24698,109.61617 L 867.76984,112.6012 L 869.2927,115.58624 L 870.43598,115.58624 L 871.57925,115.58624 L 871.19498,116.58763 L 870.81072,117.58903 L 873.00935,118.02876 L 877.11974,118.46845 L 879.03152,118.46845 L 884.41533,121.0641 L 889.79914,123.65981 L 893.42479,124.16466 L 897.05043,124.66956 L 902.07141,123.69137 z"
         style="fill:#ffffff;fill-opacity:1;stroke:none;stroke-width:3.14840031;stroke-miterlimit:4;stroke-dasharray:none;stroke-opacity:1" />
      <g
         inkscape:export-ydpi="72.000000"
         inkscape:export-xdpi="72.000000"
         inkscape:export-filename="/home/elijah/Desktop/crows-in-flight.png"
         transform="matrix(0.3950734,0,0,0.3950734,703.73001,67.883084)"
         style="fill:#ffffff;fill-opacity:1;stroke:none;stroke-width:7.96915293;stroke-miterlimit:4;stroke-dasharray:none;stroke-opacity:1"
         id="g2455">
        <path
           id="path2457"
           d="M 319.71511,490.07402 L 317.66117,469.62194 L 317.30128,454.76097 L 324.07747,454.04119 L 324.79726,459.79945 L 329.47585,455.12086 L 339.19291,453.68129 L 343.15172,455.12086 L 342.43194,462.87132 L 337.39345,461.79165 L 333.32924,462.36236 L 329.66858,466.38291 L 327.00027,469.87642 L 327.97453,483.19242 L 328.43984,490.64473 L 319.71511,490.07402 z"
           style="fill:#ffffff;fill-opacity:1;fill-rule:evenodd;stroke:none;stroke-width:7.96915293;stroke-linecap:butt;stroke-linejoin:miter;stroke-miterlimit:4;stroke-dasharray:none;stroke-opacity:1;display:block" />
        <path
           id="path2459"
           d="M 346.18408,468.0211 L 343.9125,490.08622 L 353.90747,490.08622 L 353.90747,475.53779 L 353.90747,468.26358 L 346.18408,468.0211 z"
           style="fill:#ffffff;fill-opacity:1;fill-rule:evenodd;stroke:none;stroke-width:7.96915293;stroke-linecap:butt;stroke-linejoin:miter;stroke-miterlimit:4;stroke-dasharray:none;stroke-opacity:1;display:block" />
        <path
           id="path2461"
           d="M 380.92111,465.19783 L 383.80024,458.71978 L 378.40187,456.56043 L 372.6436,454.76097 L 363.6463,458.35989 L 358.96771,465.91761 L 360.40728,473.47534 L 369.40457,476.35447 L 377.32219,479.95339 L 376.76956,484.01761 L 372.74901,486.08963 L 364.36609,485.71166 L 360.40728,482.11274 L 356.80836,487.87101 L 361.48695,492.18971 L 375.88262,493.62928 L 383.44035,492.18971 L 384.52002,484.63198 L 385.23981,474.91491 L 376.24252,470.23631 L 369.76446,468.79675 L 369.40457,464.47805 L 373.72327,461.9588 L 380.92111,465.19783 z"
           style="fill:#ffffff;fill-opacity:1;fill-rule:evenodd;stroke:none;stroke-width:7.96915293;stroke-linecap:butt;stroke-linejoin:miter;stroke-miterlimit:4;stroke-dasharray:none;stroke-opacity:1;display:block" />
        <path
           id="path2463"
           d="M 395.69591,472.03577 L 405.41299,471.67588 L 416.56963,471.31599 L 416.20974,461.9588 L 410.45147,457.28021 L 397.13548,455.48075 L 389.21786,459.79945 L 387.4184,469.51653 L 387.4184,480.31328 L 393.17667,487.51112 L 406.85256,492.18971 L 415.48996,492.18971 L 418.72898,488.2309 L 414.77018,482.47263 L 411.17126,484.99187 L 400.7344,483.55231 L 396.77559,481.03307 L 394.61624,476.35447 L 395.69591,472.03577 z"
           style="fill:#ffffff;fill-opacity:1;fill-rule:evenodd;stroke:none;stroke-width:7.96915293;stroke-linecap:butt;stroke-linejoin:miter;stroke-miterlimit:4;stroke-dasharray:none;stroke-opacity:1;display:block" />
        <path
           id="path2465"
           d="M 420.16855,459.43956 L 419.80866,472.75556 L 421.60811,482.83252 L 426.6466,489.67047 L 430.60541,491.82982 L 440.32248,491.82982 L 447.52032,487.15122 L 449.31978,476.71436 L 449.67967,463.03848 L 449.67967,456.56043 L 442.48183,456.20054 L 442.48183,464.83794 L 441.76205,476.71436 L 439.6027,484.99187 L 435.284,486.07155 L 430.24552,483.55231 L 428.08617,477.79404 L 427.41005,465.96128 L 427.66453,458.40355 L 420.16855,459.43956 z"
           style="fill:#ffffff;fill-opacity:1;fill-rule:evenodd;stroke:none;stroke-width:7.96915293;stroke-linecap:butt;stroke-linejoin:miter;stroke-miterlimit:4;stroke-dasharray:none;stroke-opacity:1;display:block" />
        <path
           id="path2467"
           d="M 455.07804,456.56043 L 454.71815,474.19512 L 453.8493,489.80145 L 454.55099,491.82982 L 461.55609,491.17927 L 462.21413,472.37009 L 473.02896,471.39582 L 476.43514,467.88423 L 477.45307,460.20301 L 474.1523,455.12086 L 461.91598,453.68129 L 455.07804,456.56043 z"
           style="fill:#ffffff;fill-opacity:1;fill-rule:evenodd;stroke:none;stroke-width:7.96915293;stroke-linecap:butt;stroke-linejoin:miter;stroke-miterlimit:4;stroke-dasharray:none;stroke-opacity:1;display:block" />
        <path
           id="path2469"
           d="M 491.91049,490.39025 L 490.83081,474.55501 L 490.83081,458.35989 L 498.38854,458.35989 L 498.38854,464.83794 L 504.14681,459.07967 L 514.22378,457.28021 L 521.06172,462.67859 L 520.70183,475.99458 L 521.42161,490.39025 L 513.1441,489.67047 L 513.50399,475.63469 L 511.70453,467.71707 L 507.38583,468.79675 L 502.34735,470.23631 L 498.38854,475.2748 L 498.38854,483.9122 L 498.38854,490.39025 L 491.91049,490.39025 z"
           style="fill:#ffffff;fill-opacity:1;fill-rule:evenodd;stroke:none;stroke-width:7.96915293;stroke-linecap:butt;stroke-linejoin:miter;stroke-miterlimit:4;stroke-dasharray:none;stroke-opacity:1;display:block" />
        <path
           id="path2471"
           d="M 537.40592,475.33654 L 548.92246,474.61676 L 555.7604,473.53709 L 554.68073,463.46012 L 540.28506,455.90239 L 531.64766,460.94088 L 527.32895,469.21839 L 524.80971,480.73492 L 530.20809,491.17178 L 538.84549,492.97124 L 548.92246,492.61135 L 555.04062,488.29265 L 550.00213,481.8146 L 548.20267,483.97395 L 538.84549,486.1333 L 533.08722,480.37503 L 533.80701,477.136 L 537.40592,475.33654 z"
           style="fill:#ffffff;fill-opacity:1;fill-rule:evenodd;stroke:none;stroke-width:7.96915293;stroke-linecap:butt;stroke-linejoin:miter;stroke-miterlimit:4;stroke-dasharray:none;stroke-opacity:1;display:block" />
        <path
           id="path2473"
           d="M 559.50839,456.51676 L 566.13552,456.26228 L 565.92469,448.64281 L 573.12253,449.72248 L 573.88598,456.41136 L 581.61086,456.15687 L 581.61086,463.5911 L 573.37701,463.44203 L 573.48242,469.51653 L 573.48242,477.07426 L 573.48242,482.83252 L 574.96565,485.98422 L 580.61851,485.51143 L 581.67261,491.40818 L 583.1995,497.22819 L 571.99919,492.79659 L 566.28458,487.75811 L 564.84502,481.59628 L 564.80135,474.55501 L 565.41573,463.23121 L 559.44664,463.03848 L 559.50839,456.51676 z"
           style="fill:#ffffff;fill-opacity:1;fill-rule:evenodd;stroke:none;stroke-width:7.96915293;stroke-linecap:butt;stroke-linejoin:miter;stroke-miterlimit:4;stroke-dasharray:none;stroke-opacity:1;display:block" />
        <path
           id="path2475"
           d="M 477.34026,482.96852 L 476.35566,490.29889 L 483.57603,489.63249 L 482.26324,482.96852 L 477.34026,482.96852 z"
           style="fill:#ffffff;fill-opacity:1;fill-rule:evenodd;stroke:none;stroke-width:7.96915293;stroke-linecap:butt;stroke-linejoin:miter;stroke-miterlimit:4;stroke-dasharray:none;stroke-opacity:1;display:block" />
      </g>
    </g>
  </g>
  <g
     inkscape:groupmode="layer"
     id="layer3"
     inkscape:label="black"
     style="display:inline">
    <g
       style="fill:#000000;fill-opacity:1;stroke:none;stroke-width:3.14840031;stroke-miterlimit:4;stroke-dasharray:none;stroke-opacity:1;display:inline"
       transform="matrix(3.9702701,0,0,3.9702701,-3247.8218,-93.687233)"
       id="g3693">
      <path
         style="fill:#000000;fill-opacity:1;stroke:none;stroke-width:3.14840031;stroke-miterlimit:4;stroke-dasharray:none;stroke-opacity:1"
         d="M 915.31859,153.21232 L 914.76403,152.47628 L 913.44521,151.95788 L 912.12638,151.81455 L 911.21338,148.71984 L 910.30038,145.62514 L 908.58977,144.45301 L 906.09725,142.22258 L 905.31536,141.16422 L 905.40321,142.45197 L 905.49107,143.73972 L 904.04762,142.37336 L 902.60419,141.00699 L 903.02932,143.48502 L 903.45444,145.96311 L 905.07126,147.74911 L 906.82509,149.94958 L 904.51343,149.32996 L 902.87448,147.88258 L 899.55173,146.63439 L 899.68303,147.52446 L 897.20113,146.76471 L 896.82769,146.86678 L 897.87287,148.7342 L 896.22898,148.34477 L 895.01783,148.26351 L 896.30806,150.01185 L 899.28579,152.5727 L 900.41401,152.91151 L 901.54223,153.25038 L 903.36263,153.74082 L 904.30803,155.04368 L 903.04997,155.89924 L 901.41238,155.79752 L 900.34089,156.84238 L 901.60575,157.68324 L 904.79335,157.29667 L 908.41846,157.16009 L 910.90646,155.92305 L 913.39446,154.68601 L 914.96206,154.43641 L 917.2014,154.44261 L 915.31859,153.21232 z"
         id="path3695"
         inkscape:export-filename="/home/elijah/Desktop/crows-in-flight.png"
         inkscape:export-xdpi="72"
         inkscape:export-ydpi="72"
         sodipodi:nodetypes="ccccccccccccccccccccccccccccccccccccccccccc" />
      <path
         style="fill:#000000;fill-opacity:1;stroke:none;stroke-width:3.14840031;stroke-miterlimit:4;stroke-dasharray:none;stroke-opacity:1"
         d="M 950.87762,134.3795 L 954.06555,133.30944 L 962.56671,132.77249 L 971.06786,132.23548 L 974.15252,130.64992 L 977.23719,129.06436 L 981.59103,125.02643 C 983.98566,122.80559 987.15592,120.06956 988.63608,118.94639 L 991.32727,116.90429 L 997.41466,114.61445 L 1003.502,112.32465 L 997.73924,110.60086 L 994.30651,110.26035 L 991.33326,109.16868 L 988.99329,109.57116 C 987.70631,109.79256 985.6636,110.17758 984.45396,110.42678 L 982.2546,110.87992 L 981.02226,107.80382 C 980.34447,106.11194 979.34173,102.38841 978.79393,99.529255 L 977.79795,94.330841 L 977.79795,90.897122 L 977.79795,87.463402 L 977.15713,85.777924 L 976.51633,84.092495 L 970.44385,79.680535 C 967.104,77.253962 962.73099,73.670813 960.72607,71.717933 L 957.08075,68.16729 L 957.51831,69.91068 C 957.75897,70.869567 958.16453,72.241585 958.41957,72.959675 L 958.88326,74.265229 L 956.29743,71.823953 C 954.87522,70.481291 952.86719,68.16424 951.83514,66.674999 C 950.80311,65.185759 949.82571,64.100297 949.66317,64.262829 C 949.37942,64.546584 950.4835,69.225897 951.39406,71.598809 L 951.83203,72.740132 L 950.64613,72.285043 L 949.46023,71.830004 L 950.52315,74.37385 C 951.10775,75.773023 951.58605,77.216405 951.58605,77.581476 L 951.58605,78.245205 L 950.82544,77.775113 L 950.06482,77.305022 L 951.54827,80.212789 C 952.36416,81.8121 952.90992,83.120606 952.76108,83.120606 C 952.61223,83.120606 950.40585,82.175371 947.858,81.020146 L 943.22554,78.919687 L 938.55042,75.381097 C 935.9791,73.434867 933.8753,72.004938 933.8753,72.203527 C 933.8753,72.402066 934.36168,73.505031 934.95613,74.654605 L 936.03697,76.744713 L 935.3658,76.744713 C 934.99665,76.744713 932.55529,75.310133 929.94057,73.556791 C 927.32585,71.803449 925.06286,70.368869 924.91172,70.368869 C 924.44363,70.368869 927.59887,76.314179 928.82173,77.736356 L 929.97894,79.082168 L 927.97952,78.595523 L 925.98011,78.108879 L 927.97952,80.657825 C 929.0792,82.059749 931.25411,84.181112 932.81266,85.371995 L 935.64637,87.537217 L 933.52109,87.048321 L 931.3958,86.559476 L 933.76272,89.013805 C 935.06452,90.363668 937.21638,92.053397 938.54462,92.768687 C 939.87286,93.483976 940.9596,94.336992 940.9596,94.664306 L 940.9596,95.259372 L 939.54274,94.809685 L 938.12588,94.359997 L 938.12588,95.010174 L 938.12588,95.66035 L 942.90777,97.96545 C 945.53782,99.233297 948.16787,100.50795 948.75232,100.79805 C 949.33678,101.08816 950.28739,102.25039 950.86476,103.38081 C 951.44216,104.51123 952.76025,106.87069 953.79386,108.62403 L 955.67316,111.812 L 956.54473,115.57603 L 957.4163,119.34007 L 955.75301,121.11056 C 954.83821,122.08435 953.10123,123.49198 951.89306,124.23867 L 949.69642,125.59629 L 944.57326,126.67395 C 941.75553,127.26666 938.43487,127.75651 937.19402,127.76251 L 934.93794,127.77336 L 933.98172,128.37928 L 933.02551,128.9853 L 935.0149,132.0877 C 936.10907,133.79409 937.02949,135.25522 937.06028,135.33474 C 937.09107,135.41425 939.17648,135.18691 941.69454,134.82954 L 946.27282,134.17971 L 946.50896,134.86204 C 946.80265,135.71066 946.9655,135.69266 950.87762,134.3795 z"
         id="path3697"
         inkscape:export-filename="/home/elijah/Desktop/crows-in-flight.png"
         inkscape:export-xdpi="72"
         inkscape:export-ydpi="72"
         sodipodi:nodetypes="cccccccccccccccccccccccccccccccssccccccccccscccscccssccccccccccscccccccsscccccccccccccscccc" />
      <path
         style="fill:#000000;fill-opacity:1;stroke:none;stroke-width:3.14840031;stroke-miterlimit:4;stroke-dasharray:none;stroke-opacity:1"
         d="M 855.04198,238.07857 L 854.68038,237.4935 L 855.42879,237.78071 L 856.1772,238.06786 L 855.38222,235.1637 L 854.58724,232.25948 L 853.62904,231.20068 L 852.67085,230.14192 L 853.27525,228.56286 L 854.98451,227.42584 L 852.92587,226.79992 L 851.17658,227.41149 L 850.79705,226.01271 L 850.41752,224.61394 L 848.63021,222.63561 L 846.8429,220.65727 L 846.82626,221.28384 L 846.80963,221.91041 L 845.75948,220.66017 L 844.70933,219.40993 L 845.1117,220.66017 C 845.333,221.3478 845.48756,222.32965 845.45516,222.8421 L 845.39626,223.77383 L 846.34265,225.09253 L 847.28904,226.41129 L 847.61371,228.2439 L 847.93837,230.07651 L 846.64049,230.92692 L 845.34261,231.77734 L 845.34261,232.48068 L 845.34261,233.18401 L 846.57814,233.74697 L 847.81368,234.30993 L 848.75243,233.15061 L 849.69118,231.99128 L 852.14279,235.30693 C 853.49119,237.13053 854.77648,238.63182 854.999,238.64313 L 855.40359,238.66368 L 855.04198,238.07857 z"
         id="path3699"
         inkscape:export-filename="/home/elijah/Desktop/crows-in-flight.png"
         inkscape:export-xdpi="72"
         inkscape:export-ydpi="72"
         sodipodi:nodetypes="ccccccccccccccccccccccccccccccccccccccc" />
      <path
         style="fill:#000000;fill-opacity:1;stroke:none;stroke-width:3.14840031;stroke-miterlimit:4;stroke-dasharray:none;stroke-opacity:1"
         d="M 864.06652,159.2633 C 860.20475,157.04862 859.73629,156.4189 862.42107,157.05142 L 864.23107,157.4779 L 861.38869,154.99957 L 858.54632,152.52119 L 856.5166,148.92473 L 854.48689,145.32828 L 851.78059,144.16821 C 850.29213,143.53018 848.685,142.53909 848.20919,141.96578 L 847.34409,140.92337 L 850.21215,138.75835 L 854.44634,136.6732 L 849.86147,135.9394 L 848.27659,135.26812 L 842.70662,135.6689 C 841.99148,135.72036 840.87349,130.95658 840.86937,128.18574 L 840.8657,125.71946 L 838.64418,123.24938 C 837.42235,121.89081 835.52239,119.35422 834.42206,117.61248 L 832.42148,114.44566 L 832.1702,115.63795 L 831.91891,116.83023 L 830.77988,114.85569 L 829.64084,112.88116 L 829.82329,115.94471 L 830.00574,119.0082 L 829.42101,118.64678 L 828.83627,118.28541 L 829.31685,120.84871 C 829.58117,122.25854 830.18838,124.15246 830.66621,125.05748 C 831.60472,126.83498 833.35177,132.57285 834.053,136.18075 L 834.48796,138.41859 L 833.27286,139.30711 L 832.05777,140.19558 L 828.56358,140.19558 C 826.64178,140.19558 825.06939,140.35566 825.06939,140.55135 C 825.06939,140.91952 827.36053,144.32434 828.87248,146.203 L 829.73447,147.27401 L 833.637,146.29097 L 837.53953,145.30793 L 840.02534,145.77402 L 842.51115,146.24011 L 848.10567,151.93872 L 853.70019,157.63733 L 856.59686,159.21624 L 859.49352,160.7951 L 859.02618,160.03895 C 858.42234,159.06191 858.6581,159.08397 861.49683,160.27005 L 863.85969,161.25734 L 865.69083,161.25119 L 867.52196,161.24499 L 864.06652,159.2633 z"
         id="path3701"
         inkscape:export-filename="/home/elijah/Desktop/crows-in-flight.png"
         inkscape:export-xdpi="72"
         inkscape:export-ydpi="72"
         sodipodi:nodetypes="ccccccccccccccsccccccccccccccscccccscccccccccccccccc" />
      <path
         style="fill:#000000;fill-opacity:1;stroke:none;stroke-width:3.14840031;stroke-miterlimit:4;stroke-dasharray:none;stroke-opacity:1"
         d="M 870.06473,142.54719 L 871.81507,141.87316 L 875.12785,141.8351 L 878.44064,141.79705 L 880.53694,141.05745 C 881.68991,140.65062 883.27457,139.86117 884.05841,139.30301 L 885.48357,138.28821 L 886.90093,138.06317 C 887.68048,137.93939 889.17533,137.70355 890.22283,137.53902 L 892.12738,137.23991 L 889.72274,136.01987 C 888.40018,135.34889 886.93755,134.79893 886.47244,134.79778 C 885.32403,134.79493 885.14435,134.3947 884.76199,130.98764 L 884.43168,128.04436 L 882.73042,125.9368 C 881.79472,124.77763 880.47774,122.86475 879.80379,121.68597 L 878.57843,119.54271 L 878.57241,120.41788 L 878.56639,121.29305 L 878.10124,121.29305 L 877.63609,121.29305 L 876.627,118.66754 L 875.61792,116.04202 L 875.59186,118.16744 L 875.5658,120.29285 L 875.10738,120.29285 C 874.85525,120.29285 874.51605,120.01155 874.3536,119.66773 L 874.05825,119.04261 L 874.31121,121.12662 L 874.56418,123.21057 L 873.97538,123.40686 L 873.38658,123.6031 L 875.26748,126.65039 L 877.14837,129.69769 L 876.98221,130.7963 L 876.81604,131.89496 L 875.40131,130.7775 L 873.98659,129.66003 L 871.90063,130.29515 L 869.81468,130.93028 L 865.8139,131.26014 L 861.81312,131.58996 L 863.92954,132.26909 L 866.04597,132.94822 L 865.17979,133.606 L 864.31361,134.26378 L 865.32755,134.27968 L 866.3415,134.29558 L 867.38957,135.02968 L 868.43764,135.76377 L 870.62645,136.09843 C 873.02129,136.46461 874.56561,137.10608 874.56561,137.7347 L 874.56561,138.13803 L 872.63222,138.71729 C 871.56886,139.03591 869.86774,139.29656 868.85197,139.29656 L 867.00512,139.29656 L 867.31419,139.79666 L 867.62327,140.29675 L 866.59356,140.29675 L 865.56385,140.29675 L 865.56385,140.70968 C 865.56385,141.14707 867.72633,143.32399 868.09657,143.25928 C 868.21637,143.23838 869.10204,142.91791 870.06473,142.54719 z"
         id="path3703"
         inkscape:export-filename="/home/elijah/Desktop/crows-in-flight.png"
         inkscape:export-xdpi="72"
         inkscape:export-ydpi="72" />
      <path
         style="fill:#000000;fill-opacity:1;stroke:none;stroke-width:3.14840031;stroke-miterlimit:4;stroke-dasharray:none;stroke-opacity:1"
         d="M 849.91764,188.78041 L 850.56035,186.63524 L 851.26004,187.55872 L 851.95972,188.48225 L 851.97563,186.87028 L 851.99153,185.25837 L 853.08783,183.00183 L 854.18414,180.74534 L 853.33788,178.97069 L 852.49163,176.29332 L 852.49163,175.39054 L 854.36129,174.18491 L 856.23632,173.54178 L 853.74171,172.52829 L 851.99153,172.51483 L 851.99153,172.07405 L 852.8314,170.21144 L 853.92127,168.85217 L 856.1426,167.63768 L 858.93671,165.54543 L 859.5095,164.85529 L 856.91605,165.97916 L 853.63233,166.9781 L 851.55577,167.94494 L 850.16949,168.66183 L 847.78026,171.45848 L 845.39103,174.25507 L 843.96519,174.99242 L 841.54384,175.72976 L 840.54832,175.72976 L 840.25432,176.20545 L 839.96033,176.68115 L 842.01967,177.29812 L 844.07901,177.91514 L 845.04727,177.31042 L 846.01554,176.70575 L 846.99487,178.9904 L 847.97419,181.27509 L 847.80489,184.26442 L 847.63559,187.25376 L 847.93528,186.95405 L 848.23497,186.65439 L 848.75495,188.78996 L 849.27493,190.92557 L 849.91764,188.78041 z"
         id="path3705"
         inkscape:export-filename="/home/elijah/Desktop/crows-in-flight.png"
         inkscape:export-xdpi="72"
         inkscape:export-ydpi="72"
         sodipodi:nodetypes="ccccccccccccccccccccccccccccccccccccccccccccc" />
      <path
         style="fill:#000000;fill-opacity:1;stroke:none;stroke-width:3.14840031;stroke-miterlimit:4;stroke-dasharray:none;stroke-opacity:1"
         d="M 852.51719,213.08704 L 852.44934,212.16611 L 851.35052,210.76919 C 850.74617,210.00089 850.2517,209.21369 850.2517,209.01985 C 850.2517,208.82606 849.68909,208.41113 849.00146,208.09782 L 847.75122,207.52821 L 847.75122,206.75161 L 848.10477,206.32863 L 848.89155,205.84358 L 849.85511,205.44695 L 848.14896,204.96896 L 846.66379,205.37494 L 845.26533,202.62841 L 844.52979,200.50064 L 842.54208,199.5172 C 841.44885,198.97629 840.48292,198.60522 840.39559,198.69254 C 840.30825,198.7799 840.80233,200.13012 841.49352,201.69302 C 842.18471,203.25593 842.75024,204.97531 842.75024,205.51392 L 842.48507,207.11183 L 840.95571,207.79896 L 839.24956,207.95579 L 839.24956,208.42604 C 839.24956,208.68464 839.49381,209.46039 840.0084,210.09586 L 841.12078,211.20708 L 842.48271,210.3147 L 843.84464,209.42238 L 845.02045,209.71749 L 846.19626,210.01259 L 848.50444,212.01028 L 850.81263,214.00802 L 851.69883,214.00802 L 852.58504,214.00802 L 852.51719,213.08704 z"
         id="path3707"
         inkscape:export-filename="/home/elijah/Desktop/crows-in-flight.png"
         inkscape:export-xdpi="72"
         inkscape:export-ydpi="72"
         sodipodi:nodetypes="cccscccccccccccsscccccccccccccccc" />
      <path
         style="fill:#000000;fill-opacity:1;stroke:none;stroke-width:3.14840031;stroke-miterlimit:4;stroke-dasharray:none;stroke-opacity:1"
         d="M 849.33377,244.79388 L 851.46814,243.19346 L 849.11106,243.03623 L 847.28433,243.58614 L 846.59642,242.16801 L 845.9085,240.74984 L 844.57449,239.90912 L 842.60882,239.23249 L 843.91096,241.28754 L 844.50598,242.81219 L 842.91117,241.62861 L 838.90305,240.87721 L 839.99355,242.03739 L 841.21851,242.96867 L 842.85934,244.6504 L 843.52793,245.93455 L 842.98822,246.59838 L 841.42662,247.79911 L 840.5815,248.02666 L 840.53051,248.55486 L 840.83307,248.99469 L 843.83946,248.13643 L 846.84585,247.27821 L 849.33377,244.79388 z"
         id="path3709"
         inkscape:export-filename="/home/elijah/Desktop/crows-in-flight.png"
         inkscape:export-xdpi="72"
         inkscape:export-ydpi="72"
         sodipodi:nodetypes="cccccccccccccccccccccccc" />
      <path
         style="fill:#000000;fill-opacity:1;stroke:none;stroke-width:3.14840031;stroke-miterlimit:4;stroke-dasharray:none;stroke-opacity:1"
         d="M 890.74927,208.93779 L 889.41317,206.89989 L 888.82192,205.77792 L 889.96595,206.53972 L 891.10998,207.30162 L 889.21668,204.31433 L 887.32339,201.3271 L 886.75385,199.13642 L 886.34771,194.29853 L 886.51112,191.65116 L 884.1983,189.42413 L 881.05008,185.9149 L 880.21468,184.63265 L 881.56355,183.75388 L 882.91242,182.875 L 884.87384,182.67787 L 888.06255,182.8611 L 889.76629,182.93121 L 890.24275,182.6208 L 887.4744,180.5394 L 885.95744,180.00719 L 884.70883,178.80636 L 882.36189,178.09617 L 880.01494,177.38598 L 879.50653,176.60558 L 878.99813,175.82523 L 879.34659,171.92017 L 879.69506,168.01501 L 877.54321,163.38815 L 874.84895,157.23065 L 874.30655,155.70006 L 874.25674,156.86288 L 874.20693,158.02576 L 873.86042,157.49791 L 872.38549,153.56039 L 871.25705,150.15077 L 871.0924,152.14201 L 871.19486,154.56899 L 871.46195,156.87974 L 870.66056,155.02377 L 869.85921,155.04293 L 869.80423,156.68025 L 869.99924,160.06761 L 869.09055,158.33337 L 868.43185,158.34907 L 868.44499,160.06011 L 869.6198,167.16224 L 870.78146,172.55324 L 870.4144,176.28442 L 870.04733,180.0156 L 868.10154,180.83526 L 863.08154,182.19042 L 859.63474,182.96872 L 859.26214,183.21147 L 859.94261,184.45046 L 860.76885,187.37913 L 860.9146,189.06886 L 862.40951,189.14958 L 863.90441,189.23029 L 863.4118,189.56276 L 862.91918,189.89522 L 864.04686,189.89102 L 865.17455,189.88687 L 866.65873,188.93143 L 868.14292,187.976 L 870.17117,188.40398 L 872.19942,188.83197 L 875.47028,193.05279 L 878.74115,197.27356 L 880.16385,201.21268 L 881.58654,205.15185 L 882.03563,205.24667 L 882.4847,205.34143 L 882.46984,204.24252 L 882.45498,203.14361 L 883.91716,205.37019 L 885.37933,207.59667 L 885.92031,206.84993 L 886.46131,206.10318 L 888.17721,207.99755 L 889.89312,209.89197 L 890.69362,209.87282 L 891.4941,209.85371 L 890.74927,208.93779 z"
         id="path3711"
         inkscape:export-filename="/home/elijah/Desktop/crows-in-flight.png"
         inkscape:export-xdpi="72"
         inkscape:export-ydpi="72"
         sodipodi:nodetypes="cccccccccccccccccccccccccccccccccccccccccccccccccccccccccccccccccccccccccccccccccccc" />
      <path
         style="fill:#000000;fill-opacity:1;stroke:none;stroke-width:3.14840031;stroke-miterlimit:4;stroke-dasharray:none;stroke-opacity:1"
         d="M 869.31021,226.72155 L 868.45153,225.02427 L 867.35709,223.33449 L 869.04688,224.1638 L 868.54737,223.00868 C 868.19971,222.78659 867.06779,221.54994 866.03198,220.26059 L 864.14868,217.91629 L 863.15642,217.60137 L 862.16415,217.28641 L 862.16415,216.58283 L 862.16415,215.87924 L 863.78947,215.01392 L 865.41479,214.1486 L 863.16435,213.70246 C 861.92661,213.45707 861.05278,213.79993 860.73637,213.70817 L 859.76334,212.92261 L 859.40099,210.76234 L 859.03863,208.60212 L 857.70202,207.07467 C 856.96688,206.23456 856.07379,204.84319 855.71736,203.98272 L 854.40639,201.53429 L 854.70906,204.44286 L 853.7301,202.93206 L 852.90928,201.34475 C 851.86352,199.32251 851.59664,199.59321 852.16252,202.10225 L 852.60766,204.07599 L 852.93897,205.83173 L 851.32572,203.83094 L 852.16137,206.4305 C 852.52375,207.34983 853.24042,209.05846 853.75397,210.22744 C 854.26752,211.39641 854.81923,213.01053 854.97999,213.81429 L 855.27227,215.27572 L 853.04406,215.60989 L 850.81586,215.944 L 851.0576,218.38138 C 851.55516,219.35732 851.78021,219.74224 851.8818,220.047 L 852.99459,220.60111 L 854.79547,219.22754 C 855.78595,218.47204 856.73593,217.85392 856.90654,217.85392 C 857.07714,217.85392 859.03598,219.65612 861.25951,221.85885 L 866.14198,226.65929 L 866.02753,225.33523 L 865.11758,223.6135 L 865.44166,224.13785 C 865.61991,224.42625 866.38854,225.01577 866.66359,225.01577 L 868.26854,226.16484 L 869.31021,226.72155 z"
         id="path3713"
         inkscape:export-filename="/home/elijah/Desktop/crows-in-flight.png"
         inkscape:export-xdpi="72"
         inkscape:export-ydpi="72"
         sodipodi:nodetypes="cccccccccccccccccccccccccccccsccccccccscccccccc" />
      <path
         style="fill:#000000;fill-opacity:1;stroke:none;stroke-width:3.14840031;stroke-miterlimit:4;stroke-dasharray:none;stroke-opacity:1"
         d="M 902.07141,123.69137 L 907.09239,122.71322 L 911.77598,123.1161 L 918.62122,123.93976 L 920.78288,124.36055 L 918.03606,121.7983 L 913.81424,119.00215 L 911.80889,116.82368 L 909.54576,115.57523 L 906.83119,114.94221 L 905.84942,114.32019 L 907.13648,105.60004 L 908.42352,96.879888 L 905.41617,90.893471 L 902.4088,84.907054 L 902.35815,83.493828 L 902.30751,82.080603 L 901.71138,83.521684 L 901.11527,84.962815 L 899.96065,82.283892 L 898.79501,78.32082 L 898.78397,77.036719 L 898.08549,78.11758 L 897.38701,79.198391 L 897.35306,82.080603 L 897.31911,84.962815 L 896.31497,83.637656 L 895.31084,82.312498 L 894.81415,85.624594 L 894.31748,88.93664 L 894.69292,90.372369 L 895.06837,91.808049 L 894.47532,91.808049 L 893.51883,90.907374 L 893.1554,90.006648 L 893.09851,92.371609 L 893.04163,94.73652 L 894.12245,97.323325 L 895.20328,99.910129 L 895.19926,101.80365 L 894.36598,106.57938 L 893.53671,109.46159 L 891.94794,102.75658 L 890.35917,96.051577 L 888.06549,93.029137 L 883.59802,85.683355 L 881.42421,81.360062 L 881.64864,85.108143 L 881.87307,88.856224 L 881.29582,88.277761 L 878.9338,83.44882 L 877.14904,79.198391 L 877.34939,84.063639 L 877.24622,88.927338 L 875.68963,87.791816 L 874.43657,86.657845 L 875.11158,89.662081 L 876.79327,95.075636 L 877.79995,97.485006 L 876.69035,97.059173 L 875.58073,96.63339 L 876.32016,98.003607 L 880.00675,104.40626 L 882.9539,109.43869 L 882.9539,111.74939 L 882.9539,114.06009 L 882.30083,114.46372 L 881.64776,114.86735 L 875.27544,112.76849 L 867.57506,110.14287 L 866.24698,109.61617 L 867.76984,112.6012 L 869.2927,115.58624 L 870.43598,115.58624 L 871.57925,115.58624 L 871.19498,116.58763 L 870.81072,117.58903 L 873.00935,118.02876 L 877.11974,118.46845 L 879.03152,118.46845 L 884.41533,121.0641 L 889.79914,123.65981 L 893.42479,124.16466 L 897.05043,124.66956 L 902.07141,123.69137 z"
         id="path3715"
         inkscape:export-filename="/home/elijah/Desktop/crows-in-flight.png"
         inkscape:export-xdpi="72"
         inkscape:export-ydpi="72"
         sodipodi:nodetypes="ccccccccccccccccccccccccccccccccccccccccccccccccccccccccccccccccccccccccccccccccccccc" />
      <g
         id="g3717"
         style="fill:#000000;fill-opacity:1;stroke:none;stroke-width:7.96915293;stroke-miterlimit:4;stroke-dasharray:none;stroke-opacity:1"
         transform="matrix(0.3950734,0,0,0.3950734,703.73001,67.883084)"
         inkscape:export-filename="/home/elijah/Desktop/crows-in-flight.png"
         inkscape:export-xdpi="72.000000"
         inkscape:export-ydpi="72.000000">
        <path
           style="fill:#000000;fill-opacity:1;fill-rule:evenodd;stroke:none;stroke-width:7.96915293;stroke-linecap:butt;stroke-linejoin:miter;stroke-miterlimit:4;stroke-dasharray:none;stroke-opacity:1;display:block"
           d="M 319.71511,490.07402 L 317.66117,469.62194 L 317.30128,454.76097 L 324.07747,454.04119 L 324.79726,459.79945 L 329.47585,455.12086 L 339.19291,453.68129 L 343.15172,455.12086 L 342.43194,462.87132 L 337.39345,461.79165 L 333.32924,462.36236 L 329.66858,466.38291 L 327.00027,469.87642 L 327.97453,483.19242 L 328.43984,490.64473 L 319.71511,490.07402 z"
           id="path3719" />
        <path
           style="fill:#000000;fill-opacity:1;fill-rule:evenodd;stroke:none;stroke-width:7.96915293;stroke-linecap:butt;stroke-linejoin:miter;stroke-miterlimit:4;stroke-dasharray:none;stroke-opacity:1;display:block"
           d="M 346.18408,468.0211 L 343.9125,490.08622 L 353.90747,490.08622 L 353.90747,475.53779 L 353.90747,468.26358 L 346.18408,468.0211 z"
           id="path3721" />
        <path
           style="fill:#000000;fill-opacity:1;fill-rule:evenodd;stroke:none;stroke-width:7.96915293;stroke-linecap:butt;stroke-linejoin:miter;stroke-miterlimit:4;stroke-dasharray:none;stroke-opacity:1;display:block"
           d="M 380.92111,465.19783 L 383.80024,458.71978 L 378.40187,456.56043 L 372.6436,454.76097 L 363.6463,458.35989 L 358.96771,465.91761 L 360.40728,473.47534 L 369.40457,476.35447 L 377.32219,479.95339 L 376.76956,484.01761 L 372.74901,486.08963 L 364.36609,485.71166 L 360.40728,482.11274 L 356.80836,487.87101 L 361.48695,492.18971 L 375.88262,493.62928 L 383.44035,492.18971 L 384.52002,484.63198 L 385.23981,474.91491 L 376.24252,470.23631 L 369.76446,468.79675 L 369.40457,464.47805 L 373.72327,461.9588 L 380.92111,465.19783 z"
           id="path3723" />
        <path
           style="fill:#000000;fill-opacity:1;fill-rule:evenodd;stroke:none;stroke-width:7.96915293;stroke-linecap:butt;stroke-linejoin:miter;stroke-miterlimit:4;stroke-dasharray:none;stroke-opacity:1;display:block"
           d="M 395.69591,472.03577 L 405.41299,471.67588 L 416.56963,471.31599 L 416.20974,461.9588 L 410.45147,457.28021 L 397.13548,455.48075 L 389.21786,459.79945 L 387.4184,469.51653 L 387.4184,480.31328 L 393.17667,487.51112 L 406.85256,492.18971 L 415.48996,492.18971 L 418.72898,488.2309 L 414.77018,482.47263 L 411.17126,484.99187 L 400.7344,483.55231 L 396.77559,481.03307 L 394.61624,476.35447 L 395.69591,472.03577 z"
           id="path3725" />
        <path
           style="fill:#000000;fill-opacity:1;fill-rule:evenodd;stroke:none;stroke-width:7.96915293;stroke-linecap:butt;stroke-linejoin:miter;stroke-miterlimit:4;stroke-dasharray:none;stroke-opacity:1;display:block"
           d="M 420.16855,459.43956 L 419.80866,472.75556 L 421.60811,482.83252 L 426.6466,489.67047 L 430.60541,491.82982 L 440.32248,491.82982 L 447.52032,487.15122 L 449.31978,476.71436 L 449.67967,463.03848 L 449.67967,456.56043 L 442.48183,456.20054 L 442.48183,464.83794 L 441.76205,476.71436 L 439.6027,484.99187 L 435.284,486.07155 L 430.24552,483.55231 L 428.08617,477.79404 L 427.41005,465.96128 L 427.66453,458.40355 L 420.16855,459.43956 z"
           id="path3727" />
        <path
           style="fill:#000000;fill-opacity:1;fill-rule:evenodd;stroke:none;stroke-width:7.96915293;stroke-linecap:butt;stroke-linejoin:miter;stroke-miterlimit:4;stroke-dasharray:none;stroke-opacity:1;display:block"
           d="M 455.07804,456.56043 L 454.71815,474.19512 L 453.8493,489.80145 L 454.55099,491.82982 L 461.55609,491.17927 L 462.21413,472.37009 L 473.02896,471.39582 L 476.43514,467.88423 L 477.45307,460.20301 L 474.1523,455.12086 L 461.91598,453.68129 L 455.07804,456.56043 z"
           id="path3729" />
        <path
           style="fill:#000000;fill-opacity:1;fill-rule:evenodd;stroke:none;stroke-width:7.96915293;stroke-linecap:butt;stroke-linejoin:miter;stroke-miterlimit:4;stroke-dasharray:none;stroke-opacity:1;display:block"
           d="M 491.91049,490.39025 L 490.83081,474.55501 L 490.83081,458.35989 L 498.38854,458.35989 L 498.38854,464.83794 L 504.14681,459.07967 L 514.22378,457.28021 L 521.06172,462.67859 L 520.70183,475.99458 L 521.42161,490.39025 L 513.1441,489.67047 L 513.50399,475.63469 L 511.70453,467.71707 L 507.38583,468.79675 L 502.34735,470.23631 L 498.38854,475.2748 L 498.38854,483.9122 L 498.38854,490.39025 L 491.91049,490.39025 z"
           id="path3731" />
        <path
           style="fill:#000000;fill-opacity:1;fill-rule:evenodd;stroke:none;stroke-width:7.96915293;stroke-linecap:butt;stroke-linejoin:miter;stroke-miterlimit:4;stroke-dasharray:none;stroke-opacity:1;display:block"
           d="M 537.40592,475.33654 L 548.92246,474.61676 L 555.7604,473.53709 L 554.68073,463.46012 L 540.28506,455.90239 L 531.64766,460.94088 L 527.32895,469.21839 L 524.80971,480.73492 L 530.20809,491.17178 L 538.84549,492.97124 L 548.92246,492.61135 L 555.04062,488.29265 L 550.00213,481.8146 L 548.20267,483.97395 L 538.84549,486.1333 L 533.08722,480.37503 L 533.80701,477.136 L 537.40592,475.33654 z"
           id="path3733" />
        <path
           style="fill:#000000;fill-opacity:1;fill-rule:evenodd;stroke:none;stroke-width:7.96915293;stroke-linecap:butt;stroke-linejoin:miter;stroke-miterlimit:4;stroke-dasharray:none;stroke-opacity:1;display:block"
           d="M 559.50839,456.51676 L 566.13552,456.26228 L 565.92469,448.64281 L 573.12253,449.72248 L 573.88598,456.41136 L 581.61086,456.15687 L 581.61086,463.5911 L 573.37701,463.44203 L 573.48242,469.51653 L 573.48242,477.07426 L 573.48242,482.83252 L 574.96565,485.98422 L 580.61851,485.51143 L 581.67261,491.40818 L 583.1995,497.22819 L 571.99919,492.79659 L 566.28458,487.75811 L 564.84502,481.59628 L 564.80135,474.55501 L 565.41573,463.23121 L 559.44664,463.03848 L 559.50839,456.51676 z"
           id="path3735" />
        <path
           style="fill:#000000;fill-opacity:1;fill-rule:evenodd;stroke:none;stroke-width:7.96915293;stroke-linecap:butt;stroke-linejoin:miter;stroke-miterlimit:4;stroke-dasharray:none;stroke-opacity:1;display:block"
           d="M 477.34026,482.96852 L 476.35566,490.29889 L 483.57603,489.63249 L 482.26324,482.96852 L 477.34026,482.96852 z"
           id="path3737" />
      </g>
    </g>
  </g>
</svg>
