<?xml version="1.0" encoding="UTF-8" standalone="no"?>
<svg
   xmlns:dc="http://purl.org/dc/elements/1.1/"
   xmlns:cc="http://creativecommons.org/ns#"
   xmlns:rdf="http://www.w3.org/1999/02/22-rdf-syntax-ns#"
   xmlns:svg="http://www.w3.org/2000/svg"
   xmlns="http://www.w3.org/2000/svg"
   xmlns:sodipodi="http://sodipodi.sourceforge.net/DTD/sodipodi-0.dtd"
   xmlns:inkscape="http://www.inkscape.org/namespaces/inkscape"
   width="128"
   height="128"
   viewBox="0 0 128 128"
   version="1.1"
   id="svg4"
   sodipodi:docname="linux.svg"
   inkscape:version="0.92.3 (2405546, 2018-03-11)">
  <metadata
     id="metadata10">
    <rdf:RDF>
      <cc:Work
         rdf:about="">
        <dc:format>image/svg+xml</dc:format>
        <dc:type
           rdf:resource="http://purl.org/dc/dcmitype/StillImage" />
        <dc:title></dc:title>
      </cc:Work>
    </rdf:RDF>
  </metadata>
  <defs
     id="defs8" />
  <sodipodi:namedview
     pagecolor="#ffffff"
     bordercolor="#666666"
     borderopacity="1"
     objecttolerance="10"
     gridtolerance="10"
     guidetolerance="10"
     inkscape:pageopacity="0"
     inkscape:pageshadow="2"
     inkscape:window-width="1140"
     inkscape:window-height="480"
     id="namedview6"
     showgrid="false"
     inkscape:zoom="1.489975"
     inkscape:cx="65.017942"
     inkscape:cy="52.387981"
     inkscape:window-x="67"
     inkscape:window-y="27"
     inkscape:window-maximized="0"
     inkscape:current-layer="svg4" />
  <path
     d="m 57.42179,33.689604 q -0.687448,0.0625 -0.968677,0.656201 -0.281229,0.593706 -0.531211,0.593706 -0.312476,0.06249 -0.312476,-0.312477 0,-0.749944 1.187411,-0.93743 z m 5.437092,0.874935 q -0.249981,0.06249 -0.718696,-0.40622 -0.468715,-0.468715 -1.093668,-0.281229 1.499888,-0.687448 1.99985,0.124991 0.187486,0.374972 -0.187486,0.562458 z M 40.923027,61.25004 q -0.249982,-0.06249 -0.374972,0.187486 -0.124991,0.249982 -0.281229,0.781192 -0.156239,0.53121 -0.343724,0.843687 -0.187486,0.312476 -0.624954,0.812439 -0.624953,0.687448 -0.06249,0.749943 0.249981,0.0625 0.781192,-0.437467 0.53121,-0.499962 0.781191,-1.124915 0.06249,-0.187486 0.124991,-0.437468 0.06249,-0.249981 0.12499,-0.374972 0.0625,-0.12499 0.09374,-0.281228 0.03125,-0.156239 0.03125,-0.249982 v -0.187486 l -0.06249,-0.156238 z m 53.433495,22.435819 q 0,-1.124916 -3.437243,-2.624803 0.249982,-0.93743 0.468715,-1.718622 0.218734,-0.781191 0.312477,-1.624878 0.09374,-0.843687 0.187486,-1.343649 0.09374,-0.499963 0.03125,-1.406145 -0.06249,-0.906182 -0.06249,-1.218658 0,-0.312477 -0.218734,-1.374897 -0.218733,-1.062421 -0.249981,-1.281154 -0.03125,-0.218734 -0.312476,-1.562383 -0.281229,-1.34365 -0.343725,-1.656126 -0.624953,-2.999775 -2.937279,-6.437018 -2.312327,-3.437242 -4.499663,-4.687148 1.499887,1.249906 3.562233,5.187111 5.437092,10.124241 3.374747,17.373698 -0.687449,2.499812 -3.124766,2.624803 -1.937355,0.249981 -2.40607,-1.156163 -0.468715,-1.406145 -0.499962,-5.218359 -0.03125,-3.812215 -0.718696,-6.686999 -0.562458,-2.437317 -1.218659,-4.312177 -0.656201,-1.874859 -1.218659,-2.843537 -0.562457,-0.968677 -0.968677,-1.531135 -0.40622,-0.562458 -0.812439,-0.93743 -0.40622,-0.374972 -0.468715,-0.437467 -0.874934,-3.87471 -1.937355,-6.437017 -1.06242,-2.56231 -1.843612,-3.49974 -0.781191,-0.93743 -1.46864,-2.062345 -0.687448,-1.124916 -0.937429,-2.499813 -0.249982,-1.312402 0.374972,-3.343499 0.624953,-2.031098 0.281229,-3.093519 -0.343725,-1.06242 -2.781042,-1.562383 -0.93743,-0.187485 -2.781042,-1.124915 -1.843611,-0.93743 -2.218583,-0.999925 -0.499963,-0.0625 -0.687449,-1.624878 -0.187486,-1.562383 0.499963,-3.187262 0.687448,-1.624878 2.249831,-1.687373 2.312327,-0.187486 3.187261,1.874859 0.874935,2.062346 0.249982,3.624729 -0.687449,1.187411 -0.124991,1.656126 0.562458,0.468714 1.874859,0.03125 0.812439,-0.249981 0.812439,-2.249831 V 30.31486 q -0.312476,-1.874859 -0.843686,-3.124766 -0.53121,-1.249906 -1.312402,-1.906107 -0.781191,-0.656201 -1.46864,-0.93743 -0.687448,-0.281228 -1.687373,-0.468714 -6.686999,0.499962 -5.562083,8.374372 0,0.93743 -0.0625,0.93743 -0.562458,-0.562458 -1.843612,-0.656201 -1.281154,-0.09374 -2.062345,0.03125 -0.781191,0.12499 -0.968677,-0.312477 0.0625,-3.562233 -0.999925,-5.624578 -1.062421,-2.062346 -2.81229,-2.124841 -1.687373,-0.0625 -2.593555,1.718621 -0.906182,1.781116 -1.031173,3.718471 -0.06249,0.93743 0.218734,2.312327 0.281229,1.374897 0.812439,2.343574 0.53121,0.968678 0.968677,0.843687 0.624953,-0.187486 0.999925,-0.874934 0.249981,-0.562458 -0.437467,-0.499963 -0.437467,0 -0.968677,-0.906182 -0.531211,-0.906182 -0.593706,-2.093593 -0.0625,-1.374897 0.562458,-2.312327 0.624953,-0.937429 2.124841,-0.874934 1.06242,0 1.687373,1.312401 0.624953,1.312402 0.593706,2.437318 -0.03125,1.124915 -0.09374,1.374897 -1.374897,0.937429 -1.937355,1.812364 -0.499963,0.749944 -1.718621,1.46864 -1.218659,0.718696 -1.281154,0.781191 -0.812439,0.874935 -0.968678,1.687374 -0.156238,0.812439 0.468715,1.124915 0.874935,0.499963 1.562383,1.218659 0.687449,0.718696 0.999925,1.187411 0.312477,0.468715 1.156163,0.812439 0.843687,0.343724 2.218584,0.40622 2.93728,0.12499 6.374522,-0.93743 0.124991,-0.06249 1.437393,-0.437467 1.312401,-0.374972 2.156088,-0.656201 0.843687,-0.281229 1.843612,-0.812439 0.999925,-0.53121 1.312402,-1.093668 0.562457,-0.874935 1.249906,-0.499963 0.312476,0.187486 0.406219,0.531211 0.09374,0.343724 -0.187486,0.749943 -0.281228,0.40622 -1.031172,0.593706 -1.249907,0.374972 -3.530986,1.343649 -2.281079,0.968678 -2.843536,1.218659 -2.749794,1.187411 -4.374673,1.437392 -1.562382,0.312477 -4.93713,-0.124991 -0.624953,-0.12499 -0.562457,0.124991 0.06249,0.249981 1.06242,1.187411 1.562383,1.437392 4.187186,1.374897 1.062421,-0.06249 2.249832,-0.437467 1.187411,-0.374972 2.249831,-0.874935 1.06242,-0.499962 2.093593,-1.093668 1.031173,-0.593705 1.874859,-1.06242 0.843687,-0.468715 1.531136,-0.749944 0.687448,-0.281229 1.093668,-0.156238 0.406219,0.124991 0.53121,0.687448 0,0.124991 -0.0625,0.281229 -0.0625,0.156239 -0.249982,0.312477 -0.187486,0.156238 -0.374972,0.281229 -0.187486,0.12499 -0.53121,0.312476 -0.343724,0.187486 -0.562458,0.281229 -0.218733,0.09374 -0.624953,0.312477 -0.406219,0.218733 -0.593705,0.281229 -1.749869,0.874934 -4.218434,2.749794 -2.468565,1.874861 -4.155939,2.6873 -1.687373,0.812439 -3.06227,0.06249 -1.312402,-0.687448 -3.937205,-4.562159 -1.374897,-1.937355 -1.562383,-1.374897 -0.0625,0.187486 -0.0625,0.624953 0,1.562383 -0.93743,3.530985 -0.93743,1.968604 -1.843612,3.468492 -0.906182,1.499888 -1.312401,3.624728 -0.40622,2.124841 0.718696,3.937205 -1.437392,0.374972 -3.905957,5.624579 -2.468565,5.249606 -2.968528,8.811839 -0.124991,1.124916 -0.09374,4.312177 0.03125,3.187261 -0.343724,3.687224 -0.499963,1.499887 -1.812364,0.187486 -1.99985,-1.937355 -2.249832,-5.87456 -0.12499,-1.749869 0.249982,-3.499738 0.249981,-1.187411 -0.0625,-1.124915 -0.12499,0.06249 -0.249981,0.312476 -2.249831,4.062196 0.624953,10.374223 0.312477,0.749943 1.562383,1.749868 1.249906,0.999925 1.499888,1.249907 1.249906,1.437392 6.499512,5.655826 5.249607,4.218434 5.812065,4.780891 0.999925,0.93743 1.093668,2.374822 0.09374,1.437388 -0.874935,2.687298 -0.968677,1.24991 -2.843536,1.43739 0.499962,0.93743 1.812364,2.78104 1.312401,1.84362 1.749869,3.37475 0.437467,1.53114 0.437467,4.40592 2.874784,-1.49989 0.437467,-5.74957 -0.249981,-0.49996 -0.656201,-0.99992 -0.406219,-0.49996 -0.593705,-0.74995 -0.187486,-0.24998 -0.124991,-0.37497 0.187486,-0.31247 0.812439,-0.5937 0.624953,-0.28123 1.249906,0.15623 2.874785,3.24976 10.374223,2.24984 8.311877,-0.93743 11.061671,-5.4371 1.437392,-2.37482 2.124841,-1.87486 0.749943,0.37498 0.624953,3.24976 -0.0625,1.56238 -1.437393,5.74957 -0.562457,1.43739 -0.374971,2.34357 0.187485,0.90619 1.499887,0.96868 0.187486,-1.18741 0.906182,-4.81214 0.718696,-3.62473 0.843687,-5.62458 0.124991,-1.3124 -0.40622,-4.593402 -0.53121,-3.281004 -0.468714,-6.062046 0.06249,-2.781041 1.437392,-4.40592 0.93743,-1.124915 3.187261,-1.124915 0.0625,-2.312327 2.156088,-3.312252 2.093593,-0.999925 4.530911,-0.656201 2.437317,0.343724 3.749719,1.406145 z M 55.109463,32.002231 q 0.187486,-1.062421 -0.156238,-1.87486 -0.343724,-0.812439 -0.718696,-0.93743 -0.562458,-0.12499 -0.562458,0.437468 0.124991,0.312476 0.312477,0.374972 0.624953,0 0.437467,0.937429 -0.187486,1.249907 0.499962,1.249907 0.187486,0 0.187486,-0.187486 z m 26.185538,12.311577 q -0.124991,-0.499963 -0.40622,-0.718696 -0.281229,-0.218734 -0.812439,-0.312477 -0.53121,-0.09374 -0.906182,-0.343724 -0.312477,-0.187486 -0.593706,-0.499963 -0.281229,-0.312476 -0.437467,-0.499962 -0.156238,-0.187486 -0.343724,-0.40622 -0.187486,-0.218733 -0.249981,-0.249981 -0.0625,-0.03125 -0.249982,0.09374 -0.874934,0.999925 0.437468,2.718546 1.312401,1.718621 2.437317,1.968603 0.562458,0.06249 0.906182,-0.499963 0.343724,-0.562458 0.218734,-1.249906 z M 70.170834,31.002306 q 0,-0.687449 -0.312476,-1.218659 -0.312477,-0.53121 -0.687449,-0.781191 -0.374972,-0.249982 -0.562457,-0.187486 -0.374972,0 -0.499963,0.12499 -0.124991,0.124991 0,0.249981 0.124991,0.124991 0.312477,0.187486 0.874934,0.249982 1.124915,1.937355 0,0.187486 0.499963,-0.12499 0.12499,-0.124991 0.12499,-0.187486 z m 3.374747,-14.561409 q 0,-0.124991 -0.156238,-0.312477 -0.156238,-0.187485 -0.562458,-0.437467 -0.406219,-0.249981 -0.593705,-0.374972 -0.93743,-0.937429 -1.499888,-0.937429 -0.562458,0.06249 -0.718696,0.468714 -0.156238,0.40622 -0.06249,0.81244 0.09374,0.406219 -0.03125,0.781191 -0.0625,0.249981 -0.374972,0.656201 -0.312476,0.406219 -0.374972,0.562458 -0.06249,0.156238 0.187486,0.53121 0.249982,0.187486 0.499963,0 0.249981,-0.187486 0.687448,-0.562458 0.437468,-0.374972 0.93743,-0.562458 0.06249,-0.0625 0.562458,-0.0625 0.499962,0 0.93743,-0.124991 0.437467,-0.12499 0.562457,-0.437467 z m 35.309849,83.806223 q 1.24991,0.74994 1.93736,1.53113 0.68745,0.78119 0.74994,1.49989 0.0625,0.7187 -0.15623,1.40614 -0.21874,0.68745 -0.96868,1.3749 -0.74995,0.68745 -1.46864,1.21866 -0.7187,0.53121 -1.87486,1.15616 -1.15617,0.62496 -1.9686,1.03118 -0.81244,0.40622 -1.99985,0.96867 -1.18742,0.56246 -1.68738,0.81244 -2.37482,1.18741 -5.343347,3.49974 -2.968528,2.31233 -4.718396,3.9997 -1.062421,0.99993 -4.249682,1.21866 -3.187261,0.21873 -5.562083,-0.90618 -1.124916,-0.56246 -1.843612,-1.46864 -0.718696,-0.90618 -1.031173,-1.59363 -0.312476,-0.68745 -1.374897,-1.21866 -1.06242,-0.53121 -2.937279,-0.59371 -2.749794,-0.0625 -8.124391,-0.0625 -1.187411,0 -3.562233,0.0937 -2.374822,0.0937 -3.624729,0.15624 -2.749794,0.0625 -4.968377,0.93743 -2.218584,0.87493 -3.3435,1.87486 -1.124915,0.99992 -2.718546,1.78111 -1.593631,0.7812 -3.343499,0.7187 -1.812365,-0.0625 -6.936981,-1.93735 -5.124615,-1.87486 -9.124316,-2.6873 -1.187411,-0.24998 -3.187261,-0.59371 -1.99985,-0.34372 -3.124766,-0.56246 -1.124915,-0.21873 -2.468564,-0.5937 -1.34365,-0.37497 -2.093593,-0.90618 -0.749944,-0.53121 -1.062421,-1.21866 -0.624953,-1.43739 0.437467,-4.15594 1.062421,-2.71855 1.124916,-3.406 0.06249,-0.99992 -0.249981,-2.49981 -0.312477,-1.499886 -0.624953,-2.656049 -0.312477,-1.156163 -0.281229,-2.281079 0.03125,-1.124916 0.656201,-1.687374 0.874934,-0.749943 3.562233,-0.874934 2.687298,-0.124991 3.749718,-0.749944 1.87486,-1.124915 2.624804,-2.187336 0.749943,-1.06242 0.749943,-3.187261 1.312402,4.562158 -1.99985,6.624504 -1.99985,1.249906 -5.187111,0.937429 -2.12484,-0.187486 -2.687298,0.624953 -0.812439,0.93743 0.312476,3.562233 0.124991,0.374972 0.499963,1.124918 0.374972,0.74994 0.53121,1.12491 0.156238,0.37498 0.281229,1.06242 0.124991,0.68745 0.0625,1.3749 0,0.93743 -1.06242,3.06227 -1.06242,2.12484 -0.874935,2.99978 0.187486,1.06242 2.312327,1.62488 1.249907,0.37497 5.280854,1.15616 4.030948,0.78119 6.218284,1.28115 1.499888,0.37497 4.624653,1.3749 3.124766,0.99992 5.155864,1.43739 2.031098,0.43747 3.46849,0.24998 2.687299,-0.37497 4.030948,-1.74987 1.343649,-1.37489 1.437392,-2.99977 0.09374,-1.62488 -0.468715,-3.65598 -0.562458,-2.03109 -1.187411,-3.24975 -0.624953,-1.21866 -1.249906,-2.28108 -7.561933,-11.874113 -10.561708,-15.123869 -4.249682,-4.624653 -7.061971,-2.499813 -0.687449,0.562458 -0.93743,-0.937429 -0.187486,-0.999926 -0.12499,-2.374822 0.06249,-1.812365 0.624953,-3.249757 0.562458,-1.437392 1.499887,-2.93728 0.93743,-1.499887 1.374897,-2.624803 0.499963,-1.312402 1.656126,-4.499663 1.156163,-3.187261 1.843612,-4.874634 0.687448,-1.687374 1.874859,-3.812215 1.187411,-2.12484 2.437318,-3.374747 6.874484,-8.936832 7.749419,-12.186588 -0.749944,-6.999476 -0.999925,-19.373548 -0.124991,-5.624579 1.499887,-9.46804 1.624879,-3.843462 6.624504,-6.530761 2.437317,-1.3124016 6.499513,-1.3124016 3.312251,-0.062495 6.624503,0.8436868 3.312252,0.906182 5.562083,2.5935558 3.562233,2.624803 5.718322,7.593181 2.156088,4.968377 1.843612,9.218059 -0.312477,5.937055 1.874859,13.373997 2.124841,7.061971 8.311877,13.623981 3.437242,3.687224 6.218284,10.186737 2.781042,6.499512 3.718472,11.936605 0.49996,3.06227 0.31248,5.280854 -0.18749,2.218584 -0.74995,3.46849 -0.56246,1.249906 -1.2499,1.374897 -0.624957,0.124991 -1.468644,1.187411 -0.843687,1.06242 -1.687374,2.218584 -0.843686,1.156163 -2.53106,2.093593 -1.687374,0.93743 -3.812214,0.874934 -1.124916,-0.06249 -1.968603,-0.312476 -0.843686,-0.249982 -1.406144,-0.843687 -0.562458,-0.593706 -0.843687,-0.968677 -0.281229,-0.374972 -0.718696,-1.281154 -0.437467,-0.906183 -0.562458,-1.218659 -1.374897,-2.312327 -2.562308,-1.87486 -1.187411,0.437468 -1.749869,3.062271 -0.562458,2.624803 0.437467,6.062046 1.249907,4.374671 0.0625,12.186591 -0.624954,4.06219 1.124915,6.28077 1.749869,2.21859 4.562158,2.06235 2.81229,-0.15624 5.312102,-2.21858 3.687224,-3.06227 5.593331,-4.15594 1.906107,-1.09367 6.468264,-2.65605 3.31225,-1.12492 4.81214,-2.28108 1.49989,-1.15617 1.15616,-2.15609 -0.34372,-0.99993 -1.56238,-1.78112 -1.21866,-0.78119 -3.21851,-1.46864 -2.06234,-0.687446 -3.09352,-2.999772 -1.03117,-2.312327 -0.93743,-4.530911 0.0937,-2.218583 0.96868,-2.968527 0.0625,1.937355 0.49996,3.530985 0.43747,1.593631 0.90619,2.53106 0.46871,0.93743 1.28115,1.781117 0.81244,0.843687 1.3124,1.187411 0.49996,0.343724 1.34365,0.812439 0.84369,0.468718 1.03117,0.593708 z"
     id="path2"
     inkscape:connector-curvature="0"
     style="stroke-width:0.06249532" />
</svg>
