<?xml version="1.0" encoding="UTF-8" standalone="no"?>
<svg
   xmlns:dc="http://purl.org/dc/elements/1.1/"
   xmlns:cc="http://creativecommons.org/ns#"
   xmlns:rdf="http://www.w3.org/1999/02/22-rdf-syntax-ns#"
   xmlns:svg="http://www.w3.org/2000/svg"
   xmlns="http://www.w3.org/2000/svg"
   xmlns:sodipodi="http://sodipodi.sourceforge.net/DTD/sodipodi-0.dtd"
   xmlns:inkscape="http://www.inkscape.org/namespaces/inkscape"
   version="1.1"
   width="128"
   height="128"
   id="svg6"
   sodipodi:docname="ubuntu.svg"
   inkscape:version="0.92.3 (2405546, 2018-03-11)">
  <metadata
     id="metadata12">
    <rdf:RDF>
      <cc:Work
         rdf:about="">
        <dc:format>image/svg+xml</dc:format>
        <dc:type
           rdf:resource="http://purl.org/dc/dcmitype/StillImage" />
        <dc:title />
      </cc:Work>
    </rdf:RDF>
  </metadata>
  <defs
     id="defs10" />
  <sodipodi:namedview
     pagecolor="#ffffff"
     bordercolor="#666666"
     borderopacity="1"
     objecttolerance="10"
     gridtolerance="10"
     guidetolerance="10"
     inkscape:pageopacity="0"
     inkscape:pageshadow="2"
     inkscape:window-width="1405"
     inkscape:window-height="762"
     id="namedview8"
     showgrid="false"
     fit-margin-top="0"
     fit-margin-left="0"
     fit-margin-right="0"
     fit-margin-bottom="0"
     inkscape:zoom="4.56"
     inkscape:cx="44.02079"
     inkscape:cy="50.71015"
     inkscape:window-x="67"
     inkscape:window-y="27"
     inkscape:window-maximized="0"
     inkscape:current-layer="logo" />
  <g
     id="logo"
     transform="matrix(0.73333333,0,0,0.73333333,-9.8211945,67.49443)">
    <path
       id="circle-of-friends"
       d="m 141.96171,-54.798377 c 6.74985,3.898032 15.37853,1.58593 19.27386,-5.161884 3.89734,-6.750525 1.58727,-15.378531 -5.16325,-19.275881 -6.74918,-3.895992 -15.37718,-1.584569 -19.27451,5.165956 -3.89599,6.747812 -1.58459,15.37582 5.1639,19.271809 z m -28.88433,91.259554 c -6.20606,0 -12.0873,-1.3798 -17.366503,-3.835648 l -9.806438,17.573335 c 8.191342,4.056011 17.413311,6.347772 27.172941,6.347772 5.67584,0 11.16387,-0.786524 16.37933,-2.230738 0.92279,-5.66838 4.28858,-10.892647 9.65454,-13.991272 5.35648,-3.092518 11.55576,-3.398992 16.92174,-1.370987 10.43565,-10.261392 17.2262,-24.222151 18.21475,-39.76951434 L 154.13381,-1.1087776 C 152.28278,19.951005 134.61519,36.461177 113.07738,36.461177 Z m 0,-82.453222 c 21.53781,0 39.2054,16.513561 41.05643,37.5706428 l 20.11393,-0.2935787 c -0.98993,-15.5460031 -7.78046,-29.5067621 -18.21744,-39.7674781 -5.36532,2.026649 -11.56392,1.719497 -16.92107,-1.373702 -5.36532,-3.097267 -8.73041,-8.320856 -9.65319,-13.989914 -5.21479,-1.442857 -10.70282,-2.230057 -16.37866,-2.230057 -9.75963,0 -18.980894,2.291082 -27.171591,6.348448 l 9.805763,17.571298 c 5.278518,-2.455845 11.159768,-3.835648 17.365828,-3.835648 z M 71.851477,-4.7654318 c 0,-13.9478772 6.931548,-26.2671082 17.529926,-33.7268572 l -10.31766,-17.28449 c -12.350425,8.252373 -21.538489,20.866551 -25.354485,35.642309 4.458091,3.633593 7.306524,9.167042 7.306524,15.3703913 0,6.2026749 -2.849106,11.736124 -7.307201,15.3690407 3.815322,14.776432 13.003386,27.390615 25.354486,35.642985 L 89.381403,28.962782 C 78.783025,21.503709 71.851477,9.1844773 71.851477,-4.7654318 Z M 141.96377,45.266832 c -6.75055,3.897347 -9.06195,12.524677 -5.16529,19.272488 3.89736,6.750523 12.52466,9.063303 19.27519,5.165956 6.74849,-3.896673 9.0606,-12.524677 5.16326,-19.274523 -3.89601,-6.747135 -12.5247,-9.059916 -19.27316,-5.163921 z M 41.196128,-18.876715 c -7.796076,0 -14.113335,6.316581 -14.113335,14.1126363 0,7.7940235 6.317259,14.1112852 14.113335,14.1112852 7.793346,0 14.111282,-6.3172617 14.111282,-14.1112852 0,-7.7960553 -6.317936,-14.1126363 -14.111282,-14.1126363"
       style="fill:#000000;fill-opacity:1;fill-rule:nonzero;stroke:none;stroke-width:2.34910035"
       inkscape:connector-curvature="0" />
  </g>
</svg>
